<svg width="126" height="67" viewBox="0 0 126 67" fill="none" xmlns="http://www.w3.org/2000/svg">
<path d="M122.82 1.72635C122.668 0.632183 121.659 -0.13224 120.565 0.0189773L102.734 2.48313C101.64 2.63435 100.875 3.64393 101.027 4.7381C101.178 5.83227 102.187 6.59669 103.282 6.44547L119.131 4.25511L121.321 20.1045C121.473 21.1986 122.482 21.9631 123.576 21.8118C124.67 21.6606 125.435 20.6511 125.284 19.5569L122.82 1.72635ZM0.186325 63.9112L-0.000382662 65.9025C27.2578 68.4583 55.207 56.2368 77.513 41.8229C99.8397 27.3955 116.896 10.5204 122.433 3.20745L120.838 2.00015L119.244 0.792847C114.044 7.6602 97.3628 24.2336 75.342 38.4633C53.3004 52.7064 26.292 64.3502 0.373033 61.92L0.186325 63.9112Z" fill="#FF805E"/>
</svg>
