<svg width="17" height="38" viewBox="0 0 17 38" fill="none" xmlns="http://www.w3.org/2000/svg">
<path d="M14.977 9.96758e-05C15.4473 0.169942 15.9175 0.339783 16.3878 0.509625C16.2426 1.15707 16.0934 1.8031 15.9404 2.44772C14.6101 8.04991 12.9838 13.5452 11.0616 18.9336L10.9979 19.0891C10.9136 19.2745 10.829 19.4596 10.744 19.6446C8.27055 25.0281 5.4904 30.2707 2.40357 35.3724C2.06059 35.9392 1.71382 36.5043 1.36327 37.0677C0.908932 36.859 0.454592 36.6502 0.000253635 36.4415C0.19936 35.8085 0.402255 35.1773 0.608931 34.5478C2.46904 28.8825 4.63583 23.3581 7.1093 17.9746C7.1943 17.7896 7.27965 17.6048 7.36537 17.4201L7.30168 17.5757C9.26607 12.2025 11.5264 6.93622 14.0828 1.77684C14.3769 1.18318 14.675 0.590933 14.977 9.96758e-05Z" fill="#FF805E"/>
</svg>
