<svg width="25" height="37" viewBox="0 0 25 37" fill="none" xmlns="http://www.w3.org/2000/svg">
<path d="M0.000423431 35.3372C1.25535 35.7877 2.51027 36.2382 3.7652 36.6887C3.97785 36.0346 4.19728 35.3831 4.42374 34.7334C8.49444 23.0386 14.8351 12.0613 23.0446 2.60077C23.2375 2.3783 23.4314 2.15663 23.6264 1.93575C23.8943 1.63246 24.1621 1.32918 24.43 1.02589C24.0652 0.683926 23.7004 0.341953 23.3357 -1.52588e-05C23.0503 0.286831 22.7649 0.573673 22.4795 0.860519C22.2684 1.07275 22.0584 1.2859 21.8492 1.49996C12.9497 10.6021 5.75142 21.4633 0.804951 33.3478C0.529867 34.0079 0.261763 34.6709 0.000423431 35.3372Z" fill="#FF805E"/>
</svg>
