<svg width="19" height="19" viewBox="0 0 19 19" fill="none" xmlns="http://www.w3.org/2000/svg">
<path d="M9.578 2.2898C4.8037 0.662208 2.4166 -0.151582 1.1326 1.13237C-0.151295 2.41632 0.662504 4.80347 2.29 9.57776L3.3984 12.829C4.6483 16.4956 5.2733 18.3289 6.3036 18.4806C6.5805 18.5214 6.8672 18.4969 7.1413 18.4089C8.1605 18.0817 8.6993 16.1487 9.7769 12.2828C10.0159 11.4253 10.1354 10.9965 10.4076 10.669C10.4866 10.574 10.5742 10.4864 10.6692 10.4074C10.9967 10.1352 11.4255 10.0157 12.283 9.77666C16.1489 8.69906 18.0819 8.16026 18.4091 7.14103C18.4971 6.867 18.5216 6.58029 18.4808 6.30331C18.3291 5.27308 16.4958 4.6481 12.8292 3.39814L9.578 2.2898Z" fill="#7F4EF0" stroke="white"/>
</svg>
