<svg width="19" height="19" viewBox="0 0 19 19" fill="none" xmlns="http://www.w3.org/2000/svg">
<path d="M9.422 2.2898C14.1963 0.662208 16.5834 -0.151582 17.8674 1.13237C19.1513 2.41632 18.3375 4.80347 16.71 9.57776L15.6016 12.829C14.3517 16.4956 13.7267 18.3289 12.6964 18.4806C12.4195 18.5214 12.1328 18.4969 11.8587 18.4089C10.8395 18.0817 10.3007 16.1487 9.2231 12.2828C8.9841 11.4253 8.8646 10.9965 8.5924 10.669C8.5134 10.574 8.4258 10.4864 8.3308 10.4074C8.0033 10.1352 7.5745 10.0157 6.71705 9.77666C2.85111 8.69906 0.918136 8.16026 0.590896 7.14103C0.502916 6.867 0.478367 6.58029 0.519157 6.30331C0.670877 5.27308 2.50419 4.6481 6.1708 3.39814L9.422 2.2898Z" fill="#6B8CFF" stroke="white"/>
</svg>
