<svg width="52" height="52" viewBox="0 0 52 52" fill="none" xmlns="http://www.w3.org/2000/svg">
<path d="M0 26C0 11.6406 11.6406 0 26 0C40.3594 0 52 11.6406 52 26C52 40.3594 40.3594 52 26 52C11.6406 52 0 40.3594 0 26Z" fill="white"/>
<path d="M31.4988 11.4875C31.4988 10.7274 31.4988 10.3473 31.2586 10.1111C31.0184 9.875 30.6317 9.875 29.8583 9.875H25.3721C20.9069 9.875 17.0123 13.9211 17.273 20.3563H14.5156C13.7422 20.3563 13.3555 20.3562 13.1153 20.5924C12.875 20.8285 12.875 21.2086 12.875 21.9688V24.3875C12.875 25.1476 12.875 25.5277 13.1153 25.7639C13.3555 26 13.7422 26 14.5156 26H17.7969V40.5125C17.7969 41.2726 17.7969 41.6527 18.0371 41.8889C18.2774 42.125 18.6641 42.125 19.4375 42.125H22.7188C23.4922 42.125 23.8789 42.125 24.1192 41.8889C24.3593 41.6527 24.3593 41.2726 24.3593 40.5125V26H31.7924V40.5125C31.7924 41.2726 31.7924 41.6527 32.0326 41.8889C32.2729 42.125 32.6595 42.125 33.4329 42.125H37.4843C38.2577 42.125 38.6444 42.125 38.8847 41.8889C39.125 41.6527 39.125 41.2726 39.125 40.5125V23.5813C39.125 22.061 39.125 21.3008 38.6444 20.8285C38.1639 20.3562 37.3906 20.3563 35.8438 20.3563H24.3593V18.3071C24.3593 17.1312 25.1797 15.5188 27.3076 15.5188H29.8583C30.6317 15.5188 31.0184 15.5187 31.2586 15.2826C31.4988 15.0465 31.4988 14.6664 31.4988 13.9062V11.4875Z" fill="#1DBF73"/>
</svg>
