<svg width="24" height="24" viewBox="0 0 24 24" fill="none" xmlns="http://www.w3.org/2000/svg">
<path fill-rule="evenodd" clip-rule="evenodd" d="M12 1.75C6.06294 1.75 1.25 6.56294 1.25 12.5C1.25 14.3968 1.79364 16.168 2.74068 17.6652L1.31622 21.8777C1.17145 22.2917 1.45422 22.7196 1.88427 22.7196H12C17.9371 22.7196 22.75 17.9067 22.75 11.9696C22.75 6.03251 17.9371 1.21957 12 1.21957V1.75ZM8.64062 7.71875C8.92188 7.28125 9.39062 7.25 9.6875 7.25C9.98438 7.25 10.1562 7.25 10.2969 7.25C10.4375 7.25 10.6406 7.23438 10.8125 7.65625C10.9844 8.07812 11.4219 9.15625 11.4844 9.26562C11.5469 9.375 11.5938 9.5 11.5156 9.64062C11.4375 9.78125 11.3906 9.875 11.2812 9.98438C11.1719 10.0938 11.0469 10.2344 10.9531 10.3281C10.8438 10.4375 10.7344 10.5469 10.8594 10.7656C10.9844 10.9844 11.4219 11.6406 12.0469 12.1875C12.8594 12.9062 13.5469 13.1406 13.7656 13.25C13.9844 13.3594 14.1094 13.3438 14.2344 13.2031C14.3594 13.0625 14.7812 12.5781 14.9219 12.3594C15.0625 12.1406 15.2031 12.1719 15.4062 12.25C15.6094 12.3281 16.6875 12.8594 16.9062 12.9688C17.125 13.0781 17.2656 13.1406 17.3281 13.2344C17.3906 13.3281 17.3906 13.75 17.2188 14.25C17.0469 14.75 16.1406 15.2188 15.7656 15.25C15.3906 15.2812 15.0312 15.4375 13.0469 14.6719C10.7656 13.7812 9.29688 11.3906 9.17188 11.2188C9.04688 11.0469 8.17188 9.89062 8.17188 8.70312C8.17188 7.51562 8.78125 6.92188 9 6.67188C9.21875 6.42188 9.48438 6.35938 9.64062 6.35938C9.79688 6.35938 9.95312 6.35938 10.0938 6.35938L8.64062 7.71875Z" fill="white"/>
</svg>
