<svg width="272" height="147" viewBox="0 0 272 147" fill="none" xmlns="http://www.w3.org/2000/svg">
<rect x="0.5" y="0.5" width="271" height="146" fill="#F2F2F2"/>
<rect x="0.5" y="0.5" width="271" height="146" stroke="#A5A9AE" stroke-dasharray="2 2"/>
<path d="M99.8966 91.7194H93.0538C87.8939 98.6721 84.6904 100.463 80.8888 100.463C77.0873 100.463 73.5317 97.9325 68.3437 91.3393C71.7947 85.9321 75.5667 81.4552 80.1285 81.4552C84.6904 81.4552 88.0003 83.4407 93.0538 90.1988H99.8966C99.6293 82.299 98.376 79.5545 91.5332 77.2735C84.6904 74.9925 78.2278 75.753 73.2857 76.5132C68.3437 77.2734 64.9223 79.1744 63.4017 83.356C61.8811 87.5376 61.7685 90.4425 62.2613 95.1408C62.9656 100.324 64.9223 102.744 69.4842 104.645C74.0461 106.545 81.564 106.698 89.6324 105.405C97.1503 104.178 99.4752 101.265 99.8966 91.7194Z" fill="#D4C1B9"/>
<path d="M80.8887 85.6367C83.828 85.6368 86.2109 88.0197 86.2109 90.959C86.2109 92.1137 85.8416 93.1815 85.2168 94.0537C84.8009 93.1263 83.8712 92.4795 82.7891 92.4795C81.3195 92.4796 80.1279 93.671 80.1279 95.1406C80.1279 95.5392 80.2179 95.9164 80.375 96.2559C77.6767 95.9975 75.5665 93.725 75.5664 90.959C75.5664 88.0196 77.9493 85.6367 80.8887 85.6367Z" fill="#D4C1B9"/>
<rect x="115.863" y="76.5127" width="3.04124" height="7.60309" fill="#D4C1B9"/>
<path d="M101.418 77.273C101.418 76.8531 101.758 76.5127 102.178 76.5127H116.624V85.6364C116.624 88.1559 114.582 90.1983 112.062 90.1983H102.178C101.758 90.1983 101.418 89.8579 101.418 89.438V77.273Z" fill="#D4C1B9"/>
<path d="M118.145 76.5127V85.6364C118.145 88.1558 120.188 90.1982 122.707 90.1982H126.128H130.12H131.595C131.749 90.1982 131.899 90.1518 132.025 90.0631C133.38 89.1045 133.834 88.4408 134.112 87.157C134.434 85.309 134.47 84.2361 134.112 82.215C133.574 79.4759 131.999 77.8759 128.246 76.5552C128.166 76.5271 128.081 76.5127 127.996 76.5127H126.128H118.145Z" fill="#D4C1B9"/>
<rect width="3.04152" height="7.60309" transform="matrix(1 0 0 -1 115.865 105.405)" fill="#D4C1B9"/>
<path d="M101.418 104.645C101.418 105.065 101.758 105.405 102.178 105.405H116.626V96.2816C116.626 93.7621 114.583 91.7197 112.064 91.7197H102.178C101.758 91.7197 101.418 92.0601 101.418 92.48V104.645Z" fill="#D4C1B9"/>
<path d="M118.146 105.405V96.2816C118.146 93.7621 120.188 91.7197 122.708 91.7197H126.13H130.122H131.597C131.75 91.7197 131.901 91.7662 132.027 91.8548C133.382 92.8135 133.836 93.4772 134.114 94.761C134.436 96.609 134.472 97.6819 134.114 99.703C133.576 102.442 132.001 104.042 128.248 105.363C128.168 105.391 128.082 105.405 127.998 105.405H126.13H118.146Z" fill="#D4C1B9"/>
<path d="M139.552 97.8018C139.052 97.8018 138.558 97.9001 138.097 98.0911C137.636 98.2822 137.216 98.5622 136.863 98.9152C136.151 99.6281 135.75 100.595 135.75 101.603C135.75 102.612 136.151 103.578 136.863 104.291C137.216 104.644 137.636 104.924 138.097 105.115C138.558 105.307 139.052 105.405 139.552 105.405C140.56 105.405 141.527 105.004 142.24 104.291C142.953 103.578 143.353 102.612 143.353 101.603C143.353 101.104 143.255 100.61 143.064 100.149C142.873 99.6873 142.593 99.2682 142.24 98.9152C141.887 98.5622 141.468 98.2822 141.006 98.0911C140.545 97.9001 140.051 97.8018 139.552 97.8018ZM139.552 104.645C137.875 104.645 136.51 103.28 136.51 101.603C136.51 99.9268 137.875 98.5621 139.552 98.5621C141.228 98.5621 142.593 99.9268 142.593 101.603C142.593 103.28 141.228 104.645 139.552 104.645ZM139.647 102.086H139.099V103.314H138.411V99.9724H139.65C140.042 99.9724 140.346 100.06 140.563 100.235C140.776 100.413 140.882 100.653 140.882 100.98C140.882 101.208 140.833 101.398 140.734 101.55C140.635 101.702 140.487 101.824 140.285 101.911L141.008 103.276V103.314H140.27L139.647 102.086ZM139.099 101.531H139.654C139.825 101.531 139.958 101.485 140.053 101.398C140.148 101.311 140.194 101.189 140.194 101.033C140.194 100.877 140.152 100.756 140.061 100.664C139.974 100.573 139.837 100.531 139.65 100.531H139.099V101.531Z" fill="black"/>
<path d="M149.755 82.7168V92.7529H147.231V82.7168H149.755ZM151.434 84.9978L153.334 84.8153L153.441 86.1839C153.826 85.1904 154.622 84.6937 155.828 84.6937C156.71 84.6937 157.334 84.9319 157.699 85.4083C158.074 85.8848 158.261 86.5995 158.261 87.5524V91.2323C158.261 91.5162 158.297 91.7645 158.368 91.9774C158.439 92.1903 158.56 92.3778 158.733 92.54C158.621 92.682 158.449 92.7884 158.216 92.8594C157.993 92.9405 157.77 92.981 157.547 92.981C157.019 92.981 156.619 92.8492 156.345 92.5857C156.072 92.312 155.935 91.9115 155.935 91.3844V87.6741C155.935 87.076 155.879 86.6248 155.767 86.3207C155.656 86.0065 155.392 85.8493 154.977 85.8493C154.48 85.8493 154.151 86.0774 153.988 86.5336C153.836 86.9898 153.76 87.593 153.76 88.3431V92.7529H151.434V84.9978ZM159.182 85.6821V85.2107C159.669 85.0282 160.16 84.7748 160.657 84.4504C161.154 84.126 161.564 83.7813 161.889 83.4163H162.543V84.9978H163.942V85.6821H162.527V91.0955C162.527 91.4097 162.583 91.653 162.695 91.8254C162.816 91.9876 163.009 92.094 163.272 92.1447C163.171 92.4083 162.984 92.611 162.71 92.7529C162.436 92.905 162.132 92.981 161.797 92.981C161.27 92.981 160.87 92.8391 160.596 92.5552C160.333 92.2714 160.201 91.8608 160.201 91.3235V85.6821H159.182ZM168.861 84.6937C170.412 84.6937 171.188 85.2918 171.188 86.488C171.188 87.3294 170.813 87.9833 170.063 88.4496C169.323 88.9159 168.314 89.1491 167.037 89.1491H166.504C166.474 89.4228 166.459 89.6813 166.459 89.9246C166.459 90.4315 166.56 90.8167 166.763 91.0802C166.966 91.3337 167.31 91.4604 167.797 91.4604C168.223 91.4604 168.618 91.3692 168.983 91.1867C169.348 90.9941 169.627 90.7254 169.819 90.3808C170.063 90.4923 170.184 90.7153 170.184 91.0498C170.184 91.4148 170.042 91.7544 169.759 92.0687C169.485 92.3728 169.11 92.611 168.633 92.7833C168.157 92.9658 167.635 93.0571 167.067 93.0571C166.124 93.0571 165.405 92.7985 164.908 92.2815C164.411 91.7544 164.163 90.9535 164.163 89.879C164.163 88.9767 164.335 88.1302 164.68 87.3395C165.035 86.5488 165.562 85.9101 166.261 85.4235C166.971 84.9369 167.838 84.6937 168.861 84.6937ZM168.527 85.5148C168.081 85.5148 167.691 85.7834 167.356 86.3207C167.021 86.858 166.773 87.5676 166.611 88.4496C167.341 88.4496 167.954 88.262 168.451 87.887C168.948 87.5119 169.196 87.005 169.196 86.3663C169.196 85.7986 168.973 85.5148 168.527 85.5148ZM174.438 86.1839C174.65 85.7175 174.95 85.3526 175.335 85.089C175.73 84.8254 176.181 84.6937 176.688 84.6937C177.225 84.6937 177.636 84.8406 177.92 85.1346C178.204 85.4286 178.346 85.829 178.346 86.3359C178.346 86.9138 178.178 87.3953 177.844 87.7805C177.509 88.1657 177.083 88.3583 176.566 88.3583C176.404 88.3583 176.247 88.3381 176.095 88.2975C175.953 88.2468 175.847 88.1708 175.776 88.0694C175.928 87.8667 176.055 87.6132 176.156 87.3091C176.257 87.005 176.308 86.7313 176.308 86.488C176.308 86.0723 176.136 85.8645 175.791 85.8645C175.426 85.8645 175.122 86.1028 174.879 86.5792C174.645 87.0557 174.463 87.6639 174.331 88.404L173.601 92.7529L171.153 92.9962L172.689 84.9978L174.65 84.7545L174.438 86.1839ZM179.525 92.9962C179.454 90.0462 179.323 87.9376 179.13 86.6705C179.059 86.2041 178.978 85.8696 178.887 85.6668C178.806 85.454 178.679 85.2918 178.507 85.1802C178.841 84.8559 179.292 84.6937 179.86 84.6937C180.438 84.6937 180.843 84.8508 181.076 85.165C181.31 85.4692 181.457 85.971 181.517 86.6705C181.558 87.2787 181.578 88.186 181.578 89.3924C181.578 90.254 181.573 90.9941 181.563 91.6125C182.151 90.9333 182.653 90.0564 183.068 88.9818C183.484 87.9072 183.692 86.929 183.692 86.047C183.692 85.753 183.656 85.4641 183.585 85.1802C183.727 85.0282 183.905 84.9116 184.118 84.8305C184.341 84.7393 184.584 84.6937 184.848 84.6937C185.577 84.6937 185.942 85.0687 185.942 85.8189C185.942 86.4069 185.76 87.1165 185.395 87.9478C185.04 88.7689 184.614 89.5241 184.118 90.2135C183.803 90.6393 183.433 91.0853 183.008 91.5516C182.582 92.018 182.146 92.4184 181.7 92.7529L179.525 92.9962ZM189.167 81.546C189.573 81.546 189.897 81.6423 190.14 81.8349C190.394 82.0174 190.521 82.2809 190.521 82.6256C190.521 82.9804 190.389 83.2541 190.125 83.4467C189.872 83.6292 189.537 83.7205 189.122 83.7205C188.716 83.7205 188.387 83.6292 188.133 83.4467C187.88 83.2643 187.753 83.0007 187.753 82.656C187.753 82.3012 187.885 82.0275 188.148 81.8349C188.412 81.6423 188.752 81.546 189.167 81.546ZM188.711 90.8217C188.66 91.0955 188.635 91.3083 188.635 91.4604C188.635 91.653 188.681 91.8101 188.772 91.9318C188.873 92.0534 189.02 92.1193 189.213 92.1295C189.122 92.4336 188.934 92.6617 188.65 92.8138C188.366 92.976 188.042 93.0571 187.677 93.0571C187.251 93.0571 186.912 92.9455 186.658 92.7225C186.415 92.4995 186.293 92.1802 186.293 91.7645C186.293 91.501 186.344 91.0802 186.445 90.5024C186.547 89.9246 186.638 89.438 186.719 89.0426L187.525 84.9978L189.912 84.7545L188.711 90.8217ZM195.19 84.6937C196.741 84.6937 197.517 85.2918 197.517 86.488C197.517 87.3294 197.142 87.9833 196.391 88.4496C195.651 88.9159 194.643 89.1491 193.365 89.1491H192.833C192.803 89.4228 192.788 89.6813 192.788 89.9246C192.788 90.4315 192.889 90.8167 193.092 91.0802C193.294 91.3337 193.639 91.4604 194.126 91.4604C194.551 91.4604 194.947 91.3692 195.312 91.1867C195.677 90.9941 195.955 90.7254 196.148 90.3808C196.391 90.4923 196.513 90.7153 196.513 91.0498C196.513 91.4148 196.371 91.7544 196.087 92.0687C195.814 92.3728 195.438 92.611 194.962 92.7833C194.486 92.9658 193.963 93.0571 193.396 93.0571C192.453 93.0571 191.733 92.7985 191.237 92.2815C190.74 91.7544 190.491 90.9535 190.491 89.879C190.491 88.9767 190.664 88.1302 191.008 87.3395C191.363 86.5488 191.89 85.9101 192.59 85.4235C193.299 84.9369 194.166 84.6937 195.19 84.6937ZM194.856 85.5148C194.41 85.5148 194.019 85.7834 193.685 86.3207C193.35 86.858 193.102 87.5676 192.94 88.4496C193.669 88.4496 194.283 88.262 194.78 87.887C195.276 87.5119 195.525 87.005 195.525 86.3663C195.525 85.7986 195.302 85.5148 194.856 85.5148ZM198.622 92.9962C198.551 90.0462 198.419 87.9376 198.227 86.6705C198.156 86.2041 198.075 85.8696 197.984 85.6668C197.902 85.454 197.776 85.2918 197.603 85.1802C197.938 84.8559 198.394 84.6937 198.972 84.6937C199.56 84.6937 199.965 84.8508 200.188 85.165C200.422 85.4793 200.564 85.9811 200.614 86.6705C200.655 87.3193 200.675 88.1556 200.675 89.1795L200.66 91.6125C201.228 90.9738 201.694 90.1172 202.059 89.0426C202.424 87.9579 202.606 86.9644 202.606 86.0622C202.606 85.7581 202.571 85.4641 202.5 85.1802C202.804 84.8559 203.209 84.6937 203.716 84.6937C204.162 84.6937 204.456 84.8356 204.598 85.1194C204.75 85.3931 204.847 85.8189 204.887 86.3967C204.938 87.1571 204.963 88.1404 204.963 89.3467L204.948 91.0955C204.938 91.207 204.933 91.3793 204.933 91.6125C205.511 90.9738 205.977 90.1172 206.332 89.0426C206.697 87.968 206.879 86.9746 206.879 86.0622C206.879 85.7581 206.844 85.4641 206.773 85.1802C206.915 85.0282 207.092 84.9116 207.305 84.8305C207.528 84.7393 207.771 84.6937 208.035 84.6937C208.765 84.6937 209.13 85.0687 209.13 85.8189C209.13 86.4069 208.952 87.1114 208.597 87.9326C208.243 88.7537 207.812 89.514 207.305 90.2135C206.484 91.3083 205.703 92.1548 204.963 92.7529L203.108 92.981C203.088 91.6733 203.062 90.6697 203.032 89.9702C202.758 90.5176 202.409 91.0346 201.983 91.5212C201.567 91.9977 201.116 92.4083 200.629 92.7529L198.622 92.9962Z" fill="black"/>
<path d="M154.165 97.1932C154.165 97.6494 154.023 98.065 153.739 98.4401C153.455 98.8152 153.09 99.094 152.644 99.2765C153.374 99.4184 153.937 99.7225 154.332 100.189C154.738 100.655 154.94 101.253 154.94 101.983C154.94 102.683 154.733 103.266 154.317 103.732C153.911 104.188 153.374 104.528 152.705 104.751C152.046 104.964 151.326 105.07 150.546 105.07C149.502 105.07 148.397 104.999 147.231 104.857V94.9731C148.528 94.8616 149.654 94.8059 150.607 94.8059C151.712 94.8059 152.578 94.9782 153.207 95.3229C153.846 95.6675 154.165 96.291 154.165 97.1932ZM149.755 99.018C149.927 99.0484 150.125 99.0636 150.348 99.0636C151.402 99.0636 151.93 98.4908 151.93 97.3453C151.93 96.3924 151.468 95.9159 150.546 95.9159C150.292 95.9159 150.029 95.9413 149.755 95.9919V99.018ZM149.755 103.884C150.029 103.945 150.303 103.975 150.576 103.975C151.174 103.975 151.625 103.808 151.93 103.473C152.244 103.139 152.401 102.657 152.401 102.029C152.401 101.339 152.229 100.843 151.884 100.539C151.549 100.234 151.022 100.082 150.303 100.082C150.14 100.082 149.958 100.093 149.755 100.113V103.884ZM162.955 103.397C162.955 103.681 162.99 103.93 163.061 104.142C163.132 104.355 163.254 104.543 163.426 104.705C163.304 104.847 163.132 104.953 162.909 105.024C162.696 105.106 162.478 105.146 162.255 105.146C161.89 105.146 161.581 105.07 161.327 104.918C161.074 104.756 160.902 104.528 160.81 104.234C160.608 104.578 160.324 104.832 159.959 104.994C159.604 105.166 159.204 105.253 158.758 105.253C158.018 105.253 157.45 105.095 157.055 104.781C156.669 104.467 156.411 104.031 156.279 103.473C156.147 102.916 156.081 102.201 156.081 101.329V97.1628H158.438V101.253C158.438 101.892 158.454 102.409 158.484 102.804C158.524 103.19 158.621 103.514 158.773 103.778C158.935 104.031 159.183 104.158 159.518 104.158C159.903 104.158 160.182 103.995 160.354 103.671C160.537 103.347 160.628 102.941 160.628 102.455V97.1628H162.955V103.397ZM171.491 103.397C171.491 103.681 171.526 103.93 171.597 104.142C171.668 104.355 171.79 104.543 171.962 104.705C171.851 104.847 171.683 104.953 171.46 105.024C171.247 105.106 171.029 105.146 170.806 105.146C170.431 105.146 170.117 105.07 169.864 104.918C169.61 104.756 169.438 104.528 169.347 104.234C169.154 104.578 168.875 104.832 168.51 104.994C168.155 105.166 167.755 105.253 167.309 105.253C166.265 105.253 165.51 104.862 165.043 104.082C164.577 103.291 164.344 102.267 164.344 101.01C164.344 99.7022 164.658 98.6834 165.287 97.9535C165.915 97.2236 166.858 96.8587 168.115 96.8587C168.531 96.8587 168.88 96.8992 169.164 96.9803V94.2736L171.491 94.0303V103.397ZM169.164 98.136C168.819 97.8927 168.455 97.7711 168.069 97.7711C167.532 97.7711 167.182 98.065 167.02 98.653C166.858 99.2309 166.777 99.9912 166.777 100.934C166.777 101.856 166.858 102.627 167.02 103.245C167.192 103.854 167.537 104.158 168.054 104.158C168.429 104.158 168.708 103.995 168.89 103.671C169.073 103.347 169.164 102.951 169.164 102.485V98.136ZM180.074 103.397C180.074 103.681 180.109 103.93 180.18 104.142C180.251 104.355 180.373 104.543 180.545 104.705C180.434 104.847 180.266 104.953 180.043 105.024C179.831 105.106 179.613 105.146 179.39 105.146C179.014 105.146 178.7 105.07 178.447 104.918C178.193 104.756 178.021 104.528 177.93 104.234C177.737 104.578 177.458 104.832 177.093 104.994C176.739 105.166 176.338 105.253 175.892 105.253C174.848 105.253 174.093 104.862 173.626 104.082C173.16 103.291 172.927 102.267 172.927 101.01C172.927 99.7022 173.241 98.6834 173.87 97.9535C174.498 97.2236 175.441 96.8587 176.698 96.8587C177.114 96.8587 177.463 96.8992 177.747 96.9803V94.2736L180.074 94.0303V103.397ZM177.747 98.136C177.403 97.8927 177.038 97.7711 176.652 97.7711C176.115 97.7711 175.765 98.065 175.603 98.653C175.441 99.2309 175.36 99.9912 175.36 100.934C175.36 101.856 175.441 102.627 175.603 103.245C175.776 103.854 176.12 104.158 176.637 104.158C177.012 104.158 177.291 103.995 177.474 103.671C177.656 103.347 177.747 102.951 177.747 102.485V98.136ZM188.353 97.1628L184.749 107.853L182.422 107.655L184.065 104.097H183.122L181.191 97.1628H183.624L184.932 103.002L186.346 97.1628H188.353Z" fill="black"/>
<rect width="259" height="36" transform="translate(6 6)" fill="#070707"/>
<path d="M20.912 18.432V28.544H26V30H19.344V18.432H20.912ZM26.7791 26.08C26.7791 23.664 28.5071 21.968 30.8591 21.968C33.1951 21.968 34.9231 23.664 34.9231 26.08C34.9231 28.496 33.1951 30.192 30.8591 30.192C28.5071 30.192 26.7791 28.496 26.7791 26.08ZM28.2991 26.08C28.2991 27.712 29.3391 28.848 30.8591 28.848C32.3631 28.848 33.4191 27.712 33.4191 26.08C33.4191 24.448 32.3631 23.312 30.8591 23.312C29.3391 23.312 28.2991 24.448 28.2991 26.08ZM36.092 25.888C36.092 23.68 37.516 21.952 39.788 21.952C41.052 21.952 42.028 22.528 42.524 23.504L42.636 22.176H43.98V29.68C43.98 32.144 42.46 33.712 40.06 33.712C37.932 33.712 36.476 32.512 36.188 30.528H37.692C37.884 31.68 38.748 32.352 40.06 32.352C41.532 32.352 42.492 31.392 42.492 29.904V28.336C41.98 29.248 40.956 29.792 39.724 29.792C37.5 29.792 36.092 28.08 36.092 25.888ZM37.596 25.856C37.596 27.328 38.508 28.48 39.98 28.48C41.5 28.48 42.428 27.392 42.428 25.856C42.428 24.352 41.532 23.264 39.996 23.264C38.492 23.264 37.596 24.416 37.596 25.856ZM45.6385 26.08C45.6385 23.664 47.3665 21.968 49.7185 21.968C52.0545 21.968 53.7825 23.664 53.7825 26.08C53.7825 28.496 52.0545 30.192 49.7185 30.192C47.3665 30.192 45.6385 28.496 45.6385 26.08ZM47.1585 26.08C47.1585 27.712 48.1985 28.848 49.7185 28.848C51.2225 28.848 52.2785 27.712 52.2785 26.08C52.2785 24.448 51.2225 23.312 49.7185 23.312C48.1985 23.312 47.1585 24.448 47.1585 26.08Z" fill="white"/>
<path d="M62.9844 24.2236L253.001 23.7765" stroke="white" stroke-dasharray="2 2"/>
</svg>
