<svg width="239" height="202" viewBox="0 0 239 202" fill="none" xmlns="http://www.w3.org/2000/svg">
<g filter="url(#filter0_d_5356_5416)">
<rect x="25.4473" y="26.7866" width="185" height="147" rx="5.35734" fill="white" shape-rendering="crispEdges"/>
<path d="M69.2391 45.969C68.555 45.969 67.9593 45.8664 67.4519 45.6612C66.9464 45.456 66.5521 45.1405 66.269 44.7149C65.9859 44.2892 65.8415 43.7533 65.8358 43.1073H66.9702C66.9759 43.5728 67.0766 43.9453 67.2723 44.2246C67.4681 44.5039 67.7322 44.7035 68.0647 44.8232C68.3992 44.941 68.7906 44.9999 69.2391 44.9999C69.6553 44.9999 70.0097 44.9467 70.3023 44.8403C70.5949 44.7339 70.8173 44.5743 70.9693 44.3614C71.1232 44.1486 71.2002 43.8864 71.2002 43.5747C71.2002 43.3258 71.1384 43.1168 71.0149 42.9476C70.8914 42.7766 70.6928 42.6312 70.4192 42.5115C70.1455 42.3899 69.775 42.2807 69.3075 42.1837L68.4866 42.0127C68.0039 41.912 67.5859 41.7676 67.2324 41.5795C66.879 41.3894 66.6006 41.1358 66.3973 40.8184C66.1939 40.5011 66.0923 40.1125 66.0923 39.6526C66.0923 39.2174 66.2063 38.8364 66.4343 38.5096C66.6624 38.1828 66.9892 37.931 67.4149 37.7542C67.8405 37.5756 68.3422 37.4863 68.9199 37.4863C69.6724 37.4863 70.2842 37.5994 70.7555 37.8255C71.2287 38.0497 71.5717 38.3528 71.7845 38.7348C71.9992 39.1148 72.1123 39.55 72.1237 40.0403H71.0206C70.9921 39.6906 70.9094 39.4008 70.7726 39.1709C70.6358 38.9391 70.4182 38.7623 70.1199 38.6407C69.8234 38.5172 69.4272 38.4554 68.9313 38.4554C68.5607 38.4554 68.2481 38.5029 67.9935 38.598C67.7408 38.693 67.5507 38.8298 67.4234 39.0084C67.2961 39.1851 67.2324 39.3961 67.2324 39.6412C67.2324 39.8939 67.2828 40.1058 67.3835 40.2768C67.4842 40.4479 67.659 40.5951 67.908 40.7186C68.1569 40.8422 68.5056 40.9505 68.9541 41.0436L69.775 41.2146C70.3983 41.3438 70.898 41.5139 71.2743 41.7248C71.6505 41.9358 71.9223 42.1904 72.0895 42.4887C72.2567 42.7871 72.3403 43.1415 72.3403 43.5519C72.3403 44.046 72.2187 44.4745 71.9755 44.8374C71.7322 45.2004 71.3778 45.4797 70.9123 45.6755C70.4467 45.8712 69.889 45.969 69.2391 45.969ZM76.1604 45.9234C75.6663 45.9234 75.2397 45.7971 74.8805 45.5443C74.5233 45.2897 74.2497 44.9315 74.0596 44.4697C73.8715 44.0061 73.7774 43.4645 73.7774 42.845V42.8222C73.7774 42.2084 73.8725 41.6716 74.0625 41.2118C74.2525 40.75 74.5261 40.3937 74.8834 40.1429C75.2425 39.892 75.6682 39.7666 76.1604 39.7666C76.681 39.7666 77.1361 39.893 77.5257 40.1457C77.9171 40.3966 78.2183 40.7538 78.4293 41.2175C78.6421 41.6811 78.7485 42.2236 78.7485 42.845C78.7485 43.4664 78.6421 44.0089 78.4293 44.4726C78.2183 44.9363 77.9171 45.2945 77.5257 45.5472C77.1361 45.798 76.681 45.9234 76.1604 45.9234ZM73.2758 48.1125V39.9034H74.2791V41.2488H74.1993V44.4184H74.3247V48.1125H73.2758ZM75.9779 45.0113C76.3143 45.0113 76.6088 44.923 76.8616 44.7462C77.1143 44.5676 77.3091 44.312 77.4459 43.9795C77.5846 43.6469 77.654 43.2536 77.654 42.7994C77.654 42.3472 77.5856 41.9624 77.4487 41.645C77.3119 41.3277 77.1171 41.0873 76.8644 40.9239C76.6136 40.7605 76.3181 40.6787 75.9779 40.6787C75.6359 40.6787 75.3376 40.7643 75.0829 40.9353C74.8302 41.1063 74.6345 41.3552 74.4957 41.6821C74.3589 42.007 74.2905 42.3947 74.2905 42.845C74.2905 43.2954 74.3589 43.684 74.4957 44.0108C74.6345 44.3358 74.8302 44.5838 75.0829 44.7548C75.3376 44.9258 75.6359 45.0113 75.9779 45.0113ZM82.2977 45.9234C81.7523 45.9234 81.2677 45.799 80.844 45.55C80.4221 45.2992 80.0934 44.942 79.8577 44.4783C79.6221 44.0127 79.5043 43.4683 79.5043 42.845C79.5043 42.235 79.6193 41.6973 79.8492 41.2317C80.0791 40.7662 80.4031 40.4061 80.8212 40.1514C81.2411 39.8949 81.7257 39.7666 82.2749 39.7666C82.8468 39.7666 83.34 39.9025 83.7542 40.1742C84.1685 40.446 84.483 40.8165 84.6977 41.2859C84.9143 41.7552 85.0226 42.2826 85.0226 42.8678C85.0226 42.921 85.0226 42.9752 85.0226 43.0303C85.0226 43.0854 85.0226 43.1415 85.0226 43.1985H79.9946V42.332H84.407L83.9395 42.5942C83.9357 42.2293 83.8692 41.9025 83.74 41.6137C83.6108 41.3248 83.4207 41.0968 83.1699 40.9296C82.9191 40.7624 82.6169 40.6787 82.2635 40.6787C81.9309 40.6787 81.6373 40.7557 81.3827 40.9096C81.13 41.0635 80.9314 41.2963 80.787 41.608C80.6426 41.9196 80.5684 42.3054 80.5646 42.7652V42.8678C80.5646 43.3505 80.6359 43.7514 80.7784 44.0707C80.9209 44.3899 81.1224 44.6265 81.3827 44.7804C81.643 44.9344 81.9518 45.0113 82.3091 45.0113C82.5694 45.0113 82.8003 44.9695 83.0017 44.8859C83.205 44.8023 83.3742 44.6845 83.5091 44.5325C83.6459 44.3785 83.7476 44.1961 83.8141 43.9852H84.8773C84.7804 44.3671 84.6169 44.7044 84.387 44.9971C84.1571 45.2878 83.8644 45.5149 83.5091 45.6783C83.1556 45.8417 82.7518 45.9234 82.2977 45.9234ZM88.5663 45.9234C88.0209 45.9234 87.5363 45.799 87.1126 45.55C86.6907 45.2992 86.362 44.942 86.1264 44.4783C85.8907 44.0127 85.7729 43.4683 85.7729 42.845C85.7729 42.235 85.8879 41.6973 86.1178 41.2317C86.3477 40.7662 86.6717 40.4061 87.0898 40.1514C87.5097 39.8949 87.9943 39.7666 88.5435 39.7666C89.1155 39.7666 89.6086 39.9025 90.0228 40.1742C90.4371 40.446 90.7516 40.8165 90.9663 41.2859C91.1829 41.7552 91.2913 42.2826 91.2913 42.8678C91.2913 42.921 91.2913 42.9752 91.2913 43.0303C91.2913 43.0854 91.2913 43.1415 91.2913 43.1985H86.2632V42.332H90.6756L90.2081 42.5942C90.2043 42.2293 90.1378 41.9025 90.0086 41.6137C89.8794 41.3248 89.6893 41.0968 89.4385 40.9296C89.1877 40.7624 88.8855 40.6787 88.5321 40.6787C88.1995 40.6787 87.9059 40.7557 87.6513 40.9096C87.3986 41.0635 87.2 41.2963 87.0556 41.608C86.9112 41.9196 86.8371 42.3054 86.8333 42.7652V42.8678C86.8333 43.3505 86.9045 43.7514 87.047 44.0707C87.1896 44.3899 87.391 44.6265 87.6513 44.7804C87.9116 44.9344 88.2204 45.0113 88.5777 45.0113C88.838 45.0113 89.0689 44.9695 89.2703 44.8859C89.4737 44.8023 89.6428 44.6845 89.7777 44.5325C89.9145 44.3785 90.0162 44.1961 90.0827 43.9852H91.1459C91.049 44.3671 90.8855 44.7044 90.6556 44.9971C90.4257 45.2878 90.133 45.5149 89.7777 45.6783C89.4243 45.8417 89.0204 45.9234 88.5663 45.9234ZM94.8121 45.9234C94.2667 45.9234 93.785 45.798 93.367 45.5472C92.9489 45.2964 92.623 44.9391 92.3893 44.4754C92.1574 44.0099 92.0415 43.4664 92.0415 42.845C92.0415 42.2217 92.1565 41.6783 92.3864 41.2146C92.6164 40.749 92.9403 40.3918 93.3584 40.1429C93.7765 39.892 94.261 39.7666 94.8121 39.7666C95.2891 39.7666 95.7109 39.855 96.0777 40.0317C96.4463 40.2084 96.7437 40.4602 96.9698 40.7871C97.1979 41.112 97.3423 41.4939 97.4031 41.9329H96.3256C96.2743 41.6612 96.1755 41.4322 96.0292 41.246C95.8829 41.0597 95.7043 40.921 95.4933 40.8298C95.2824 40.7367 95.0553 40.6901 94.8121 40.6901C94.4853 40.6901 94.1955 40.769 93.9427 40.9267C93.6919 41.0844 93.4943 41.3248 93.3499 41.6479C93.2073 41.9709 93.1361 42.37 93.1361 42.845C93.1361 43.3182 93.2092 43.7163 93.3556 44.0393C93.5019 44.3624 93.7004 44.6037 93.9513 44.7633C94.204 44.9211 94.491 44.9999 94.8121 44.9999C95.0591 44.9999 95.2891 44.9534 95.5019 44.8602C95.7147 44.7652 95.8952 44.6218 96.0435 44.4298C96.1917 44.2379 96.2905 44.0023 96.3399 43.7229H97.4088C97.348 44.1733 97.1988 44.5648 96.9613 44.8973C96.7257 45.2279 96.4226 45.4816 96.052 45.6584C95.6815 45.8351 95.2682 45.9234 94.8121 45.9234ZM102.26 41.9557C102.26 41.6707 102.21 41.435 102.109 41.2488C102.01 41.0626 101.866 40.9248 101.676 40.8355C101.487 40.7462 101.257 40.7015 100.983 40.7015C100.724 40.7015 100.477 40.7662 100.242 40.8954C100.008 41.0246 99.8161 41.2222 99.666 41.4882C99.5178 41.7524 99.4437 42.0792 99.4437 42.4688H98.7254V41.3514H99.1131C99.2157 41.0531 99.3658 40.7852 99.5634 40.5476C99.7629 40.3082 100.006 40.1182 100.293 39.9775C100.58 39.8369 100.897 39.7666 101.245 39.7666C101.675 39.7666 102.043 39.8474 102.351 40.0089C102.661 40.1685 102.897 40.4032 103.061 40.7129C103.226 41.0208 103.309 41.3932 103.309 41.8303V45.7866H102.26V41.9557ZM98.3948 45.7866V37.6687H99.4437V45.7866H98.3948ZM110.391 45.969C109.657 45.969 109.003 45.798 108.427 45.456C107.853 45.112 107.404 44.6199 107.079 43.9795C106.756 43.3391 106.594 42.5885 106.594 41.7277C106.594 40.8669 106.756 40.1163 107.079 39.4759C107.402 38.8355 107.85 38.3443 108.424 38.0022C108.998 37.6583 109.653 37.4863 110.391 37.4863C110.963 37.4863 111.49 37.5889 111.973 37.7942C112.457 37.9975 112.869 38.312 113.207 38.7376C113.547 39.1614 113.78 39.6906 113.905 40.3253H112.782C112.672 39.8958 112.498 39.5452 112.261 39.2735C112.025 38.9999 111.748 38.8013 111.428 38.6778C111.111 38.5524 110.765 38.4896 110.391 38.4896C109.862 38.4896 109.4 38.6189 109.003 38.8773C108.607 39.1338 108.3 39.5053 108.082 39.9918C107.865 40.4783 107.757 41.0569 107.757 41.7277C107.757 42.3985 107.865 42.9771 108.082 43.4636C108.3 43.95 108.607 44.3225 109.003 44.5809C109.4 44.8374 109.862 44.9657 110.391 44.9657C110.782 44.9657 111.152 44.8869 111.5 44.7291C111.847 44.5714 112.141 44.331 112.38 44.008C112.622 43.683 112.774 43.284 112.836 42.8108H113.959C113.889 43.4911 113.682 44.0688 113.338 44.5439C112.996 45.0189 112.567 45.3752 112.05 45.6127C111.535 45.8503 110.982 45.969 110.391 45.969ZM114.94 45.7866V37.6687H115.989V45.7866H114.94ZM122.055 45.8208C121.795 45.8208 121.584 45.7819 121.422 45.704C121.263 45.6241 121.146 45.5044 121.072 45.3448C120.997 45.1833 120.96 44.9771 120.96 44.7263L120.926 44.5325V42.4232V42.0811V41.4996C120.926 41.302 120.887 41.1405 120.809 41.0151C120.731 40.8878 120.6 40.7928 120.416 40.73C120.234 40.6654 119.986 40.6331 119.672 40.6331C119.345 40.6331 119.082 40.6673 118.882 40.7357C118.685 40.8042 118.536 40.9182 118.435 41.0778C118.334 41.2355 118.274 41.4521 118.255 41.7277H117.215C117.238 41.321 117.334 40.9733 117.503 40.6844C117.672 40.3937 117.934 40.1685 118.29 40.0089C118.647 39.8474 119.108 39.7666 119.672 39.7666C120.21 39.7666 120.648 39.8388 120.986 39.9832C121.324 40.1258 121.569 40.3253 121.721 40.5818C121.875 40.8365 121.952 41.1386 121.952 41.4882V44.6693C121.952 44.732 121.963 44.7852 121.984 44.8289C122.006 44.8726 122.042 44.9068 122.089 44.9315C122.137 44.9543 122.197 44.9657 122.272 44.9657C122.317 44.9657 122.368 44.9657 122.423 44.9657C122.478 44.9657 122.534 44.9657 122.591 44.9657V45.7866C122.513 45.798 122.427 45.8066 122.334 45.8123C122.241 45.818 122.148 45.8208 122.055 45.8208ZM119.056 45.9234C118.633 45.9234 118.264 45.8569 117.95 45.7239C117.637 45.589 117.395 45.3914 117.224 45.131C117.054 44.8707 116.97 44.5572 116.97 44.1904C116.97 43.8636 117.042 43.5757 117.187 43.3267C117.331 43.0759 117.566 42.8678 117.891 42.7025C118.217 42.5353 118.644 42.4232 119.17 42.3662L120.025 42.275C120.225 42.254 120.39 42.2141 120.521 42.1552C120.654 42.0963 120.755 42.0137 120.824 41.9073C120.892 41.7989 120.926 41.6631 120.926 41.4996L121.314 41.5909C121.314 41.9367 121.278 42.2084 121.206 42.4061C121.135 42.6037 121.018 42.7519 120.855 42.8507C120.693 42.9476 120.466 43.0142 120.174 43.0503L119.341 43.1529C119.016 43.1928 118.76 43.2564 118.572 43.3438C118.384 43.4294 118.25 43.5386 118.17 43.6716C118.092 43.8047 118.053 43.9662 118.053 44.1562C118.053 44.3462 118.094 44.5106 118.176 44.6493C118.257 44.7861 118.382 44.8926 118.549 44.9686C118.718 45.0427 118.929 45.0797 119.182 45.0797C119.478 45.0797 119.759 45.0208 120.025 44.903C120.292 44.7852 120.508 44.6047 120.675 44.3614C120.843 44.1182 120.926 43.818 120.926 43.4607H121.325V44.1562C121.23 44.5382 121.08 44.8612 120.875 45.1253C120.67 45.3876 120.414 45.5861 120.108 45.7211C119.802 45.856 119.452 45.9234 119.056 45.9234ZM123.369 45.7866V39.9034H124.372V41.3742H124.418V45.7866H123.369ZM124.064 42.2179C124.064 41.8436 124.14 41.4721 124.293 41.1034C124.446 40.7348 124.686 40.4279 125.011 40.1828C125.336 39.9357 125.742 39.8122 126.231 39.8122C126.28 39.8122 126.331 39.8141 126.382 39.8179C126.435 39.8198 126.491 39.8236 126.55 39.8293V40.8156C126.501 40.8156 126.453 40.8156 126.407 40.8156C126.364 40.8156 126.324 40.8156 126.288 40.8156C125.9 40.8156 125.567 40.8802 125.287 41.0094C125.008 41.1386 124.793 41.3324 124.643 41.5909C124.493 41.8474 124.418 42.1628 124.418 42.5372H124.064V42.2179ZM127.489 45.7866V39.9034H128.538V45.7866H127.489ZM127.489 39.2421V38.0564H128.538V39.2421H127.489ZM131.867 45.8094C131.521 45.8094 131.232 45.7676 131 45.684C130.77 45.5985 130.595 45.4607 130.473 45.2707C130.353 45.0807 130.294 44.8308 130.294 44.5211V41.1462V40.3253V39.493V38.102H131.342V39.493V40.3253V41.1462V44.4184C131.342 44.5325 131.363 44.6265 131.405 44.7006C131.447 44.7728 131.516 44.8279 131.613 44.8659C131.712 44.9021 131.846 44.9201 132.015 44.9201C132.085 44.9201 132.158 44.9201 132.232 44.9201C132.306 44.9201 132.381 44.9201 132.457 44.9201H132.54V45.7866C132.528 45.7866 132.516 45.7866 132.503 45.7866C132.491 45.7885 132.48 45.7895 132.468 45.7895C132.362 45.7952 132.256 45.7999 132.149 45.8037C132.043 45.8075 131.949 45.8094 131.867 45.8094ZM129.359 40.7814V39.9034H130.818H132.54V40.7814H130.818H129.359ZM133.262 47.246C133.354 47.246 133.445 47.246 133.536 47.246C133.627 47.246 133.718 47.246 133.81 47.246C134 47.246 134.162 47.2194 134.297 47.1662C134.434 47.113 134.547 47.0341 134.636 46.9296C134.725 46.827 134.8 46.6968 134.859 46.5391L135.269 45.4446L135.235 46.4251L132.863 39.9034H134.003L135.189 43.4265C135.299 43.7648 135.402 44.0859 135.497 44.3899C135.594 44.694 135.689 45.0037 135.782 45.3192L135.474 45.3306C135.583 44.9543 135.687 44.599 135.788 44.2645C135.888 43.9282 135.978 43.645 136.056 43.4151L137.23 39.9034H138.359L135.907 46.6873C135.774 47.056 135.615 47.3448 135.429 47.5539C135.242 47.7648 135.021 47.914 134.764 48.0014C134.51 48.0907 134.199 48.1353 133.832 48.1353C133.739 48.1353 133.642 48.1325 133.542 48.1268C133.443 48.123 133.35 48.1182 133.262 48.1125V47.246ZM144.384 45.969C143.7 45.969 143.105 45.8664 142.597 45.6612C142.092 45.456 141.698 45.1405 141.414 44.7149C141.131 44.2892 140.987 43.7533 140.981 43.1073H142.116C142.121 43.5728 142.222 43.9453 142.418 44.2246C142.613 44.5039 142.878 44.7035 143.21 44.8232C143.545 44.941 143.936 44.9999 144.384 44.9999C144.801 44.9999 145.155 44.9467 145.448 44.8403C145.74 44.7339 145.963 44.5743 146.115 44.3614C146.269 44.1486 146.346 43.8864 146.346 43.5747C146.346 43.3258 146.284 43.1168 146.16 42.9476C146.037 42.7766 145.838 42.6312 145.565 42.5115C145.291 42.3899 144.92 42.2807 144.453 42.1837L143.632 42.0127C143.149 41.912 142.731 41.7676 142.378 41.5795C142.024 41.3894 141.746 41.1358 141.543 40.8184C141.339 40.5011 141.238 40.1125 141.238 39.6526C141.238 39.2174 141.352 38.8364 141.58 38.5096C141.808 38.1828 142.135 37.931 142.56 37.7542C142.986 37.5756 143.488 37.4863 144.065 37.4863C144.818 37.4863 145.43 37.5994 145.901 37.8255C146.374 38.0497 146.717 38.3528 146.93 38.7348C147.145 39.1148 147.258 39.55 147.269 40.0403H146.166C146.137 39.6906 146.055 39.4008 145.918 39.1709C145.781 38.9391 145.564 38.7623 145.265 38.6407C144.969 38.5172 144.573 38.4554 144.077 38.4554C143.706 38.4554 143.394 38.5029 143.139 38.598C142.886 38.693 142.696 38.8298 142.569 39.0084C142.441 39.1851 142.378 39.3961 142.378 39.6412C142.378 39.8939 142.428 40.1058 142.529 40.2768C142.63 40.4479 142.804 40.5951 143.053 40.7186C143.302 40.8422 143.651 40.9505 144.099 41.0436L144.92 41.2146C145.544 41.3438 146.043 41.5139 146.42 41.7248C146.796 41.9358 147.068 42.1904 147.235 42.4887C147.402 42.7871 147.486 43.1415 147.486 43.5519C147.486 44.046 147.364 44.4745 147.121 44.8374C146.878 45.2004 146.523 45.4797 146.058 45.6755C145.592 45.8712 145.034 45.969 144.384 45.969ZM150.962 45.9234C150.417 45.9234 149.935 45.798 149.517 45.5472C149.099 45.2964 148.773 44.9391 148.54 44.4754C148.308 44.0099 148.192 43.4664 148.192 42.845C148.192 42.2217 148.307 41.6783 148.537 41.2146C148.767 40.749 149.091 40.3918 149.509 40.1429C149.927 39.892 150.411 39.7666 150.962 39.7666C151.439 39.7666 151.861 39.855 152.228 40.0317C152.597 40.2084 152.894 40.4602 153.12 40.7871C153.348 41.112 153.493 41.4939 153.553 41.9329H152.476C152.425 41.6612 152.326 41.4322 152.179 41.246C152.033 41.0597 151.855 40.921 151.644 40.8298C151.433 40.7367 151.206 40.6901 150.962 40.6901C150.636 40.6901 150.346 40.769 150.093 40.9267C149.842 41.0844 149.645 41.3248 149.5 41.6479C149.358 41.9709 149.286 42.37 149.286 42.845C149.286 43.3182 149.359 43.7163 149.506 44.0393C149.652 44.3624 149.851 44.6037 150.102 44.7633C150.354 44.9211 150.641 44.9999 150.962 44.9999C151.209 44.9999 151.439 44.9534 151.652 44.8602C151.865 44.7652 152.046 44.6218 152.194 44.4298C152.342 44.2379 152.441 44.0023 152.49 43.7229H153.559C153.498 44.1733 153.349 44.5648 153.112 44.8973C152.876 45.2279 152.573 45.4816 152.202 45.6584C151.832 45.8351 151.418 45.9234 150.962 45.9234ZM157.156 45.9234C156.592 45.9234 156.09 45.7971 155.651 45.5443C155.214 45.2916 154.873 44.9334 154.628 44.4697C154.383 44.0042 154.26 43.4626 154.26 42.845C154.26 42.2274 154.383 41.6868 154.628 41.2232C154.873 40.7576 155.214 40.3985 155.651 40.1457C156.09 39.893 156.592 39.7666 157.156 39.7666C157.717 39.7666 158.214 39.893 158.65 40.1457C159.087 40.3985 159.428 40.7576 159.673 41.2232C159.918 41.6868 160.041 42.2274 160.041 42.845C160.041 43.4626 159.918 44.0042 159.673 44.4697C159.428 44.9334 159.087 45.2916 158.65 45.5443C158.214 45.7971 157.717 45.9234 157.156 45.9234ZM157.156 45.0113C157.517 45.0113 157.832 44.9268 158.099 44.7576C158.369 44.5866 158.577 44.3386 158.724 44.0137C158.872 43.6868 158.946 43.2973 158.946 42.845C158.946 42.3928 158.872 42.0042 158.724 41.6792C158.577 41.3524 158.369 41.1044 158.099 40.9353C157.832 40.7643 157.517 40.6787 157.156 40.6787C156.791 40.6787 156.473 40.7643 156.201 40.9353C155.931 41.1044 155.722 41.3514 155.574 41.6764C155.428 42.0013 155.355 42.3909 155.355 42.845C155.355 43.2992 155.428 43.6887 155.574 44.0137C155.722 44.3386 155.931 44.5866 156.201 44.7576C156.473 44.9268 156.791 45.0113 157.156 45.0113ZM161.081 45.7866V39.9034H162.084V41.3742H162.13V45.7866H161.081ZM161.776 42.2179C161.776 41.8436 161.852 41.4721 162.004 41.1034C162.158 40.7348 162.398 40.4279 162.723 40.1828C163.048 39.9357 163.454 39.8122 163.943 39.8122C163.992 39.8122 164.042 39.8141 164.094 39.8179C164.147 39.8198 164.203 39.8236 164.262 39.8293V40.8156C164.212 40.8156 164.165 40.8156 164.119 40.8156C164.076 40.8156 164.036 40.8156 164 40.8156C163.612 40.8156 163.279 40.8802 162.999 41.0094C162.72 41.1386 162.505 41.3324 162.355 41.5909C162.205 41.8474 162.13 42.1628 162.13 42.5372H161.776V42.2179ZM167.286 45.9234C166.74 45.9234 166.256 45.799 165.832 45.55C165.41 45.2992 165.081 44.942 164.846 44.4783C164.61 44.0127 164.492 43.4683 164.492 42.845C164.492 42.235 164.607 41.6973 164.837 41.2317C165.067 40.7662 165.391 40.4061 165.809 40.1514C166.229 39.8949 166.714 39.7666 167.263 39.7666C167.835 39.7666 168.328 39.9025 168.742 40.1742C169.157 40.446 169.471 40.8165 169.686 41.2859C169.902 41.7552 170.011 42.2826 170.011 42.8678C170.011 42.921 170.011 42.9752 170.011 43.0303C170.011 43.0854 170.011 43.1415 170.011 43.1985H164.983V42.332H169.395L168.928 42.5942C168.924 42.2293 168.857 41.9025 168.728 41.6137C168.599 41.3248 168.409 41.0968 168.158 40.9296C167.907 40.7624 167.605 40.6787 167.252 40.6787C166.919 40.6787 166.625 40.7557 166.371 40.9096C166.118 41.0635 165.919 41.2963 165.775 41.608C165.631 41.9196 165.557 42.3054 165.553 42.7652V42.8678C165.553 43.3505 165.624 43.7514 165.767 44.0707C165.909 44.3899 166.11 44.6265 166.371 44.7804C166.631 44.9344 166.94 45.0113 167.297 45.0113C167.558 45.0113 167.788 44.9695 167.99 44.8859C168.193 44.8023 168.362 44.6845 168.497 44.5325C168.634 44.3785 168.736 44.1961 168.802 43.9852H169.865C169.768 44.3671 169.605 44.7044 169.375 44.9971C169.145 45.2878 168.853 45.5149 168.497 45.6783C168.144 45.8417 167.74 45.9234 167.286 45.9234Z" fill="#1D1C1C"/>
<path d="M43.2652 64.7866V59.3635H43.8617V64.7866H43.2652ZM41.2879 59.6309V59.1041H45.845V59.6309H41.2879ZM49.1349 62.1349C49.1349 61.8955 49.0943 61.6966 49.0131 61.5383C48.932 61.3787 48.815 61.2603 48.662 61.1832C48.509 61.1047 48.3221 61.0654 48.1013 61.0654C47.8925 61.0654 47.6969 61.1167 47.5147 61.2191C47.3325 61.3202 47.1842 61.4765 47.0698 61.688C46.9567 61.8995 46.8988 62.1635 46.8962 62.4801H46.5111V61.8237L46.7166 61.8256C46.7751 61.5822 46.8736 61.3667 47.0119 61.1792C47.1502 60.9903 47.3238 60.842 47.5327 60.7342C47.7415 60.6265 47.9749 60.5726 48.233 60.5726C48.5363 60.5726 48.7963 60.6305 49.0131 60.7462C49.2313 60.8619 49.3976 61.0322 49.512 61.257C49.6277 61.4805 49.6856 61.7512 49.6856 62.0691V64.7866H49.1349V62.1349ZM46.3435 64.7866V59.1041H46.8962V64.7866H46.3435ZM50.6224 64.7866V60.6684H51.1751V64.7866H50.6224ZM50.6224 60.1636V59.3755H51.1751V60.1636H50.6224ZM53.5856 64.8824C53.2224 64.8824 52.9145 64.8299 52.6617 64.7248C52.4103 64.6184 52.2161 64.4627 52.0791 64.2579C51.9434 64.053 51.8663 63.8016 51.8477 63.5037H52.4024C52.421 63.7138 52.4742 63.8881 52.562 64.0264C52.6498 64.1634 52.7775 64.2659 52.9451 64.3337C53.114 64.4015 53.3295 64.4355 53.5915 64.4355C53.8296 64.4355 54.0292 64.4089 54.1901 64.3556C54.3511 64.3024 54.4728 64.222 54.5553 64.1142C54.6377 64.0065 54.679 63.8715 54.679 63.7092C54.679 63.5722 54.6477 63.4571 54.5852 63.364C54.5227 63.2709 54.4202 63.1931 54.2779 63.1306C54.1369 63.068 53.9447 63.0162 53.7013 62.9749L53.2663 62.9011C52.9856 62.8532 52.7495 62.7807 52.558 62.6836C52.3664 62.5852 52.2195 62.4568 52.117 62.2985C52.0159 62.1389 51.9654 61.9454 51.9654 61.7179C51.9654 61.4825 52.0253 61.2789 52.145 61.1074C52.266 60.9358 52.4409 60.8041 52.6697 60.7123C52.8985 60.6192 53.1712 60.5726 53.4878 60.5726C53.8562 60.5726 54.1615 60.6252 54.4036 60.7302C54.647 60.834 54.8286 60.9823 54.9483 61.1752C55.068 61.3681 55.1339 61.6002 55.1458 61.8715H54.6031C54.5912 61.672 54.5426 61.5104 54.4575 61.3867C54.3737 61.2617 54.252 61.1705 54.0923 61.1133C53.9341 61.0548 53.7319 61.0255 53.4858 61.0255C53.2796 61.0255 53.104 61.0521 52.959 61.1054C52.8154 61.1572 52.7056 61.2337 52.6298 61.3348C52.5553 61.4359 52.5181 61.5583 52.5181 61.7019C52.5181 61.8443 52.5527 61.9627 52.6218 62.0571C52.691 62.1515 52.7928 62.2274 52.9271 62.2846C53.0615 62.3404 53.2331 62.3863 53.4419 62.4222L53.8769 62.4961C54.1828 62.5479 54.4349 62.6224 54.6331 62.7195C54.8326 62.8166 54.9829 62.943 55.084 63.0986C55.1864 63.2529 55.2376 63.4431 55.2376 63.6693C55.2376 63.934 55.1691 64.1568 55.0321 64.3377C54.8964 64.5186 54.7049 64.6549 54.4575 64.7467C54.2101 64.8372 53.9194 64.8824 53.5856 64.8824ZM59.0492 64.8824C58.686 64.8824 58.3781 64.8299 58.1253 64.7248C57.8739 64.6184 57.6797 64.4627 57.5427 64.2579C57.407 64.053 57.3299 63.8016 57.3113 63.5037H57.866C57.8846 63.7138 57.9378 63.8881 58.0256 64.0264C58.1134 64.1634 58.2411 64.2659 58.4087 64.3337C58.5776 64.4015 58.7931 64.4355 59.0551 64.4355C59.2932 64.4355 59.4928 64.4089 59.6537 64.3556C59.8147 64.3024 59.9364 64.222 60.0189 64.1142C60.1013 64.0065 60.1426 63.8715 60.1426 63.7092C60.1426 63.5722 60.1113 63.4571 60.0488 63.364C59.9863 63.2709 59.8838 63.1931 59.7415 63.1306C59.6005 63.068 59.4083 63.0162 59.1649 62.9749L58.7299 62.9011C58.4492 62.8532 58.2131 62.7807 58.0216 62.6836C57.83 62.5852 57.6831 62.4568 57.5806 62.2985C57.4795 62.1389 57.429 61.9454 57.429 61.7179C57.429 61.4825 57.4889 61.2789 57.6086 61.1074C57.7296 60.9358 57.9045 60.8041 58.1333 60.7123C58.3621 60.6192 58.6348 60.5726 58.9514 60.5726C59.3198 60.5726 59.6251 60.6252 59.8672 60.7302C60.1106 60.834 60.2922 60.9823 60.4119 61.1752C60.5316 61.3681 60.5975 61.6002 60.6094 61.8715H60.0667C60.0548 61.672 60.0062 61.5104 59.9211 61.3867C59.8373 61.2617 59.7156 61.1705 59.5559 61.1133C59.3977 61.0548 59.1955 61.0255 58.9494 61.0255C58.7432 61.0255 58.5676 61.0521 58.4226 61.1054C58.279 61.1572 58.1692 61.2337 58.0934 61.3348C58.0189 61.4359 57.9817 61.5583 57.9817 61.7019C57.9817 61.8443 58.0163 61.9627 58.0854 62.0571C58.1546 62.1515 58.2564 62.2274 58.3907 62.2846C58.5251 62.3404 58.6967 62.3863 58.9055 62.4222L59.3405 62.4961C59.6464 62.5479 59.8985 62.6224 60.0967 62.7195C60.2962 62.8166 60.4465 62.943 60.5476 63.0986C60.65 63.2529 60.7012 63.4431 60.7012 63.6693C60.7012 63.934 60.6327 64.1568 60.4957 64.3377C60.36 64.5186 60.1685 64.6549 59.9211 64.7467C59.6737 64.8372 59.383 64.8824 59.0492 64.8824ZM63.0509 64.8824C62.6758 64.8824 62.3452 64.7946 62.0593 64.619C61.7746 64.4434 61.5531 64.1934 61.3948 63.8688C61.2379 63.5429 61.1594 63.1625 61.1594 62.7275C61.1594 62.2899 61.2372 61.9088 61.3928 61.5842C61.5498 61.2597 61.7706 61.0102 62.0553 60.836C62.3413 60.6604 62.6731 60.5726 63.0509 60.5726C63.3728 60.5726 63.6581 60.6345 63.9069 60.7582C64.1556 60.8806 64.3571 61.0528 64.5114 61.275C64.6657 61.4958 64.7642 61.7525 64.8067 62.0451H64.2421C64.2022 61.8403 64.1264 61.664 64.0146 61.5164C63.9042 61.3674 63.7659 61.2543 63.5996 61.1772C63.4333 61.0987 63.2504 61.0595 63.0509 61.0595C62.7915 61.0595 62.5627 61.1226 62.3645 61.249C62.1663 61.3754 62.0114 61.5636 61.8996 61.8137C61.7892 62.0637 61.734 62.3684 61.734 62.7275C61.734 63.0853 61.7899 63.3899 61.9016 63.6413C62.0147 63.8914 62.1697 64.0796 62.3665 64.206C62.5647 64.3324 62.7929 64.3955 63.0509 64.3955C63.2518 64.3955 63.4367 64.3543 63.6056 64.2718C63.7759 64.1894 63.9182 64.0697 64.0326 63.9127C64.147 63.7544 64.2215 63.5682 64.256 63.354H64.8167C64.7781 63.656 64.6784 63.9227 64.5174 64.1541C64.3578 64.3856 64.151 64.5651 63.8969 64.6928C63.6442 64.8192 63.3622 64.8824 63.0509 64.8824ZM67.2943 64.8824C66.9086 64.8824 66.5674 64.7933 66.2708 64.615C65.9755 64.4355 65.746 64.1834 65.5824 63.8588C65.4188 63.5329 65.337 63.1558 65.337 62.7275C65.337 62.2992 65.4188 61.9227 65.5824 61.5982C65.746 61.2723 65.9755 61.0202 66.2708 60.842C66.5674 60.6624 66.9086 60.5726 67.2943 60.5726C67.6774 60.5726 68.016 60.6624 68.3099 60.842C68.6052 61.0202 68.8347 61.2723 68.9983 61.5982C69.1619 61.9227 69.2437 62.2992 69.2437 62.7275C69.2437 63.1558 69.1619 63.5329 68.9983 63.8588C68.8347 64.1834 68.6052 64.4355 68.3099 64.615C68.016 64.7933 67.6774 64.8824 67.2943 64.8824ZM67.2943 64.4015C67.571 64.4015 67.8131 64.3337 68.0206 64.198C68.2281 64.0623 68.3877 63.8688 68.4995 63.6174C68.6125 63.3647 68.6691 63.068 68.6691 62.7275C68.6691 62.387 68.6125 62.091 68.4995 61.8396C68.3877 61.5869 68.2281 61.3927 68.0206 61.257C67.8131 61.1213 67.571 61.0535 67.2943 61.0535C67.015 61.0535 66.7709 61.1213 66.5621 61.257C66.3546 61.3927 66.1943 61.5869 66.0812 61.8396C65.9682 62.091 65.9116 62.387 65.9116 62.7275C65.9116 63.068 65.9682 63.3647 66.0812 63.6174C66.1943 63.8688 66.3546 64.0623 66.5621 64.198C66.7709 64.3337 67.015 64.4015 67.2943 64.4015ZM69.9905 64.7866V60.6684H70.5193V61.8476L70.5432 61.8695V64.7866H69.9905ZM70.3576 62.2566C70.3576 62.0039 70.4122 61.7518 70.5212 61.5004C70.6303 61.2477 70.8012 61.0362 71.034 60.8659C71.2668 60.6957 71.5581 60.6105 71.908 60.6105C71.9425 60.6105 71.9798 60.6119 72.0197 60.6145C72.0596 60.6158 72.1015 60.6185 72.1454 60.6225V61.1413C72.1055 61.1399 72.0676 61.1393 72.0317 61.1393C71.9957 61.1379 71.9638 61.1373 71.9359 61.1373C71.6406 61.1373 71.3885 61.1931 71.1797 61.3049C70.9722 61.4153 70.8139 61.5742 70.7048 61.7818C70.5971 61.9893 70.5432 62.2367 70.5432 62.524H70.3576V62.2566ZM74.1889 64.8824C73.8058 64.8824 73.47 64.7939 73.1813 64.617C72.894 64.4388 72.6719 64.1874 72.5149 63.8628C72.3593 63.5382 72.2814 63.1598 72.2814 62.7275C72.2814 62.3018 72.3579 61.9267 72.5109 61.6022C72.6639 61.2763 72.8827 61.0235 73.1673 60.844C73.452 60.6631 73.7859 60.5726 74.169 60.5726C74.5627 60.5726 74.9006 60.6671 75.1826 60.8559C75.4646 61.0435 75.6787 61.3009 75.825 61.6281C75.9714 61.954 76.0445 62.3218 76.0445 62.7315C76.0445 62.7594 76.0445 62.788 76.0445 62.8173C76.0445 62.8466 76.0445 62.8765 76.0445 62.9071H72.5428V62.4482H75.7193L75.4759 62.5958C75.4732 62.2979 75.4213 62.0332 75.3202 61.8017C75.2191 61.5689 75.0702 61.386 74.8733 61.253C74.6764 61.12 74.4397 61.0535 74.163 61.0535C73.8956 61.0535 73.6628 61.1167 73.4646 61.243C73.2678 61.3694 73.1148 61.5536 73.0057 61.7957C72.898 62.0378 72.8421 62.3304 72.8381 62.6736V62.7395C72.8381 63.096 72.892 63.3986 72.9997 63.6473C73.1075 63.8947 73.2624 64.0823 73.4646 64.21C73.6682 64.3377 73.9116 64.4015 74.1949 64.4015C74.4037 64.4015 74.59 64.3643 74.7536 64.2898C74.9185 64.214 75.0555 64.1069 75.1646 63.9686C75.2737 63.8289 75.3508 63.6646 75.3961 63.4757H75.9547C75.8949 63.7537 75.7858 63.9985 75.6275 64.21C75.4705 64.4215 75.2697 64.5864 75.0249 64.7048C74.7802 64.8232 74.5015 64.8824 74.1889 64.8824ZM78.4782 64.7866V60.6684H79.0069V61.8476L79.0309 61.8695V64.7866H78.4782ZM78.8453 62.2566C78.8453 62.0039 78.8998 61.7518 79.0089 61.5004C79.118 61.2477 79.2889 61.0362 79.5217 60.8659C79.7545 60.6957 80.0458 60.6105 80.3956 60.6105C80.4302 60.6105 80.4675 60.6119 80.5074 60.6145C80.5473 60.6158 80.5892 60.6185 80.6331 60.6225V61.1413C80.5932 61.1399 80.5553 61.1393 80.5193 61.1393C80.4834 61.1379 80.4515 61.1373 80.4236 61.1373C80.1283 61.1373 79.8762 61.1931 79.6674 61.3049C79.4599 61.4153 79.3016 61.5742 79.1925 61.7818C79.0847 61.9893 79.0309 62.2367 79.0309 62.524H78.8453V62.2566ZM82.6766 64.8824C82.2935 64.8824 81.9576 64.7939 81.669 64.617C81.3817 64.4388 81.1595 64.1874 81.0026 63.8628C80.8469 63.5382 80.7691 63.1598 80.7691 62.7275C80.7691 62.3018 80.8456 61.9267 80.9986 61.6022C81.1515 61.2763 81.3704 61.0235 81.655 60.844C81.9397 60.6631 82.2736 60.5726 82.6566 60.5726C83.0504 60.5726 83.3882 60.6671 83.6702 60.8559C83.9522 61.0435 84.1664 61.3009 84.3127 61.6281C84.459 61.954 84.5322 62.3218 84.5322 62.7315C84.5322 62.7594 84.5322 62.788 84.5322 62.8173C84.5322 62.8466 84.5322 62.8765 84.5322 62.9071H81.0305V62.4482H84.207L83.9635 62.5958C83.9609 62.2979 83.909 62.0332 83.8079 61.8017C83.7068 61.5689 83.5578 61.386 83.361 61.253C83.1641 61.12 82.9273 61.0535 82.6507 61.0535C82.3833 61.0535 82.1505 61.1167 81.9523 61.243C81.7554 61.3694 81.6025 61.5536 81.4934 61.7957C81.3857 62.0378 81.3298 62.3304 81.3258 62.6736V62.7395C81.3258 63.096 81.3797 63.3986 81.4874 63.6473C81.5952 63.8947 81.7501 64.0823 81.9523 64.21C82.1558 64.3377 82.3993 64.4015 82.6826 64.4015C82.8914 64.4015 83.0776 64.3643 83.2413 64.2898C83.4062 64.214 83.5432 64.1069 83.6523 63.9686C83.7614 63.8289 83.8385 63.6646 83.8837 63.4757H84.4424C84.3825 63.7537 84.2735 63.9985 84.1152 64.21C83.9582 64.4215 83.7574 64.5864 83.5126 64.7048C83.2679 64.8232 82.9892 64.8824 82.6766 64.8824ZM85.4086 64.7866V61.4904V60.8959V60.1796C85.4086 59.9494 85.4465 59.7539 85.5223 59.5929C85.5994 59.4307 85.7198 59.3063 85.8834 59.2198C86.047 59.132 86.2579 59.0881 86.5159 59.0881C86.5638 59.0881 86.6223 59.0895 86.6915 59.0921C86.7607 59.0948 86.8239 59.0981 86.8811 59.1021C86.8837 59.1021 86.887 59.1028 86.891 59.1041C86.895 59.1041 86.8984 59.1041 86.901 59.1041V59.563C86.885 59.5617 86.8691 59.561 86.8531 59.561C86.8385 59.561 86.8232 59.561 86.8072 59.561C86.766 59.5597 86.7248 59.559 86.6835 59.559C86.6436 59.5577 86.6044 59.557 86.5658 59.557C86.4275 59.557 86.3131 59.581 86.2226 59.6289C86.1335 59.6767 86.067 59.7466 86.0231 59.8384C85.9805 59.9288 85.9592 60.0405 85.9592 60.1736V60.8959V61.4904V64.7866H85.4086ZM84.7302 61.1333V60.6684H85.6839H86.8691V61.1333H85.6839H84.7302ZM87.5036 64.7866V59.1041H88.0563V64.7866H87.5036ZM90.7122 64.8824C90.3291 64.8824 89.9933 64.7939 89.7046 64.617C89.4173 64.4388 89.1952 64.1874 89.0382 63.8628C88.8826 63.5382 88.8047 63.1598 88.8047 62.7275C88.8047 62.3018 88.8812 61.9267 89.0342 61.6022C89.1872 61.2763 89.406 61.0235 89.6906 60.844C89.9753 60.6631 90.3092 60.5726 90.6923 60.5726C91.086 60.5726 91.4239 60.6671 91.7059 60.8559C91.9879 61.0435 92.202 61.3009 92.3483 61.6281C92.4947 61.954 92.5678 62.3218 92.5678 62.7315C92.5678 62.7594 92.5678 62.788 92.5678 62.8173C92.5678 62.8466 92.5678 62.8765 92.5678 62.9071H89.0661V62.4482H92.2426L91.9992 62.5958C91.9965 62.2979 91.9446 62.0332 91.8435 61.8017C91.7424 61.5689 91.5935 61.386 91.3966 61.253C91.1997 61.12 90.963 61.0535 90.6863 61.0535C90.4189 61.0535 90.1861 61.1167 89.9879 61.243C89.7911 61.3694 89.6381 61.5536 89.529 61.7957C89.4213 62.0378 89.3654 62.3304 89.3614 62.6736V62.7395C89.3614 63.096 89.4153 63.3986 89.523 63.6473C89.6308 63.8947 89.7857 64.0823 89.9879 64.21C90.1915 64.3377 90.4349 64.4015 90.7182 64.4015C90.927 64.4015 91.1133 64.3643 91.2769 64.2898C91.4418 64.214 91.5788 64.1069 91.6879 63.9686C91.797 63.8289 91.8741 63.6646 91.9194 63.4757H92.478C92.4182 63.7537 92.3091 63.9985 92.1508 64.21C91.9938 64.4215 91.793 64.5864 91.5482 64.7048C91.3035 64.8232 91.0248 64.8824 90.7122 64.8824ZM95.0141 64.8824C94.639 64.8824 94.3085 64.7946 94.0225 64.619C93.7378 64.4434 93.5164 64.1934 93.3581 63.8688C93.2011 63.5429 93.1226 63.1625 93.1226 62.7275C93.1226 62.2899 93.2004 61.9088 93.3561 61.5842C93.513 61.2597 93.7338 61.0102 94.0185 60.836C94.3045 60.6604 94.6364 60.5726 95.0141 60.5726C95.336 60.5726 95.6214 60.6345 95.8701 60.7582C96.1188 60.8806 96.3204 61.0528 96.4747 61.275C96.629 61.4958 96.7274 61.7525 96.77 62.0451H96.2053C96.1654 61.8403 96.0896 61.664 95.9778 61.5164C95.8674 61.3674 95.7291 61.2543 95.5628 61.1772C95.3966 61.0987 95.2137 61.0595 95.0141 61.0595C94.7547 61.0595 94.526 61.1226 94.3278 61.249C94.1296 61.3754 93.9746 61.5636 93.8629 61.8137C93.7525 62.0637 93.6973 62.3684 93.6973 62.7275C93.6973 63.0853 93.7531 63.3899 93.8649 63.6413C93.9779 63.8914 94.1329 64.0796 94.3298 64.206C94.528 64.3324 94.7561 64.3955 95.0141 64.3955C95.215 64.3955 95.3999 64.3543 95.5688 64.2718C95.7391 64.1894 95.8814 64.0697 95.9958 63.9127C96.1102 63.7544 96.1847 63.5682 96.2193 63.354H96.7799C96.7414 63.656 96.6416 63.9227 96.4807 64.1541C96.321 64.3856 96.1142 64.5651 95.8601 64.6928C95.6074 64.8192 95.3254 64.8824 95.0141 64.8824ZM98.6528 64.8026C98.428 64.8026 98.2411 64.7727 98.0921 64.7128C97.9444 64.6516 97.8327 64.5565 97.7569 64.4275C97.6824 64.2971 97.6451 64.1282 97.6451 63.9207V61.3328V60.8939V60.4429V59.4074H98.1958V60.4429V60.8939V61.3328V63.8708C98.1958 63.9745 98.2125 64.0603 98.2457 64.1282C98.2803 64.196 98.3362 64.2472 98.4133 64.2818C98.4918 64.3164 98.5962 64.3337 98.7266 64.3337C98.7745 64.3337 98.8237 64.333 98.8742 64.3317C98.9248 64.3304 98.976 64.3297 99.0279 64.3297L99.0817 64.3277V64.7866C99.0751 64.7866 99.0678 64.7866 99.0598 64.7866C99.0518 64.788 99.0445 64.7886 99.0378 64.7886C98.9713 64.7926 98.9042 64.7959 98.8363 64.7986C98.7685 64.8013 98.7073 64.8026 98.6528 64.8026ZM96.9668 61.1333V60.6684H97.9205H99.0817V61.1333H97.9205H96.9668ZM101.152 64.8824C100.789 64.8824 100.481 64.8299 100.229 64.7248C99.9772 64.6184 99.783 64.4627 99.646 64.2579C99.5103 64.053 99.4331 63.8016 99.4145 63.5037H99.9692C99.9878 63.7138 100.041 63.8881 100.129 64.0264C100.217 64.1634 100.344 64.2659 100.512 64.3337C100.681 64.4015 100.896 64.4355 101.158 64.4355C101.396 64.4355 101.596 64.4089 101.757 64.3556C101.918 64.3024 102.04 64.222 102.122 64.1142C102.205 64.0065 102.246 63.8715 102.246 63.7092C102.246 63.5722 102.215 63.4571 102.152 63.364C102.089 63.2709 101.987 63.1931 101.845 63.1306C101.704 63.068 101.512 63.0162 101.268 62.9749L100.833 62.9011C100.552 62.8532 100.316 62.7807 100.125 62.6836C99.9333 62.5852 99.7863 62.4568 99.6839 62.2985C99.5828 62.1389 99.5322 61.9454 99.5322 61.7179C99.5322 61.4825 99.5921 61.2789 99.7118 61.1074C99.8328 60.9358 100.008 60.8041 100.237 60.7123C100.465 60.6192 100.738 60.5726 101.055 60.5726C101.423 60.5726 101.728 60.6252 101.97 60.7302C102.214 60.834 102.395 60.9823 102.515 61.1752C102.635 61.3681 102.701 61.6002 102.713 61.8715H102.17C102.158 61.672 102.109 61.5104 102.024 61.3867C101.941 61.2617 101.819 61.1705 101.659 61.1133C101.501 61.0548 101.299 61.0255 101.053 61.0255C100.846 61.0255 100.671 61.0521 100.526 61.1054C100.382 61.1572 100.272 61.2337 100.197 61.3348C100.122 61.4359 100.085 61.5583 100.085 61.7019C100.085 61.8443 100.12 61.9627 100.189 62.0571C100.258 62.1515 100.36 62.2274 100.494 62.2846C100.628 62.3404 100.8 62.3863 101.009 62.4222L101.444 62.4961C101.75 62.5479 102.002 62.6224 102.2 62.7195C102.399 62.8166 102.55 62.943 102.651 63.0986C102.753 63.2529 102.804 63.4431 102.804 63.6693C102.804 63.934 102.736 64.1568 102.599 64.3377C102.463 64.5186 102.272 64.6549 102.024 64.7467C101.777 64.8372 101.486 64.8824 101.152 64.8824ZM106.373 64.7866L104.742 60.6684H105.343L106.317 63.2243C106.402 63.4598 106.48 63.6799 106.552 63.8848C106.624 64.0896 106.696 64.3044 106.768 64.5292L106.586 64.5352C106.649 64.3384 106.718 64.1295 106.796 63.9087C106.874 63.6866 106.957 63.4564 107.043 63.2183L108.017 60.6684H108.605L106.975 64.7866H106.373ZM110.649 64.8824C110.266 64.8824 109.93 64.7939 109.642 64.617C109.354 64.4388 109.132 64.1874 108.975 63.8628C108.82 63.5382 108.742 63.1598 108.742 62.7275C108.742 62.3018 108.818 61.9267 108.971 61.6022C109.124 61.2763 109.343 61.0235 109.628 60.844C109.912 60.6631 110.246 60.5726 110.629 60.5726C111.023 60.5726 111.361 60.6671 111.643 60.8559C111.925 61.0435 112.139 61.3009 112.285 61.6281C112.432 61.954 112.505 62.3218 112.505 62.7315C112.505 62.7594 112.505 62.788 112.505 62.8173C112.505 62.8466 112.505 62.8765 112.505 62.9071H109.003V62.4482H112.18L111.936 62.5958C111.934 62.2979 111.882 62.0332 111.781 61.8017C111.68 61.5689 111.531 61.386 111.334 61.253C111.137 61.12 110.9 61.0535 110.623 61.0535C110.356 61.0535 110.123 61.1167 109.925 61.243C109.728 61.3694 109.575 61.5536 109.466 61.7957C109.358 62.0378 109.302 62.3304 109.298 62.6736V62.7395C109.298 63.096 109.352 63.3986 109.46 63.6473C109.568 63.8947 109.723 64.0823 109.925 64.21C110.129 64.3377 110.372 64.4015 110.655 64.4015C110.864 64.4015 111.05 64.3643 111.214 64.2898C111.379 64.214 111.516 64.1069 111.625 63.9686C111.734 63.8289 111.811 63.6646 111.856 63.4757H112.415C112.355 63.7537 112.246 63.9985 112.088 64.21C111.931 64.4215 111.73 64.5864 111.485 64.7048C111.241 64.8232 110.962 64.8824 110.649 64.8824ZM113.247 64.7866V60.6684H113.776V61.8476L113.8 61.8695V64.7866H113.247ZM113.614 62.2566C113.614 62.0039 113.669 61.7518 113.778 61.5004C113.887 61.2477 114.058 61.0362 114.291 60.8659C114.524 60.6957 114.815 60.6105 115.165 60.6105C115.199 60.6105 115.237 60.6119 115.276 60.6145C115.316 60.6158 115.358 60.6185 115.402 60.6225V61.1413C115.362 61.1399 115.324 61.1393 115.288 61.1393C115.252 61.1379 115.221 61.1373 115.193 61.1373C114.897 61.1373 114.645 61.1931 114.436 61.3049C114.229 61.4153 114.071 61.5742 113.962 61.7818C113.854 61.9893 113.8 62.2367 113.8 62.524H113.614V62.2566ZM117.938 64.8824C117.586 64.8824 117.282 64.7933 117.026 64.615C116.772 64.4355 116.578 64.1834 116.444 63.8588C116.309 63.5343 116.242 63.1572 116.242 62.7275V62.7115C116.243 62.2859 116.311 61.9121 116.446 61.5902C116.58 61.267 116.774 61.0169 117.028 60.84C117.284 60.6617 117.587 60.5726 117.938 60.5726C118.301 60.5726 118.619 60.6617 118.89 60.84C119.163 61.0182 119.372 61.2696 119.518 61.5942C119.665 61.9188 119.738 62.2965 119.738 62.7275C119.738 63.1585 119.665 63.5363 119.518 63.8608C119.372 64.1854 119.163 64.4368 118.89 64.615C118.619 64.7933 118.301 64.8824 117.938 64.8824ZM115.991 64.7866V59.1041H116.543V61.7857H116.474V63.6573H116.519V64.7866H115.991ZM117.846 64.4015C118.112 64.4015 118.344 64.3324 118.543 64.194C118.741 64.0544 118.894 63.8568 119.002 63.6014C119.109 63.3447 119.163 63.0461 119.163 62.7056C119.163 62.365 119.109 62.0711 119.002 61.8237C118.895 61.5749 118.743 61.3847 118.545 61.253C118.346 61.12 118.114 61.0535 117.846 61.0535C117.576 61.0535 117.342 61.1213 117.142 61.257C116.944 61.3927 116.791 61.5869 116.683 61.8396C116.577 62.0923 116.523 62.3883 116.523 62.7275C116.523 63.0667 116.577 63.3627 116.683 63.6154C116.791 63.8681 116.944 64.0623 117.142 64.198C117.342 64.3337 117.576 64.4015 117.846 64.4015ZM123.818 64.8086C123.652 64.8086 123.517 64.7833 123.415 64.7327C123.314 64.6809 123.239 64.6031 123.191 64.4993C123.144 64.3942 123.12 64.2592 123.12 64.0943L123.104 63.777V62.3005V62.109V61.7379C123.104 61.5849 123.071 61.4565 123.006 61.3528C122.941 61.2477 122.834 61.1679 122.685 61.1133C122.537 61.0588 122.342 61.0315 122.1 61.0315C121.839 61.0315 121.629 61.0608 121.468 61.1193C121.307 61.1778 121.186 61.2716 121.106 61.4007C121.027 61.5297 120.981 61.7013 120.969 61.9154H120.424C120.436 61.6321 120.5 61.3913 120.616 61.1931C120.731 60.995 120.911 60.842 121.154 60.7342C121.399 60.6265 121.714 60.5726 122.1 60.5726C122.458 60.5726 122.751 60.6212 122.98 60.7183C123.21 60.814 123.378 60.9484 123.483 61.1213C123.589 61.2942 123.642 61.4978 123.642 61.7319V64.0663C123.642 64.1315 123.652 64.1854 123.672 64.2279C123.692 64.2705 123.723 64.3024 123.764 64.3237C123.805 64.345 123.859 64.3556 123.926 64.3556C123.958 64.3556 123.991 64.3556 124.025 64.3556C124.061 64.3543 124.097 64.353 124.133 64.3517V64.7866C124.088 64.7933 124.037 64.7986 123.982 64.8026C123.927 64.8066 123.873 64.8086 123.818 64.8086ZM121.655 64.8824C121.364 64.8824 121.112 64.8345 120.901 64.7387C120.689 64.643 120.528 64.506 120.416 64.3277C120.304 64.1481 120.248 63.936 120.248 63.6912C120.248 63.4638 120.298 63.2649 120.398 63.0946C120.498 62.9244 120.658 62.7834 120.879 62.6716C121.1 62.5586 121.386 62.4821 121.739 62.4422L122.371 62.3704C122.552 62.3477 122.696 62.3118 122.802 62.2626C122.909 62.2121 122.985 62.1449 123.032 62.0611C123.08 61.9773 123.104 61.8695 123.104 61.7379L123.317 61.7857C123.317 62.0132 123.293 62.1928 123.245 62.3245C123.197 62.4561 123.112 62.5579 122.988 62.6297C122.864 62.7016 122.685 62.7521 122.451 62.7814L121.829 62.8612C121.585 62.8918 121.389 62.9417 121.24 63.0108C121.092 63.0787 120.985 63.1671 120.917 63.2762C120.85 63.3853 120.817 63.5183 120.817 63.6753C120.817 63.8282 120.85 63.9619 120.917 64.0763C120.983 64.1894 121.084 64.2778 121.218 64.3417C121.353 64.4042 121.519 64.4355 121.717 64.4355C121.968 64.4355 122.198 64.3882 122.407 64.2938C122.618 64.1993 122.786 64.0537 122.912 63.8568C123.04 63.66 123.104 63.4152 123.104 63.1226H123.321V63.5595C123.264 63.8442 123.161 64.0856 123.012 64.2838C122.864 64.4807 122.676 64.6297 122.447 64.7308C122.218 64.8318 121.954 64.8824 121.655 64.8824ZM124.634 64.7866V59.1041H125.187V64.7866H124.634ZM131.144 64.8086C130.978 64.8086 130.844 64.7833 130.741 64.7327C130.64 64.6809 130.566 64.6031 130.518 64.4993C130.47 64.3942 130.446 64.2592 130.446 64.0943L130.43 63.777V62.3005V62.109V61.7379C130.43 61.5849 130.397 61.4565 130.332 61.3528C130.267 61.2477 130.16 61.1679 130.011 61.1133C129.863 61.0588 129.669 61.0315 129.426 61.0315C129.166 61.0315 128.955 61.0608 128.794 61.1193C128.633 61.1778 128.513 61.2716 128.433 61.4007C128.353 61.5297 128.307 61.7013 128.295 61.9154H127.75C127.762 61.6321 127.826 61.3913 127.942 61.1931C128.058 60.995 128.237 60.842 128.481 60.7342C128.725 60.6265 129.041 60.5726 129.426 60.5726C129.784 60.5726 130.078 60.6212 130.306 60.7183C130.536 60.814 130.704 60.9484 130.809 61.1213C130.916 61.2942 130.969 61.4978 130.969 61.7319V64.0663C130.969 64.1315 130.979 64.1854 130.999 64.2279C131.019 64.2705 131.049 64.3024 131.09 64.3237C131.132 64.345 131.186 64.3556 131.252 64.3556C131.284 64.3556 131.317 64.3556 131.352 64.3556C131.388 64.3543 131.424 64.353 131.46 64.3517V64.7866C131.414 64.7933 131.364 64.7986 131.308 64.8026C131.253 64.8066 131.199 64.8086 131.144 64.8086ZM128.981 64.8824C128.69 64.8824 128.439 64.8345 128.227 64.7387C128.016 64.643 127.854 64.506 127.742 64.3277C127.631 64.1481 127.575 63.936 127.575 63.6912C127.575 63.4638 127.625 63.2649 127.724 63.0946C127.824 62.9244 127.985 62.7834 128.205 62.6716C128.426 62.5586 128.713 62.4821 129.065 62.4422L129.698 62.3704C129.879 62.3477 130.022 62.3118 130.129 62.2626C130.235 62.2121 130.312 62.1449 130.358 62.0611C130.406 61.9773 130.43 61.8695 130.43 61.7379L130.644 61.7857C130.644 62.0132 130.62 62.1928 130.572 62.3245C130.524 62.4561 130.438 62.5579 130.314 62.6297C130.191 62.7016 130.012 62.7521 129.778 62.7814L129.155 62.8612C128.912 62.8918 128.715 62.9417 128.566 63.0108C128.419 63.0787 128.311 63.1671 128.243 63.2762C128.177 63.3853 128.143 63.5183 128.143 63.6753C128.143 63.8282 128.177 63.9619 128.243 64.0763C128.31 64.1894 128.41 64.2778 128.545 64.3417C128.679 64.4042 128.845 64.4355 129.043 64.4355C129.295 64.4355 129.525 64.3882 129.734 64.2938C129.944 64.1993 130.112 64.0537 130.238 63.8568C130.366 63.66 130.43 63.4152 130.43 63.1226H130.648V63.5595C130.59 63.8442 130.487 64.0856 130.338 64.2838C130.191 64.4807 130.002 64.6297 129.774 64.7308C129.545 64.8318 129.281 64.8824 128.981 64.8824ZM131.992 64.7866V60.6684H132.521V61.8356L132.545 61.8456V64.7866H131.992ZM134.783 62.1349C134.783 61.8955 134.743 61.6966 134.662 61.5383C134.58 61.3787 134.463 61.2603 134.31 61.1832C134.157 61.1047 133.97 61.0654 133.75 61.0654C133.541 61.0654 133.345 61.1167 133.163 61.2191C132.981 61.3202 132.833 61.4765 132.718 61.688C132.605 61.8995 132.547 62.1635 132.545 62.4801H132.159V61.8256H132.365C132.423 61.5822 132.522 61.3667 132.66 61.1792C132.799 60.9903 132.972 60.842 133.181 60.7342C133.39 60.6265 133.623 60.5726 133.881 60.5726C134.185 60.5726 134.445 60.6305 134.662 60.7462C134.88 60.8619 135.046 61.0322 135.16 61.257C135.276 61.4805 135.334 61.7512 135.334 62.0691V64.7866H134.783V62.1349ZM137.883 64.8824C137.521 64.8824 137.205 64.7933 136.933 64.615C136.662 64.4368 136.452 64.1854 136.305 63.8608C136.157 63.5349 136.083 63.1572 136.083 62.7275C136.083 62.2979 136.157 61.9208 136.305 61.5962C136.452 61.2703 136.662 61.0182 136.933 60.84C137.205 60.6617 137.521 60.5726 137.883 60.5726C138.231 60.5726 138.533 60.6617 138.789 60.84C139.044 61.0169 139.24 61.267 139.375 61.5902C139.512 61.9121 139.582 62.2859 139.585 62.7115V62.7275C139.585 63.1558 139.517 63.5329 139.381 63.8588C139.247 64.1834 139.051 64.4355 138.795 64.615C138.539 64.7933 138.235 64.8824 137.883 64.8824ZM137.975 64.4015C138.245 64.4015 138.479 64.3337 138.677 64.198C138.877 64.0623 139.03 63.8681 139.136 63.6154C139.244 63.3627 139.298 63.0667 139.298 62.7275C139.298 62.3883 139.244 62.0923 139.136 61.8396C139.03 61.5869 138.877 61.3927 138.677 61.257C138.479 61.1213 138.245 61.0535 137.975 61.0535C137.709 61.0535 137.477 61.1233 137.278 61.263C137.08 61.4013 136.927 61.5989 136.819 61.8556C136.712 62.111 136.658 62.4089 136.658 62.7495C136.658 63.09 136.711 63.3846 136.817 63.6334C136.925 63.8808 137.078 64.071 137.276 64.204C137.475 64.3357 137.707 64.4015 137.975 64.4015ZM139.302 64.7866V63.6573H139.347V61.7857H139.278V59.1041H139.83V64.7866H139.302ZM144.163 64.8824C143.788 64.8824 143.457 64.7946 143.172 64.619C142.887 64.4434 142.665 64.1934 142.507 63.8688C142.35 63.5429 142.272 63.1625 142.272 62.7275C142.272 62.2899 142.349 61.9088 142.505 61.5842C142.662 61.2597 142.883 61.0102 143.168 60.836C143.454 60.6604 143.785 60.5726 144.163 60.5726C144.485 60.5726 144.77 60.6345 145.019 60.7582C145.268 60.8806 145.469 61.0528 145.624 61.275C145.778 61.4958 145.876 61.7525 145.919 62.0451H145.354C145.314 61.8403 145.239 61.664 145.127 61.5164C145.016 61.3674 144.878 61.2543 144.712 61.1772C144.546 61.0987 144.363 61.0595 144.163 61.0595C143.904 61.0595 143.675 61.1226 143.477 61.249C143.279 61.3754 143.124 61.5636 143.012 61.8137C142.901 62.0637 142.846 62.3684 142.846 62.7275C142.846 63.0853 142.902 63.3899 143.014 63.6413C143.127 63.8914 143.282 64.0796 143.479 64.206C143.677 64.3324 143.905 64.3955 144.163 64.3955C144.364 64.3955 144.549 64.3543 144.718 64.2718C144.888 64.1894 145.03 64.0697 145.145 63.9127C145.259 63.7544 145.334 63.5682 145.368 63.354H145.929C145.89 63.656 145.791 63.9227 145.63 64.1541C145.47 64.3856 145.263 64.5651 145.009 64.6928C144.756 64.8192 144.474 64.8824 144.163 64.8824ZM148.407 64.8824C148.021 64.8824 147.68 64.7933 147.383 64.615C147.088 64.4355 146.858 64.1834 146.695 63.8588C146.531 63.5329 146.449 63.1558 146.449 62.7275C146.449 62.2992 146.531 61.9227 146.695 61.5982C146.858 61.2723 147.088 61.0202 147.383 60.842C147.68 60.6624 148.021 60.5726 148.407 60.5726C148.79 60.5726 149.128 60.6624 149.422 60.842C149.717 61.0202 149.947 61.2723 150.111 61.5982C150.274 61.9227 150.356 62.2992 150.356 62.7275C150.356 63.1558 150.274 63.5329 150.111 63.8588C149.947 64.1834 149.717 64.4355 149.422 64.615C149.128 64.7933 148.79 64.8824 148.407 64.8824ZM148.407 64.4015C148.683 64.4015 148.925 64.3337 149.133 64.198C149.34 64.0623 149.5 63.8688 149.612 63.6174C149.725 63.3647 149.781 63.068 149.781 62.7275C149.781 62.387 149.725 62.091 149.612 61.8396C149.5 61.5869 149.34 61.3927 149.133 61.257C148.925 61.1213 148.683 61.0535 148.407 61.0535C148.127 61.0535 147.883 61.1213 147.674 61.257C147.467 61.3927 147.307 61.5869 147.193 61.8396C147.08 62.091 147.024 62.387 147.024 62.7275C147.024 63.068 147.08 63.3647 147.193 63.6174C147.307 63.8688 147.467 64.0623 147.674 64.198C147.883 64.3337 148.127 64.4015 148.407 64.4015ZM151.103 64.7866V60.6684H151.631V61.8356L151.655 61.8456V64.7866H151.103ZM153.713 62.1289C153.713 61.8895 153.676 61.6913 153.603 61.5343C153.53 61.376 153.423 61.2583 153.282 61.1812C153.141 61.104 152.969 61.0654 152.767 61.0654C152.573 61.0654 152.392 61.1173 152.224 61.2211C152.056 61.3235 151.92 61.4845 151.815 61.7039C151.711 61.9234 151.658 62.1994 151.655 62.532H151.276V61.8256H151.488C151.546 61.5742 151.637 61.3548 151.761 61.1672C151.885 60.9797 152.041 60.834 152.228 60.7302C152.417 60.6252 152.632 60.5726 152.875 60.5726C153.171 60.5726 153.424 60.6365 153.633 60.7642C153.842 60.8905 153.999 61.0661 154.104 61.2909C154.21 61.5144 154.263 61.7718 154.263 62.0631V64.7866H153.713V62.1289ZM156.32 62.1289C156.32 61.8895 156.284 61.6913 156.211 61.5343C156.139 61.376 156.032 61.2583 155.891 61.1812C155.752 61.104 155.579 61.0654 155.375 61.0654C155.178 61.0654 154.996 61.1173 154.828 61.2211C154.66 61.3235 154.525 61.4845 154.421 61.7039C154.318 61.9234 154.266 62.1994 154.263 62.532H153.88V61.9055L154.022 61.8995C154.08 61.6401 154.175 61.4106 154.305 61.2111C154.437 61.0116 154.602 60.8553 154.802 60.7422C155.001 60.6292 155.227 60.5726 155.478 60.5726C155.778 60.5726 156.032 60.6345 156.241 60.7582C156.451 60.8819 156.608 61.0555 156.713 61.2789C156.82 61.5024 156.873 61.7638 156.873 62.0631V64.7866H156.32V62.1289ZM157.806 64.7866V60.6684H158.334V61.8356L158.358 61.8456V64.7866H157.806ZM160.415 62.1289C160.415 61.8895 160.379 61.6913 160.306 61.5343C160.233 61.376 160.125 61.2583 159.984 61.1812C159.843 61.104 159.672 61.0654 159.47 61.0654C159.275 61.0654 159.095 61.1173 158.927 61.2211C158.759 61.3235 158.623 61.4845 158.518 61.7039C158.414 61.9234 158.361 62.1994 158.358 62.532H157.979V61.8256H158.191C158.249 61.5742 158.34 61.3548 158.464 61.1672C158.588 60.9797 158.743 60.834 158.931 60.7302C159.12 60.6252 159.335 60.5726 159.577 60.5726C159.874 60.5726 160.127 60.6365 160.336 60.7642C160.544 60.8905 160.701 61.0661 160.806 61.2909C160.913 61.5144 160.966 61.7718 160.966 62.0631V64.7866H160.415V62.1289ZM163.023 62.1289C163.023 61.8895 162.987 61.6913 162.913 61.5343C162.842 61.376 162.735 61.2583 162.594 61.1812C162.455 61.104 162.282 61.0654 162.077 61.0654C161.881 61.0654 161.698 61.1173 161.531 61.2211C161.363 61.3235 161.227 61.4845 161.124 61.7039C161.021 61.9234 160.969 62.1994 160.966 62.532H160.583V61.9055L160.725 61.8995C160.783 61.6401 160.878 61.4106 161.008 61.2111C161.14 61.0116 161.305 60.8553 161.505 60.7422C161.704 60.6292 161.93 60.5726 162.181 60.5726C162.481 60.5726 162.735 60.6345 162.943 60.7582C163.154 60.8819 163.311 61.0555 163.416 61.2789C163.523 61.5024 163.576 61.7638 163.576 62.0631V64.7866H163.023V62.1289ZM165.823 64.8824C165.519 64.8824 165.259 64.8245 165.041 64.7088C164.824 64.5931 164.657 64.4235 164.542 64.2C164.426 63.9752 164.368 63.7039 164.368 63.3859V60.6684H164.921V63.3201C164.921 63.5595 164.961 63.7591 165.041 63.9187C165.122 64.077 165.239 64.1954 165.392 64.2738C165.546 64.351 165.734 64.3896 165.954 64.3896C166.162 64.3896 166.357 64.339 166.539 64.2379C166.721 64.1355 166.87 63.9785 166.984 63.767C167.098 63.5555 167.157 63.2915 167.16 62.9749H167.543V63.6294H167.337C167.277 63.8728 167.178 64.0889 167.04 64.2778C166.901 64.4667 166.729 64.615 166.521 64.7228C166.314 64.8292 166.081 64.8824 165.823 64.8824ZM167.181 64.7866V63.6194L167.16 63.6094V60.6684H167.71V64.7866H167.181ZM168.647 64.7866V60.6684H169.176V61.8356L169.2 61.8456V64.7866H168.647ZM171.438 62.1349C171.438 61.8955 171.398 61.6966 171.317 61.5383C171.236 61.3787 171.119 61.2603 170.966 61.1832C170.813 61.1047 170.626 61.0654 170.405 61.0654C170.196 61.0654 170.001 61.1167 169.818 61.2191C169.636 61.3202 169.488 61.4765 169.373 61.688C169.26 61.8995 169.202 62.1635 169.2 62.4801H168.815V61.8256H169.02C169.079 61.5822 169.177 61.3667 169.315 61.1792C169.454 60.9903 169.627 60.842 169.836 60.7342C170.045 60.6265 170.279 60.5726 170.537 60.5726C170.84 60.5726 171.1 60.6305 171.317 60.7462C171.535 60.8619 171.701 61.0322 171.816 61.257C171.931 61.4805 171.989 61.7512 171.989 62.0691V64.7866H171.438V62.1349ZM172.926 64.7866V60.6684H173.479V64.7866H172.926ZM172.926 60.1636V59.3755H173.479V60.1636H172.926ZM176.119 64.8824C175.743 64.8824 175.413 64.7946 175.127 64.619C174.842 64.4434 174.621 64.1934 174.463 63.8688C174.306 63.5429 174.227 63.1625 174.227 62.7275C174.227 62.2899 174.305 61.9088 174.461 61.5842C174.617 61.2597 174.838 61.0102 175.123 60.836C175.409 60.6604 175.741 60.5726 176.119 60.5726C176.441 60.5726 176.726 60.6345 176.975 60.7582C177.223 60.8806 177.425 61.0528 177.579 61.275C177.733 61.4958 177.832 61.7525 177.874 62.0451H177.31C177.27 61.8403 177.194 61.664 177.082 61.5164C176.972 61.3674 176.834 61.2543 176.667 61.1772C176.501 61.0987 176.318 61.0595 176.119 61.0595C175.859 61.0595 175.63 61.1226 175.432 61.249C175.234 61.3754 175.079 61.5636 174.967 61.8137C174.857 62.0637 174.802 62.3684 174.802 62.7275C174.802 63.0853 174.858 63.3899 174.969 63.6413C175.082 63.8914 175.237 64.0796 175.434 64.206C175.632 64.3324 175.861 64.3955 176.119 64.3955C176.319 64.3955 176.504 64.3543 176.673 64.2718C176.844 64.1894 176.986 64.0697 177.1 63.9127C177.215 63.7544 177.289 63.5682 177.324 63.354H177.884C177.846 63.656 177.746 63.9227 177.585 64.1541C177.426 64.3856 177.219 64.5651 176.965 64.6928C176.712 64.8192 176.43 64.8824 176.119 64.8824ZM181.922 64.8086C181.756 64.8086 181.622 64.7833 181.519 64.7327C181.418 64.6809 181.344 64.6031 181.296 64.4993C181.248 64.3942 181.224 64.2592 181.224 64.0943L181.208 63.777V62.3005V62.109V61.7379C181.208 61.5849 181.175 61.4565 181.11 61.3528C181.045 61.2477 180.938 61.1679 180.789 61.1133C180.641 61.0588 180.446 61.0315 180.204 61.0315C179.944 61.0315 179.733 61.0608 179.572 61.1193C179.411 61.1778 179.291 61.2716 179.211 61.4007C179.131 61.5297 179.085 61.7013 179.073 61.9154H178.528C178.54 61.6321 178.604 61.3913 178.72 61.1931C178.836 60.995 179.015 60.842 179.259 60.7342C179.503 60.6265 179.819 60.5726 180.204 60.5726C180.562 60.5726 180.856 60.6212 181.084 60.7183C181.314 60.814 181.482 60.9484 181.587 61.1213C181.694 61.2942 181.747 61.4978 181.747 61.7319V64.0663C181.747 64.1315 181.757 64.1854 181.777 64.2279C181.797 64.2705 181.827 64.3024 181.868 64.3237C181.91 64.345 181.964 64.3556 182.03 64.3556C182.062 64.3556 182.095 64.3556 182.13 64.3556C182.166 64.3543 182.202 64.353 182.238 64.3517V64.7866C182.192 64.7933 182.142 64.7986 182.086 64.8026C182.031 64.8066 181.977 64.8086 181.922 64.8086ZM179.759 64.8824C179.468 64.8824 179.217 64.8345 179.005 64.7387C178.794 64.643 178.632 64.506 178.52 64.3277C178.409 64.1481 178.353 63.936 178.353 63.6912C178.353 63.4638 178.403 63.2649 178.502 63.0946C178.602 62.9244 178.762 62.7834 178.983 62.6716C179.204 62.5586 179.491 62.4821 179.843 62.4422L180.476 62.3704C180.657 62.3477 180.8 62.3118 180.907 62.2626C181.013 62.2121 181.09 62.1449 181.136 62.0611C181.184 61.9773 181.208 61.8695 181.208 61.7379L181.422 61.7857C181.422 62.0132 181.398 62.1928 181.35 62.3245C181.302 62.4561 181.216 62.5579 181.092 62.6297C180.969 62.7016 180.79 62.7521 180.556 62.7814L179.933 62.8612C179.69 62.8918 179.493 62.9417 179.344 63.0108C179.197 63.0787 179.089 63.1671 179.021 63.2762C178.955 63.3853 178.921 63.5183 178.921 63.6753C178.921 63.8282 178.955 63.9619 179.021 64.0763C179.088 64.1894 179.188 64.2778 179.322 64.3417C179.457 64.4042 179.623 64.4355 179.821 64.4355C180.073 64.4355 180.303 64.3882 180.512 64.2938C180.722 64.1993 180.89 64.0537 181.016 63.8568C181.144 63.66 181.208 63.4152 181.208 63.1226H181.426V63.5595C181.368 63.8442 181.265 64.0856 181.116 64.2838C180.969 64.4807 180.78 64.6297 180.552 64.7308C180.323 64.8318 180.059 64.8824 179.759 64.8824ZM183.927 64.8026C183.702 64.8026 183.515 64.7727 183.366 64.7128C183.219 64.6516 183.107 64.5565 183.031 64.4275C182.957 64.2971 182.919 64.1282 182.919 63.9207V61.3328V60.8939V60.4429V59.4074H183.47V60.4429V60.8939V61.3328V63.8708C183.47 63.9745 183.487 64.0603 183.52 64.1282C183.555 64.196 183.61 64.2472 183.688 64.2818C183.766 64.3164 183.87 64.3337 184.001 64.3337C184.049 64.3337 184.098 64.333 184.148 64.3317C184.199 64.3304 184.25 64.3297 184.302 64.3297L184.356 64.3277V64.7866C184.349 64.7866 184.342 64.7866 184.334 64.7866C184.326 64.788 184.319 64.7886 184.312 64.7886C184.246 64.7926 184.178 64.7959 184.111 64.7986C184.043 64.8013 183.982 64.8026 183.927 64.8026ZM182.241 61.1333V60.6684H183.195H184.356V61.1333H183.195H182.241ZM185.007 64.7866V60.6684H185.559V64.7866H185.007ZM185.007 60.1636V59.3755H185.559V60.1636H185.007ZM188.265 64.8824C187.879 64.8824 187.538 64.7933 187.242 64.615C186.946 64.4355 186.717 64.1834 186.553 63.8588C186.39 63.5329 186.308 63.1558 186.308 62.7275C186.308 62.2992 186.39 61.9227 186.553 61.5982C186.717 61.2723 186.946 61.0202 187.242 60.842C187.538 60.6624 187.879 60.5726 188.265 60.5726C188.648 60.5726 188.987 60.6624 189.281 60.842C189.576 61.0202 189.805 61.2723 189.969 61.5982C190.133 61.9227 190.215 62.2992 190.215 62.7275C190.215 63.1558 190.133 63.5329 189.969 63.8588C189.805 64.1834 189.576 64.4355 189.281 64.615C188.987 64.7933 188.648 64.8824 188.265 64.8824ZM188.265 64.4015C188.542 64.4015 188.784 64.3337 188.991 64.198C189.199 64.0623 189.359 63.8688 189.47 63.6174C189.583 63.3647 189.64 63.068 189.64 62.7275C189.64 62.387 189.583 62.091 189.47 61.8396C189.359 61.5869 189.199 61.3927 188.991 61.257C188.784 61.1213 188.542 61.0535 188.265 61.0535C187.986 61.0535 187.742 61.1213 187.533 61.257C187.325 61.3927 187.165 61.5869 187.052 61.8396C186.939 62.091 186.882 62.387 186.882 62.7275C186.882 63.068 186.939 63.3647 187.052 63.6174C187.165 63.8688 187.325 64.0623 187.533 64.198C187.742 64.3337 187.986 64.4015 188.265 64.4015ZM190.961 64.7866V60.6684H191.49V61.8356L191.514 61.8456V64.7866H190.961ZM193.753 62.1349C193.753 61.8955 193.712 61.6966 193.631 61.5383C193.55 61.3787 193.433 61.2603 193.28 61.1832C193.127 61.1047 192.94 61.0654 192.719 61.0654C192.51 61.0654 192.315 61.1167 192.133 61.2191C191.95 61.3202 191.802 61.4765 191.688 61.688C191.575 61.8995 191.517 62.1635 191.514 62.4801H191.129V61.8256H191.334C191.393 61.5822 191.491 61.3667 191.63 61.1792C191.768 60.9903 191.942 60.842 192.15 60.7342C192.359 60.6265 192.593 60.5726 192.851 60.5726C193.154 60.5726 193.414 60.6305 193.631 60.7462C193.849 60.8619 194.015 61.0322 194.13 61.257C194.246 61.4805 194.303 61.7512 194.303 62.0691V64.7866H193.753V62.1349ZM106.051 76.7866V73.4904V72.8959V72.1796C106.051 71.9494 106.089 71.7539 106.165 71.5929C106.242 71.4307 106.362 71.3063 106.526 71.2198C106.689 71.132 106.9 71.0881 107.158 71.0881C107.206 71.0881 107.265 71.0895 107.334 71.0921C107.403 71.0948 107.466 71.0981 107.523 71.1021C107.526 71.1021 107.529 71.1028 107.533 71.1041C107.537 71.1041 107.541 71.1041 107.543 71.1041V71.563C107.527 71.5617 107.512 71.561 107.496 71.561C107.481 71.561 107.466 71.561 107.45 71.561C107.408 71.5597 107.367 71.559 107.326 71.559C107.286 71.5577 107.247 71.557 107.208 71.557C107.07 71.557 106.955 71.581 106.865 71.6289C106.776 71.6767 106.709 71.7466 106.666 71.8384C106.623 71.9288 106.602 72.0405 106.602 72.1736V72.8959V73.4904V76.7866H106.051ZM105.373 73.1333V72.6684H106.326H107.512V73.1333H106.326H105.373ZM108.146 76.7866V71.1041H108.699V76.7866H108.146ZM111.089 76.8824C110.786 76.8824 110.525 76.8245 110.307 76.7088C110.09 76.5931 109.924 76.4235 109.808 76.2C109.693 75.9752 109.635 75.7039 109.635 75.3859V72.6684H110.187V75.3201C110.187 75.5595 110.227 75.7591 110.307 75.9187C110.388 76.077 110.505 76.1954 110.658 76.2738C110.813 76.351 111 76.3896 111.221 76.3896C111.428 76.3896 111.623 76.339 111.806 76.2379C111.988 76.1355 112.136 75.9785 112.251 75.767C112.365 75.5555 112.423 75.2915 112.426 74.9749H112.809V75.6294H112.604C112.544 75.8728 112.445 76.0889 112.306 76.2778C112.168 76.4667 111.995 76.615 111.788 76.7228C111.58 76.8292 111.347 76.8824 111.089 76.8824ZM112.448 76.7866V75.6194L112.426 75.6094V72.6684H112.977V76.7866H112.448ZM115.634 76.8824C115.25 76.8824 114.915 76.7939 114.626 76.617C114.339 76.4388 114.116 76.1874 113.96 75.8628C113.804 75.5382 113.726 75.1598 113.726 74.7275C113.726 74.3018 113.803 73.9267 113.956 73.6022C114.109 73.2763 114.327 73.0235 114.612 72.844C114.897 72.6631 115.231 72.5726 115.614 72.5726C116.007 72.5726 116.345 72.6671 116.627 72.8559C116.909 73.0435 117.123 73.3009 117.27 73.6281C117.416 73.954 117.489 74.3218 117.489 74.7315C117.489 74.7594 117.489 74.788 117.489 74.8173C117.489 74.8466 117.489 74.8765 117.489 74.9071H113.987V74.4482H117.164L116.921 74.5958C116.918 74.2979 116.866 74.0332 116.765 73.8017C116.664 73.5689 116.515 73.386 116.318 73.253C116.121 73.12 115.884 73.0535 115.608 73.0535C115.34 73.0535 115.107 73.1167 114.909 73.243C114.712 73.3694 114.559 73.5536 114.45 73.7957C114.343 74.0378 114.287 74.3304 114.283 74.6736V74.7395C114.283 75.096 114.337 75.3986 114.444 75.6473C114.552 75.8947 114.707 76.0823 114.909 76.21C115.113 76.3377 115.356 76.4015 115.64 76.4015C115.848 76.4015 116.035 76.3643 116.198 76.2898C116.363 76.214 116.5 76.1069 116.609 75.9686C116.718 75.8289 116.795 75.6646 116.841 75.4757H117.399C117.34 75.7537 117.23 75.9985 117.072 76.21C116.915 76.4215 116.714 76.5864 116.47 76.7048C116.225 76.8232 115.946 76.8824 115.634 76.8824ZM118.232 76.7866V72.6684H118.76V73.8356L118.784 73.8456V76.7866H118.232ZM121.023 74.1349C121.023 73.8955 120.982 73.6966 120.901 73.5383C120.82 73.3787 120.703 73.2603 120.55 73.1832C120.397 73.1047 120.21 73.0654 119.989 73.0654C119.781 73.0654 119.585 73.1167 119.403 73.2191C119.221 73.3202 119.072 73.4765 118.958 73.688C118.845 73.8995 118.787 74.1635 118.784 74.4801H118.399V73.8256H118.605C118.663 73.5822 118.762 73.3667 118.9 73.1792C119.038 72.9903 119.212 72.842 119.421 72.7342C119.63 72.6265 119.863 72.5726 120.121 72.5726C120.424 72.5726 120.684 72.6305 120.901 72.7462C121.119 72.8619 121.286 73.0322 121.4 73.257C121.516 73.4805 121.574 73.7512 121.574 74.0691V76.7866H121.023V74.1349ZM124.214 76.8824C123.839 76.8824 123.509 76.7946 123.223 76.619C122.938 76.4434 122.717 76.1934 122.558 75.8688C122.401 75.5429 122.323 75.1625 122.323 74.7275C122.323 74.2899 122.401 73.9088 122.556 73.5842C122.713 73.2597 122.934 73.0102 123.219 72.836C123.505 72.6604 123.837 72.5726 124.214 72.5726C124.536 72.5726 124.822 72.6345 125.07 72.7582C125.319 72.8806 125.521 73.0528 125.675 73.275C125.829 73.4958 125.928 73.7525 125.97 74.0451H125.406C125.366 73.8403 125.29 73.664 125.178 73.5164C125.068 73.3674 124.929 73.2543 124.763 73.1772C124.597 73.0987 124.414 73.0595 124.214 73.0595C123.955 73.0595 123.726 73.1226 123.528 73.249C123.33 73.3754 123.175 73.5636 123.063 73.8137C122.953 74.0637 122.898 74.3684 122.898 74.7275C122.898 75.0853 122.953 75.3899 123.065 75.6413C123.178 75.8914 123.333 76.0796 123.53 76.206C123.728 76.3324 123.956 76.3955 124.214 76.3955C124.415 76.3955 124.6 76.3543 124.769 76.2718C124.939 76.1894 125.082 76.0697 125.196 75.9127C125.31 75.7544 125.385 75.5682 125.42 75.354H125.98C125.942 75.656 125.842 75.9227 125.681 76.1541C125.521 76.3856 125.314 76.5651 125.06 76.6928C124.808 76.8192 124.526 76.8824 124.214 76.8824ZM126.376 77.9558C126.436 77.9572 126.495 77.9578 126.553 77.9578C126.612 77.9578 126.67 77.9578 126.727 77.9578C126.868 77.9578 126.989 77.9326 127.09 77.882C127.191 77.8315 127.276 77.759 127.346 77.6645C127.416 77.5714 127.478 77.4537 127.531 77.3114L127.786 76.631L127.771 77.1398L126.079 72.6684H126.679L127.603 75.2243C127.684 75.4571 127.762 75.6812 127.836 75.8967C127.911 76.1122 127.985 76.331 128.058 76.5532L127.896 76.5592C127.975 76.3064 128.051 76.0643 128.126 75.8329C128.2 75.6014 128.269 75.3966 128.331 75.2183L129.223 72.6684H129.816L128.08 77.3912C127.987 77.6439 127.88 77.8448 127.761 77.9938C127.642 78.1441 127.5 78.2538 127.336 78.323C127.172 78.3935 126.973 78.4287 126.739 78.4287C126.68 78.4287 126.619 78.4274 126.555 78.4247C126.493 78.4221 126.433 78.4187 126.376 78.4148V77.9558ZM129.553 76.7866V76.0783H130.28V76.7866H129.553Z" fill="#5F6266"/>
<path d="M106.089 138.768C105.235 138.768 104.481 138.627 103.829 138.344C103.176 138.061 102.669 137.659 102.31 137.138C101.953 136.615 101.775 136.006 101.775 135.31C101.775 134.782 101.88 134.315 102.092 133.911C102.306 133.504 102.611 133.165 103.008 132.896C103.404 132.626 103.88 132.426 104.435 132.297L104.384 132.725C103.945 132.598 103.566 132.416 103.246 132.178C102.928 131.937 102.681 131.643 102.504 131.294C102.327 130.942 102.239 130.54 102.239 130.088C102.239 129.435 102.404 128.875 102.734 128.407C103.065 127.937 103.521 127.58 104.102 127.337C104.686 127.091 105.348 126.968 106.089 126.968C106.834 126.968 107.498 127.089 108.079 127.333C108.661 127.576 109.115 127.933 109.443 128.403C109.774 128.871 109.939 129.433 109.939 130.088C109.939 130.54 109.85 130.942 109.673 131.294C109.499 131.643 109.253 131.937 108.936 132.178C108.618 132.416 108.24 132.6 107.802 132.729L107.75 132.297C108.305 132.426 108.78 132.626 109.173 132.896C109.57 133.165 109.874 133.504 110.085 133.911C110.297 134.315 110.403 134.782 110.403 135.31C110.403 136.008 110.224 136.618 109.867 137.138C109.51 137.659 109.006 138.061 108.353 138.344C107.702 138.627 106.948 138.768 106.089 138.768ZM106.085 137.218C106.579 137.218 107.007 137.14 107.369 136.984C107.734 136.825 108.014 136.596 108.21 136.298C108.406 135.996 108.503 135.637 108.503 135.219C108.503 134.799 108.406 134.441 108.21 134.145C108.014 133.846 107.734 133.619 107.369 133.463C107.007 133.307 106.579 133.229 106.085 133.229C105.593 133.229 105.166 133.307 104.804 133.463C104.444 133.619 104.167 133.846 103.971 134.145C103.776 134.441 103.678 134.799 103.678 135.219C103.678 135.637 103.774 135.996 103.967 136.298C104.163 136.596 104.44 136.825 104.8 136.984C105.162 137.14 105.59 137.218 106.085 137.218ZM106.085 131.861C106.494 131.861 106.857 131.796 107.171 131.666C107.486 131.534 107.731 131.341 107.909 131.088C108.088 130.834 108.178 130.529 108.178 130.172C108.178 129.812 108.088 129.504 107.909 129.248C107.731 128.991 107.486 128.797 107.171 128.665C106.857 128.533 106.494 128.467 106.085 128.467C105.68 128.467 105.321 128.533 105.006 128.665C104.692 128.797 104.446 128.991 104.269 129.248C104.092 129.504 104.003 129.812 104.003 130.172C104.003 130.529 104.092 130.834 104.269 131.088C104.446 131.341 104.69 131.534 105.002 131.666C105.317 131.796 105.678 131.861 106.085 131.861ZM115.76 138.768C114.853 138.768 114.082 138.611 113.448 138.296C112.816 137.982 112.337 137.535 112.009 136.956C111.684 136.377 111.517 135.695 111.509 134.91H113.365C113.386 135.407 113.488 135.822 113.67 136.155C113.855 136.488 114.119 136.739 114.463 136.908C114.809 137.075 115.232 137.158 115.732 137.158C116.187 137.158 116.579 137.081 116.91 136.928C117.243 136.772 117.498 136.551 117.675 136.266C117.855 135.978 117.944 135.638 117.944 135.247C117.944 134.848 117.853 134.502 117.671 134.208C117.488 133.915 117.225 133.69 116.882 133.534C116.541 133.375 116.136 133.296 115.668 133.296H114.836V131.869H115.617C116.069 131.869 116.451 131.804 116.763 131.674C117.077 131.545 117.315 131.356 117.477 131.107C117.638 130.859 117.718 130.556 117.718 130.199C117.718 129.853 117.636 129.557 117.473 129.311C117.311 129.063 117.08 128.875 116.779 128.748C116.477 128.621 116.119 128.558 115.704 128.558C115.294 128.558 114.936 128.625 114.63 128.76C114.326 128.895 114.084 129.104 113.904 129.387C113.724 129.669 113.624 130.028 113.603 130.461H111.743C111.756 129.742 111.92 129.121 112.235 128.598C112.552 128.071 113.005 127.668 113.595 127.388C114.187 127.108 114.894 126.968 115.716 126.968C116.485 126.968 117.159 127.089 117.738 127.333C118.32 127.573 118.77 127.925 119.09 128.387C119.413 128.85 119.574 129.404 119.574 130.049C119.574 130.535 119.463 130.967 119.241 131.345C119.019 131.721 118.714 132.033 118.325 132.281C117.937 132.53 117.484 132.716 116.969 132.84L117.009 132.178C117.559 132.305 118.05 132.503 118.484 132.773C118.92 133.04 119.266 133.386 119.523 133.812C119.782 134.237 119.911 134.733 119.911 135.298C119.911 135.978 119.739 136.581 119.396 137.107C119.055 137.633 118.57 138.041 117.94 138.332C117.314 138.623 116.587 138.768 115.76 138.768ZM123.726 138.514L129.753 127.222H131.113L125.086 138.514H123.726ZM123.484 133.597C122.879 133.597 122.373 133.468 121.966 133.209C121.559 132.95 121.253 132.577 121.05 132.091C120.846 131.604 120.744 131.023 120.744 130.346C120.744 129.661 120.846 129.076 121.05 128.59C121.253 128.103 121.559 127.73 121.966 127.471C122.373 127.21 122.879 127.079 123.484 127.079C124.087 127.079 124.591 127.21 124.995 127.471C125.402 127.73 125.706 128.103 125.907 128.59C126.11 129.076 126.212 129.661 126.212 130.346C126.212 131.023 126.11 131.604 125.907 132.091C125.706 132.577 125.402 132.95 124.995 133.209C124.591 133.468 124.087 133.597 123.484 133.597ZM123.484 132.416C123.762 132.416 123.993 132.343 124.178 132.198C124.366 132.05 124.507 131.822 124.602 131.516C124.698 131.209 124.745 130.819 124.745 130.346C124.745 129.868 124.698 129.474 124.602 129.165C124.507 128.855 124.366 128.628 124.178 128.483C123.993 128.335 123.762 128.26 123.484 128.26C123.204 128.26 122.97 128.335 122.782 128.483C122.595 128.628 122.452 128.855 122.354 129.165C122.259 129.474 122.211 129.868 122.211 130.346C122.211 130.819 122.259 131.209 122.354 131.516C122.452 131.822 122.595 132.05 122.782 132.198C122.973 132.343 123.207 132.416 123.484 132.416ZM131.367 138.657C130.759 138.657 130.25 138.527 129.84 138.268C129.433 138.009 129.129 137.637 128.928 137.15C128.727 136.664 128.627 136.082 128.627 135.406C128.627 134.721 128.727 134.135 128.928 133.649C129.129 133.16 129.433 132.786 129.84 132.527C130.25 132.268 130.759 132.138 131.367 132.138C131.964 132.138 132.466 132.269 132.874 132.531C133.281 132.79 133.586 133.163 133.789 133.649C133.993 134.135 134.095 134.721 134.095 135.406C134.095 136.082 133.993 136.664 133.789 137.15C133.586 137.637 133.281 138.009 132.874 138.268C132.466 138.527 131.964 138.657 131.367 138.657ZM131.367 137.475C131.644 137.475 131.876 137.403 132.061 137.257C132.248 137.109 132.39 136.882 132.485 136.575C132.58 136.269 132.628 135.879 132.628 135.406C132.628 134.927 132.58 134.533 132.485 134.224C132.39 133.915 132.248 133.687 132.061 133.542C131.876 133.394 131.644 133.32 131.367 133.32C131.087 133.32 130.853 133.394 130.665 133.542C130.477 133.687 130.335 133.915 130.237 134.224C130.142 134.533 130.094 134.927 130.094 135.406C130.094 135.879 130.142 136.269 130.237 136.575C130.335 136.882 130.477 137.109 130.665 137.257C130.855 137.403 131.089 137.475 131.367 137.475Z" fill="black"/>
<path d="M137.991 158.753C134.624 161.385 130.772 163.328 126.654 164.471C122.537 165.615 118.234 165.936 113.993 165.416C109.751 164.897 105.653 163.547 101.933 161.444C98.2128 159.341 94.9434 156.526 92.3114 153.159C89.6793 149.792 87.7361 145.94 86.5927 141.823C85.4494 137.705 85.1282 133.403 85.6476 129.161C86.167 124.919 87.5168 120.821 89.6199 117.101C91.723 113.381 94.5382 110.112 97.9048 107.48C101.271 104.848 105.123 102.905 109.241 101.761C113.359 100.618 117.661 100.297 121.903 100.816C126.145 101.335 130.242 102.685 133.963 104.788C137.683 106.891 140.952 109.707 143.584 113.073C146.216 116.44 148.159 120.292 149.303 124.41C150.446 128.527 150.767 132.83 150.248 137.071C149.728 141.313 148.379 145.411 146.276 149.131C144.172 152.851 141.357 156.12 137.991 158.753L137.991 158.753Z" stroke="#949494" stroke-width="1.34003" stroke-linecap="round" stroke-linejoin="round"/>
<path d="M140.41 155.578C135.213 160.775 128.375 164.01 121.06 164.73C113.746 165.45 106.408 163.612 100.297 159.529C94.1863 155.446 89.6802 149.37 87.5467 142.337C85.4132 135.304 85.7844 127.748 88.597 120.958C91.4096 114.168 96.4895 108.563 102.971 105.098C109.453 101.634 116.936 100.524 124.144 101.958C131.353 103.391 137.841 107.28 142.503 112.962C147.166 118.643 149.714 125.765 149.714 133.115" stroke="url(#paint0_linear_5356_5416)" stroke-width="5.80679" stroke-linecap="round" stroke-linejoin="round"/>
</g>
<defs>
<filter id="filter0_d_5356_5416" x="-0.000109702" y="-8.96454e-05" width="239.466" height="201.466" filterUnits="userSpaceOnUse" color-interpolation-filters="sRGB">
<feFlood flood-opacity="0" result="BackgroundImageFix"/>
<feColorMatrix in="SourceAlpha" type="matrix" values="0 0 0 0 0 0 0 0 0 0 0 0 0 0 0 0 0 0 127 0" result="hardAlpha"/>
<feMorphology radius="0.446445" operator="dilate" in="SourceAlpha" result="effect1_dropShadow_5356_5416"/>
<feOffset dx="1.78578" dy="0.446445"/>
<feGaussianBlur stdDeviation="13.3934"/>
<feComposite in2="hardAlpha" operator="out"/>
<feColorMatrix type="matrix" values="0 0 0 0 0.384314 0 0 0 0 0.490196 0 0 0 0 0.596078 0 0 0 0.13 0"/>
<feBlend mode="normal" in2="BackgroundImageFix" result="effect1_dropShadow_5356_5416"/>
<feBlend mode="normal" in="SourceGraphic" in2="effect1_dropShadow_5356_5416" result="shape"/>
</filter>
<linearGradient id="paint0_linear_5356_5416" x1="117.947" y1="98.4438" x2="131.998" y2="160.67" gradientUnits="userSpaceOnUse">
<stop stop-color="#ECD0D0"/>
<stop offset="1" stop-color="#D9DAED"/>
</linearGradient>
</defs>
</svg>
