<svg width="760" height="1034" viewBox="0 0 760 1034" fill="none" xmlns="http://www.w3.org/2000/svg">
<path d="M540.717 18.008C542.317 18.008 543.575 18.3067 544.493 18.904C545.41 19.5013 545.869 20.3227 545.869 21.368C545.869 22.1787 545.602 22.9573 545.069 23.704C544.535 24.4507 543.842 25.1653 542.989 25.848C542.157 26.5093 541.25 27.1387 540.269 27.736C539.309 28.3333 538.381 28.8987 537.485 29.432C536.61 29.944 535.863 30.424 535.245 30.872C535.778 30.872 536.365 30.9467 537.005 31.096C537.666 31.2453 538.349 31.3947 539.053 31.544C539.778 31.6933 540.471 31.768 541.133 31.768C541.943 31.768 542.594 31.64 543.085 31.384C543.597 31.128 543.853 30.744 543.853 30.232C543.853 29.592 543.469 29.0693 542.701 28.664L543.053 28.248C543.671 28.568 544.119 28.952 544.397 29.4C544.674 29.8267 544.813 30.3493 544.813 30.968C544.813 31.6507 544.642 32.3227 544.301 32.984C543.981 33.624 543.458 34.1573 542.733 34.584C542.007 34.9893 541.047 35.192 539.853 35.192C539.17 35.192 538.498 35.1173 537.837 34.968C537.175 34.8187 536.503 34.6693 535.821 34.52C535.138 34.3493 534.391 34.2533 533.581 34.232C532.77 34.1893 532.087 34.2427 531.533 34.392C530.999 34.52 530.402 34.7227 529.741 35L529.901 34.328C530.349 33.9653 530.935 33.528 531.661 33.016C532.386 32.4827 533.175 31.8853 534.029 31.224C534.903 30.5627 535.767 29.8587 536.621 29.112C537.474 28.344 538.263 27.544 538.989 26.712C539.714 25.88 540.29 25.0267 540.717 24.152C541.143 23.2773 541.357 22.392 541.357 21.496C541.357 20.6427 541.143 20.0027 540.717 19.576C540.29 19.128 539.693 18.904 538.925 18.904C538.306 18.904 537.666 19.0427 537.005 19.32C536.365 19.5973 535.767 19.9813 535.213 20.472C534.679 20.9413 534.242 21.4747 533.901 22.072C533.581 22.648 533.421 23.2453 533.421 23.864C533.421 24.376 533.559 24.76 533.837 25.016C534.135 25.272 534.615 25.4 535.277 25.4C535.874 25.4 536.386 25.2933 536.813 25.08C537.261 24.8453 537.73 24.5147 538.221 24.088L538.605 24.536C538.007 25.0907 537.399 25.4853 536.781 25.72C536.162 25.9547 535.586 26.072 535.053 26.072C534.711 26.072 534.349 26.0187 533.965 25.912C533.602 25.784 533.293 25.5707 533.037 25.272C532.781 24.952 532.653 24.4933 532.653 23.896C532.653 23.192 532.855 22.4987 533.261 21.816C533.666 21.112 534.221 20.472 534.925 19.896C535.65 19.32 536.503 18.8613 537.485 18.52C538.466 18.1787 539.543 18.008 540.717 18.008ZM560.402 18.008L560.498 18.744L545.586 33.208L545.97 32.408H561.522L561.202 33.528H544.85L545.042 32.856L560.402 18.008ZM561.234 18.008L555.442 39.512H550.93L555.346 23.128L560.402 18.008H561.234ZM588.637 19.704C588.211 19.704 587.741 19.9813 587.229 20.536C586.739 21.0693 586.237 21.8053 585.725 22.744C585.235 23.6827 584.765 24.7493 584.317 25.944C583.869 27.1387 583.496 28.3867 583.197 29.688L583.773 26.424C584.456 24.4187 585.139 22.7973 585.821 21.56C586.504 20.3227 587.219 19.4267 587.965 18.872C588.733 18.296 589.544 18.008 590.397 18.008C591.699 18.008 592.68 18.4347 593.341 19.288C594.024 20.12 594.365 21.336 594.365 22.936C594.365 23.9173 594.227 24.984 593.949 26.136C593.693 27.2667 593.299 28.3867 592.765 29.496C592.232 30.584 591.571 31.576 590.781 32.472C590.013 33.368 589.128 34.0933 588.125 34.648C587.123 35.1813 586.013 35.448 584.797 35.448C584.115 35.448 583.485 35.32 582.909 35.064C582.355 34.808 581.949 34.4667 581.693 34.04L581.917 33.528C582.131 33.8907 582.365 34.1467 582.621 34.296C582.899 34.4453 583.208 34.52 583.549 34.52C584.189 34.52 584.808 34.264 585.405 33.752C586.003 33.24 586.557 32.5573 587.069 31.704C587.603 30.8507 588.061 29.9013 588.445 28.856C588.851 27.7893 589.16 26.7013 589.373 25.592C589.587 24.4613 589.693 23.384 589.693 22.36C589.693 21.3147 589.597 20.6107 589.405 20.248C589.213 19.8853 588.957 19.704 588.637 19.704ZM583.197 13.944C584.093 13.88 584.925 13.7733 585.693 13.624C586.483 13.4747 587.24 13.2827 587.965 13.048L581.053 37.4C580.755 38.5093 580.829 39.2347 581.277 39.576C581.725 39.9173 582.472 40.0987 583.517 40.12L583.325 40.792C582.835 40.7707 582.131 40.7387 581.213 40.696C580.296 40.6747 579.315 40.664 578.269 40.664C577.416 40.664 576.563 40.6747 575.709 40.696C574.856 40.7387 574.205 40.7707 573.757 40.792L573.949 40.12C574.717 40.12 575.272 39.9707 575.613 39.672C575.955 39.3947 576.232 38.8827 576.445 38.136L583.197 13.944ZM577.021 23.8C577.789 22.968 578.515 22.1467 579.197 21.336C579.88 20.504 580.541 19.5227 581.181 18.392C581.821 17.2613 582.483 15.8427 583.165 14.136L583.261 14.648C582.813 16.12 582.28 17.4213 581.661 18.552C581.064 19.6613 580.403 20.664 579.677 21.56C578.952 22.456 578.184 23.3413 577.373 24.216L577.021 23.8ZM606.078 32.312C606.184 32.8667 606.323 33.2507 606.494 33.464C606.664 33.6773 606.888 33.784 607.166 33.784C607.464 33.784 607.763 33.6133 608.062 33.272C608.382 32.9093 608.734 32.1627 609.118 31.032L609.534 29.848H610.142L609.342 32.184C609.043 33.08 608.659 33.7627 608.19 34.232C607.72 34.7013 607.208 35.0213 606.654 35.192C606.099 35.3627 605.566 35.448 605.054 35.448C604.115 35.448 603.315 35.224 602.654 34.776C602.014 34.328 601.63 33.5067 601.502 32.312L600.222 21.144C600.136 20.5893 599.998 20.2267 599.806 20.056C599.614 19.8853 599.379 19.8 599.102 19.8C598.91 19.8 598.718 19.864 598.526 19.992C598.334 20.0987 598.131 20.344 597.918 20.728C597.704 21.0907 597.459 21.656 597.182 22.424L596.766 23.608H596.158L596.958 21.272C597.278 20.376 597.672 19.6933 598.142 19.224C598.611 18.7547 599.134 18.4347 599.71 18.264C600.286 18.0933 600.84 18.008 601.374 18.008C602.376 18.008 603.176 18.2427 603.774 18.712C604.371 19.16 604.734 20.056 604.862 21.4L606.078 32.312ZM607.646 20.28C607.112 20.8773 606.643 21.5493 606.238 22.296C605.832 23.0427 605.491 23.8 605.214 24.568C604.936 25.3147 604.702 25.9973 604.51 26.616C604.51 26.616 604.403 26.616 604.19 26.616C603.976 26.5947 603.87 26.584 603.87 26.584C603.955 26.3067 604.072 25.9227 604.222 25.432C604.392 24.9413 604.606 24.3867 604.862 23.768C605.118 23.128 605.427 22.488 605.79 21.848C606.152 21.1867 606.568 20.5573 607.038 19.96C607.635 19.2133 608.222 18.7013 608.798 18.424C609.395 18.1467 609.982 18.008 610.558 18.008C611.24 18.008 611.795 18.1893 612.222 18.552C612.67 18.9147 612.894 19.4373 612.894 20.12C612.894 20.7813 612.67 21.336 612.222 21.784C611.774 22.2107 611.198 22.424 610.494 22.424C609.896 22.424 609.331 22.2533 608.798 21.912C608.286 21.5707 607.902 21.0267 607.646 20.28ZM598.27 33.176C599.08 32.2587 599.774 31.2133 600.35 30.04C600.926 28.8667 601.363 27.8 601.662 26.84C601.662 26.84 601.758 26.8507 601.95 26.872C602.163 26.8933 602.27 26.904 602.27 26.904C602.099 27.5013 601.864 28.184 601.566 28.952C601.267 29.6987 600.894 30.4667 600.446 31.256C600.019 32.024 599.518 32.7707 598.942 33.496C598.323 34.2213 597.715 34.7227 597.118 35C596.52 35.2987 595.944 35.448 595.39 35.448C594.643 35.448 594.067 35.2667 593.662 34.904C593.256 34.5413 593.054 34.0507 593.054 33.432C593.054 32.7067 593.299 32.1307 593.79 31.704C594.259 31.256 594.824 31.032 595.486 31.032C596.19 31.032 596.766 31.2347 597.214 31.64C597.683 32.0453 598.035 32.5573 598.27 33.176Z" fill="black"/>
<path d="M384 117V89H759V117" stroke="#5F6266" stroke-dasharray="2 2"/>
<g clip-path="url(#clip0_4321_53849)">
<rect width="375" height="800" transform="translate(384 117)" fill="white"/>
<rect x="404" y="117" width="69" height="800" fill="#F2F2F2"/>
<rect x="493" y="117" width="69" height="800" fill="#F2F2F2"/>
<rect x="582" y="117" width="69" height="800" fill="#F2F2F2"/>
<rect x="671" y="117" width="69" height="800" fill="#F2F2F2"/>
</g>
<path d="M384 917V945H759V917" stroke="#5F6266" stroke-dasharray="2 2"/>
<path d="M539.777 1008.98C541.377 1008.98 542.647 1009.26 543.585 1009.84C544.524 1010.42 544.993 1011.19 544.993 1012.18C544.993 1012.92 544.759 1013.62 544.289 1014.26C543.841 1014.87 543.244 1015.44 542.497 1015.95C541.772 1016.44 540.972 1016.86 540.097 1017.2C539.244 1017.54 538.412 1017.81 537.601 1018C538.753 1018.02 539.788 1018.17 540.705 1018.45C541.623 1018.7 542.348 1019.12 542.881 1019.7C543.415 1020.27 543.681 1021.02 543.681 1021.94C543.681 1023.02 543.319 1024.04 542.593 1024.98C541.889 1025.89 540.94 1026.7 539.745 1027.41C538.551 1028.13 537.217 1028.74 535.745 1029.23C534.295 1029.74 532.812 1030.13 531.297 1030.38C529.804 1030.66 528.396 1030.81 527.073 1030.83L527.233 1030.26C528.492 1030.17 529.804 1029.93 531.169 1029.52C532.535 1029.11 533.815 1028.54 535.009 1027.79C536.204 1027.07 537.164 1026.18 537.889 1025.14C538.615 1024.07 538.977 1022.83 538.977 1021.42C538.977 1020.57 538.807 1019.89 538.465 1019.38C538.145 1018.84 537.665 1018.55 537.025 1018.51C536.684 1018.66 536.353 1018.79 536.033 1018.9C535.735 1019 535.447 1019.06 535.169 1019.06C534.999 1019.06 534.849 1019.02 534.721 1018.96C534.593 1018.9 534.561 1018.77 534.625 1018.58C534.689 1018.28 534.924 1018.1 535.329 1018.03C535.735 1017.97 536.215 1017.96 536.769 1018C537.516 1017.7 538.177 1017.31 538.753 1016.82C539.351 1016.3 539.831 1015.73 540.193 1015.09C540.556 1014.43 540.737 1013.71 540.737 1012.94C540.737 1012.05 540.471 1011.34 539.937 1010.83C539.425 1010.32 538.7 1010.06 537.761 1010.06C537.185 1010.06 536.609 1010.17 536.033 1010.38C535.479 1010.6 534.967 1010.89 534.497 1011.25C534.049 1011.61 533.676 1012.03 533.377 1012.5C533.1 1012.94 532.961 1013.4 532.961 1013.87C532.961 1014.38 533.1 1014.77 533.377 1015.02C533.676 1015.28 534.156 1015.41 534.817 1015.41C535.543 1015.41 536.204 1015.25 536.801 1014.93L537.153 1015.41C536.705 1015.64 536.257 1015.81 535.809 1015.92C535.383 1016.03 534.977 1016.08 534.593 1016.08C534.252 1016.08 533.889 1016.03 533.505 1015.92C533.143 1015.79 532.833 1015.58 532.577 1015.28C532.321 1014.96 532.193 1014.5 532.193 1013.9C532.193 1013.11 532.524 1012.35 533.185 1011.6C533.868 1010.85 534.785 1010.23 535.937 1009.74C537.089 1009.23 538.369 1008.98 539.777 1008.98ZM551.797 1009.3C552.735 1009.3 553.589 1009.41 554.357 1009.65C555.146 1009.86 555.946 1010.1 556.757 1010.35C557.567 1010.59 558.463 1010.73 559.445 1010.77C560.063 1010.79 560.639 1010.73 561.173 1010.58C561.706 1010.41 562.186 1010.04 562.613 1009.49H563.477C562.474 1010.66 561.525 1011.76 560.629 1012.78C559.754 1013.79 558.933 1014.78 558.165 1015.76C557.397 1016.72 556.693 1017.71 556.053 1018.74C555.413 1019.76 554.837 1020.87 554.325 1022.06C553.834 1023.24 553.397 1024.55 553.013 1026C552.863 1026.55 552.757 1026.97 552.693 1027.25C552.65 1027.53 552.618 1027.74 552.597 1027.89C552.575 1028.06 552.533 1028.27 552.469 1028.53C552.341 1029.13 552.031 1029.64 551.541 1030.06C551.071 1030.51 550.431 1030.74 549.621 1030.74C548.959 1030.74 548.479 1030.59 548.181 1030.29C547.903 1030.01 547.754 1029.65 547.733 1029.2C547.711 1028.75 547.754 1028.28 547.861 1027.79C548.138 1026.62 548.682 1025.4 549.493 1024.14C550.303 1022.86 551.263 1021.59 552.373 1020.34C553.482 1019.08 554.634 1017.85 555.829 1016.66C557.045 1015.44 558.207 1014.3 559.317 1013.23C560.426 1012.17 561.354 1011.22 562.101 1010.38C562.101 1010.38 562.175 1010.36 562.325 1010.32C562.495 1010.28 562.581 1010.26 562.581 1010.26C561.77 1010.79 561.034 1011.28 560.373 1011.73C559.711 1012.15 559.103 1012.52 558.549 1012.82C557.994 1013.09 557.45 1013.32 556.917 1013.49C556.383 1013.64 555.829 1013.71 555.253 1013.71C554.506 1013.71 553.866 1013.63 553.333 1013.46C552.821 1013.29 552.33 1013.13 551.861 1012.98C551.391 1012.81 550.858 1012.72 550.261 1012.72C549.621 1012.72 549.066 1012.87 548.597 1013.17C548.149 1013.47 547.925 1013.95 547.925 1014.61C547.925 1015.42 548.266 1016.09 548.949 1016.62C549.631 1017.16 550.581 1017.56 551.797 1017.84L551.637 1018.35C550.186 1018.05 549.013 1017.55 548.117 1016.85C547.221 1016.12 546.773 1015.09 546.773 1013.74C546.773 1013.02 546.943 1012.31 547.285 1011.63C547.626 1010.95 548.159 1010.39 548.885 1009.97C549.631 1009.52 550.602 1009.3 551.797 1009.3ZM574.199 1008.78L574.583 1009.01C574.071 1010.37 573.41 1011.46 572.599 1012.27C571.81 1013.08 570.882 1013.49 569.815 1013.49C569.367 1013.49 568.887 1013.38 568.375 1013.17C567.863 1012.95 567.362 1012.75 566.871 1012.56C566.402 1012.37 565.964 1012.3 565.559 1012.37L562.583 1018.77C563.266 1018.41 564.012 1018.13 564.823 1017.94C565.634 1017.74 566.54 1017.65 567.543 1017.65C569.442 1017.65 570.828 1017.99 571.703 1018.67C572.578 1019.35 573.015 1020.28 573.015 1021.46C573.015 1022.65 572.674 1023.73 571.991 1024.69C571.308 1025.65 570.402 1026.5 569.271 1027.25C568.162 1027.99 566.924 1028.61 565.559 1029.1C564.194 1029.62 562.818 1030 561.431 1030.26C560.044 1030.53 558.754 1030.69 557.559 1030.74L557.719 1030.16C558.85 1030.16 560.023 1029.97 561.239 1029.58C562.476 1029.2 563.618 1028.63 564.663 1027.89C565.73 1027.16 566.594 1026.27 567.255 1025.2C567.916 1024.11 568.247 1022.89 568.247 1021.52C568.247 1020.62 568.012 1019.92 567.543 1019.41C567.095 1018.87 566.327 1018.61 565.239 1018.61C564.919 1018.61 564.503 1018.66 563.991 1018.77C563.479 1018.85 562.85 1019.09 562.103 1019.47L561.783 1019.31L566.199 1009.42C566.818 1009.38 567.372 1009.43 567.863 1009.58C568.354 1009.71 568.866 1009.85 569.399 1010C569.932 1010.15 570.551 1010.22 571.255 1010.22C571.895 1010.22 572.46 1010.13 572.951 1009.94C573.442 1009.72 573.858 1009.34 574.199 1008.78ZM600.041 1010.1L590.345 1026.16H588.681L586.153 1006.03C586.068 1005.24 585.844 1004.71 585.481 1004.43C585.118 1004.15 584.777 1004.01 584.457 1003.98L584.617 1003.34C585.15 1003.37 585.822 1003.39 586.633 1003.41C587.444 1003.43 588.265 1003.44 589.097 1003.44C589.95 1003.44 590.729 1003.43 591.433 1003.41C592.158 1003.39 592.766 1003.37 593.257 1003.34L593.097 1003.98C592.414 1004.03 591.934 1004.22 591.657 1004.56C591.401 1004.88 591.326 1005.58 591.433 1006.67L593.033 1021.04L592.073 1022.03L599.849 1009.26L600.041 1010.1ZM611.721 1007.92C612.276 1006.9 612.542 1006.11 612.521 1005.55C612.521 1005 612.286 1004.61 611.817 1004.4C611.369 1004.17 610.708 1004.03 609.833 1003.98L609.993 1003.34C610.292 1003.37 610.686 1003.39 611.177 1003.41C611.689 1003.41 612.222 1003.42 612.777 1003.44C613.353 1003.44 613.822 1003.44 614.185 1003.44C614.676 1003.44 615.113 1003.43 615.497 1003.41C615.902 1003.39 616.276 1003.37 616.617 1003.34L616.457 1003.98C616.03 1004.09 615.614 1004.25 615.209 1004.46C614.804 1004.68 614.398 1005.01 613.993 1005.46C613.588 1005.9 613.15 1006.54 612.681 1007.38L602.601 1026.16H600.937L598.153 1006.03C598.046 1005.24 597.854 1004.71 597.577 1004.43C597.3 1004.15 597.033 1004.01 596.777 1003.98L596.937 1003.34C597.428 1003.37 598.046 1003.39 598.793 1003.41C599.561 1003.43 600.329 1003.44 601.097 1003.44C602.121 1003.44 603.07 1003.43 603.945 1003.41C604.82 1003.39 605.534 1003.37 606.089 1003.34L605.929 1003.98C604.862 1004.03 604.137 1004.21 603.753 1004.53C603.39 1004.85 603.284 1005.56 603.433 1006.67L605.225 1020.78L604.265 1021.65L611.721 1007.92Z" fill="black"/>
<path d="M11.232 480.104L6.208 497H1.696L5.696 483.496C5.14133 483.709 4.53333 483.923 3.872 484.136C3.232 484.349 2.42133 484.584 1.44 484.84L1.536 484.168C3.09333 483.763 4.42667 483.336 5.536 482.888C6.64533 482.44 7.59467 481.971 8.384 481.48C9.19467 480.989 9.93067 480.531 10.592 480.104H11.232ZM28.387 473.896L28.579 474.536C27.427 474.856 26.275 475.379 25.123 476.104C23.971 476.829 22.8723 477.757 21.827 478.888C20.803 479.997 19.8857 481.277 19.075 482.728C18.2643 484.157 17.6243 485.747 17.155 487.496C16.6857 489.245 16.451 491.101 16.451 493.064C16.451 494.557 16.5897 495.56 16.867 496.072C17.1657 496.563 17.5817 496.808 18.115 496.808C18.819 496.808 19.4697 496.488 20.067 495.848C20.6857 495.208 21.2083 494.397 21.635 493.416C22.0617 492.413 22.3923 491.368 22.627 490.28C22.8617 489.192 22.979 488.2 22.979 487.304C22.979 486.259 22.819 485.533 22.499 485.128C22.2003 484.701 21.827 484.488 21.379 484.488C20.8883 484.488 20.3763 484.733 19.843 485.224C19.331 485.715 18.8723 486.568 18.467 487.784L17.955 487.624C18.275 486.451 18.7017 485.533 19.235 484.872C19.7897 484.189 20.3977 483.709 21.059 483.432C21.7417 483.133 22.4457 482.984 23.171 482.984C24.4723 482.984 25.5497 483.389 26.403 484.2C27.2777 485.011 27.715 486.216 27.715 487.816C27.715 489.075 27.4377 490.28 26.883 491.432C26.3497 492.584 25.603 493.619 24.643 494.536C23.683 495.432 22.5737 496.147 21.315 496.68C20.0777 497.192 18.7443 497.448 17.315 497.448C15.5443 497.448 14.179 496.979 13.219 496.04C12.2803 495.08 11.811 493.587 11.811 491.56C11.811 489.683 12.1737 487.912 12.899 486.248C13.6457 484.563 14.627 483.016 15.843 481.608C17.059 480.179 18.3923 478.931 19.843 477.864C21.315 476.797 22.787 475.923 24.259 475.24C25.7523 474.557 27.1283 474.109 28.387 473.896ZM54.4718 481.704C54.0451 481.704 53.5758 481.981 53.0638 482.536C52.5731 483.069 52.0718 483.805 51.5598 484.744C51.0691 485.683 50.5998 486.749 50.1518 487.944C49.7038 489.139 49.3304 490.387 49.0318 491.688L49.6078 488.424C50.2904 486.419 50.9731 484.797 51.6558 483.56C52.3384 482.323 53.0531 481.427 53.7998 480.872C54.5678 480.296 55.3784 480.008 56.2318 480.008C57.5331 480.008 58.5144 480.435 59.1758 481.288C59.8584 482.12 60.1998 483.336 60.1998 484.936C60.1998 485.917 60.0611 486.984 59.7838 488.136C59.5278 489.267 59.1331 490.387 58.5998 491.496C58.0664 492.584 57.4051 493.576 56.6158 494.472C55.8478 495.368 54.9624 496.093 53.9598 496.648C52.9571 497.181 51.8478 497.448 50.6318 497.448C49.9491 497.448 49.3198 497.32 48.7438 497.064C48.1891 496.808 47.7838 496.467 47.5278 496.04L47.7517 495.528C47.9651 495.891 48.1998 496.147 48.4557 496.296C48.7331 496.445 49.0424 496.52 49.3837 496.52C50.0237 496.52 50.6424 496.264 51.2397 495.752C51.8371 495.24 52.3918 494.557 52.9038 493.704C53.4371 492.851 53.8958 491.901 54.2798 490.856C54.6851 489.789 54.9944 488.701 55.2078 487.592C55.4211 486.461 55.5278 485.384 55.5278 484.36C55.5278 483.315 55.4318 482.611 55.2398 482.248C55.0478 481.885 54.7918 481.704 54.4718 481.704ZM49.0318 475.944C49.9278 475.88 50.7598 475.773 51.5278 475.624C52.3171 475.475 53.0744 475.283 53.7998 475.048L46.8878 499.4C46.5891 500.509 46.6638 501.235 47.1118 501.576C47.5598 501.917 48.3064 502.099 49.3518 502.12L49.1597 502.792C48.6691 502.771 47.9651 502.739 47.0477 502.696C46.1304 502.675 45.1491 502.664 44.1037 502.664C43.2504 502.664 42.3971 502.675 41.5437 502.696C40.6904 502.739 40.0397 502.771 39.5917 502.792L39.7837 502.12C40.5517 502.12 41.1064 501.971 41.4477 501.672C41.7891 501.395 42.0664 500.883 42.2797 500.136L49.0318 475.944ZM42.8557 485.8C43.6237 484.968 44.3491 484.147 45.0317 483.336C45.7144 482.504 46.3758 481.523 47.0157 480.392C47.6557 479.261 48.3171 477.843 48.9998 476.136L49.0958 476.648C48.6478 478.12 48.1144 479.421 47.4957 480.552C46.8984 481.661 46.2371 482.664 45.5117 483.56C44.7864 484.456 44.0184 485.341 43.2077 486.216L42.8557 485.8ZM71.912 494.312C72.0187 494.867 72.1573 495.251 72.328 495.464C72.4987 495.677 72.7227 495.784 73 495.784C73.2987 495.784 73.5973 495.613 73.896 495.272C74.216 494.909 74.568 494.163 74.952 493.032L75.368 491.848H75.976L75.176 494.184C74.8773 495.08 74.4933 495.763 74.024 496.232C73.5547 496.701 73.0427 497.021 72.488 497.192C71.9333 497.363 71.4 497.448 70.888 497.448C69.9493 497.448 69.1493 497.224 68.488 496.776C67.848 496.328 67.464 495.507 67.336 494.312L66.056 483.144C65.9707 482.589 65.832 482.227 65.64 482.056C65.448 481.885 65.2133 481.8 64.936 481.8C64.744 481.8 64.552 481.864 64.36 481.992C64.168 482.099 63.9653 482.344 63.752 482.728C63.5387 483.091 63.2933 483.656 63.016 484.424L62.6 485.608H61.992L62.792 483.272C63.112 482.376 63.5067 481.693 63.976 481.224C64.4453 480.755 64.968 480.435 65.544 480.264C66.12 480.093 66.6747 480.008 67.208 480.008C68.2107 480.008 69.0107 480.243 69.608 480.712C70.2053 481.16 70.568 482.056 70.696 483.4L71.912 494.312ZM73.48 482.28C72.9467 482.877 72.4773 483.549 72.072 484.296C71.6667 485.043 71.3253 485.8 71.048 486.568C70.7707 487.315 70.536 487.997 70.344 488.616C70.344 488.616 70.2373 488.616 70.024 488.616C69.8107 488.595 69.704 488.584 69.704 488.584C69.7893 488.307 69.9067 487.923 70.056 487.432C70.2267 486.941 70.44 486.387 70.696 485.768C70.952 485.128 71.2613 484.488 71.624 483.848C71.9867 483.187 72.4027 482.557 72.872 481.96C73.4693 481.213 74.056 480.701 74.632 480.424C75.2293 480.147 75.816 480.008 76.392 480.008C77.0747 480.008 77.6293 480.189 78.056 480.552C78.504 480.915 78.728 481.437 78.728 482.12C78.728 482.781 78.504 483.336 78.056 483.784C77.608 484.211 77.032 484.424 76.328 484.424C75.7307 484.424 75.1653 484.253 74.632 483.912C74.12 483.571 73.736 483.027 73.48 482.28ZM64.104 495.176C64.9147 494.259 65.608 493.213 66.184 492.04C66.76 490.867 67.1973 489.8 67.496 488.84C67.496 488.84 67.592 488.851 67.784 488.872C67.9973 488.893 68.104 488.904 68.104 488.904C67.9333 489.501 67.6987 490.184 67.4 490.952C67.1013 491.699 66.728 492.467 66.28 493.256C65.8533 494.024 65.352 494.771 64.776 495.496C64.1573 496.221 63.5493 496.723 62.952 497C62.3547 497.299 61.7787 497.448 61.224 497.448C60.4773 497.448 59.9013 497.267 59.496 496.904C59.0907 496.541 58.888 496.051 58.888 495.432C58.888 494.707 59.1333 494.131 59.624 493.704C60.0933 493.256 60.6587 493.032 61.32 493.032C62.024 493.032 62.6 493.235 63.048 493.64C63.5173 494.045 63.8693 494.557 64.104 495.176Z" fill="black"/>
<path d="M404 483.5H87" stroke="#5F6266" stroke-dasharray="2 2"/>
<path d="M87.176 708.008C88.776 708.008 90.0347 708.307 90.952 708.904C91.8693 709.501 92.328 710.323 92.328 711.368C92.328 712.179 92.0613 712.957 91.528 713.704C90.9947 714.451 90.3013 715.165 89.448 715.848C88.616 716.509 87.7093 717.139 86.728 717.736C85.768 718.333 84.84 718.899 83.944 719.432C83.0693 719.944 82.3227 720.424 81.704 720.872C82.2373 720.872 82.824 720.947 83.464 721.096C84.1253 721.245 84.808 721.395 85.512 721.544C86.2373 721.693 86.9307 721.768 87.592 721.768C88.4027 721.768 89.0533 721.64 89.544 721.384C90.056 721.128 90.312 720.744 90.312 720.232C90.312 719.592 89.928 719.069 89.16 718.664L89.512 718.248C90.1307 718.568 90.5787 718.952 90.856 719.4C91.1333 719.827 91.272 720.349 91.272 720.968C91.272 721.651 91.1013 722.323 90.76 722.984C90.44 723.624 89.9173 724.157 89.192 724.584C88.4667 724.989 87.5067 725.192 86.312 725.192C85.6293 725.192 84.9573 725.117 84.296 724.968C83.6347 724.819 82.9627 724.669 82.28 724.52C81.5973 724.349 80.8507 724.253 80.04 724.232C79.2293 724.189 78.5467 724.243 77.992 724.392C77.4587 724.52 76.8613 724.723 76.2 725L76.36 724.328C76.808 723.965 77.3947 723.528 78.12 723.016C78.8453 722.483 79.6347 721.885 80.488 721.224C81.3627 720.563 82.2267 719.859 83.08 719.112C83.9333 718.344 84.7227 717.544 85.448 716.712C86.1733 715.88 86.7493 715.027 87.176 714.152C87.6027 713.277 87.816 712.392 87.816 711.496C87.816 710.643 87.6027 710.003 87.176 709.576C86.7493 709.128 86.152 708.904 85.384 708.904C84.7653 708.904 84.1253 709.043 83.464 709.32C82.824 709.597 82.2267 709.981 81.672 710.472C81.1387 710.941 80.7013 711.475 80.36 712.072C80.04 712.648 79.88 713.245 79.88 713.864C79.88 714.376 80.0187 714.76 80.296 715.016C80.5947 715.272 81.0747 715.4 81.736 715.4C82.3333 715.4 82.8453 715.293 83.272 715.08C83.72 714.845 84.1893 714.515 84.68 714.088L85.064 714.536C84.4667 715.091 83.8587 715.485 83.24 715.72C82.6213 715.955 82.0453 716.072 81.512 716.072C81.1707 716.072 80.808 716.019 80.424 715.912C80.0613 715.784 79.752 715.571 79.496 715.272C79.24 714.952 79.112 714.493 79.112 713.896C79.112 713.192 79.3147 712.499 79.72 711.816C80.1253 711.112 80.68 710.472 81.384 709.896C82.1093 709.32 82.9627 708.861 83.944 708.52C84.9253 708.179 86.0027 708.008 87.176 708.008ZM105.357 708.008C107.341 708.008 108.888 708.531 109.997 709.576C111.106 710.6 111.661 712.019 111.661 713.832C111.661 715.261 111.362 716.669 110.765 718.056C110.168 719.443 109.346 720.691 108.301 721.8C107.256 722.909 106.04 723.795 104.653 724.456C103.288 725.117 101.837 725.448 100.301 725.448C98.3597 725.448 96.813 724.936 95.661 723.912C94.509 722.888 93.933 721.448 93.933 719.592C93.933 718.141 94.2317 716.733 94.829 715.368C95.4477 714.003 96.2797 712.765 97.325 711.656C98.3917 710.525 99.6077 709.64 100.973 709C102.36 708.339 103.821 708.008 105.357 708.008ZM104.845 708.584C103.949 708.584 103.117 708.925 102.349 709.608C101.581 710.269 100.909 711.165 100.333 712.296C99.7783 713.427 99.3517 714.685 99.053 716.072C98.7543 717.459 98.605 718.845 98.605 720.232C98.605 721.896 98.8183 723.091 99.245 723.816C99.6717 724.52 100.194 724.872 100.813 724.872C101.752 724.872 102.594 724.52 103.341 723.816C104.088 723.112 104.728 722.184 105.261 721.032C105.816 719.88 106.242 718.611 106.541 717.224C106.84 715.837 106.989 714.472 106.989 713.128C106.989 711.485 106.786 710.323 106.381 709.64C105.976 708.936 105.464 708.584 104.845 708.584ZM138.441 709.704C138.014 709.704 137.545 709.981 137.033 710.536C136.542 711.069 136.041 711.805 135.529 712.744C135.038 713.683 134.569 714.749 134.121 715.944C133.673 717.139 133.299 718.387 133.001 719.688L133.577 716.424C134.259 714.419 134.942 712.797 135.625 711.56C136.307 710.323 137.022 709.427 137.769 708.872C138.537 708.296 139.347 708.008 140.201 708.008C141.502 708.008 142.483 708.435 143.145 709.288C143.827 710.12 144.169 711.336 144.169 712.936C144.169 713.917 144.03 714.984 143.753 716.136C143.497 717.267 143.102 718.387 142.569 719.496C142.035 720.584 141.374 721.576 140.585 722.472C139.817 723.368 138.931 724.093 137.929 724.648C136.926 725.181 135.817 725.448 134.601 725.448C133.918 725.448 133.289 725.32 132.713 725.064C132.158 724.808 131.753 724.467 131.497 724.04L131.72 723.528C131.934 723.891 132.169 724.147 132.424 724.296C132.702 724.445 133.011 724.52 133.352 724.52C133.992 724.52 134.611 724.264 135.208 723.752C135.806 723.24 136.361 722.557 136.873 721.704C137.406 720.851 137.865 719.901 138.249 718.856C138.654 717.789 138.963 716.701 139.177 715.592C139.39 714.461 139.497 713.384 139.497 712.36C139.497 711.315 139.401 710.611 139.209 710.248C139.017 709.885 138.761 709.704 138.441 709.704ZM133.001 703.944C133.897 703.88 134.729 703.773 135.497 703.624C136.286 703.475 137.043 703.283 137.769 703.048L130.857 727.4C130.558 728.509 130.633 729.235 131.081 729.576C131.529 729.917 132.275 730.099 133.321 730.12L133.128 730.792C132.638 730.771 131.934 730.739 131.016 730.696C130.099 730.675 129.118 730.664 128.072 730.664C127.219 730.664 126.366 730.675 125.512 730.696C124.659 730.739 124.008 730.771 123.56 730.792L123.752 730.12C124.52 730.12 125.075 729.971 125.416 729.672C125.758 729.395 126.035 728.883 126.248 728.136L133.001 703.944ZM126.824 713.8C127.592 712.968 128.318 712.147 129 711.336C129.683 710.504 130.345 709.523 130.984 708.392C131.624 707.261 132.286 705.843 132.969 704.136L133.065 704.648C132.617 706.12 132.083 707.421 131.464 708.552C130.867 709.661 130.206 710.664 129.48 711.56C128.755 712.456 127.987 713.341 127.176 714.216L126.824 713.8ZM155.881 722.312C155.987 722.867 156.126 723.251 156.297 723.464C156.467 723.677 156.691 723.784 156.969 723.784C157.267 723.784 157.566 723.613 157.865 723.272C158.185 722.909 158.537 722.163 158.921 721.032L159.337 719.848H159.945L159.145 722.184C158.846 723.08 158.462 723.763 157.993 724.232C157.523 724.701 157.011 725.021 156.457 725.192C155.902 725.363 155.369 725.448 154.857 725.448C153.918 725.448 153.118 725.224 152.457 724.776C151.817 724.328 151.433 723.507 151.305 722.312L150.025 711.144C149.939 710.589 149.801 710.227 149.609 710.056C149.417 709.885 149.182 709.8 148.905 709.8C148.713 709.8 148.521 709.864 148.329 709.992C148.137 710.099 147.934 710.344 147.721 710.728C147.507 711.091 147.262 711.656 146.985 712.424L146.569 713.608H145.961L146.761 711.272C147.081 710.376 147.475 709.693 147.945 709.224C148.414 708.755 148.937 708.435 149.513 708.264C150.089 708.093 150.643 708.008 151.177 708.008C152.179 708.008 152.979 708.243 153.577 708.712C154.174 709.16 154.537 710.056 154.665 711.4L155.881 722.312ZM157.449 710.28C156.915 710.877 156.446 711.549 156.041 712.296C155.635 713.043 155.294 713.8 155.017 714.568C154.739 715.315 154.505 715.997 154.313 716.616C154.313 716.616 154.206 716.616 153.993 716.616C153.779 716.595 153.673 716.584 153.673 716.584C153.758 716.307 153.875 715.923 154.025 715.432C154.195 714.941 154.409 714.387 154.665 713.768C154.921 713.128 155.23 712.488 155.593 711.848C155.955 711.187 156.371 710.557 156.841 709.96C157.438 709.213 158.025 708.701 158.601 708.424C159.198 708.147 159.785 708.008 160.361 708.008C161.043 708.008 161.598 708.189 162.025 708.552C162.473 708.915 162.697 709.437 162.697 710.12C162.697 710.781 162.473 711.336 162.025 711.784C161.577 712.211 161.001 712.424 160.297 712.424C159.699 712.424 159.134 712.253 158.601 711.912C158.089 711.571 157.705 711.027 157.449 710.28ZM148.073 723.176C148.883 722.259 149.577 721.213 150.153 720.04C150.729 718.867 151.166 717.8 151.465 716.84C151.465 716.84 151.561 716.851 151.753 716.872C151.966 716.893 152.073 716.904 152.073 716.904C151.902 717.501 151.667 718.184 151.369 718.952C151.07 719.699 150.697 720.467 150.249 721.256C149.822 722.024 149.321 722.771 148.745 723.496C148.126 724.221 147.518 724.723 146.921 725C146.323 725.299 145.747 725.448 145.193 725.448C144.446 725.448 143.87 725.267 143.465 724.904C143.059 724.541 142.857 724.051 142.857 723.432C142.857 722.707 143.102 722.131 143.593 721.704C144.062 721.256 144.627 721.032 145.289 721.032C145.993 721.032 146.569 721.235 147.017 721.64C147.486 722.045 147.838 722.557 148.073 723.176Z" fill="black"/>
<path d="M481 711.5H185" stroke="#5F6266" stroke-dasharray="2 2"/>
<defs>
<clipPath id="clip0_4321_53849">
<rect width="375" height="800" fill="white" transform="translate(384 117)"/>
</clipPath>
</defs>
</svg>
