<svg width="86" height="90" viewBox="0 0 86 90" fill="none" xmlns="http://www.w3.org/2000/svg">
<g filter="url(#filter0_d_4367_26298)">
<path d="M2 6.03737C2 3.80759 3.80759 2 6.03737 2H79.7194C81.9492 2 83.7568 3.80759 83.7568 6.03737V83.7568C83.7568 85.9866 81.9492 87.7942 79.7194 87.7942H6.03736C3.80759 87.7942 2 85.9866 2 83.7568V6.03737Z" fill="white" shape-rendering="crispEdges"/>
<path d="M78.9189 2V2.25195H79.7197C79.9726 2.25197 80.2194 2.27705 80.458 2.32422L80.5068 2.07715C81.0364 2.18185 81.5288 2.38983 81.9619 2.67969L81.8223 2.88965C82.2351 3.16606 82.5908 3.5217 82.8672 3.93457L83.0762 3.79395C83.3662 4.22705 83.5739 4.71941 83.6787 5.24902H83.6797L83.4326 5.29883C83.4798 5.5374 83.5049 5.78425 83.5049 6.03711V6.84668H83.7568V8.46582H83.5049V10.085H83.7568V11.7041H83.5049V13.3232H83.7568V14.9424H83.5049V16.5615H83.7568V18.1807H83.5049V19.7998H83.7568V21.4189H83.5049V23.0381H83.7568V24.6572H83.5049V26.2764H83.7568V27.8955H83.5049V29.5146H83.7568V31.1338H83.5049V32.7529H83.7568V34.373H83.5049V35.9922H83.7568V37.6113H83.5049V39.2305H83.7568V40.8496H83.5049V42.4688H83.7568V44.0879H83.5049V45.707H83.7568V47.3262H83.5049V48.9453H83.7568V50.5645H83.5049V52.1836H83.7568V53.8027H83.5049V55.4219H83.7568V57.041H83.5049V58.6602H83.7568V60.2793H83.5049V61.8984H83.7568V63.5176H83.5049V65.1367H83.7568V66.7559H83.5049V68.375H83.7568V69.9941H83.5049V71.6133H83.7568V73.2324H83.5049V74.8516H83.7568V76.4707H83.5049V78.0898H83.7568V79.709H83.5049V81.3281H83.7568V82.9473H83.5049V83.7568C83.5049 84.0099 83.4799 84.2573 83.4326 84.4961L83.6787 84.5439C83.574 85.0737 83.3661 85.5658 83.0762 85.999L82.8672 85.8594C82.5908 86.2722 82.2351 86.6279 81.8223 86.9043L81.9619 87.1133C81.5287 87.4033 81.0366 87.6111 80.5068 87.7158L80.458 87.4697C80.2194 87.5169 79.9726 87.542 79.7197 87.542H78.9189V87.7939H77.3164V87.542H75.7148V87.7939H74.1133V87.542H72.5117V87.7939H70.9092V87.542H69.3076V87.7939H67.7061V87.542H66.1045V87.7939H64.5029V87.542H62.9004V87.7939H61.2988V87.542H59.6973V87.7939H58.0957V87.542H56.4932V87.7939H54.8916V87.542H53.29V87.7939H51.6885V87.542H50.0859V87.7939H48.4844V87.542H46.8828V87.7939H45.2812V87.542H43.6797V87.7939H42.0771V87.542H40.4756V87.7939H38.874V87.542H37.2725V87.7939H35.6699V87.542H34.0684V87.7939H32.4668V87.542H30.8652V87.7939H29.2637V87.542H27.6611V87.7939H26.0596V87.542H24.458V87.7939H22.8564V87.542H21.2539V87.7939H19.6523V87.542H18.0508V87.7939H16.4492V87.542H14.8477V87.7939H13.2451V87.542H11.6436V87.7939H10.042V87.542H8.44043V87.7939H6.83789V87.542H6.03711C5.78423 87.542 5.53742 87.5169 5.29883 87.4697L5.24902 87.7158C4.71938 87.6109 4.22707 87.4033 3.79395 87.1133L3.93457 86.9043C3.52171 86.6279 3.16605 86.2722 2.88965 85.8594L2.67969 85.999C2.38985 85.5659 2.18182 85.0735 2.07715 84.5439L2.32422 84.4961C2.28878 84.3169 2.26602 84.1328 2.25684 83.9453L2.25195 83.7568V82.9473H2V81.3281H2.25195V79.709H2V78.0898H2.25195V76.4707H2V74.8516H2.25195V73.2324H2V71.6133H2.25195V69.9941H2V68.375H2.25195V66.7559H2V65.1367H2.25195V63.5176H2V61.8984H2.25195V60.2793H2V58.6602H2.25195V57.041H2V55.4219H2.25195V53.8027H2V52.1836H2.25195V50.5645H2V48.9453H2.25195V47.3262H2V45.707H2.25195V44.0879H2V42.4688H2.25195V40.8496H2V39.2305H2.25195V37.6113H2V35.9922H2.25195V34.373H2V32.7529H2.25195V31.1338H2V29.5146H2.25195V27.8955H2V26.2764H2.25195V24.6572H2V23.0381H2.25195V21.4189H2V19.7998H2.25195V18.1807H2V16.5615H2.25195V14.9424H2V13.3232H2.25195V11.7041H2V10.085H2.25195V8.46582H2V6.84668H2.25195V6.03711C2.25197 5.78425 2.27705 5.53741 2.32422 5.29883L2.07715 5.24902C2.18196 4.71952 2.38977 4.22699 2.67969 3.79395L2.88965 3.93457C3.16606 3.5217 3.5217 3.16606 3.93457 2.88965L3.79395 2.67969C4.22699 2.38977 4.71952 2.18196 5.24902 2.07715L5.29883 2.32422C5.53741 2.27705 5.78425 2.25197 6.03711 2.25195H6.83789V2H8.44043V2.25195H10.042V2H11.6436V2.25195H13.2451V2H14.8477V2.25195H16.4492V2H18.0508V2.25195H19.6523V2H21.2539V2.25195H22.8564V2H24.458V2.25195H26.0596V2H27.6611V2.25195H29.2637V2H30.8652V2.25195H32.4668V2H34.0684V2.25195H35.6699V2H37.2725V2.25195H38.874V2H40.4756V2.25195H42.0771V2H43.6797V2.25195H45.2812V2H46.8828V2.25195H48.4844V2H50.0859V2.25195H51.6885V2H53.29V2.25195H54.8916V2H56.4932V2.25195H58.0957V2H59.6973V2.25195H61.2988V2H62.9004V2.25195H64.5029V2H66.1045V2.25195H67.7061V2H69.3076V2.25195H70.9092V2H72.5117V2.25195H74.1133V2H75.7148V2.25195H77.3164V2H78.9189Z" stroke="#B12CCF" stroke-width="0.504672" stroke-dasharray="1.62 1.62" shape-rendering="crispEdges"/>
<path d="M15.5226 21.1832L15.1178 21.6671C14.0001 23.0033 12.0109 23.1804 10.6747 22.0627C9.3385 20.945 9.16137 18.9558 10.279 17.6196L11.7631 15.8453C12.5083 14.9546 13.8344 14.8365 14.7252 15.5816C15.616 16.3267 15.7341 17.6529 14.989 18.5437L13.5049 20.3179C13.1324 20.7633 12.4693 20.8223 12.0239 20.4498C11.5785 20.0772 11.5194 19.4141 11.892 18.9687L12.9713 17.6784" stroke="#5F6266" stroke-width="0.630839" stroke-linecap="round" stroke-linejoin="round"/>
<path d="M20.882 21.6592H20.3228L21.9401 17.2548H22.4906L24.1078 21.6592H23.5487L22.2325 17.9516H22.1981L20.882 21.6592ZM21.0884 19.9387H23.3422V20.4118H21.0884V19.9387ZM25.9547 18.3559V18.786H24.2428V18.3559H25.9547ZM24.7417 17.5645H25.2493V20.7129C25.2493 20.8563 25.2701 20.9638 25.3116 21.0355C25.3547 21.1058 25.4091 21.1531 25.4751 21.1774C25.5425 21.2004 25.6134 21.2119 25.688 21.2119C25.7439 21.2119 25.7898 21.209 25.8256 21.2033C25.8615 21.1961 25.8901 21.1904 25.9117 21.1861L26.0149 21.642C25.9805 21.6549 25.9324 21.6678 25.8708 21.6807C25.8091 21.695 25.731 21.7022 25.6364 21.7022C25.493 21.7022 25.3525 21.6714 25.2149 21.6097C25.0787 21.5481 24.9654 21.4542 24.8751 21.328C24.7862 21.2018 24.7417 21.0427 24.7417 20.8506V17.5645ZM28.1547 18.3559V18.786H26.4428V18.3559H28.1547ZM26.9418 17.5645H27.4493V20.7129C27.4493 20.8563 27.4701 20.9638 27.5117 21.0355C27.5547 21.1058 27.6092 21.1531 27.6751 21.1774C27.7425 21.2004 27.8135 21.2119 27.888 21.2119C27.944 21.2119 27.9898 21.209 28.0257 21.2033C28.0615 21.1961 28.0902 21.1904 28.1117 21.1861L28.2149 21.642C28.1805 21.6549 28.1325 21.6678 28.0708 21.6807C28.0092 21.695 27.9311 21.7022 27.8364 21.7022C27.6931 21.7022 27.5526 21.6714 27.4149 21.6097C27.2787 21.5481 27.1654 21.4542 27.0751 21.328C26.9862 21.2018 26.9418 21.0427 26.9418 20.8506V17.5645ZM29.8902 21.7366C29.6809 21.7366 29.491 21.6972 29.3203 21.6183C29.1497 21.538 29.0142 21.4226 28.9139 21.2721C28.8135 21.1201 28.7633 20.9366 28.7633 20.7215C28.7633 20.5323 28.8006 20.3789 28.8752 20.2613C28.9497 20.1423 29.0494 20.0491 29.1741 19.9817C29.2988 19.9143 29.4365 19.8642 29.587 19.8312C29.739 19.7968 29.8917 19.7695 30.0451 19.7495C30.2458 19.7236 30.4085 19.7043 30.5333 19.6914C30.6594 19.6771 30.7512 19.6534 30.8085 19.6204C30.8673 19.5874 30.8967 19.5301 30.8967 19.4484V19.4312C30.8967 19.219 30.8387 19.0541 30.7225 18.9365C30.6078 18.819 30.4336 18.7602 30.1999 18.7602C29.9576 18.7602 29.7677 18.8132 29.63 18.9193C29.4924 19.0254 29.3956 19.1387 29.3397 19.2591L28.858 19.0871C28.944 18.8864 29.0587 18.7301 29.2021 18.6182C29.3469 18.505 29.5046 18.4261 29.6752 18.3817C29.8472 18.3358 30.0164 18.3129 30.1827 18.3129C30.2888 18.3129 30.4107 18.3258 30.5483 18.3516C30.6874 18.3759 30.8214 18.4268 30.9505 18.5043C31.081 18.5817 31.1892 18.6985 31.2752 18.8548C31.3612 19.0111 31.4043 19.2204 31.4043 19.4828V21.6592H30.8967V21.2119H30.8709C30.8365 21.2835 30.7792 21.3602 30.6989 21.442C30.6186 21.5237 30.5118 21.5932 30.3784 21.6506C30.2451 21.7079 30.0824 21.7366 29.8902 21.7366ZM29.9677 21.2807C30.1684 21.2807 30.3376 21.2412 30.4752 21.1624C30.6143 21.0835 30.7189 20.9817 30.7892 20.857C30.8609 20.7323 30.8967 20.6011 30.8967 20.4635V19.9989C30.8752 20.0247 30.8279 20.0484 30.7548 20.0699C30.6831 20.09 30.5999 20.1079 30.5053 20.1237C30.4121 20.138 30.3211 20.1509 30.2322 20.1624C30.1447 20.1724 30.0738 20.181 30.0193 20.1882C29.8874 20.2054 29.7641 20.2333 29.6494 20.272C29.5361 20.3093 29.4444 20.366 29.3741 20.4419C29.3053 20.5165 29.2709 20.6183 29.2709 20.7473C29.2709 20.9237 29.3361 21.057 29.4666 21.1473C29.5985 21.2362 29.7655 21.2807 29.9677 21.2807ZM33.6726 21.728C33.3629 21.728 33.0962 21.6549 32.8726 21.5086C32.6489 21.3624 32.4769 21.161 32.3564 20.9043C32.236 20.6477 32.1758 20.3545 32.1758 20.0247C32.1758 19.6892 32.2374 19.3932 32.3607 19.1365C32.4855 18.8785 32.6589 18.677 32.8812 18.5322C33.1048 18.386 33.3658 18.3129 33.664 18.3129C33.8963 18.3129 34.1056 18.3559 34.292 18.4419C34.4783 18.5279 34.631 18.6484 34.75 18.8032C34.869 18.958 34.9429 19.1387 34.9715 19.3451H34.464C34.4253 19.1946 34.3393 19.0613 34.2059 18.9451C34.074 18.8276 33.8963 18.7688 33.6726 18.7688C33.4747 18.7688 33.3013 18.8204 33.1521 18.9236C33.0045 19.0254 32.8891 19.1695 32.8059 19.3559C32.7242 19.5408 32.6833 19.7581 32.6833 20.0075C32.6833 20.2627 32.7235 20.485 32.8038 20.6742C32.8855 20.8635 33.0002 21.0104 33.1478 21.1151C33.297 21.2197 33.4719 21.2721 33.6726 21.2721C33.8045 21.2721 33.9242 21.2491 34.0317 21.2033C34.1393 21.1574 34.2303 21.0914 34.3049 21.0054C34.3794 20.9194 34.4325 20.8161 34.464 20.6957H34.9715C34.9429 20.8907 34.8719 21.0663 34.7586 21.2226C34.6468 21.3775 34.4984 21.5008 34.3135 21.5925C34.1299 21.6828 33.9163 21.728 33.6726 21.728ZM36.221 19.672V21.6592H35.7135V17.2548H36.221V18.872H36.264C36.3415 18.7014 36.4576 18.5659 36.6124 18.4656C36.7687 18.3638 36.9766 18.3129 37.2361 18.3129C37.4612 18.3129 37.6583 18.358 37.8275 18.4484C37.9967 18.5372 38.1279 18.6742 38.2211 18.8591C38.3157 19.0426 38.363 19.2763 38.363 19.5602V21.6592H37.8555V19.5946C37.8555 19.3322 37.7874 19.1294 37.6512 18.986C37.5164 18.8412 37.3293 18.7688 37.0899 18.7688C36.9236 18.7688 36.7745 18.8039 36.6426 18.8742C36.5121 18.9444 36.4089 19.0469 36.3329 19.1817C36.2583 19.3165 36.221 19.4799 36.221 19.672Z" fill="#5F6266"/>
<path d="M9.31836 34.2158H10.58" stroke="#5F6266" stroke-width="0.630839" stroke-linecap="round" stroke-linejoin="round"/>
<path d="M9.31836 38.4219H11.8417" stroke="#5F6266" stroke-width="0.630839" stroke-linecap="round" stroke-linejoin="round"/>
<path d="M15.626 38.4219H16.8877" stroke="#5F6266" stroke-width="0.630839" stroke-linecap="round" stroke-linejoin="round"/>
<path d="M14.3643 34.2158H16.8876" stroke="#5F6266" stroke-width="0.630839" stroke-linecap="round" stroke-linejoin="round"/>
<path d="M10.5791 34.2158C10.5791 33.8239 10.5791 33.6279 10.6431 33.4733C10.7285 33.2672 10.8922 33.1035 11.0983 33.0181C11.2529 32.9541 11.4489 32.9541 11.8408 32.9541C12.2327 32.9541 12.4286 32.9541 12.5832 33.0181C12.7893 33.1035 12.9531 33.2672 13.0385 33.4733C13.1025 33.6279 13.1025 33.8239 13.1025 34.2158C13.1025 34.6077 13.1025 34.8036 13.0385 34.9582C12.9531 35.1643 12.7893 35.3281 12.5832 35.4134C12.4286 35.4775 12.2327 35.4775 11.8408 35.4775C11.4489 35.4775 11.2529 35.4775 11.0983 35.4134C10.8922 35.3281 10.7285 35.1643 10.6431 34.9582C10.5791 34.8036 10.5791 34.6077 10.5791 34.2158Z" stroke="#5F6266" stroke-width="0.630839"/>
<path d="M13.1035 38.4218C13.1035 38.0299 13.1035 37.834 13.1675 37.6794C13.2529 37.4733 13.4167 37.3095 13.6227 37.2242C13.7773 37.1602 13.9733 37.1602 14.3652 37.1602C14.7571 37.1602 14.9531 37.1602 15.1077 37.2242C15.3137 37.3095 15.4775 37.4733 15.5629 37.6794C15.6269 37.834 15.6269 38.0299 15.6269 38.4218C15.6269 38.8138 15.6269 39.0097 15.5629 39.1643C15.4775 39.3704 15.3137 39.5341 15.1077 39.6195C14.9531 39.6835 14.7571 39.6835 14.3652 39.6835C13.9733 39.6835 13.7773 39.6835 13.6227 39.6195C13.4167 39.5341 13.2529 39.3704 13.1675 39.1643C13.1035 39.0097 13.1035 38.8138 13.1035 38.4218Z" stroke="#5F6266" stroke-width="0.630839"/>
<path d="M20.4604 34.8871V34.414H23.7638V34.8871H22.3788V38.8184H21.8454V34.8871H20.4604ZM25.381 38.8872C25.0828 38.8872 24.8211 38.8162 24.596 38.6743C24.3724 38.5323 24.1975 38.3338 24.0713 38.0786C23.9466 37.8234 23.8842 37.5251 23.8842 37.1839C23.8842 36.8398 23.9466 36.5395 24.0713 36.2828C24.1975 36.0262 24.3724 35.8269 24.596 35.685C24.8211 35.543 25.0828 35.472 25.381 35.472C25.6792 35.472 25.9401 35.543 26.1638 35.685C26.3889 35.8269 26.5638 36.0262 26.6886 36.2828C26.8147 36.5395 26.8778 36.8398 26.8778 37.1839C26.8778 37.5251 26.8147 37.8234 26.6886 38.0786C26.5638 38.3338 26.3889 38.5323 26.1638 38.6743C25.9401 38.8162 25.6792 38.8872 25.381 38.8872ZM25.381 38.4313C25.6075 38.4313 25.7939 38.3732 25.9401 38.2571C26.0864 38.1409 26.1946 37.9882 26.2649 37.799C26.3351 37.6097 26.3703 37.4047 26.3703 37.1839C26.3703 36.9631 26.3351 36.7574 26.2649 36.5667C26.1946 36.376 26.0864 36.2219 25.9401 36.1043C25.7939 35.9868 25.6075 35.928 25.381 35.928C25.1545 35.928 24.9681 35.9868 24.8218 36.1043C24.6756 36.2219 24.5674 36.376 24.4971 36.5667C24.4269 36.7574 24.3917 36.9631 24.3917 37.1839C24.3917 37.4047 24.4269 37.6097 24.4971 37.799C24.5674 37.9882 24.6756 38.1409 24.8218 38.2571C24.9681 38.3732 25.1545 38.4313 25.381 38.4313ZM28.9945 38.8872C28.6963 38.8872 28.4347 38.8162 28.2096 38.6743C27.9859 38.5323 27.811 38.3338 27.6848 38.0786C27.5601 37.8234 27.4977 37.5251 27.4977 37.1839C27.4977 36.8398 27.5601 36.5395 27.6848 36.2828C27.811 36.0262 27.9859 35.8269 28.2096 35.685C28.4347 35.543 28.6963 35.472 28.9945 35.472C29.2927 35.472 29.5537 35.543 29.7773 35.685C30.0024 35.8269 30.1773 36.0262 30.3021 36.2828C30.4282 36.5395 30.4913 36.8398 30.4913 37.1839C30.4913 37.5251 30.4282 37.8234 30.3021 38.0786C30.1773 38.3338 30.0024 38.5323 29.7773 38.6743C29.5537 38.8162 29.2927 38.8872 28.9945 38.8872ZM28.9945 38.4313C29.2211 38.4313 29.4074 38.3732 29.5537 38.2571C29.6999 38.1409 29.8082 37.9882 29.8784 37.799C29.9487 37.6097 29.9838 37.4047 29.9838 37.1839C29.9838 36.9631 29.9487 36.7574 29.8784 36.5667C29.8082 36.376 29.6999 36.2219 29.5537 36.1043C29.4074 35.9868 29.2211 35.928 28.9945 35.928C28.768 35.928 28.5816 35.9868 28.4354 36.1043C28.2891 36.2219 28.1809 36.376 28.1106 36.5667C28.0404 36.7574 28.0053 36.9631 28.0053 37.1839C28.0053 37.4047 28.0404 37.6097 28.1106 37.799C28.1809 37.9882 28.2891 38.1409 28.4354 38.2571C28.5816 38.3732 28.768 38.4313 28.9945 38.4313ZM31.7736 34.414V38.8184H31.2661V34.414H31.7736ZM35.0431 36.2549L34.5871 36.3839C34.5585 36.3079 34.5162 36.2341 34.4602 36.1624C34.4058 36.0893 34.3312 36.029 34.2366 35.9817C34.142 35.9344 34.0208 35.9108 33.8731 35.9108C33.671 35.9108 33.5025 35.9574 33.3677 36.0506C33.2344 36.1423 33.1677 36.2592 33.1677 36.4011C33.1677 36.5273 33.2136 36.6269 33.3054 36.7C33.3971 36.7731 33.5405 36.8341 33.7355 36.8828L34.2258 37.0033C34.5212 37.0749 34.7413 37.1846 34.8861 37.3323C35.0309 37.4785 35.1033 37.6671 35.1033 37.8979C35.1033 38.0872 35.0488 38.2563 34.9398 38.4054C34.8323 38.5546 34.6818 38.6721 34.4882 38.7581C34.2946 38.8442 34.0696 38.8872 33.8129 38.8872C33.476 38.8872 33.1971 38.8141 32.9763 38.6678C32.7555 38.5216 32.6158 38.308 32.557 38.0269L33.0387 37.9065C33.0846 38.0843 33.1713 38.2176 33.2989 38.3065C33.428 38.3954 33.5964 38.4399 33.8043 38.4399C34.0409 38.4399 34.2287 38.3897 34.3678 38.2893C34.5083 38.1875 34.5785 38.0657 34.5785 37.9237C34.5785 37.809 34.5384 37.713 34.4581 37.6355C34.3778 37.5567 34.2545 37.4979 34.0882 37.4592L33.5376 37.3302C33.2351 37.2585 33.0129 37.1474 32.871 36.9968C32.7305 36.8448 32.6602 36.6549 32.6602 36.4269C32.6602 36.2405 32.7125 36.0756 32.8172 35.9323C32.9233 35.7889 33.0674 35.6763 33.2495 35.5946C33.433 35.5129 33.6409 35.472 33.8731 35.472C34.2 35.472 34.4567 35.5437 34.643 35.6871C34.8309 35.8305 34.9642 36.0197 35.0431 36.2549Z" fill="#5F6266"/>
<path d="M71.3916 33.7941C71.3916 33.7941 73.915 35.6525 73.915 36.3175C73.915 36.9825 71.3916 38.8408 71.3916 38.8408" stroke="#303030" stroke-width="0.630839" stroke-linecap="round" stroke-linejoin="round"/>
<path d="M13.1031 57.6817C15.4257 57.6817 17.3087 55.7988 17.3087 53.4761C17.3087 51.1534 15.4257 49.2705 13.1031 49.2705C10.7804 49.2705 8.89746 51.1534 8.89746 53.4761C8.89746 55.7988 10.7804 57.6817 13.1031 57.6817Z" stroke="#5F6266" stroke-width="0.630839" stroke-linecap="square" stroke-linejoin="round"/>
<path d="M11.4209 53.4761C11.4209 55.9995 13.1031 57.6817 13.1031 57.6817C13.1031 57.6817 14.7854 55.9995 14.7854 53.4761C14.7854 50.9527 13.1031 49.2705 13.1031 49.2705C13.1031 49.2705 11.4209 50.9527 11.4209 53.4761Z" stroke="#5F6266" stroke-width="0.630839" stroke-linecap="square" stroke-linejoin="round"/>
<path d="M16.8884 54.7373H9.31836" stroke="#5F6266" stroke-width="0.630839" stroke-linecap="square" stroke-linejoin="round"/>
<path d="M16.8884 52.2148H9.31836" stroke="#5F6266" stroke-width="0.630839" stroke-linecap="square" stroke-linejoin="round"/>
<path d="M23.11 52.6733C23.0842 52.4553 22.9795 52.2862 22.796 52.1657C22.6125 52.0453 22.3874 51.9851 22.1207 51.9851C21.9257 51.9851 21.7551 52.0166 21.6089 52.0797C21.4641 52.1428 21.3508 52.2295 21.2691 52.3399C21.1888 52.4503 21.1486 52.5758 21.1486 52.7163C21.1486 52.8338 21.1766 52.9349 21.2325 53.0195C21.2899 53.1027 21.363 53.1722 21.4519 53.2281C21.5408 53.2826 21.634 53.3278 21.7314 53.3636C21.8289 53.398 21.9185 53.426 22.0003 53.4475L22.4476 53.5679C22.5623 53.598 22.6899 53.6396 22.8304 53.6926C22.9723 53.7457 23.1078 53.8181 23.2369 53.9098C23.3673 54.0002 23.4749 54.1163 23.5594 54.2582C23.644 54.4002 23.6863 54.5744 23.6863 54.7808C23.6863 55.0188 23.624 55.2339 23.4992 55.426C23.3759 55.6181 23.1953 55.7708 22.9573 55.8841C22.7207 55.9974 22.4333 56.054 22.0949 56.054C21.7795 56.054 21.5064 56.0031 21.2755 55.9013C21.0461 55.7995 20.8655 55.6576 20.7336 55.4755C20.6031 55.2934 20.5293 55.0819 20.5121 54.8411H21.0626C21.077 55.0074 21.1329 55.145 21.2304 55.254C21.3293 55.3615 21.454 55.4418 21.6046 55.4948C21.7565 55.5464 21.92 55.5723 22.0949 55.5723C22.2985 55.5723 22.4813 55.5393 22.6433 55.4733C22.8053 55.4059 22.9336 55.3127 23.0283 55.1937C23.1229 55.0733 23.1702 54.9328 23.1702 54.7722C23.1702 54.626 23.1293 54.507 23.0476 54.4152C22.9659 54.3235 22.8584 54.2489 22.725 54.1916C22.5917 54.1342 22.4476 54.084 22.2928 54.041L21.7508 53.8862C21.4067 53.7873 21.1343 53.646 20.9336 53.4625C20.7329 53.279 20.6325 53.0389 20.6325 52.7421C20.6325 52.4955 20.6992 52.2804 20.8325 52.0969C20.9673 51.9119 21.1479 51.7686 21.3744 51.6668C21.6024 51.5636 21.8569 51.5119 22.1379 51.5119C22.4218 51.5119 22.6741 51.5628 22.8949 51.6646C23.1157 51.765 23.2906 51.9026 23.4197 52.0775C23.5501 52.2525 23.6189 52.451 23.6261 52.6733H23.11ZM25.8794 56.0454C25.5611 56.0454 25.2865 55.9751 25.0557 55.8346C24.8263 55.6927 24.6493 55.4948 24.5245 55.2411C24.4012 54.9859 24.3396 54.6891 24.3396 54.3507C24.3396 54.0124 24.4012 53.7141 24.5245 53.4561C24.6493 53.1966 24.8227 52.9944 25.045 52.8496C25.2686 52.7034 25.5296 52.6302 25.8278 52.6302C25.9998 52.6302 26.1697 52.6589 26.3375 52.7163C26.5052 52.7736 26.6579 52.8668 26.7955 52.9958C26.9332 53.1234 27.0429 53.2926 27.1246 53.5034C27.2063 53.7141 27.2472 53.9736 27.2472 54.2819V54.497H24.7009V54.0582H26.731C26.731 53.8719 26.6938 53.7055 26.6192 53.5593C26.5461 53.4131 26.4414 53.2976 26.3052 53.2131C26.1704 53.1285 26.0113 53.0862 25.8278 53.0862C25.6256 53.0862 25.4507 53.1364 25.303 53.2367C25.1568 53.3356 25.0442 53.4647 24.9654 53.6238C24.8865 53.783 24.8471 53.9536 24.8471 54.1357V54.4281C24.8471 54.6776 24.8901 54.8891 24.9761 55.0626C25.0636 55.2346 25.1848 55.3658 25.3396 55.4561C25.4944 55.545 25.6744 55.5895 25.8794 55.5895C26.0127 55.5895 26.1332 55.5708 26.2407 55.5335C26.3497 55.4948 26.4436 55.4375 26.5224 55.3615C26.6013 55.2841 26.6622 55.188 26.7052 55.0733L27.1956 55.211C27.1439 55.3773 27.0572 55.5235 26.9353 55.6497C26.8135 55.7744 26.6629 55.8719 26.4837 55.9422C26.3045 56.011 26.1031 56.0454 25.8794 56.0454ZM28.9913 56.054C28.782 56.054 28.592 56.0146 28.4214 55.9357C28.2508 55.8554 28.1153 55.74 28.0149 55.5895C27.9146 55.4375 27.8644 55.254 27.8644 55.0389C27.8644 54.8497 27.9017 54.6962 27.9762 54.5787C28.0508 54.4597 28.1504 54.3665 28.2752 54.2991C28.3999 54.2317 28.5375 54.1815 28.6881 54.1486C28.84 54.1142 28.9927 54.0869 29.1461 54.0668C29.3469 54.041 29.5096 54.0217 29.6343 54.0088C29.7605 53.9944 29.8522 53.9708 29.9096 53.9378C29.9684 53.9048 29.9978 53.8475 29.9978 53.7658V53.7486C29.9978 53.5364 29.9397 53.3715 29.8236 53.2539C29.7089 53.1364 29.5347 53.0776 29.301 53.0776C29.0587 53.0776 28.8687 53.1306 28.7311 53.2367C28.5934 53.3428 28.4967 53.4561 28.4407 53.5765L27.959 53.4045C28.045 53.2037 28.1597 53.0475 28.3031 52.9356C28.4479 52.8224 28.6056 52.7435 28.7762 52.6991C28.9483 52.6532 29.1175 52.6302 29.2838 52.6302C29.3899 52.6302 29.5117 52.6431 29.6494 52.669C29.7884 52.6933 29.9225 52.7442 30.0515 52.8216C30.182 52.8991 30.2903 53.0159 30.3763 53.1722C30.4623 53.3285 30.5053 53.5378 30.5053 53.8002V55.9766H29.9978V55.5292H29.972C29.9376 55.6009 29.8802 55.6776 29.7999 55.7594C29.7196 55.8411 29.6128 55.9106 29.4795 55.968C29.3461 56.0253 29.1834 56.054 28.9913 56.054ZM29.0687 55.5981C29.2694 55.5981 29.4386 55.5586 29.5763 55.4798C29.7153 55.4009 29.82 55.2991 29.8902 55.1744C29.9619 55.0497 29.9978 54.9185 29.9978 54.7808V54.3163C29.9763 54.3421 29.929 54.3658 29.8558 54.3873C29.7841 54.4073 29.701 54.4253 29.6064 54.441C29.5132 54.4554 29.4221 54.4683 29.3332 54.4798C29.2458 54.4898 29.1748 54.4984 29.1203 54.5056C28.9884 54.5228 28.8651 54.5507 28.7504 54.5894C28.6372 54.6267 28.5454 54.6833 28.4752 54.7593C28.4063 54.8339 28.3719 54.9357 28.3719 55.0647C28.3719 55.2411 28.4372 55.3744 28.5676 55.4647C28.6995 55.5536 28.8666 55.5981 29.0687 55.5981ZM31.4317 55.9766V52.6733H31.922V53.1722H31.9564C32.0166 53.0088 32.1256 52.8761 32.2833 52.7743C32.441 52.6725 32.6188 52.6216 32.8167 52.6216C32.8539 52.6216 32.9005 52.6224 32.9564 52.6238C33.0124 52.6252 33.0547 52.6274 33.0833 52.6302V53.1464C33.0661 53.1421 33.0267 53.1356 32.965 53.127C32.9048 53.117 32.841 53.112 32.7736 53.112C32.6131 53.112 32.4697 53.1457 32.3435 53.2131C32.2188 53.279 32.1199 53.3708 32.0467 53.4883C31.9751 53.6045 31.9392 53.7371 31.9392 53.8862V55.9766H31.4317ZM34.9264 56.0454C34.6167 56.0454 34.35 55.9723 34.1264 55.826C33.9027 55.6798 33.7307 55.4783 33.6102 55.2217C33.4898 54.9651 33.4296 54.6719 33.4296 54.3421C33.4296 54.0066 33.4912 53.7106 33.6145 53.4539C33.7393 53.1959 33.9127 52.9944 34.135 52.8496C34.3586 52.7034 34.6196 52.6302 34.9178 52.6302C35.15 52.6302 35.3594 52.6733 35.5458 52.7593C35.7321 52.8453 35.8848 52.9657 36.0038 53.1206C36.1228 53.2754 36.1967 53.4561 36.2253 53.6625H35.7178C35.6791 53.512 35.5931 53.3787 35.4597 53.2625C35.3278 53.145 35.15 53.0862 34.9264 53.0862C34.7285 53.0862 34.555 53.1378 34.4059 53.241C34.2583 53.3428 34.1429 53.4869 34.0597 53.6733C33.978 53.8582 33.9371 54.0754 33.9371 54.3249C33.9371 54.5801 33.9773 54.8023 34.0575 54.9916C34.1393 55.1808 34.254 55.3278 34.4016 55.4325C34.5507 55.5371 34.7257 55.5895 34.9264 55.5895C35.0583 55.5895 35.178 55.5665 35.2855 55.5206C35.3931 55.4748 35.4841 55.4088 35.5587 55.3228C35.6332 55.2368 35.6863 55.1335 35.7178 55.0131H36.2253C36.1967 55.2081 36.1257 55.3837 36.0124 55.54C35.9006 55.6948 35.7522 55.8181 35.5673 55.9099C35.3837 56.0002 35.1701 56.0454 34.9264 56.0454ZM37.4748 53.9894V55.9766H36.9673V51.5722H37.4748V53.1894H37.5178C37.5953 53.0188 37.7114 52.8833 37.8662 52.7829C38.0225 52.6811 38.2304 52.6302 38.4899 52.6302C38.715 52.6302 38.9121 52.6754 39.0813 52.7657C39.2505 52.8546 39.3817 52.9915 39.4749 53.1765C39.5695 53.36 39.6168 53.5937 39.6168 53.8776V55.9766H39.1093V53.912C39.1093 53.6496 39.0412 53.4468 38.905 53.3034C38.7702 53.1586 38.5831 53.0862 38.3437 53.0862C38.1774 53.0862 38.0282 53.1213 37.8963 53.1915C37.7659 53.2618 37.6626 53.3643 37.5867 53.4991C37.5121 53.6339 37.4748 53.7973 37.4748 53.9894Z" fill="#5F6266"/>
<path d="M13.9443 74.4205H14.7854M13.9443 74.4205C13.5959 74.4205 13.3134 74.1381 13.3134 73.7897V72.7383H13.1031M13.9443 74.4205H12.262M13.1031 72.7383H12.8929V73.7897C12.8929 74.1381 12.6104 74.4205 12.262 74.4205M13.1031 72.7383V74.4205M12.262 74.4205H11.4209" stroke="#5F6266" stroke-width="0.630839" stroke-linecap="round" stroke-linejoin="round"/>
<path d="M16.4675 66.8496H9.73858C9.27404 66.8496 8.89746 67.2262 8.89746 67.6907V71.8963C8.89746 72.3609 9.27404 72.7374 9.73858 72.7374H16.4675C16.9321 72.7374 17.3087 72.3609 17.3087 71.8963V67.6907C17.3087 67.2262 16.9321 66.8496 16.4675 66.8496Z" stroke="#5F6266" stroke-width="0.630839" stroke-linecap="round" stroke-linejoin="round"/>
<path d="M11 69.7939H12.0514L12.6822 71.0556L13.5234 68.5322L14.154 69.7939H15.2054" stroke="#5F6266" stroke-width="0.630839" stroke-linecap="round" stroke-linejoin="round"/>
<path d="M22.0605 73.1357H20.7013V68.7313H22.1207C22.548 68.7313 22.9136 68.8195 23.2175 68.9959C23.5215 69.1708 23.7544 69.4224 23.9164 69.7507C24.0785 70.0776 24.1595 70.469 24.1595 70.9249C24.1595 71.3837 24.0777 71.7787 23.9143 72.1099C23.7508 72.4397 23.5129 72.6934 23.2003 72.8712C22.8877 73.0476 22.5078 73.1357 22.0605 73.1357ZM21.2347 72.6626H22.0261C22.3902 72.6626 22.692 72.5924 22.9315 72.4519C23.1709 72.3113 23.3494 72.1113 23.467 71.8518C23.5845 71.5923 23.6433 71.2834 23.6433 70.9249C23.6433 70.5694 23.5853 70.2633 23.4691 70.0066C23.353 69.7486 23.1795 69.5507 22.9487 69.4131C22.7179 69.274 22.4304 69.2045 22.0863 69.2045H21.2347V72.6626ZM26.3703 73.2046C26.052 73.2046 25.7774 73.1343 25.5466 72.9938C25.3172 72.8519 25.1401 72.654 25.0154 72.4002C24.8921 72.145 24.8304 71.8483 24.8304 71.5099C24.8304 71.1715 24.8921 70.8733 25.0154 70.6153C25.1401 70.3557 25.3136 70.1536 25.5358 70.0088C25.7595 69.8625 26.0204 69.7894 26.3187 69.7894C26.4907 69.7894 26.6606 69.8181 26.8283 69.8754C26.9961 69.9328 27.1488 70.026 27.2864 70.155C27.4241 70.2826 27.5337 70.4518 27.6155 70.6626C27.6972 70.8733 27.738 71.1328 27.738 71.4411V71.6561H25.1917V71.2174H27.2219C27.2219 71.031 27.1846 70.8647 27.1101 70.7185C27.0369 70.5722 26.9323 70.4568 26.7961 70.3722C26.6613 70.2876 26.5022 70.2454 26.3187 70.2454C26.1165 70.2454 25.9416 70.2955 25.7939 70.3959C25.6477 70.4948 25.5351 70.6239 25.4563 70.783C25.3774 70.9421 25.338 71.1128 25.338 71.2948V71.5873C25.338 71.8368 25.381 72.0483 25.467 72.2217C25.5545 72.3938 25.6756 72.525 25.8305 72.6153C25.9853 72.7042 26.1652 72.7486 26.3703 72.7486C26.5036 72.7486 26.624 72.73 26.7316 72.6927C26.8405 72.654 26.9344 72.5967 27.0133 72.5207C27.0921 72.4433 27.1531 72.3472 27.1961 72.2325L27.6864 72.3701C27.6348 72.5364 27.5481 72.6827 27.4262 72.8089C27.3043 72.9336 27.1538 73.0311 26.9746 73.1013C26.7954 73.1702 26.5939 73.2046 26.3703 73.2046ZM29.8951 73.2046C29.5768 73.2046 29.3022 73.1343 29.0714 72.9938C28.842 72.8519 28.6649 72.654 28.5402 72.4002C28.4169 72.145 28.3553 71.8483 28.3553 71.5099C28.3553 71.1715 28.4169 70.8733 28.5402 70.6153C28.6649 70.3557 28.8384 70.1536 29.0607 70.0088C29.2843 69.8625 29.5453 69.7894 29.8435 69.7894C30.0155 69.7894 30.1854 69.8181 30.3532 69.8754C30.5209 69.9328 30.6736 70.026 30.8112 70.155C30.9489 70.2826 31.0586 70.4518 31.1403 70.6626C31.222 70.8733 31.2629 71.1328 31.2629 71.4411V71.6561H28.7166V71.2174H30.7467C30.7467 71.031 30.7094 70.8647 30.6349 70.7185C30.5618 70.5722 30.4571 70.4568 30.3209 70.3722C30.1861 70.2876 30.027 70.2454 29.8435 70.2454C29.6413 70.2454 29.4664 70.2955 29.3187 70.3959C29.1725 70.4948 29.0599 70.6239 28.9811 70.783C28.9022 70.9421 28.8628 71.1128 28.8628 71.2948V71.5873C28.8628 71.8368 28.9058 72.0483 28.9918 72.2217C29.0793 72.3938 29.2004 72.525 29.3553 72.6153C29.5101 72.7042 29.6901 72.7486 29.8951 72.7486C30.0284 72.7486 30.1489 72.73 30.2564 72.6927C30.3653 72.654 30.4593 72.5967 30.5381 72.5207C30.617 72.4433 30.6779 72.3472 30.7209 72.2325L31.2112 72.3701C31.1596 72.5364 31.0729 72.6827 30.951 72.8089C30.8292 72.9336 30.6786 73.0311 30.4994 73.1013C30.3202 73.1702 30.1187 73.2046 29.8951 73.2046ZM32.0349 74.3745V69.8324H32.5253V70.3572H32.5855C32.6227 70.2998 32.6744 70.2267 32.7403 70.1378C32.8077 70.0475 32.9038 69.9672 33.0285 69.897C33.1547 69.8253 33.3253 69.7894 33.5403 69.7894C33.8185 69.7894 34.0636 69.859 34.2758 69.998C34.488 70.1371 34.6536 70.3342 34.7726 70.5894C34.8916 70.8446 34.9511 71.1457 34.9511 71.4927C34.9511 71.8425 34.8916 72.1458 34.7726 72.4024C34.6536 72.6576 34.4887 72.8554 34.278 72.996C34.0672 73.135 33.8242 73.2046 33.5489 73.2046C33.3367 73.2046 33.1668 73.1694 33.0392 73.0992C32.9116 73.0275 32.8134 72.9465 32.7446 72.8562C32.6758 72.7644 32.6227 72.6884 32.5855 72.6282H32.5425V74.3745H32.0349ZM32.5339 71.4841C32.5339 71.7336 32.5704 71.9536 32.6435 72.1443C32.7167 72.3336 32.8235 72.482 32.964 72.5895C33.1045 72.6956 33.2765 72.7486 33.4801 72.7486C33.6923 72.7486 33.8694 72.6927 34.0113 72.5809C34.1547 72.4676 34.2622 72.3157 34.3339 72.125C34.407 71.9328 34.4436 71.7192 34.4436 71.4841C34.4436 71.2518 34.4077 71.0425 34.336 70.8561C34.2658 70.6683 34.159 70.5199 34.0156 70.4109C33.8737 70.3005 33.6952 70.2454 33.4801 70.2454C33.2737 70.2454 33.1002 70.2977 32.9597 70.4023C32.8192 70.5056 32.7131 70.6504 32.6414 70.8368C32.5697 71.0217 32.5339 71.2375 32.5339 71.4841ZM37.4974 73.1357V68.7313H38.9856C39.3297 68.7313 39.6122 68.7901 39.833 68.9077C40.0537 69.0238 40.2172 69.1837 40.3233 69.3873C40.4294 69.5909 40.4824 69.8224 40.4824 70.0819C40.4824 70.3414 40.4294 70.5715 40.3233 70.7722C40.2172 70.973 40.0545 71.1307 39.8351 71.2454C39.6157 71.3586 39.3355 71.4153 38.9942 71.4153H37.7899V70.9335H38.977C39.2121 70.9335 39.4014 70.8991 39.5448 70.8303C39.6896 70.7615 39.7942 70.664 39.8588 70.5378C39.9247 70.4102 39.9577 70.2583 39.9577 70.0819C39.9577 69.9056 39.9247 69.7514 39.8588 69.6195C39.7928 69.4876 39.6874 69.3858 39.5426 69.3141C39.3978 69.241 39.2064 69.2045 38.9684 69.2045H38.0308V73.1357H37.4974ZM39.5706 71.1572L40.6545 73.1357H40.0351L38.9684 71.1572H39.5706ZM42.6518 73.2046C42.3335 73.2046 42.059 73.1343 41.8282 72.9938C41.5988 72.8519 41.4217 72.654 41.297 72.4002C41.1737 72.145 41.112 71.8483 41.112 71.5099C41.112 71.1715 41.1737 70.8733 41.297 70.6153C41.4217 70.3557 41.5952 70.1536 41.8174 70.0088C42.0411 69.8625 42.302 69.7894 42.6002 69.7894C42.7723 69.7894 42.9422 69.8181 43.1099 69.8754C43.2777 69.9328 43.4303 70.026 43.568 70.155C43.7056 70.2826 43.8153 70.4518 43.897 70.6626C43.9787 70.8733 44.0196 71.1328 44.0196 71.4411V71.6561H41.4733V71.2174H43.5035C43.5035 71.031 43.4662 70.8647 43.3916 70.7185C43.3185 70.5722 43.2139 70.4568 43.0777 70.3722C42.9429 70.2876 42.7837 70.2454 42.6002 70.2454C42.3981 70.2454 42.2232 70.2955 42.0755 70.3959C41.9292 70.4948 41.8167 70.6239 41.7378 70.783C41.659 70.9421 41.6196 71.1128 41.6196 71.2948V71.5873C41.6196 71.8368 41.6626 72.0483 41.7486 72.2217C41.836 72.3938 41.9572 72.525 42.112 72.6153C42.2669 72.7042 42.4468 72.7486 42.6518 72.7486C42.7852 72.7486 42.9056 72.73 43.0131 72.6927C43.1221 72.654 43.216 72.5967 43.2949 72.5207C43.3737 72.4433 43.4347 72.3472 43.4777 72.2325L43.968 72.3701C43.9164 72.5364 43.8296 72.6827 43.7078 72.8089C43.5859 72.9336 43.4354 73.0311 43.2562 73.1013C43.0769 73.1702 42.8755 73.2046 42.6518 73.2046ZM47.1315 70.5722L46.6756 70.7013C46.6469 70.6253 46.6046 70.5515 46.5487 70.4798C46.4942 70.4066 46.4197 70.3464 46.325 70.2991C46.2304 70.2518 46.1093 70.2281 45.9616 70.2281C45.7594 70.2281 45.591 70.2747 45.4562 70.3679C45.3229 70.4597 45.2562 70.5765 45.2562 70.7185C45.2562 70.8446 45.3021 70.9443 45.3938 71.0174C45.4856 71.0905 45.629 71.1515 45.824 71.2002L46.3143 71.3206C46.6096 71.3923 46.8297 71.502 46.9745 71.6497C47.1193 71.7959 47.1917 71.9845 47.1917 72.2153C47.1917 72.4045 47.1372 72.5737 47.0283 72.7228C46.9208 72.8719 46.7702 72.9895 46.5767 73.0755C46.3831 73.1615 46.158 73.2046 45.9014 73.2046C45.5645 73.2046 45.2856 73.1314 45.0648 72.9852C44.844 72.839 44.7042 72.6253 44.6454 72.3443L45.1272 72.2239C45.173 72.4017 45.2598 72.535 45.3874 72.6239C45.5164 72.7128 45.6849 72.7572 45.8928 72.7572C46.1293 72.7572 46.3172 72.7071 46.4562 72.6067C46.5967 72.5049 46.667 72.383 46.667 72.2411C46.667 72.1264 46.6268 72.0303 46.5466 71.9529C46.4663 71.8741 46.343 71.8153 46.1767 71.7766L45.6261 71.6475C45.3236 71.5758 45.1014 71.4647 44.9594 71.3142C44.8189 71.1622 44.7487 70.9722 44.7487 70.7443C44.7487 70.5579 44.801 70.393 44.9057 70.2497C45.0118 70.1063 45.1558 69.9937 45.3379 69.912C45.5214 69.8303 45.7293 69.7894 45.9616 69.7894C46.2885 69.7894 46.5451 69.8611 46.7315 70.0045C46.9193 70.1479 47.0527 70.3371 47.1315 70.5722ZM49.3407 73.2046C49.0224 73.2046 48.7479 73.1343 48.517 72.9938C48.2876 72.8519 48.1106 72.654 47.9858 72.4002C47.8625 72.145 47.8009 71.8483 47.8009 71.5099C47.8009 71.1715 47.8625 70.8733 47.9858 70.6153C48.1106 70.3557 48.284 70.1536 48.5063 70.0088C48.7299 69.8625 48.9909 69.7894 49.2891 69.7894C49.4611 69.7894 49.631 69.8181 49.7988 69.8754C49.9665 69.9328 50.1192 70.026 50.2569 70.155C50.3945 70.2826 50.5042 70.4518 50.5859 70.6626C50.6676 70.8733 50.7085 71.1328 50.7085 71.4411V71.6561H48.1622V71.2174H50.1923C50.1923 71.031 50.1551 70.8647 50.0805 70.7185C50.0074 70.5722 49.9027 70.4568 49.7665 70.3722C49.6318 70.2876 49.4726 70.2454 49.2891 70.2454C49.0869 70.2454 48.912 70.2955 48.7643 70.3959C48.6181 70.4948 48.5056 70.6239 48.4267 70.783C48.3479 70.9421 48.3084 71.1128 48.3084 71.2948V71.5873C48.3084 71.8368 48.3514 72.0483 48.4375 72.2217C48.5249 72.3938 48.6461 72.525 48.8009 72.6153C48.9558 72.7042 49.1357 72.7486 49.3407 72.7486C49.474 72.7486 49.5945 72.73 49.702 72.6927C49.811 72.654 49.9049 72.5967 49.9837 72.5207C50.0626 72.4433 50.1235 72.3472 50.1665 72.2325L50.6569 72.3701C50.6053 72.5364 50.5185 72.6827 50.3966 72.8089C50.2748 72.9336 50.1242 73.0311 49.945 73.1013C49.7658 73.1702 49.5644 73.2046 49.3407 73.2046ZM52.4526 73.2132C52.2433 73.2132 52.0533 73.1737 51.8827 73.0949C51.7121 73.0146 51.5766 72.8992 51.4762 72.7486C51.3759 72.5967 51.3257 72.4131 51.3257 72.1981C51.3257 72.0088 51.363 71.8554 51.4375 71.7379C51.5121 71.6189 51.6117 71.5257 51.7365 71.4583C51.8612 71.3909 51.9988 71.3407 52.1494 71.3077C52.3013 71.2733 52.454 71.2461 52.6074 71.226C52.8082 71.2002 52.9709 71.1809 53.0956 71.168C53.2218 71.1536 53.3136 71.13 53.3709 71.097C53.4297 71.064 53.4591 71.0067 53.4591 70.9249V70.9077C53.4591 70.6955 53.401 70.5307 53.2849 70.4131C53.1702 70.2955 52.996 70.2367 52.7623 70.2367C52.52 70.2367 52.33 70.2898 52.1924 70.3959C52.0547 70.502 51.958 70.6153 51.9021 70.7357L51.4203 70.5636C51.5063 70.3629 51.621 70.2066 51.7644 70.0948C51.9092 69.9815 52.0669 69.9027 52.2375 69.8582C52.4096 69.8124 52.5788 69.7894 52.7451 69.7894C52.8512 69.7894 52.973 69.8023 53.1107 69.8281C53.2498 69.8525 53.3838 69.9034 53.5128 69.9808C53.6433 70.0582 53.7516 70.1751 53.8376 70.3314C53.9236 70.4877 53.9666 70.697 53.9666 70.9593V73.1357H53.4591V72.6884H53.4333C53.3989 72.7601 53.3415 72.8368 53.2612 72.9185C53.1809 73.0003 53.0741 73.0698 52.9408 73.1271C52.8075 73.1845 52.6447 73.2132 52.4526 73.2132ZM52.53 72.7572C52.7308 72.7572 52.8999 72.7178 53.0376 72.639C53.1766 72.5601 53.2813 72.4583 53.3516 72.3336C53.4232 72.2088 53.4591 72.0777 53.4591 71.94V71.4755C53.4376 71.5013 53.3903 71.525 53.3171 71.5465C53.2455 71.5665 53.1623 71.5845 53.0677 71.6002C52.9745 71.6146 52.8834 71.6275 52.7946 71.6389C52.7071 71.649 52.6361 71.6576 52.5816 71.6647C52.4497 71.6819 52.3264 71.7099 52.2117 71.7486C52.0985 71.7859 52.0067 71.8425 51.9365 71.9185C51.8676 71.9931 51.8332 72.0949 51.8332 72.2239C51.8332 72.4002 51.8985 72.5336 52.0289 72.6239C52.1608 72.7128 52.3279 72.7572 52.53 72.7572ZM54.893 73.1357V69.8324H55.3833V70.3314H55.4177C55.478 70.1679 55.5869 70.0353 55.7446 69.9335C55.9023 69.8317 56.0801 69.7808 56.278 69.7808C56.3152 69.7808 56.3618 69.7815 56.4178 69.783C56.4737 69.7844 56.516 69.7866 56.5446 69.7894V70.3056C56.5274 70.3013 56.488 70.2948 56.4264 70.2862C56.3661 70.2762 56.3023 70.2712 56.235 70.2712C56.0744 70.2712 55.931 70.3049 55.8048 70.3722C55.6801 70.4382 55.5812 70.5299 55.5081 70.6475C55.4364 70.7636 55.4005 70.8963 55.4005 71.0454V73.1357H54.893ZM58.3877 73.2046C58.078 73.2046 57.8113 73.1314 57.5877 72.9852C57.364 72.839 57.192 72.6375 57.0715 72.3809C56.9511 72.1242 56.8909 71.8311 56.8909 71.5013C56.8909 71.1658 56.9525 70.8697 57.0758 70.6131C57.2006 70.355 57.3741 70.1536 57.5963 70.0088C57.8199 69.8625 58.0809 69.7894 58.3791 69.7894C58.6114 69.7894 58.8207 69.8324 59.0071 69.9185C59.1934 70.0045 59.3461 70.1249 59.4651 70.2798C59.5841 70.4346 59.658 70.6153 59.6867 70.8217H59.1791C59.1404 70.6712 59.0544 70.5378 58.921 70.4217C58.7891 70.3041 58.6114 70.2454 58.3877 70.2454C58.1898 70.2454 58.0164 70.297 57.8673 70.4002C57.7196 70.502 57.6042 70.6461 57.521 70.8325C57.4393 71.0174 57.3984 71.2346 57.3984 71.4841C57.3984 71.7393 57.4386 71.9615 57.5189 72.1508C57.6006 72.34 57.7153 72.487 57.863 72.5916C58.0121 72.6963 58.187 72.7486 58.3877 72.7486C58.5196 72.7486 58.6393 72.7257 58.7468 72.6798C58.8544 72.6339 58.9454 72.568 59.02 72.482C59.0945 72.3959 59.1476 72.2927 59.1791 72.1723H59.6867C59.658 72.3673 59.587 72.5429 59.4737 72.6992C59.3619 72.854 59.2135 72.9773 59.0286 73.0691C58.8451 73.1594 58.6314 73.2046 58.3877 73.2046ZM60.9361 71.1486V73.1357H60.4286V68.7313H60.9361V70.3486H60.9792C61.0566 70.178 61.1727 70.0425 61.3276 69.9421C61.4838 69.8403 61.6917 69.7894 61.9512 69.7894C62.1763 69.7894 62.3735 69.8346 62.5426 69.9249C62.7118 70.0138 62.843 70.1507 62.9362 70.3357C63.0308 70.5192 63.0781 70.7529 63.0781 71.0368V73.1357H62.5706V71.0712C62.5706 70.8088 62.5025 70.6059 62.3663 70.4626C62.2315 70.3178 62.0444 70.2454 61.805 70.2454C61.6387 70.2454 61.4896 70.2805 61.3577 70.3507C61.2272 70.421 61.124 70.5235 61.048 70.6583C60.9734 70.793 60.9361 70.9565 60.9361 71.1486Z" fill="#5F6266"/>
</g>
<defs>
<filter id="filter0_d_4367_26298" x="0" y="0" width="85.7568" height="89.7939" filterUnits="userSpaceOnUse" color-interpolation-filters="sRGB">
<feFlood flood-opacity="0" result="BackgroundImageFix"/>
<feColorMatrix in="SourceAlpha" type="matrix" values="0 0 0 0 0 0 0 0 0 0 0 0 0 0 0 0 0 0 127 0" result="hardAlpha"/>
<feOffset/>
<feGaussianBlur stdDeviation="1"/>
<feComposite in2="hardAlpha" operator="out"/>
<feColorMatrix type="matrix" values="0 0 0 0 0 0 0 0 0 0 0 0 0 0 0 0 0 0 0.24 0"/>
<feBlend mode="normal" in2="BackgroundImageFix" result="effect1_dropShadow_4367_26298"/>
<feBlend mode="normal" in="SourceGraphic" in2="effect1_dropShadow_4367_26298" result="shape"/>
</filter>
</defs>
</svg>
