<svg width="22" height="709" viewBox="0 0 22 709" fill="none" xmlns="http://www.w3.org/2000/svg">
<path d="M0.000325839 10.667C0.000325839 16.558 4.77596 21.3337 10.667 21.3337C16.558 21.3337 21.3337 16.558 21.3337 10.667C21.3337 4.77596 16.558 0.000325839 10.667 0.000325839C4.77596 0.000325839 0.000325839 4.77596 0.000325839 10.667ZM0.000325839 697.905C0.000325839 703.796 4.77596 708.571 10.667 708.571C16.558 708.571 21.3337 703.796 21.3337 697.905C21.3337 692.014 16.558 687.238 10.667 687.238C4.77596 687.238 0.000325839 692.014 0.000325839 697.905ZM10.667 10.667H8.66699L8.66699 697.905H10.667H12.667L12.667 10.667H10.667Z" fill="black"/>
</svg>
