<svg width="479" height="227" viewBox="0 0 479 227" fill="none" xmlns="http://www.w3.org/2000/svg">
<path d="M477.503 0V0.5H478.5V1.49219H479V4.47754H478.5V7.46289H479V10.4473H478.5V13.4326H479V16.417H478.5V19.4023H479V22.3877H478.5V25.3721H479V28.3574H478.5V31.3428H479V34.3271H478.5V37.3125H479V40.2979H478.5V43.2822H479V46.2676H478.5V49.252H479V52.2373H478.5V55.2227H479V58.207H478.5V61.1924H479V64.1777H478.5V67.1621H479V70.1475H478.5V73.1328H479V76.1172H478.5V79.1025H479V82.0879H478.5V85.0723H479V88.0576H478.5V91.042H479V94.0273H478.5V97.0127H479V99.9971H478.5V102.982H479V105.968H478.5V108.952H479V111.938H478.5V114.923H479V117.907H478.5V120.893H479V123.877H478.5V126.862H479V129.848H478.5V132.832H479V135.817H478.5V138.803H479V141.787H478.5V144.772H479V147.757H478.5V150.742H479V153.728H478.5V156.712H479V159.697H478.5V162.683H479V165.667H478.5V168.652H479V171.638H478.5V174.622H479V177.607H478.5V180.592H479V183.577H478.5V186.562H479V189.547H478.5V192.532H479V195.518H478.5V198.502H479V201.487H478.5V204.473H479V207.457H478.5V210.442H479V213.427H478.5V216.412H479V219.397H478.5V222.382H479V225.367H478.5V226.359H477.503V226.859H474.509V226.359H471.515V226.859H468.521V226.359H465.527V226.859H462.534V226.359H459.54V226.859H456.546V226.359H453.553V226.859H450.559V226.359H447.565V226.859H444.571V226.359H441.577V226.859H438.584V226.359H435.59V226.859H432.597V226.359H429.603V226.859H426.608V226.359H423.615V226.859H420.621V226.359H417.628V226.859H414.634V226.359H411.64V226.859H408.646V226.359H405.652V226.859H402.659V226.359H399.665V226.859H396.672V226.359H393.678V226.859H390.684V226.359H387.69V226.859H384.696V226.359H381.703V226.859H378.709V226.359H375.715V226.859H372.722V226.359H369.728V226.859H366.734V226.359H363.74V226.859H360.746V226.359H357.753V226.859H354.759V226.359H351.766V226.859H348.771V226.359H345.777V226.859H342.784V226.359H339.79V226.859H336.797V226.359H333.803V226.859H330.809V226.359H327.815V226.859H324.821V226.359H321.828V226.859H318.834V226.359H315.84V226.859H312.847V226.359H309.853V226.859H306.859V226.359H303.865V226.859H300.872V226.359H297.878V226.859H294.884V226.359H291.891V226.859H288.896V226.359H285.903V226.859H282.909V226.359H279.915V226.859H276.922V226.359H273.928V226.859H270.935V226.359H267.94V226.859H264.946V226.359H261.953V226.859H258.959V226.359H255.966V226.859H252.972V226.359H249.978V226.859H246.984V226.359H243.99V226.859H240.997V226.359H238.003V226.859H235.009V226.359H232.016V226.859H229.021V226.359H226.028V226.859H223.034V226.359H220.04V226.859H217.047V226.359H214.053V226.859H211.06V226.359H208.065V226.859H205.071V226.359H202.078V226.859H199.084V226.359H196.091V226.859H193.097V226.359H190.104V226.859H187.109V226.359H184.115V226.859H181.122V226.359H178.128V226.859H175.135V226.359H172.141V226.859H169.146V226.359H166.153V226.859H163.159V226.359H160.166V226.859H157.172V226.359H154.178V226.859H151.185V226.359H148.19V226.859H145.197V226.359H142.203V226.859H139.209V226.359H136.216V226.859H133.222V226.359H130.229V226.859H127.234V226.359H124.24V226.859H121.247V226.359H118.253V226.859H115.26V226.359H112.266V226.859H109.271V226.359H106.278V226.859H103.284V226.359H100.291V226.859H97.2969V226.359H94.3027V226.859H91.3096V226.359H88.3154V226.859H85.3223V226.359H82.3281V226.859H79.334V226.359H76.3408V226.859H73.3467V226.359H70.3535V226.859H67.3594V226.359H64.3652V226.859H61.3721V226.359H58.3779V226.859H55.3848V226.359H52.3906V226.859H49.3965V226.359H46.4033V226.859H43.4092V226.359H40.416V226.859H37.4219V226.359H34.4277V226.859H31.4346V226.359H28.4404V226.859H25.4473V226.359H22.4531V226.859H19.459V226.359H16.4658V226.859H13.4717V226.359H10.4785V226.859H7.48438V226.359H4.49023V226.859H1.49707V226.359H0.5V225.367H0V222.382H0.5V219.397H0V216.412H0.5V213.428H0V210.442H0.5V207.457H0V204.473H0.5V201.487H0V198.502H0.5V195.518H0V192.532H0.5V189.547H0V186.562H0.5V183.577H0V180.592H0.5V177.607H0V174.622H0.5V171.638H0V168.652H0.5V165.667H0V162.683H0.5V159.697H0V156.712H0.5V153.728H0V150.742H0.5V147.757H0V144.772H0.5V141.787H0V138.803H0.5V135.817H0V132.832H0.5V129.848H0V126.862H0.5V123.877H0V120.893H0.5V117.907H0V114.922H0.5V111.938H0V108.952H0.5V105.968H0V102.982H0.5V99.9971H0V97.0127H0.5V94.0273H0V91.042H0.5V88.0576H0V85.0723H0.5V82.0869H0V79.1025H0.5V76.1172H0V73.1328H0.5V70.1475H0V67.1621H0.5V64.1777H0V61.1924H0.5V58.207H0V55.2227H0.5V52.2373H0V49.2529H0.5V46.2676H0V43.2822H0.5V40.2979H0V37.3125H0.5V34.3271H0V31.3428H0.5V28.3574H0V25.3721H0.5V22.3877H0V19.4023H0.5V16.417H0V13.4326H0.5V10.4473H0V7.46289H0.5V4.47754H0V1.49219H0.5V0.5H1.49707V0H4.49121V0.5H7.48535V0H10.4785V0.5H13.4727V0H16.4658V0.5H19.46V0H22.4541V0.5H25.4473V0H28.4414V0.5H31.4346V0H34.4287V0.5H37.4229V0H40.416V0.5H43.4102V0H46.4033V0.5H49.3975V0H52.3916V0.5H55.3848V0H58.3789V0.5H61.3721V0H64.3662V0.5H67.3604V0H70.3535V0.5H73.3477V0H76.3408V0.5H79.335V0H82.3281V0.5H85.3223V0H88.3164V0.5H91.3096V0H94.3037V0.5H97.2969V0H100.291V0.5H103.285V0H106.278V0.5H109.272V0H112.266V0.5H115.26V0H118.254V0.5H121.247V0H124.241V0.5H127.234V0H130.229V0.5H133.223V0H136.216V0.5H139.21V0H142.203V0.5H145.197V0H148.191V0.5H151.185V0H154.179V0.5H157.172V0H160.166V0.5H163.16V0H166.153V0.5H169.147V0H172.141V0.5H175.135V0H178.128V0.5H181.122V0H184.116V0.5H187.109V0H190.104V0.5H193.097V0H196.091V0.5H199.085V0H202.078V0.5H205.072V0H208.065V0.5H211.06V0H214.054V0.5H217.047V0H220.041V0.5H223.034V0H226.028V0.5H229.022V0H232.016V0.5H235.01V0H238.003V0.5H240.997V0H243.991V0.5H246.984V0H249.979V0.5H252.972V0H255.966V0.5H258.96V0H261.953V0.5H264.947V0H267.94V0.5H270.935V0H273.929V0.5H276.922V0H279.916V0.5H282.909V0H285.903V0.5H288.896V0H291.891V0.5H294.885V0H297.878V0.5H300.872V0H303.865V0.5H306.859V0H309.854V0.5H312.847V0H315.841V0.5H318.834V0H321.828V0.5H324.822V0H327.815V0.5H330.81V0H333.803V0.5H336.797V0H339.791V0.5H342.784V0H345.778V0.5H348.771V0H351.766V0.5H354.76V0H357.753V0.5H360.747V0H363.74V0.5H366.734V0H369.729V0.5H372.722V0H375.716V0.5H378.709V0H381.703V0.5H384.697V0H387.69V0.5H390.685V0H393.678V0.5H396.672V0H399.666V0.5H402.659V0H405.653V0.5H408.646V0H411.641V0.5H414.635V0H417.628V0.5H420.622V0H423.615V0.5H426.609V0H429.604V0.5H432.597V0H435.591V0.5H438.584V0H441.578V0.5H444.572V0H447.565V0.5H450.56V0H453.553V0.5H456.547V0H459.541V0.5H462.534V0H465.528V0.5H468.521V0H471.516V0.5H474.51V0H477.503Z" fill="#F8F9FA"/>
<path d="M477.503 0V0.5H478.5V1.49219H479V4.47754H478.5V7.46289H479V10.4473H478.5V13.4326H479V16.417H478.5V19.4023H479V22.3877H478.5V25.3721H479V28.3574H478.5V31.3428H479V34.3271H478.5V37.3125H479V40.2979H478.5V43.2822H479V46.2676H478.5V49.252H479V52.2373H478.5V55.2227H479V58.207H478.5V61.1924H479V64.1777H478.5V67.1621H479V70.1475H478.5V73.1328H479V76.1172H478.5V79.1025H479V82.0879H478.5V85.0723H479V88.0576H478.5V91.042H479V94.0273H478.5V97.0127H479V99.9971H478.5V102.982H479V105.968H478.5V108.952H479V111.938H478.5V114.923H479V117.907H478.5V120.893H479V123.877H478.5V126.862H479V129.848H478.5V132.832H479V135.817H478.5V138.803H479V141.787H478.5V144.772H479V147.757H478.5V150.742H479V153.728H478.5V156.712H479V159.697H478.5V162.683H479V165.667H478.5V168.652H479V171.638H478.5V174.622H479V177.607H478.5V180.592H479V183.577H478.5V186.562H479V189.547H478.5V192.532H479V195.518H478.5V198.502H479V201.487H478.5V204.473H479V207.457H478.5V210.442H479V213.427H478.5V216.412H479V219.397H478.5V222.382H479V225.367H478.5V226.359H477.503V226.859H474.509V226.359H471.515V226.859H468.521V226.359H465.527V226.859H462.534V226.359H459.54V226.859H456.546V226.359H453.553V226.859H450.559V226.359H447.565V226.859H444.571V226.359H441.577V226.859H438.584V226.359H435.59V226.859H432.597V226.359H429.603V226.859H426.608V226.359H423.615V226.859H420.621V226.359H417.628V226.859H414.634V226.359H411.64V226.859H408.646V226.359H405.652V226.859H402.659V226.359H399.665V226.859H396.672V226.359H393.678V226.859H390.684V226.359H387.69V226.859H384.696V226.359H381.703V226.859H378.709V226.359H375.715V226.859H372.722V226.359H369.728V226.859H366.734V226.359H363.74V226.859H360.746V226.359H357.753V226.859H354.759V226.359H351.766V226.859H348.771V226.359H345.777V226.859H342.784V226.359H339.79V226.859H336.797V226.359H333.803V226.859H330.809V226.359H327.815V226.859H324.821V226.359H321.828V226.859H318.834V226.359H315.84V226.859H312.847V226.359H309.853V226.859H306.859V226.359H303.865V226.859H300.872V226.359H297.878V226.859H294.884V226.359H291.891V226.859H288.896V226.359H285.903V226.859H282.909V226.359H279.915V226.859H276.922V226.359H273.928V226.859H270.935V226.359H267.94V226.859H264.946V226.359H261.953V226.859H258.959V226.359H255.966V226.859H252.972V226.359H249.978V226.859H246.984V226.359H243.99V226.859H240.997V226.359H238.003V226.859H235.009V226.359H232.016V226.859H229.021V226.359H226.028V226.859H223.034V226.359H220.04V226.859H217.047V226.359H214.053V226.859H211.06V226.359H208.065V226.859H205.071V226.359H202.078V226.859H199.084V226.359H196.091V226.859H193.097V226.359H190.104V226.859H187.109V226.359H184.115V226.859H181.122V226.359H178.128V226.859H175.135V226.359H172.141V226.859H169.146V226.359H166.153V226.859H163.159V226.359H160.166V226.859H157.172V226.359H154.178V226.859H151.185V226.359H148.19V226.859H145.197V226.359H142.203V226.859H139.209V226.359H136.216V226.859H133.222V226.359H130.229V226.859H127.234V226.359H124.24V226.859H121.247V226.359H118.253V226.859H115.26V226.359H112.266V226.859H109.271V226.359H106.278V226.859H103.284V226.359H100.291V226.859H97.2969V226.359H94.3027V226.859H91.3096V226.359H88.3154V226.859H85.3223V226.359H82.3281V226.859H79.334V226.359H76.3408V226.859H73.3467V226.359H70.3535V226.859H67.3594V226.359H64.3652V226.859H61.3721V226.359H58.3779V226.859H55.3848V226.359H52.3906V226.859H49.3965V226.359H46.4033V226.859H43.4092V226.359H40.416V226.859H37.4219V226.359H34.4277V226.859H31.4346V226.359H28.4404V226.859H25.4473V226.359H22.4531V226.859H19.459V226.359H16.4658V226.859H13.4717V226.359H10.4785V226.859H7.48438V226.359H4.49023V226.859H1.49707V226.359H0.5V225.367H0V222.382H0.5V219.397H0V216.412H0.5V213.428H0V210.442H0.5V207.457H0V204.473H0.5V201.487H0V198.502H0.5V195.518H0V192.532H0.5V189.547H0V186.562H0.5V183.577H0V180.592H0.5V177.607H0V174.622H0.5V171.638H0V168.652H0.5V165.667H0V162.683H0.5V159.697H0V156.712H0.5V153.728H0V150.742H0.5V147.757H0V144.772H0.5V141.787H0V138.803H0.5V135.817H0V132.832H0.5V129.848H0V126.862H0.5V123.877H0V120.893H0.5V117.907H0V114.922H0.5V111.938H0V108.952H0.5V105.968H0V102.982H0.5V99.9971H0V97.0127H0.5V94.0273H0V91.042H0.5V88.0576H0V85.0723H0.5V82.0869H0V79.1025H0.5V76.1172H0V73.1328H0.5V70.1475H0V67.1621H0.5V64.1777H0V61.1924H0.5V58.207H0V55.2227H0.5V52.2373H0V49.2529H0.5V46.2676H0V43.2822H0.5V40.2979H0V37.3125H0.5V34.3271H0V31.3428H0.5V28.3574H0V25.3721H0.5V22.3877H0V19.4023H0.5V16.417H0V13.4326H0.5V10.4473H0V7.46289H0.5V4.47754H0V1.49219H0.5V0.5H1.49707V0H4.49121V0.5H7.48535V0H10.4785V0.5H13.4727V0H16.4658V0.5H19.46V0H22.4541V0.5H25.4473V0H28.4414V0.5H31.4346V0H34.4287V0.5H37.4229V0H40.416V0.5H43.4102V0H46.4033V0.5H49.3975V0H52.3916V0.5H55.3848V0H58.3789V0.5H61.3721V0H64.3662V0.5H67.3604V0H70.3535V0.5H73.3477V0H76.3408V0.5H79.335V0H82.3281V0.5H85.3223V0H88.3164V0.5H91.3096V0H94.3037V0.5H97.2969V0H100.291V0.5H103.285V0H106.278V0.5H109.272V0H112.266V0.5H115.26V0H118.254V0.5H121.247V0H124.241V0.5H127.234V0H130.229V0.5H133.223V0H136.216V0.5H139.21V0H142.203V0.5H145.197V0H148.191V0.5H151.185V0H154.179V0.5H157.172V0H160.166V0.5H163.16V0H166.153V0.5H169.147V0H172.141V0.5H175.135V0H178.128V0.5H181.122V0H184.116V0.5H187.109V0H190.104V0.5H193.097V0H196.091V0.5H199.085V0H202.078V0.5H205.072V0H208.065V0.5H211.06V0H214.054V0.5H217.047V0H220.041V0.5H223.034V0H226.028V0.5H229.022V0H232.016V0.5H235.01V0H238.003V0.5H240.997V0H243.991V0.5H246.984V0H249.979V0.5H252.972V0H255.966V0.5H258.96V0H261.953V0.5H264.947V0H267.94V0.5H270.935V0H273.929V0.5H276.922V0H279.916V0.5H282.909V0H285.903V0.5H288.896V0H291.891V0.5H294.885V0H297.878V0.5H300.872V0H303.865V0.5H306.859V0H309.854V0.5H312.847V0H315.841V0.5H318.834V0H321.828V0.5H324.822V0H327.815V0.5H330.81V0H333.803V0.5H336.797V0H339.791V0.5H342.784V0H345.778V0.5H348.771V0H351.766V0.5H354.76V0H357.753V0.5H360.747V0H363.74V0.5H366.734V0H369.729V0.5H372.722V0H375.716V0.5H378.709V0H381.703V0.5H384.697V0H387.69V0.5H390.685V0H393.678V0.5H396.672V0H399.666V0.5H402.659V0H405.653V0.5H408.646V0H411.641V0.5H414.635V0H417.628V0.5H420.622V0H423.615V0.5H426.609V0H429.604V0.5H432.597V0H435.591V0.5H438.584V0H441.578V0.5H444.572V0H447.565V0.5H450.56V0H453.553V0.5H456.547V0H459.541V0.5H462.534V0H465.528V0.5H468.521V0H471.516V0.5H474.51V0H477.503Z" stroke="#A5A9AE" stroke-dasharray="3 3"/>
<rect width="451" height="36" transform="translate(14 14)" fill="#070707"/>
<path d="M32.144 38.176C28.848 38.176 26.656 35.808 26.656 32.224C26.656 28.656 28.912 26.24 32.224 26.24C34.832 26.24 36.832 27.792 37.264 30.16H35.584C35.152 28.656 33.856 27.744 32.176 27.744C29.84 27.744 28.304 29.504 28.304 32.208C28.304 34.912 29.84 36.672 32.176 36.672C33.872 36.672 35.216 35.76 35.648 34.336H37.312C36.816 36.64 34.752 38.176 32.144 38.176ZM38.4666 34.08C38.4666 31.664 40.1946 29.968 42.5466 29.968C44.8826 29.968 46.6106 31.664 46.6106 34.08C46.6106 36.496 44.8826 38.192 42.5466 38.192C40.1946 38.192 38.4666 36.496 38.4666 34.08ZM39.9866 34.08C39.9866 35.712 41.0266 36.848 42.5466 36.848C44.0506 36.848 45.1066 35.712 45.1066 34.08C45.1066 32.448 44.0506 31.312 42.5466 31.312C41.0266 31.312 39.9866 32.448 39.9866 34.08ZM49.8115 38H48.3075V26.224H49.8115V38ZM51.5135 34.08C51.5135 31.664 53.2415 29.968 55.5935 29.968C57.9295 29.968 59.6575 31.664 59.6575 34.08C59.6575 36.496 57.9295 38.192 55.5935 38.192C53.2415 38.192 51.5135 36.496 51.5135 34.08ZM53.0335 34.08C53.0335 35.712 54.0735 36.848 55.5935 36.848C57.0975 36.848 58.1535 35.712 58.1535 34.08C58.1535 32.448 57.0975 31.312 55.5935 31.312C54.0735 31.312 53.0335 32.448 53.0335 34.08ZM65.8024 30.112V31.488H65.1304C63.7064 31.488 62.8264 32.352 62.8264 33.856V38H61.3224V30.192H62.7304L62.8264 31.376C63.1464 30.56 63.9304 30.016 65.0024 30.016C65.2744 30.016 65.4984 30.048 65.8024 30.112ZM66.573 35.728H68.013C68.013 36.528 68.621 37.008 69.613 37.008C70.669 37.008 71.277 36.576 71.277 35.856C71.277 35.328 71.021 35.008 70.205 34.8L68.829 34.48C67.437 34.144 66.781 33.456 66.781 32.304C66.781 30.864 67.997 29.952 69.725 29.952C71.437 29.952 72.557 30.912 72.589 32.4H71.149C71.117 31.616 70.589 31.12 69.677 31.12C68.733 31.12 68.205 31.536 68.205 32.256C68.205 32.784 68.589 33.136 69.357 33.328L70.733 33.664C72.061 33.984 72.717 34.592 72.717 35.76C72.717 37.248 71.437 38.192 69.581 38.192C67.741 38.192 66.573 37.216 66.573 35.728Z" fill="white"/>
<path d="M81.9834 32.3057L342.016 31.6938" stroke="white" stroke-dasharray="2 2"/>
<path d="M354.548 37.132C352.148 37.132 350.516 35.344 350.516 32.704C350.516 30.064 352.172 28.264 354.596 28.264C356.444 28.264 357.896 29.38 358.244 31.084H357.32C356.96 29.848 355.904 29.092 354.56 29.092C352.676 29.092 351.416 30.532 351.416 32.704C351.416 34.864 352.676 36.304 354.56 36.304C355.916 36.304 356.996 35.572 357.368 34.42H358.292C357.896 36.04 356.396 37.132 354.548 37.132ZM359.198 34.096C359.198 32.32 360.446 31.036 362.15 31.036C363.854 31.036 365.102 32.32 365.102 34.096C365.102 35.86 363.854 37.144 362.15 37.144C360.446 37.144 359.198 35.86 359.198 34.096ZM360.038 34.084C360.038 35.452 360.902 36.4 362.15 36.4C363.386 36.4 364.262 35.452 364.262 34.084C364.262 32.74 363.386 31.78 362.15 31.78C360.902 31.78 360.038 32.74 360.038 34.084ZM367.291 37H366.463V28.252H367.291V37ZM368.644 34.096C368.644 32.32 369.892 31.036 371.596 31.036C373.3 31.036 374.548 32.32 374.548 34.096C374.548 35.86 373.3 37.144 371.596 37.144C369.892 37.144 368.644 35.86 368.644 34.096ZM369.484 34.084C369.484 35.452 370.348 36.4 371.596 36.4C372.832 36.4 373.708 35.452 373.708 34.084C373.708 32.74 372.832 31.78 371.596 31.78C370.348 31.78 369.484 32.74 369.484 34.084ZM378.908 31.12V31.864H378.452C377.384 31.864 376.7 32.584 376.7 33.688V37H375.872V31.192H376.652L376.712 32.092C376.94 31.468 377.552 31.06 378.368 31.06C378.548 31.06 378.704 31.072 378.908 31.12ZM379.517 35.368H380.309C380.309 36.04 380.813 36.46 381.629 36.46C382.529 36.46 383.057 36.076 383.057 35.452C383.057 34.972 382.817 34.696 382.133 34.528L381.137 34.276C380.129 34.024 379.637 33.496 379.637 32.704C379.637 31.684 380.489 31.036 381.737 31.036C382.961 31.036 383.753 31.708 383.789 32.788H382.985C382.961 32.116 382.493 31.72 381.713 31.72C380.897 31.72 380.441 32.068 380.441 32.692C380.441 33.136 380.753 33.448 381.389 33.604L382.385 33.856C383.393 34.108 383.849 34.576 383.849 35.416C383.849 36.46 382.961 37.144 381.641 37.144C380.333 37.144 379.517 36.448 379.517 35.368ZM391.996 33.844H389.584V37H388.72V28.408H391.996C393.652 28.408 394.696 29.488 394.696 31.108C394.696 32.668 393.64 33.844 391.996 33.844ZM391.876 29.188H389.584V33.064H391.828C393.076 33.064 393.796 32.272 393.796 31.096C393.796 29.908 393.064 29.188 391.876 29.188ZM398.947 31.12V31.864H398.491C397.423 31.864 396.739 32.584 396.739 33.688V37H395.911V31.192H396.691L396.751 32.092C396.979 31.468 397.591 31.06 398.407 31.06C398.587 31.06 398.743 31.072 398.947 31.12ZM402.261 37.144C400.557 37.144 399.417 35.92 399.417 34.096C399.417 32.284 400.545 31.036 402.201 31.036C403.773 31.036 404.841 32.152 404.841 33.796V34.204H400.221C400.281 35.62 401.025 36.436 402.273 36.436C403.221 36.436 403.833 36.028 404.049 35.26H404.841C404.529 36.484 403.629 37.144 402.261 37.144ZM402.201 31.744C401.109 31.744 400.389 32.464 400.245 33.604H404.013C404.013 32.488 403.293 31.744 402.201 31.744ZM405.673 35.368H406.465C406.465 36.04 406.969 36.46 407.785 36.46C408.685 36.46 409.213 36.076 409.213 35.452C409.213 34.972 408.973 34.696 408.289 34.528L407.293 34.276C406.285 34.024 405.793 33.496 405.793 32.704C405.793 31.684 406.645 31.036 407.893 31.036C409.117 31.036 409.909 31.708 409.945 32.788H409.141C409.117 32.116 408.649 31.72 407.869 31.72C407.053 31.72 406.597 32.068 406.597 32.692C406.597 33.136 406.909 33.448 407.545 33.604L408.541 33.856C409.549 34.108 410.005 34.576 410.005 35.416C410.005 36.46 409.117 37.144 407.797 37.144C406.489 37.144 405.673 36.448 405.673 35.368ZM413.804 37.144C412.1 37.144 410.96 35.92 410.96 34.096C410.96 32.284 412.088 31.036 413.744 31.036C415.316 31.036 416.384 32.152 416.384 33.796V34.204H411.764C411.824 35.62 412.568 36.436 413.816 36.436C414.764 36.436 415.376 36.028 415.592 35.26H416.384C416.072 36.484 415.172 37.144 413.804 37.144ZM413.744 31.744C412.652 31.744 411.932 32.464 411.788 33.604H415.556C415.556 32.488 414.836 31.744 413.744 31.744ZM418.536 37H417.708V31.192H418.428L418.548 32.2C418.932 31.456 419.7 31.036 420.54 31.036C422.136 31.036 422.796 31.984 422.796 33.448V37H421.968V33.628C421.968 32.272 421.356 31.792 420.396 31.792C419.208 31.792 418.536 32.656 418.536 33.964V37ZM425.778 37H424.962V31.888H423.798V31.192H424.962V29.356H425.778V31.192H426.942V31.888H425.778V37ZM429.595 37.144C428.359 37.144 427.627 36.448 427.627 35.428C427.627 34.36 428.443 33.688 429.799 33.58L431.719 33.424V33.232C431.719 32.092 431.035 31.732 430.183 31.732C429.175 31.732 428.575 32.188 428.575 32.968H427.819C427.819 31.792 428.779 31.036 430.207 31.036C431.551 31.036 432.535 31.708 432.535 33.244V37H431.839L431.731 35.98C431.371 36.712 430.579 37.144 429.595 37.144ZM429.787 36.472C431.011 36.472 431.719 35.62 431.719 34.36V34.048L430.003 34.18C428.911 34.276 428.467 34.756 428.467 35.404C428.467 36.112 428.995 36.472 429.787 36.472ZM435.423 37H434.607V31.888H433.443V31.192H434.607V29.356H435.423V31.192H436.587V31.888H435.423V37ZM438.073 29.596C437.737 29.596 437.461 29.32 437.461 28.984C437.461 28.648 437.737 28.36 438.073 28.36C438.409 28.36 438.697 28.648 438.697 28.984C438.697 29.32 438.409 29.596 438.073 29.596ZM437.665 37V31.192H438.493V37H437.665ZM439.811 34.096C439.811 32.32 441.059 31.036 442.763 31.036C444.467 31.036 445.715 32.32 445.715 34.096C445.715 35.86 444.467 37.144 442.763 37.144C441.059 37.144 439.811 35.86 439.811 34.096ZM440.651 34.084C440.651 35.452 441.515 36.4 442.763 36.4C443.999 36.4 444.875 35.452 444.875 34.084C444.875 32.74 443.999 31.78 442.763 31.78C441.515 31.78 440.651 32.74 440.651 34.084ZM447.868 37H447.04V31.192H447.76L447.88 32.2C448.264 31.456 449.032 31.036 449.872 31.036C451.468 31.036 452.128 31.984 452.128 33.448V37H451.3V33.628C451.3 32.272 450.688 31.792 449.728 31.792C448.54 31.792 447.868 32.656 447.868 33.964V37Z" fill="white"/>
<rect x="16.6318" y="61.917" width="445.736" height="147.692" rx="2.66111" fill="white"/>
<g filter="url(#filter0_d_4357_25793)">
<g clip-path="url(#clip0_4357_25793)">
<g clip-path="url(#clip1_4357_25793)">
<rect x="238.502" y="101.168" width="65.1972" height="84.4903" rx="1.33056" fill="white"/>
<path d="M245.74 162.982H244.67V164.382H244.287V160.571H245.74C246.475 160.571 246.938 161.05 246.938 161.769C246.938 162.461 246.469 162.982 245.74 162.982ZM245.687 160.917H244.67V162.636H245.666C246.219 162.636 246.539 162.285 246.539 161.763C246.539 161.236 246.214 160.917 245.687 160.917ZM248.823 161.774V162.104H248.621C248.147 162.104 247.844 162.423 247.844 162.913V164.382H247.477V161.806H247.823L247.849 162.205C247.95 161.928 248.222 161.747 248.584 161.747C248.663 161.747 248.733 161.753 248.823 161.774ZM249.492 161.098C249.343 161.098 249.221 160.976 249.221 160.827C249.221 160.678 249.343 160.55 249.492 160.55C249.641 160.55 249.769 160.678 249.769 160.827C249.769 160.976 249.641 161.098 249.492 161.098ZM249.311 164.382V161.806H249.679V164.382H249.311ZM250.812 164.382H250.444V161.806H250.764L250.806 162.173C250.934 161.902 251.221 161.737 251.583 161.737C251.988 161.737 252.291 161.95 252.414 162.285C252.531 161.95 252.845 161.737 253.26 161.737C253.819 161.737 254.186 162.099 254.186 162.695V164.382H253.829V162.769C253.829 162.327 253.585 162.067 253.191 162.067C252.76 162.067 252.504 162.391 252.504 162.79V164.382H252.142V162.764C252.142 162.327 251.892 162.072 251.504 162.072C251.072 162.072 250.812 162.391 250.812 162.785V164.382ZM255.664 164.446C255.116 164.446 254.792 164.137 254.792 163.685C254.792 163.211 255.153 162.913 255.755 162.865L256.606 162.796V162.711C256.606 162.205 256.303 162.045 255.925 162.045C255.478 162.045 255.212 162.248 255.212 162.594H254.877C254.877 162.072 255.303 161.737 255.936 161.737C256.532 161.737 256.968 162.035 256.968 162.716V164.382H256.66L256.612 163.929C256.452 164.254 256.101 164.446 255.664 164.446ZM255.75 164.148C256.292 164.148 256.606 163.77 256.606 163.211V163.073L255.845 163.131C255.361 163.174 255.164 163.387 255.164 163.674C255.164 163.988 255.398 164.148 255.75 164.148ZM259.052 161.774V162.104H258.85C258.376 162.104 258.073 162.423 258.073 162.913V164.382H257.705V161.806H258.051L258.078 162.205C258.179 161.928 258.45 161.747 258.812 161.747C258.892 161.747 258.961 161.753 259.052 161.774ZM259.357 165.505V165.201H259.639C259.863 165.201 260.086 165.185 260.214 164.84L260.326 164.536L259.283 161.806H259.671L260.501 164.052L261.316 161.806H261.694L260.512 164.973C260.363 165.377 260.113 165.542 259.746 165.542C259.591 165.542 259.474 165.531 259.357 165.505ZM265.233 164.44C264.169 164.44 263.445 163.647 263.445 162.476C263.445 161.306 264.179 160.507 265.254 160.507C266.074 160.507 266.718 161.002 266.872 161.758H266.463C266.303 161.21 265.835 160.874 265.238 160.874C264.403 160.874 263.844 161.513 263.844 162.476C263.844 163.434 264.403 164.073 265.238 164.073C265.84 164.073 266.319 163.748 266.484 163.238H266.894C266.718 163.956 266.053 164.44 265.233 164.44ZM267.296 163.094C267.296 162.306 267.849 161.737 268.605 161.737C269.361 161.737 269.914 162.306 269.914 163.094C269.914 163.876 269.361 164.446 268.605 164.446C267.849 164.446 267.296 163.876 267.296 163.094ZM267.668 163.089C267.668 163.695 268.051 164.116 268.605 164.116C269.153 164.116 269.542 163.695 269.542 163.089C269.542 162.492 269.153 162.067 268.605 162.067C268.051 162.067 267.668 162.492 267.668 163.089ZM270.885 164.382H270.517V160.502H270.885V164.382ZM271.485 163.094C271.485 162.306 272.038 161.737 272.794 161.737C273.55 161.737 274.103 162.306 274.103 163.094C274.103 163.876 273.55 164.446 272.794 164.446C272.038 164.446 271.485 163.876 271.485 163.094ZM271.857 163.089C271.857 163.695 272.241 164.116 272.794 164.116C273.342 164.116 273.731 163.695 273.731 163.089C273.731 162.492 273.342 162.067 272.794 162.067C272.241 162.067 271.857 162.492 271.857 163.089ZM276.037 161.774V162.104H275.835C275.361 162.104 275.058 162.423 275.058 162.913V164.382H274.691V161.806H275.037L275.063 162.205C275.164 161.928 275.436 161.747 275.798 161.747C275.878 161.747 275.947 161.753 276.037 161.774Z" fill="#030852"/>
<line x1="243.824" y1="168.542" x2="298.377" y2="168.542" stroke="#EBECFF" stroke-width="0.332639"/>
<path d="M245.841 178.093C244.777 178.093 244.053 177.3 244.053 176.129C244.053 174.958 244.788 174.16 245.863 174.16C246.682 174.16 247.326 174.655 247.481 175.41H247.071C246.911 174.862 246.443 174.527 245.847 174.527C245.011 174.527 244.452 175.166 244.452 176.129C244.452 177.087 245.011 177.725 245.847 177.725C246.448 177.725 246.927 177.401 247.092 176.89H247.502C247.326 177.608 246.661 178.093 245.841 178.093ZM247.904 176.746C247.904 175.959 248.457 175.389 249.213 175.389C249.969 175.389 250.522 175.959 250.522 176.746C250.522 177.529 249.969 178.098 249.213 178.098C248.457 178.098 247.904 177.529 247.904 176.746ZM248.276 176.741C248.276 177.348 248.66 177.768 249.213 177.768C249.761 177.768 250.15 177.348 250.15 176.741C250.15 176.145 249.761 175.719 249.213 175.719C248.66 175.719 248.276 176.145 248.276 176.741ZM252.121 178.098C251.37 178.098 250.929 177.523 250.929 176.752C250.929 175.974 251.37 175.389 252.137 175.389C252.563 175.389 252.903 175.575 253.084 175.948V174.154H253.451V178.034H253.132L253.095 177.507C252.914 177.906 252.552 178.098 252.121 178.098ZM252.185 177.763C252.749 177.763 253.079 177.337 253.079 176.741C253.079 176.15 252.749 175.719 252.185 175.719C251.626 175.719 251.301 176.15 251.301 176.741C251.301 177.337 251.626 177.763 252.185 177.763ZM255.298 178.098C254.542 178.098 254.037 177.555 254.037 176.746C254.037 175.943 254.537 175.389 255.272 175.389C255.969 175.389 256.442 175.884 256.442 176.613V176.794H254.393C254.42 177.422 254.75 177.784 255.304 177.784C255.724 177.784 255.995 177.603 256.091 177.262H256.442C256.304 177.805 255.905 178.098 255.298 178.098ZM255.272 175.703C254.787 175.703 254.468 176.022 254.404 176.528H256.075C256.075 176.033 255.756 175.703 255.272 175.703ZM258.873 176.054C258.692 176.054 258.538 175.9 258.538 175.724C258.538 175.543 258.692 175.394 258.873 175.394C259.054 175.394 259.208 175.543 259.208 175.724C259.208 175.9 259.054 176.054 258.873 176.054ZM258.873 178.093C258.692 178.093 258.538 177.944 258.538 177.768C258.538 177.587 258.692 177.433 258.873 177.433C259.054 177.433 259.208 177.587 259.208 177.768C259.208 177.944 259.054 178.093 258.873 178.093ZM261.42 176.565H261.973L262.149 175.692H261.5L261.564 175.346H262.213L262.437 174.223H262.798L262.58 175.346H263.512L263.735 174.223H264.102L263.879 175.346H264.443L264.374 175.692H263.815L263.639 176.565H264.23L264.166 176.911H263.575L263.352 178.034H262.985L263.208 176.911H262.272L262.053 178.034H261.686L261.91 176.911H261.351L261.42 176.565ZM262.341 176.565H263.272L263.448 175.692H262.511L262.341 176.565ZM266.236 178.098C265.469 178.098 264.98 177.619 264.98 176.869H265.363C265.363 177.417 265.698 177.747 266.241 177.747C266.816 177.747 267.188 177.364 267.188 176.799C267.188 176.267 266.842 175.847 266.241 175.847C265.89 175.847 265.57 176.006 265.363 176.235L265.059 176.139L265.517 174.223H267.359V174.575H265.794L265.506 175.772C265.719 175.602 265.996 175.506 266.294 175.506C267.087 175.506 267.577 176.076 267.577 176.789C267.577 177.555 267.034 178.098 266.236 178.098ZM269.418 178.034H268.258V174.223H269.408C270.557 174.223 271.324 174.99 271.324 176.129C271.324 177.268 270.563 178.034 269.418 178.034ZM269.392 174.575H268.641V177.683H269.402C270.334 177.683 270.93 177.076 270.93 176.129C270.93 175.176 270.334 174.575 269.392 174.575ZM271.824 176.996C271.824 176.528 272.106 176.155 272.559 176.001C272.175 175.847 271.957 175.533 271.957 175.139C271.957 174.553 272.458 174.154 273.187 174.154C273.911 174.154 274.395 174.553 274.395 175.144C274.395 175.543 274.182 175.857 273.804 176.001C274.246 176.139 274.539 176.523 274.539 177.002C274.539 177.651 273.99 178.098 273.181 178.098C272.372 178.098 271.824 177.651 271.824 176.996ZM272.319 175.15C272.319 175.57 272.66 175.852 273.181 175.852C273.698 175.852 274.033 175.581 274.033 175.16C274.033 174.75 273.698 174.495 273.181 174.495C272.66 174.495 272.319 174.75 272.319 175.15ZM272.202 176.964C272.202 177.438 272.596 177.752 273.187 177.752C273.767 177.752 274.161 177.438 274.161 176.964C274.161 176.496 273.777 176.193 273.176 176.193C272.585 176.193 272.202 176.496 272.202 176.964ZM276.435 178.034H275.275V174.223H276.424C277.574 174.223 278.34 174.99 278.34 176.129C278.34 177.268 277.579 178.034 276.435 178.034ZM276.408 174.575H275.658V177.683H276.419C277.35 177.683 277.946 177.076 277.946 176.129C277.946 175.176 277.35 174.575 276.408 174.575ZM281.316 178.034H279.032V174.223H281.31V174.575H279.416V175.948H281.135V176.294H279.416V177.683H281.316V178.034ZM284.382 178.034H281.87V177.731L283.089 176.666C283.792 176.054 283.972 175.788 283.972 175.336C283.972 174.82 283.664 174.506 283.158 174.506C282.631 174.506 282.285 174.889 282.269 175.48H281.886C281.907 174.681 282.413 174.154 283.164 174.154C283.882 174.154 284.361 174.617 284.361 175.315C284.361 175.868 284.111 176.235 283.35 176.901L282.461 177.678H284.382V178.034Z" fill="#030852"/>
</g>
<rect x="241.163" y="103.83" width="59.875" height="46.5694" rx="1.33056" fill="#CABDFF"/>
</g>
</g>
<g filter="url(#filter1_d_4357_25793)">
<g clip-path="url(#clip2_4357_25793)">
<g clip-path="url(#clip3_4357_25793)">
<rect x="94.8027" y="114.957" width="65.1972" height="84.4903" rx="1.33056" transform="rotate(-15.8263 94.8027 114.957)" fill="white"/>
<path d="M118.625 172.453L117.596 172.745L117.978 174.092L117.609 174.196L116.57 170.53L117.968 170.134C118.674 169.933 119.251 170.268 119.446 170.959C119.635 171.625 119.327 172.254 118.625 172.453ZM118.011 170.481L117.033 170.758L117.502 172.412L118.459 172.141C118.992 171.99 119.203 171.565 119.061 171.063C118.917 170.556 118.518 170.337 118.011 170.481ZM121.262 170.45L121.352 170.767L121.157 170.823C120.702 170.952 120.497 171.342 120.63 171.813L121.031 173.226L120.678 173.326L119.975 170.848L120.308 170.754L120.442 171.13C120.464 170.837 120.676 170.588 121.024 170.49C121.101 170.468 121.169 170.454 121.262 170.45ZM121.721 169.617C121.578 169.658 121.427 169.573 121.386 169.43C121.346 169.287 121.428 169.13 121.572 169.09C121.715 169.049 121.873 169.137 121.914 169.281C121.954 169.424 121.865 169.577 121.721 169.617ZM122.443 172.826L121.74 170.348L122.094 170.247L122.796 172.726L122.443 172.826ZM123.886 172.417L123.533 172.517L122.83 170.039L123.138 169.951L123.279 170.293C123.328 169.997 123.559 169.76 123.907 169.661C124.296 169.551 124.646 169.673 124.856 169.962C124.877 169.608 125.121 169.317 125.52 169.204C126.058 169.052 126.51 169.3 126.672 169.873L127.133 171.497L126.79 171.594L126.35 170.042C126.229 169.617 125.923 169.433 125.544 169.541C125.129 169.658 124.972 170.04 125.081 170.424L125.515 171.955L125.166 172.054L124.725 170.497C124.606 170.077 124.296 169.9 123.922 170.006C123.507 170.123 123.343 170.502 123.451 170.881L123.886 172.417ZM128.572 171.155C128.045 171.304 127.649 171.096 127.525 170.661C127.396 170.205 127.663 169.819 128.228 169.609L129.029 169.31L129.006 169.229C128.868 168.742 128.532 168.671 128.169 168.774C127.739 168.896 127.538 169.163 127.632 169.496L127.31 169.588C127.167 169.086 127.485 168.647 128.095 168.474C128.668 168.312 129.169 168.48 129.355 169.135L129.81 170.738L129.513 170.822L129.343 170.4C129.278 170.756 128.992 171.036 128.572 171.155ZM128.573 170.845C129.095 170.697 129.294 170.248 129.142 169.71L129.104 169.577L128.388 169.841C127.934 170.014 127.802 170.272 127.881 170.549C127.966 170.851 128.235 170.941 128.573 170.845ZM131.103 167.66L131.193 167.978L130.998 168.033C130.542 168.162 130.338 168.552 130.471 169.023L130.872 170.437L130.519 170.537L129.816 168.058L130.149 167.964L130.283 168.341C130.305 168.047 130.517 167.799 130.865 167.7C130.942 167.678 131.01 167.665 131.103 167.66ZM132.414 171.167L132.331 170.875L132.603 170.798C132.818 170.737 133.028 170.661 133.057 170.293L133.082 169.971L131.334 167.628L131.707 167.522L133.119 169.457L133.29 167.074L133.653 166.971L133.38 170.34C133.347 170.769 133.151 170.996 132.798 171.096C132.65 171.139 132.534 171.16 132.414 171.167ZM137.777 168.54C136.753 168.83 135.84 168.265 135.521 167.138C135.202 166.012 135.691 165.043 136.725 164.75C137.513 164.527 138.268 164.827 138.623 165.512L138.228 165.624C137.925 165.14 137.383 164.945 136.81 165.108C136.006 165.336 135.642 166.103 135.905 167.029C136.166 167.951 136.878 168.413 137.682 168.185C138.261 168.021 138.633 167.578 138.652 167.042L139.047 166.93C139.074 167.669 138.566 168.316 137.777 168.54ZM139.394 166.682C139.179 165.924 139.556 165.225 140.284 165.019C141.011 164.813 141.699 165.21 141.913 165.968C142.127 166.721 141.749 167.419 141.022 167.626C140.295 167.832 139.607 167.435 139.394 166.682ZM139.751 166.575C139.917 167.159 140.4 167.459 140.932 167.308C141.46 167.159 141.719 166.648 141.553 166.064C141.391 165.491 140.901 165.187 140.374 165.337C139.841 165.488 139.588 166.002 139.751 166.575ZM143.198 166.942L142.845 167.043L141.787 163.31L142.14 163.21L143.198 166.942ZM143.424 165.54C143.21 164.782 143.587 164.083 144.314 163.877C145.041 163.671 145.729 164.068 145.944 164.825C146.157 165.578 145.78 166.277 145.053 166.483C144.326 166.689 143.638 166.292 143.424 165.54ZM143.781 165.433C143.947 166.017 144.43 166.317 144.963 166.166C145.49 166.016 145.749 165.506 145.584 164.922C145.421 164.348 144.931 164.045 144.404 164.194C143.871 164.345 143.619 164.859 143.781 165.433ZM147.444 163.028L147.534 163.346L147.34 163.401C146.884 163.53 146.679 163.92 146.813 164.391L147.213 165.804L146.86 165.904L146.158 163.426L146.49 163.332L146.625 163.709C146.647 163.415 146.858 163.167 147.207 163.068C147.283 163.046 147.351 163.032 147.444 163.028Z" fill="#030852"/>
<line x1="118.297" y1="178.325" x2="170.782" y2="163.448" stroke="#EBECFF" stroke-width="0.332639"/>
<path d="M122.843 186.964C121.819 187.255 120.906 186.689 120.587 185.563C120.268 184.436 120.756 183.468 121.791 183.174C122.579 182.951 123.334 183.252 123.689 183.937L123.294 184.048C122.991 183.564 122.449 183.37 121.876 183.532C121.072 183.76 120.708 184.527 120.971 185.454C121.232 186.375 121.944 186.837 122.748 186.61C123.327 186.446 123.699 186.003 123.718 185.466L124.113 185.354C124.139 186.093 123.632 186.741 122.843 186.964ZM124.46 185.106C124.245 184.349 124.622 183.65 125.35 183.444C126.077 183.237 126.764 183.634 126.979 184.392C127.193 185.145 126.815 185.844 126.088 186.05C125.361 186.256 124.673 185.859 124.46 185.106ZM124.817 185C124.982 185.583 125.466 185.883 125.998 185.732C126.526 185.583 126.785 185.072 126.619 184.489C126.457 183.915 125.967 183.612 125.439 183.761C124.907 183.912 124.654 184.426 124.817 185ZM128.886 185.257C128.164 185.462 127.582 185.029 127.372 184.287C127.16 183.539 127.425 182.855 128.162 182.646C128.572 182.53 128.951 182.616 129.226 182.925L128.737 181.2L129.09 181.1L130.149 184.833L129.841 184.92L129.662 184.423C129.597 184.856 129.301 185.139 128.886 185.257ZM128.856 184.917C129.399 184.763 129.6 184.263 129.437 183.69C129.276 183.122 128.841 182.797 128.299 182.951C127.761 183.103 127.566 183.606 127.727 184.175C127.89 184.748 128.318 185.069 128.856 184.917ZM131.943 184.39C131.216 184.596 130.581 184.212 130.361 183.434C130.141 182.661 130.472 181.992 131.178 181.791C131.849 181.601 132.44 181.948 132.639 182.65L132.688 182.824L130.717 183.383C130.914 183.98 131.33 184.238 131.862 184.087C132.267 183.972 132.479 183.724 132.478 183.37L132.816 183.274C132.831 183.834 132.527 184.225 131.943 184.39ZM131.264 182.093C130.798 182.225 130.578 182.62 130.654 183.124L132.262 182.668C132.127 182.192 131.73 181.961 131.264 182.093ZM134.825 181.449C134.651 181.499 134.46 181.392 134.412 181.223C134.363 181.049 134.471 180.864 134.645 180.814C134.819 180.765 135.008 180.866 135.057 181.04C135.105 181.209 134.999 181.4 134.825 181.449ZM135.381 183.41C135.206 183.46 135.017 183.358 134.969 183.189C134.92 183.015 135.026 182.825 135.201 182.775C135.375 182.726 135.565 182.832 135.615 183.007C135.663 183.176 135.555 183.361 135.381 183.41ZM137.414 181.246L137.947 181.095L137.878 180.207L137.253 180.385L137.22 180.034L137.845 179.857L137.754 178.716L138.102 178.617L138.198 179.757L139.094 179.503L139.003 178.362L139.357 178.262L139.448 179.403L139.991 179.249L140.018 179.601L139.481 179.753L139.55 180.641L140.118 180.48L140.151 180.83L139.583 180.991L139.674 182.132L139.321 182.233L139.229 181.091L138.328 181.347L138.424 182.487L138.071 182.587L137.98 181.445L137.442 181.598L137.414 181.246ZM138.3 180.995L139.196 180.741L139.127 179.853L138.226 180.109L138.3 180.995ZM142.466 181.407C141.728 181.617 141.126 181.289 140.922 180.567L141.29 180.463C141.44 180.99 141.853 181.216 142.375 181.068C142.928 180.911 143.182 180.441 143.028 179.898C142.883 179.386 142.435 179.076 141.857 179.24C141.519 179.336 141.255 179.577 141.118 179.853L140.8 179.844L140.718 177.876L142.489 177.374L142.585 177.711L141.08 178.138L141.13 179.369C141.288 179.147 141.528 178.979 141.815 178.898C142.578 178.682 143.204 179.096 143.399 179.782C143.608 180.519 143.234 181.19 142.466 181.407ZM145.51 180.478L144.394 180.794L143.355 177.128L144.461 176.815C145.567 176.501 146.513 177.03 146.824 178.125C147.134 179.221 146.611 180.166 145.51 180.478ZM144.541 177.157L143.819 177.362L144.667 180.352L145.399 180.144C146.295 179.89 146.703 179.144 146.445 178.233C146.185 177.316 145.447 176.9 144.541 177.157ZM147.542 178.823C147.414 178.373 147.584 177.937 147.977 177.666C147.566 177.622 147.271 177.379 147.163 177C147.004 176.437 147.376 175.916 148.078 175.717C148.774 175.52 149.349 175.772 149.51 176.34C149.619 176.724 149.5 177.085 149.175 177.326C149.638 177.339 150.024 177.627 150.155 178.088C150.332 178.713 149.926 179.293 149.148 179.513C148.37 179.734 147.72 179.453 147.542 178.823ZM147.514 176.912C147.629 177.316 148.034 177.495 148.536 177.352C149.032 177.212 149.281 176.859 149.166 176.454C149.054 176.06 148.662 175.906 148.165 176.047C147.664 176.189 147.406 176.528 147.514 176.912ZM147.897 178.69C148.026 179.145 148.49 179.34 149.059 179.179C149.617 179.021 149.91 178.611 149.781 178.155C149.653 177.705 149.202 177.518 148.623 177.682C148.055 177.843 147.769 178.239 147.897 178.69ZM152.261 178.564L151.145 178.881L150.105 175.215L151.211 174.901C152.317 174.588 153.264 175.116 153.574 176.212C153.885 177.307 153.362 178.252 152.261 178.564ZM151.292 175.243L150.57 175.448L151.417 178.438L152.15 178.231C153.046 177.977 153.454 177.231 153.195 176.319C152.936 175.403 152.198 174.987 151.292 175.243ZM156.957 177.233L154.76 177.856L153.721 174.19L155.912 173.569L156.008 173.907L154.185 174.423L154.56 175.744L156.214 175.276L156.308 175.608L154.654 176.077L155.033 177.414L156.861 176.895L156.957 177.233ZM159.907 176.397L157.49 177.082L157.407 176.79L158.29 175.434C158.799 174.653 158.9 174.348 158.777 173.913C158.636 173.416 158.253 173.198 157.767 173.336C157.26 173.48 157.032 173.943 157.177 174.515L156.809 174.62C156.612 173.846 156.954 173.201 157.676 172.997C158.368 172.801 158.955 173.116 159.145 173.786C159.296 174.319 159.155 174.74 158.604 175.588L157.961 176.578L159.81 176.054L159.907 176.397Z" fill="#030852"/>
</g>
<rect x="98.0889" y="116.792" width="59.875" height="46.5694" rx="1.33056" transform="rotate(-15.8263 98.0889 116.792)" fill="#FFBC99"/>
</g>
</g>
<g filter="url(#filter2_d_4357_25793)">
<g clip-path="url(#clip4_4357_25793)">
<g clip-path="url(#clip5_4357_25793)">
<rect x="45.5654" y="94.1826" width="65.1972" height="84.4903" rx="1.33056" transform="rotate(11.349 45.5654 94.1826)" fill="white"/>
<path d="M40.4977 156.213L39.4488 156.002L39.1734 157.374L38.7977 157.299L39.5476 153.563L40.9721 153.849C41.6922 153.993 42.052 154.554 41.9106 155.258C41.7744 155.937 41.2126 156.356 40.4977 156.213ZM40.8519 154.177L39.8552 153.977L39.5169 155.663L40.4927 155.859C41.0354 155.968 41.4176 155.686 41.5203 155.175C41.6239 154.658 41.3685 154.281 40.8519 154.177ZM43.7581 155.635L43.6932 155.958L43.4949 155.918C43.0305 155.825 42.6702 156.079 42.5738 156.559L42.2848 157.999L41.9247 157.927L42.4316 155.401L42.7708 155.469L42.7183 155.866C42.8719 155.614 43.1737 155.49 43.5285 155.561C43.6068 155.577 43.6736 155.596 43.7581 155.635ZM44.5472 155.104C44.4011 155.074 44.3051 154.93 44.3345 154.784C44.3638 154.638 44.5089 154.537 44.655 154.566C44.8011 154.596 44.9012 154.746 44.8719 154.892C44.8426 155.038 44.6933 155.133 44.5472 155.104ZM43.7235 158.288L44.2305 155.762L44.5905 155.834L44.0836 158.36L43.7235 158.288ZM45.1945 158.583L44.8344 158.511L45.3413 155.985L45.6544 156.048L45.6239 156.416C45.8026 156.175 46.1168 156.07 46.4717 156.141C46.8682 156.221 47.1238 156.489 47.1778 156.842C47.3586 156.536 47.7084 156.39 48.1154 156.471C48.6633 156.581 48.9521 157.008 48.8348 157.593L48.5028 159.247L48.1532 159.177L48.4705 157.596C48.5575 157.163 48.3687 156.859 47.9826 156.781C47.5599 156.696 47.2456 156.964 47.167 157.356L46.8539 158.916L46.499 158.845L46.8174 157.258C46.9033 156.831 46.7083 156.531 46.3274 156.454C45.9047 156.37 45.5862 156.631 45.5087 157.017L45.1945 158.583ZM49.9398 159.6C49.4024 159.493 49.1448 159.126 49.2338 158.683C49.327 158.218 49.7405 157.997 50.3396 158.068L51.1881 158.168L51.2049 158.085C51.3044 157.589 51.0383 157.373 50.6679 157.298C50.2295 157.21 49.9288 157.356 49.8608 157.696L49.532 157.63C49.6346 157.118 50.1181 156.873 50.739 156.998C51.3235 157.115 51.6927 157.493 51.5587 158.161L51.2308 159.794L50.9282 159.734L50.9702 159.281C50.7498 159.568 50.3677 159.686 49.9398 159.6ZM50.082 159.325C50.6142 159.432 50.9964 159.123 51.1064 158.575L51.1336 158.44L50.3759 158.347C49.8927 158.294 49.6577 158.464 49.6012 158.745C49.5394 159.053 49.7376 159.256 50.082 159.325ZM53.7867 157.648L53.7218 157.971L53.5235 157.931C53.0591 157.838 52.6988 158.091 52.6025 158.572L52.3134 160.012L51.9534 159.939L52.4603 157.414L52.7994 157.482L52.747 157.879C52.9006 157.627 53.2023 157.503 53.5572 157.574C53.6354 157.59 53.7022 157.609 53.7867 157.648ZM53.3519 161.366L53.4116 161.068L53.6882 161.124C53.9074 161.168 54.1297 161.196 54.323 160.882L54.4923 160.606L54.0068 157.724L54.3877 157.801L54.7598 160.166L56.0001 158.124L56.3706 158.199L54.589 161.071C54.3633 161.438 54.0856 161.551 53.7255 161.479C53.5742 161.448 53.4615 161.415 53.3519 161.366ZM59.3225 161.478C58.2789 161.269 57.7253 160.349 57.9557 159.201C58.1861 158.053 59.0633 157.415 60.1174 157.626C60.9209 157.787 61.4549 158.399 61.4576 159.171L61.0558 159.09C61.0071 158.521 60.6139 158.1 60.0294 157.983C59.2102 157.819 58.5366 158.335 58.347 159.279C58.1585 160.219 58.5807 160.955 59.4 161.119C59.9896 161.238 60.5232 161.014 60.7855 160.545L61.1873 160.626C60.8737 161.296 60.1261 161.64 59.3225 161.478ZM61.6096 160.564C61.7646 159.792 62.4194 159.342 63.1603 159.491C63.9013 159.64 64.3319 160.307 64.1769 161.079C64.023 161.846 63.3682 162.296 62.6272 162.147C61.8863 161.998 61.4556 161.331 61.6096 160.564ZM61.9759 160.632C61.8565 161.227 62.1495 161.714 62.6922 161.823C63.2296 161.931 63.6933 161.596 63.8127 161.001C63.93 160.416 63.6329 159.922 63.0954 159.814C62.5527 159.705 62.0932 160.048 61.9759 160.632ZM64.8751 162.533L64.515 162.461L65.2785 158.657L65.6386 158.729L64.8751 162.533ZM65.7169 161.388C65.8719 160.616 66.5266 160.167 67.2676 160.315C68.0086 160.464 68.4392 161.131 68.2842 161.904C68.1302 162.671 67.4755 163.12 66.7345 162.971C65.9935 162.823 65.5629 162.155 65.7169 161.388ZM66.0832 161.456C65.9638 162.051 66.2567 162.539 66.7994 162.648C67.3369 162.756 67.8006 162.42 67.92 161.825C68.0373 161.241 67.7401 160.747 67.2027 160.639C66.66 160.53 66.2005 160.872 66.0832 161.456ZM70.44 160.99L70.3751 161.314L70.1768 161.274C69.7124 161.181 69.3521 161.434 69.2557 161.914L68.9667 163.354L68.6066 163.282L69.1135 160.756L69.4527 160.824L69.4002 161.221C69.5538 160.97 69.8556 160.846 70.2104 160.917C70.2887 160.932 70.3555 160.951 70.44 160.99Z" fill="#303030"/>
<line x1="37.5249" y1="161.287" x2="91.011" y2="172.022" stroke="#EBECFF" stroke-width="0.332639"/>
<path d="M37.6233 171.048C36.5797 170.838 36.0261 169.919 36.2565 168.771C36.4869 167.623 37.3641 166.984 38.4182 167.196C39.2218 167.357 39.7558 167.969 39.7584 168.741L39.3566 168.66C39.3079 168.091 38.9147 167.67 38.3303 167.553C37.511 167.388 36.8374 167.905 36.6479 168.849C36.4594 169.788 36.8816 170.525 37.7008 170.689C38.2905 170.807 38.824 170.583 39.0863 170.115L39.4881 170.195C39.1745 170.865 38.4269 171.209 37.6233 171.048ZM39.9104 170.134C40.0654 169.361 40.7202 168.912 41.4612 169.061C42.2022 169.209 42.6328 169.877 42.4778 170.649C42.3238 171.416 41.6691 171.865 40.9281 171.717C40.1871 171.568 39.7565 170.901 39.9104 170.134ZM40.2768 170.202C40.1574 170.797 40.4503 171.284 40.993 171.393C41.5305 171.501 41.9941 171.165 42.1135 170.57C42.2308 169.986 41.9337 169.492 41.3962 169.384C40.8535 169.275 40.3941 169.617 40.2768 170.202ZM43.7791 172.289C43.0433 172.141 42.7233 171.491 42.8752 170.734C43.0281 169.972 43.5764 169.485 44.3278 169.636C44.7453 169.72 45.0426 169.969 45.1467 170.37L45.4996 168.612L45.8597 168.684L45.0962 172.488L44.7831 172.425L44.8502 171.901C44.5943 172.257 44.2017 172.374 43.7791 172.289ZM43.9077 171.973C44.4608 172.084 44.8681 171.731 44.9854 171.147C45.1017 170.568 44.863 170.08 44.3098 169.969C43.7619 169.859 43.3588 170.218 43.2425 170.797C43.1252 171.381 43.3598 171.863 43.9077 171.973ZM46.8942 172.914C46.1532 172.765 45.7644 172.134 45.9235 171.341C46.0817 170.553 46.6811 170.108 47.4012 170.253C48.0848 170.39 48.4518 170.969 48.3083 171.683L48.2727 171.861L46.2637 171.458C46.1662 172.079 46.4185 172.498 46.9612 172.607C47.3735 172.69 47.6752 172.566 47.8362 172.251L48.1806 172.32C47.9381 172.825 47.4891 173.034 46.8942 172.914ZM47.3394 170.561C46.8646 170.465 46.4887 170.716 46.3265 171.199L47.965 171.528C48.0624 171.042 47.8143 170.656 47.3394 170.561ZM50.8012 171.614C50.6238 171.578 50.5029 171.397 50.5374 171.224C50.573 171.047 50.7537 170.931 50.9311 170.967C51.1085 171.002 51.2305 171.179 51.1949 171.356C51.1604 171.528 50.9787 171.649 50.8012 171.614ZM50.4001 173.612C50.2227 173.577 50.1007 173.4 50.1353 173.228C50.1709 173.051 50.3526 172.93 50.53 172.965C50.7074 173.001 50.8284 173.183 50.7928 173.36C50.7582 173.532 50.5775 173.648 50.4001 173.612ZM53.198 172.616L53.7406 172.725L54.0846 171.904L53.448 171.776L53.5787 171.449L54.2153 171.577L54.6555 170.52L55.0103 170.591L54.5754 171.649L55.4885 171.833L55.9287 170.776L56.2887 170.848L55.8486 171.905L56.4017 172.016L56.2658 172.341L55.7179 172.231L55.3739 173.053L55.9531 173.169L55.8225 173.496L55.2432 173.379L54.8031 174.436L54.443 174.364L54.8832 173.307L53.9648 173.123L53.5299 174.181L53.1698 174.109L53.61 173.052L53.062 172.942L53.198 172.616ZM54.1007 172.797L55.0139 172.98L55.3578 172.159L54.4394 171.975L54.1007 172.797ZM57.6177 175.066C56.8663 174.916 56.4805 174.35 56.6282 173.614L57.0039 173.689C56.896 174.227 57.1598 174.616 57.6921 174.723C58.2556 174.836 58.6963 174.534 58.8073 173.981C58.9121 173.459 58.6556 172.979 58.066 172.86C57.7216 172.791 57.3771 172.885 57.1285 173.068L56.8499 172.915L57.6757 171.126L59.4812 171.489L59.4121 171.833L57.878 171.525L57.3605 172.643C57.6028 172.518 57.893 172.478 58.1852 172.537C58.9627 172.693 59.3307 173.347 59.1904 174.047C59.0395 174.798 58.4005 175.224 57.6177 175.066ZM60.7508 175.63L59.6132 175.402L60.3631 171.666L61.4903 171.892C62.6174 172.118 63.218 173.02 62.9939 174.137C62.7697 175.254 61.8727 175.855 60.7508 175.63ZM61.4055 172.233L60.6697 172.085L60.0581 175.133L60.8043 175.283C61.7175 175.466 62.4213 174.988 62.6077 174.059C62.7952 173.125 62.3291 172.418 61.4055 172.233ZM63.3139 175.086C63.4061 174.627 63.756 174.317 64.2299 174.255C63.8845 174.028 63.7324 173.677 63.8099 173.291C63.9251 172.717 64.4942 172.424 65.209 172.568C65.9187 172.71 66.315 173.197 66.1988 173.776C66.1202 174.167 65.8497 174.433 65.4509 174.5C65.8568 174.722 66.0684 175.156 65.9741 175.625C65.8464 176.262 65.2209 176.592 64.4278 176.433C63.6346 176.274 63.1851 175.728 63.3139 175.086ZM64.1626 173.373C64.0799 173.785 64.3584 174.129 64.8697 174.231C65.3759 174.333 65.7581 174.133 65.8408 173.72C65.9214 173.319 65.643 173.002 65.1368 172.901C64.6254 172.798 64.2412 172.981 64.1626 173.373ZM63.6907 175.129C63.5975 175.594 63.9218 175.979 64.5011 176.095C65.0698 176.209 65.5178 175.979 65.611 175.515C65.7031 175.055 65.3871 174.682 64.7975 174.564C64.2183 174.448 63.7829 174.67 63.6907 175.129ZM67.6302 177.011L66.4927 176.783L67.2425 173.046L68.3697 173.273C69.4968 173.499 70.0974 174.401 69.8733 175.518C69.6491 176.634 68.7521 177.236 67.6302 177.011ZM68.2849 173.614L67.5491 173.466L66.9375 176.514L67.6837 176.663C68.5969 176.847 69.3007 176.369 69.4871 175.44C69.6746 174.506 69.2085 173.799 68.2849 173.614ZM72.4155 177.971L70.177 177.522L70.9268 173.786L73.1602 174.234L73.0911 174.578L71.2334 174.206L70.9632 175.552L72.6487 175.89L72.5806 176.229L70.8951 175.891L70.6218 177.253L72.4847 177.627L72.4155 177.971ZM75.4222 178.575L72.9593 178.08L73.019 177.783L74.4234 176.979C75.2326 176.517 75.4624 176.292 75.5514 175.849C75.653 175.342 75.4122 174.974 74.9164 174.874C74.3998 174.771 73.9852 175.078 73.8533 175.654L73.4776 175.579C73.6556 174.8 74.255 174.383 74.9908 174.531C75.6952 174.672 76.0737 175.221 75.9365 175.904C75.8276 176.447 75.5101 176.758 74.633 177.26L73.6086 177.847L75.4924 178.225L75.4222 178.575Z" fill="#303030"/>
</g>
<rect x="47.6514" y="97.3154" width="59.875" height="46.5694" rx="1.33056" transform="rotate(11.349 47.6514 97.3154)" fill="#303030"/>
</g>
</g>
<g filter="url(#filter3_d_4357_25793)">
<g clip-path="url(#clip6_4357_25793)">
<g clip-path="url(#clip7_4357_25793)">
<rect x="147.026" y="117.604" width="65.1972" height="84.4903" rx="1.33056" transform="rotate(-40.5452 147.026 117.604)" fill="white"/>
<path d="M192.709 159.871L191.896 160.567L192.806 161.63L192.515 161.879L190.038 158.984L191.142 158.039C191.7 157.562 192.363 157.625 192.83 158.171C193.28 158.697 193.263 159.397 192.709 159.871ZM191.326 158.337L190.554 158.998L191.671 160.304L192.428 159.657C192.848 159.297 192.862 158.823 192.523 158.426C192.181 158.026 191.727 157.994 191.326 158.337ZM194.266 156.949L194.481 157.2L194.327 157.331C193.967 157.639 193.944 158.079 194.263 158.451L195.217 159.567L194.938 159.806L193.264 157.849L193.527 157.624L193.807 157.91C193.703 157.634 193.792 157.32 194.067 157.085C194.128 157.033 194.184 156.992 194.266 156.949ZM194.335 156.001C194.222 156.097 194.05 156.084 193.953 155.971C193.856 155.858 193.866 155.681 193.979 155.584C194.092 155.487 194.272 155.501 194.369 155.614C194.466 155.728 194.449 155.904 194.335 156.001ZM196.333 158.614L194.658 156.656L194.937 156.417L196.612 158.375L196.333 158.614ZM197.473 157.638L197.194 157.877L195.519 155.92L195.762 155.712L196.033 155.963C195.953 155.674 196.065 155.362 196.34 155.127C196.647 154.864 197.016 154.828 197.327 155.003C197.198 154.673 197.298 154.307 197.614 154.037C198.038 153.674 198.553 153.71 198.94 154.163L200.037 155.445L199.766 155.677L198.718 154.451C198.43 154.116 198.075 154.077 197.776 154.333C197.448 154.613 197.465 155.026 197.724 155.329L198.759 156.538L198.484 156.773L197.432 155.544C197.148 155.212 196.792 155.181 196.497 155.433C196.169 155.714 196.179 156.126 196.435 156.425L197.473 157.638ZM201.202 154.532C200.785 154.889 200.338 154.865 200.044 154.521C199.736 154.161 199.817 153.7 200.243 153.272L200.845 152.666L200.79 152.601C200.461 152.217 200.127 152.293 199.84 152.539C199.5 152.829 199.429 153.156 199.654 153.419L199.399 153.637C199.06 153.241 199.166 152.709 199.647 152.297C200.1 151.91 200.625 151.853 201.068 152.37L202.151 153.636L201.917 153.837L201.586 153.524C201.676 153.875 201.533 154.249 201.202 154.532ZM201.073 154.25C201.485 153.898 201.478 153.406 201.115 152.982L201.025 152.876L200.485 153.416C200.144 153.763 200.133 154.053 200.32 154.271C200.524 154.51 200.806 154.479 201.073 154.25ZM202.039 150.3L202.254 150.551L202.1 150.682C201.74 150.99 201.717 151.43 202.035 151.802L202.99 152.918L202.711 153.157L201.037 151.2L201.299 150.975L201.579 151.261C201.476 150.985 201.565 150.671 201.84 150.436C201.9 150.384 201.956 150.343 202.039 150.3ZM204.696 152.937L204.499 152.706L204.714 152.523C204.883 152.377 205.043 152.22 204.915 151.874L204.803 151.571L202.235 150.174L202.53 149.922L204.621 151.089L203.78 148.853L204.067 148.607L205.228 151.781C205.378 152.186 205.295 152.474 205.016 152.712C204.899 152.813 204.803 152.881 204.696 152.937ZM208.47 148.308C207.661 149 206.595 148.868 205.834 147.978C205.073 147.088 205.112 146.004 205.929 145.306C206.552 144.773 207.363 144.73 207.972 145.204L207.66 145.471C207.182 145.158 206.609 145.207 206.156 145.595C205.521 146.138 205.511 146.987 206.137 147.719C206.76 148.447 207.6 148.569 208.235 148.026C208.692 147.635 208.845 147.077 208.638 146.581L208.949 146.315C209.283 146.975 209.092 147.775 208.47 148.308ZM209.161 145.944C208.649 145.346 208.7 144.553 209.274 144.062C209.848 143.571 210.639 143.643 211.151 144.242C211.66 144.837 211.609 145.629 211.035 146.12C210.461 146.612 209.67 146.539 209.161 145.944ZM209.441 145.698C209.836 146.159 210.4 146.229 210.821 145.87C211.237 145.513 211.259 144.941 210.865 144.48C210.477 144.027 209.905 143.956 209.489 144.313C209.068 144.672 209.054 145.245 209.441 145.698ZM212.726 144.59L212.447 144.829L209.925 141.88L210.204 141.642L212.726 144.59ZM212.345 143.221C211.833 142.622 211.883 141.83 212.457 141.339C213.032 140.847 213.823 140.92 214.335 141.519C214.843 142.113 214.793 142.906 214.218 143.397C213.644 143.889 212.853 143.816 212.345 143.221ZM212.624 142.975C213.019 143.436 213.583 143.506 214.004 143.146C214.421 142.79 214.442 142.218 214.048 141.757C213.661 141.304 213.089 141.233 212.672 141.589C212.251 141.949 212.237 142.522 212.624 142.975ZM214.946 139.259L215.161 139.51L215.007 139.641C214.647 139.949 214.624 140.389 214.942 140.761L215.897 141.877L215.618 142.116L213.944 140.158L214.207 139.933L214.486 140.219C214.383 139.943 214.472 139.629 214.747 139.394C214.808 139.342 214.864 139.301 214.946 139.259Z" fill="#030852"/>
<line x1="194.867" y1="165.341" x2="236.322" y2="129.879" stroke="#EBECFF" stroke-width="0.332639"/>
<path d="M202.609 171.289C201.8 171.981 200.734 171.849 199.973 170.959C199.212 170.069 199.251 168.985 200.068 168.286C200.691 167.753 201.502 167.711 202.111 168.185L201.799 168.451C201.322 168.138 200.748 168.188 200.295 168.576C199.66 169.119 199.65 169.967 200.277 170.699C200.899 171.427 201.739 171.549 202.374 171.006C202.831 170.615 202.984 170.057 202.777 169.562L203.089 169.295C203.422 169.955 203.232 170.756 202.609 171.289ZM203.301 168.925C202.789 168.326 202.839 167.534 203.413 167.042C203.988 166.551 204.779 166.624 205.291 167.223C205.799 167.817 205.749 168.61 205.174 169.101C204.6 169.592 203.809 169.519 203.301 168.925ZM203.58 168.679C203.975 169.14 204.539 169.21 204.96 168.85C205.377 168.494 205.398 167.922 205.004 167.461C204.617 167.008 204.045 166.937 203.628 167.293C203.207 167.653 203.193 168.226 203.58 168.679ZM207.384 167.211C206.814 167.699 206.105 167.549 205.603 166.963C205.098 166.372 205.053 165.64 205.635 165.142C205.959 164.865 206.339 164.785 206.718 164.951L205.552 163.588L205.832 163.349L208.354 166.297L208.111 166.505L207.74 166.129C207.862 166.55 207.712 166.931 207.384 167.211ZM207.215 166.914C207.643 166.548 207.617 166.01 207.23 165.557C206.846 165.108 206.315 164.995 205.886 165.361C205.461 165.725 205.495 166.263 205.879 166.712C206.267 167.165 206.79 167.278 207.215 166.914ZM209.798 165.145C209.224 165.637 208.487 165.553 207.961 164.938C207.439 164.327 207.459 163.582 208.017 163.104C208.547 162.651 209.229 162.719 209.703 163.273L209.82 163.411L208.263 164.743C208.692 165.203 209.178 165.263 209.598 164.903C209.918 164.63 210.007 164.316 209.858 163.995L210.125 163.767C210.373 164.269 210.26 164.751 209.798 165.145ZM208.221 163.343C207.853 163.658 207.818 164.108 208.098 164.534L209.368 163.447C209.047 163.071 208.589 163.028 208.221 163.343ZM211.186 161.269C211.049 161.386 210.831 161.369 210.717 161.236C210.599 161.098 210.62 160.885 210.757 160.767C210.895 160.649 211.109 160.662 211.227 160.8C211.341 160.933 211.324 161.151 211.186 161.269ZM212.511 162.818C212.374 162.935 212.16 162.922 212.046 162.789C211.928 162.651 211.945 162.434 212.082 162.316C212.22 162.198 212.438 162.215 212.555 162.353C212.669 162.486 212.649 162.7 212.511 162.818ZM213.454 160.001L213.875 159.641L213.441 158.864L212.947 159.286L212.771 158.982L213.264 158.559L212.704 157.561L212.979 157.326L213.543 158.321L214.251 157.715L213.691 156.717L213.97 156.478L214.53 157.477L214.959 157.11L215.131 157.418L214.707 157.781L215.14 158.558L215.589 158.174L215.766 158.479L215.317 158.863L215.877 159.861L215.598 160.1L215.038 159.102L214.326 159.71L214.89 160.706L214.611 160.944L214.051 159.946L213.626 160.309L213.454 160.001ZM214.154 159.403L214.861 158.797L214.428 158.02L213.716 158.629L214.154 159.403ZM218.11 158.036C217.527 158.534 216.844 158.488 216.356 157.918L216.647 157.669C217.004 158.085 217.473 158.118 217.885 157.765C218.322 157.392 218.356 156.858 217.989 156.429C217.644 156.025 217.107 155.93 216.65 156.321C216.383 156.55 216.245 156.879 216.236 157.187L215.943 157.312L215.045 155.558L216.444 154.361L216.673 154.628L215.484 155.645L216.044 156.742C216.095 156.474 216.243 156.222 216.469 156.028C217.072 155.512 217.814 155.627 218.278 156.169C218.776 156.751 218.716 157.517 218.11 158.036ZM220.487 155.918L219.605 156.672L217.128 153.777L218.002 153.029C218.875 152.282 219.956 152.366 220.696 153.232C221.436 154.097 221.356 155.174 220.487 155.918ZM218.218 153.307L217.647 153.794L219.668 156.156L220.246 155.662C220.954 155.056 221.013 154.208 220.397 153.488C219.777 152.764 218.934 152.694 218.218 153.307ZM221.64 153.565C221.336 153.21 221.308 152.743 221.552 152.332C221.16 152.464 220.79 152.367 220.534 152.068C220.153 151.623 220.274 150.994 220.828 150.52C221.378 150.05 222.006 150.038 222.39 150.487C222.649 150.79 222.692 151.167 222.498 151.522C222.924 151.34 223.395 151.441 223.706 151.805C224.129 152.298 224.003 152.995 223.388 153.52C222.773 154.046 222.066 154.063 221.64 153.565ZM220.816 151.84C221.089 152.16 221.531 152.153 221.928 151.814C222.32 151.478 222.398 151.054 222.125 150.734C221.859 150.423 221.438 150.447 221.046 150.782C220.649 151.121 220.556 151.537 220.816 151.84ZM221.907 153.296C222.215 153.656 222.718 153.638 223.167 153.254C223.608 152.877 223.703 152.382 223.395 152.022C223.091 151.666 222.602 151.685 222.145 152.076C221.696 152.46 221.602 152.94 221.907 153.296ZM225.819 151.357L224.937 152.111L222.46 149.215L223.333 148.468C224.207 147.721 225.288 147.805 226.028 148.671C226.768 149.536 226.688 150.613 225.819 151.357ZM223.55 148.745L222.979 149.233L225 151.595L225.578 151.1C226.286 150.495 226.344 149.646 225.729 148.927C225.109 148.203 224.265 148.133 223.55 148.745ZM229.527 148.184L227.792 149.668L225.315 146.773L227.046 145.292L227.275 145.559L225.835 146.791L226.727 147.834L228.034 146.716L228.259 146.979L226.952 148.097L227.855 149.152L229.299 147.917L229.527 148.184ZM231.858 146.191L229.949 147.824L229.752 147.593L229.986 145.992C230.122 145.07 230.086 144.75 229.792 144.407C229.457 144.014 229.018 143.976 228.634 144.305C228.233 144.648 228.22 145.164 228.592 145.623L228.3 145.872C227.798 145.252 227.839 144.523 228.41 144.035C228.956 143.568 229.62 143.608 230.074 144.138C230.434 144.559 230.482 145 230.336 146.001L230.166 147.169L231.626 145.92L231.858 146.191Z" fill="#030852"/>
</g>
<rect x="150.778" y="117.896" width="59.875" height="46.5694" rx="1.33056" transform="rotate(-40.5452 150.778 117.896)" fill="#5F6266"/>
</g>
</g>
<g filter="url(#filter4_d_4357_25793)">
<g clip-path="url(#clip8_4357_25793)">
<g clip-path="url(#clip9_4357_25793)">
<rect x="315.91" y="81.7939" width="65.1972" height="84.4903" rx="1.33056" transform="rotate(15.1927 315.91 81.7939)" fill="white"/>
<path d="M306.696 143.345L305.664 143.065L305.297 144.415L304.927 144.315L305.926 140.637L307.328 141.018C308.037 141.211 308.358 141.794 308.17 142.488C307.989 143.155 307.4 143.536 306.696 143.345ZM307.186 141.338L306.205 141.072L305.754 142.731L306.715 142.992C307.249 143.137 307.649 142.881 307.786 142.378C307.924 141.869 307.694 141.476 307.186 141.338ZM309.988 142.987L309.902 143.305L309.706 143.252C309.249 143.128 308.873 143.357 308.744 143.829L308.359 145.247L308.005 145.151L308.68 142.665L309.014 142.756L308.935 143.148C309.105 142.907 309.415 142.804 309.764 142.898C309.841 142.919 309.906 142.943 309.988 142.987ZM310.811 142.51C310.667 142.471 310.581 142.321 310.62 142.177C310.659 142.033 310.811 141.942 310.955 141.981C311.098 142.02 311.188 142.177 311.149 142.321C311.11 142.464 310.955 142.549 310.811 142.51ZM309.776 145.632L310.451 143.146L310.805 143.242L310.13 145.728L309.776 145.632ZM311.224 146.025L310.869 145.929L311.544 143.443L311.852 143.526L311.797 143.892C311.992 143.663 312.312 143.579 312.661 143.674C313.052 143.78 313.289 144.065 313.319 144.421C313.52 144.128 313.879 144.005 314.279 144.114C314.819 144.26 315.078 144.706 314.922 145.281L314.48 146.909L314.136 146.816L314.558 145.259C314.674 144.833 314.506 144.517 314.126 144.414C313.71 144.301 313.378 144.547 313.274 144.933L312.857 146.468L312.508 146.373L312.932 144.812C313.046 144.391 312.872 144.079 312.497 143.977C312.081 143.864 311.745 144.104 311.642 144.484L311.224 146.025ZM315.89 147.358C315.361 147.215 315.129 146.832 315.247 146.395C315.371 145.938 315.799 145.745 316.392 145.856L317.231 146.013L317.254 145.931C317.386 145.443 317.135 145.209 316.771 145.11C316.339 144.993 316.029 145.118 315.939 145.452L315.615 145.364C315.752 144.861 316.251 144.649 316.862 144.815C317.437 144.971 317.78 145.373 317.602 146.031L317.165 147.638L316.867 147.557L316.94 147.108C316.7 147.38 316.311 147.473 315.89 147.358ZM316.05 147.093C316.574 147.235 316.976 146.953 317.123 146.413L317.159 146.28L316.409 146.137C315.931 146.051 315.685 146.205 315.609 146.482C315.527 146.785 315.711 147.001 316.05 147.093ZM319.859 145.668L319.773 145.986L319.578 145.933C319.12 145.809 318.744 146.037 318.616 146.51L318.231 147.928L317.876 147.831L318.551 145.345L318.885 145.436L318.806 145.828C318.976 145.588 319.286 145.484 319.635 145.579C319.712 145.6 319.777 145.623 319.859 145.668ZM319.176 149.348L319.256 149.055L319.528 149.129C319.744 149.188 319.963 149.231 320.177 148.931L320.365 148.667L320.074 145.759L320.449 145.861L320.661 148.246L322.036 146.292L322.4 146.391L320.43 149.137C320.18 149.488 319.896 149.582 319.541 149.486C319.392 149.445 319.282 149.404 319.176 149.348ZM325.126 149.861C324.098 149.582 323.608 148.627 323.915 147.497C324.221 146.367 325.139 145.789 326.177 146.071C326.968 146.285 327.46 146.932 327.411 147.702L327.015 147.594C327.005 147.023 326.641 146.577 326.065 146.421C325.259 146.202 324.552 146.672 324.3 147.601C324.049 148.526 324.421 149.289 325.227 149.508C325.807 149.665 326.355 149.478 326.648 149.028L327.043 149.135C326.686 149.782 325.917 150.075 325.126 149.861ZM327.469 149.102C327.675 148.342 328.359 147.937 329.088 148.135C329.817 148.333 330.202 149.028 329.996 149.788C329.791 150.543 329.107 150.947 328.378 150.749C327.649 150.551 327.264 149.857 327.469 149.102ZM327.83 149.194C327.671 149.78 327.93 150.286 328.465 150.431C328.994 150.575 329.479 150.271 329.638 149.685C329.794 149.11 329.531 148.597 329.002 148.454C328.467 148.308 327.986 148.619 327.83 149.194ZM330.595 151.285L330.241 151.189L331.257 147.445L331.612 147.541L330.595 151.285ZM331.512 150.2C331.718 149.439 332.402 149.035 333.131 149.233C333.86 149.431 334.245 150.126 334.039 150.886C333.834 151.641 333.15 152.045 332.421 151.847C331.692 151.649 331.307 150.955 331.512 150.2ZM331.873 150.292C331.714 150.878 331.973 151.384 332.507 151.529C333.036 151.672 333.522 151.369 333.681 150.783C333.837 150.208 333.573 149.695 333.044 149.551C332.51 149.406 332.029 149.717 331.873 150.292ZM336.251 150.119L336.164 150.437L335.969 150.384C335.512 150.26 335.136 150.489 335.007 150.961L334.622 152.379L334.268 152.283L334.943 149.797L335.277 149.887L335.198 150.28C335.368 150.039 335.677 149.936 336.027 150.03C336.104 150.051 336.169 150.075 336.251 150.119Z" fill="#030852"/>
<line x1="303.39" y1="148.209" x2="356.036" y2="162.505" stroke="#EBECFF" stroke-width="0.332639"/>
<path d="M302.834 157.955C301.807 157.676 301.317 156.721 301.623 155.591C301.93 154.461 302.848 153.883 303.886 154.164C304.677 154.379 305.168 155.026 305.119 155.795L304.724 155.688C304.713 155.117 304.349 154.671 303.774 154.515C302.968 154.296 302.261 154.766 302.009 155.695C301.758 156.62 302.129 157.383 302.936 157.602C303.516 157.759 304.064 157.571 304.357 157.122L304.752 157.229C304.394 157.876 303.625 158.169 302.834 157.955ZM305.178 157.196C305.384 156.435 306.068 156.031 306.797 156.229C307.526 156.427 307.911 157.122 307.705 157.882C307.5 158.637 306.816 159.041 306.087 158.843C305.358 158.645 304.973 157.951 305.178 157.196ZM305.539 157.288C305.38 157.874 305.639 158.38 306.173 158.525C306.702 158.668 307.188 158.365 307.347 157.779C307.503 157.204 307.239 156.691 306.71 156.547C306.176 156.402 305.695 156.713 305.539 157.288ZM308.893 159.605C308.169 159.409 307.893 158.738 308.096 157.993C308.299 157.244 308.879 156.794 309.619 156.995C310.029 157.107 310.309 157.376 310.386 157.783L310.856 156.052L311.211 156.148L310.194 159.892L309.886 159.809L309.988 159.29C309.709 159.628 309.309 159.718 308.893 159.605ZM309.043 159.298C309.587 159.446 310.017 159.122 310.173 158.547C310.328 157.977 310.123 157.474 309.578 157.326C309.039 157.18 308.613 157.511 308.458 158.081C308.302 158.656 308.503 159.152 309.043 159.298ZM311.959 160.438C311.23 160.24 310.884 159.584 311.096 158.803C311.307 158.027 311.935 157.624 312.644 157.817C313.316 157.999 313.644 158.601 313.453 159.305L313.405 159.479L311.428 158.942C311.289 159.556 311.513 159.991 312.047 160.136C312.453 160.247 312.762 160.143 312.944 159.839L313.283 159.931C313.007 160.419 312.545 160.597 311.959 160.438ZM312.561 158.12C312.094 157.993 311.702 158.217 311.508 158.688L313.121 159.126C313.25 158.649 313.029 158.247 312.561 158.12ZM315.945 159.402C315.77 159.355 315.662 159.166 315.708 158.996C315.755 158.822 315.943 158.718 316.118 158.766C316.292 158.813 316.402 158.997 316.355 159.172C316.309 159.341 316.119 159.45 315.945 159.402ZM315.411 161.37C315.236 161.322 315.126 161.138 315.172 160.968C315.22 160.794 315.409 160.685 315.584 160.733C315.758 160.78 315.867 160.97 315.819 161.144C315.773 161.314 315.585 161.417 315.411 161.37ZM318.269 160.563L318.803 160.708L319.201 159.912L318.575 159.742L318.727 159.425L319.354 159.595L319.864 158.57L320.213 158.664L319.708 159.691L320.607 159.935L321.117 158.91L321.471 159.006L320.961 160.031L321.506 160.179L321.348 160.495L320.809 160.348L320.411 161.145L320.981 161.3L320.829 161.617L320.258 161.462L319.748 162.487L319.394 162.391L319.904 161.366L319 161.12L318.495 162.147L318.141 162.05L318.651 161.025L318.112 160.879L318.269 160.563ZM319.157 160.804L320.056 161.048L320.455 160.252L319.551 160.007L319.157 160.804ZM322.515 163.304C321.775 163.103 321.428 162.513 321.625 161.789L321.994 161.889C321.851 162.418 322.088 162.824 322.612 162.967C323.166 163.117 323.626 162.845 323.774 162.301C323.914 161.787 323.69 161.291 323.11 161.133C322.771 161.041 322.421 161.111 322.16 161.278L321.893 161.106L322.837 159.377L324.614 159.859L324.522 160.198L323.012 159.788L322.42 160.869C322.67 160.76 322.963 160.74 323.25 160.818C324.016 161.026 324.339 161.704 324.152 162.392C323.951 163.132 323.285 163.514 322.515 163.304ZM325.603 164.077L324.483 163.773L325.482 160.095L326.591 160.396C327.701 160.698 328.239 161.638 327.941 162.737C327.642 163.836 326.707 164.377 325.603 164.077ZM326.484 160.731L325.759 160.535L324.945 163.534L325.679 163.734C326.578 163.978 327.312 163.548 327.561 162.634C327.81 161.715 327.393 160.978 326.484 160.731ZM328.197 163.706C328.319 163.254 328.689 162.968 329.166 162.938C328.837 162.688 328.709 162.328 328.812 161.948C328.965 161.383 329.553 161.129 330.256 161.32C330.955 161.51 331.318 162.022 331.163 162.592C331.058 162.977 330.77 163.224 330.368 163.264C330.758 163.513 330.94 163.96 330.815 164.422C330.644 165.049 329.998 165.337 329.218 165.125C328.437 164.913 328.025 164.337 328.197 163.706ZM329.158 162.053C329.048 162.459 329.303 162.82 329.806 162.957C330.304 163.092 330.699 162.918 330.809 162.513C330.917 162.117 330.66 161.783 330.162 161.647C329.658 161.511 329.263 161.668 329.158 162.053ZM328.57 163.774C328.445 164.231 328.743 164.637 329.313 164.792C329.873 164.944 330.336 164.744 330.46 164.287C330.582 163.835 330.292 163.442 329.712 163.284C329.142 163.13 328.692 163.322 328.57 163.774ZM332.374 165.916L331.254 165.612L332.253 161.934L333.362 162.235C334.472 162.537 335.011 163.477 334.712 164.576C334.414 165.675 333.478 166.215 332.374 165.916ZM333.255 162.57L332.531 162.373L331.716 165.373L332.451 165.572C333.35 165.816 334.084 165.387 334.332 164.473C334.582 163.554 334.164 162.817 333.255 162.57ZM337.084 167.195L334.881 166.596L335.88 162.919L338.078 163.516L337.986 163.855L336.157 163.358L335.797 164.683L337.456 165.134L337.366 165.468L335.707 165.017L335.343 166.358L337.176 166.856L337.084 167.195ZM340.044 167.998L337.619 167.34L337.699 167.047L339.154 166.339C339.992 165.933 340.237 165.723 340.355 165.287C340.491 164.789 340.275 164.405 339.787 164.272C339.279 164.134 338.844 164.413 338.674 164.979L338.304 164.879C338.534 164.114 339.16 163.738 339.884 163.935C340.578 164.123 340.919 164.695 340.736 165.368C340.591 165.902 340.253 166.191 339.344 166.634L338.283 167.151L340.137 167.654L340.044 167.998Z" fill="#030852"/>
</g>
<rect x="317.781" y="85.0596" width="59.875" height="46.5694" rx="1.33056" transform="rotate(15.1927 317.781 85.0596)" fill="#AFC6FF"/>
</g>
</g>
<g filter="url(#filter5_d_4357_25793)">
<g clip-path="url(#clip10_4357_25793)">
<g clip-path="url(#clip11_4357_25793)">
<rect x="361.579" y="106.407" width="65.1972" height="84.4903" rx="1.33056" transform="rotate(-18.3638 361.579 106.407)" fill="white"/>
<path d="M387.923 162.792L386.908 163.129L387.349 164.457L386.985 164.578L385.784 160.961L387.163 160.503C387.86 160.272 388.451 160.581 388.677 161.263C388.895 161.919 388.615 162.562 387.923 162.792ZM387.222 160.849L386.257 161.169L386.799 162.8L387.743 162.487C388.269 162.312 388.461 161.878 388.297 161.383C388.131 160.883 387.722 160.683 387.222 160.849ZM390.468 160.674L390.572 160.987L390.38 161.051C389.931 161.2 389.743 161.599 389.898 162.063L390.361 163.457L390.012 163.573L389.2 161.128L389.529 161.019L389.68 161.39C389.689 161.095 389.889 160.838 390.233 160.724C390.308 160.699 390.376 160.682 390.468 160.674ZM390.89 159.821C390.749 159.868 390.594 159.791 390.547 159.649C390.5 159.508 390.576 159.348 390.718 159.301C390.859 159.254 391.021 159.335 391.068 159.477C391.115 159.618 391.032 159.774 390.89 159.821ZM391.753 162.995L390.942 160.55L391.29 160.435L392.102 162.879L391.753 162.995ZM393.177 162.522L392.829 162.638L392.017 160.193L392.32 160.093L392.476 160.428C392.512 160.13 392.733 159.883 393.076 159.769C393.46 159.641 393.815 159.748 394.037 160.027C394.042 159.672 394.273 159.371 394.667 159.241C395.198 159.065 395.66 159.292 395.848 159.858L396.38 161.459L396.041 161.572L395.533 160.041C395.394 159.622 395.079 159.452 394.706 159.576C394.296 159.711 394.156 160.1 394.282 160.479L394.783 161.989L394.44 162.103L393.93 160.568C393.793 160.153 393.475 159.99 393.106 160.112C392.697 160.248 392.55 160.633 392.674 161.007L393.177 162.522ZM397.803 161.054C397.283 161.227 396.877 161.036 396.735 160.607C396.586 160.157 396.835 159.76 397.391 159.525L398.177 159.191L398.15 159.111C397.991 158.631 397.653 158.575 397.294 158.694C396.87 158.835 396.681 159.111 396.79 159.439L396.472 159.544C396.308 159.049 396.606 158.597 397.207 158.398C397.773 158.21 398.281 158.355 398.496 159.002L399.02 160.583L398.727 160.68L398.539 160.266C398.49 160.624 398.217 160.917 397.803 161.054ZM397.79 160.744C398.305 160.573 398.484 160.116 398.308 159.585L398.264 159.454L397.561 159.749C397.114 159.942 396.994 160.207 397.085 160.479C397.184 160.777 397.456 160.855 397.79 160.744ZM400.176 157.451L400.28 157.764L400.088 157.828C399.639 157.977 399.451 158.376 399.605 158.841L400.068 160.235L399.72 160.351L398.908 157.906L399.237 157.797L399.388 158.167C399.396 157.873 399.597 157.615 399.94 157.501C400.016 157.476 400.084 157.46 400.176 157.451ZM401.641 160.896L401.546 160.608L401.813 160.519C402.026 160.449 402.233 160.363 402.245 159.995L402.255 159.671L400.405 157.409L400.774 157.286L402.27 159.156L402.335 156.768L402.693 156.649L402.57 160.027C402.556 160.458 402.37 160.693 402.022 160.809C401.875 160.857 401.761 160.884 401.641 160.896ZM406.883 158.034C405.872 158.37 404.936 157.845 404.567 156.734C404.198 155.623 404.643 154.634 405.664 154.295C406.442 154.037 407.209 154.304 407.593 154.972L407.204 155.101C406.88 154.631 406.33 154.461 405.764 154.648C404.971 154.912 404.642 155.694 404.946 156.608C405.247 157.517 405.979 157.947 406.772 157.684C407.343 157.495 407.695 157.036 407.691 156.499L408.08 156.37C408.139 157.107 407.661 157.776 406.883 158.034ZM408.416 156.107C408.168 155.359 408.514 154.644 409.231 154.406C409.948 154.168 410.653 154.534 410.901 155.282C411.148 156.024 410.802 156.739 410.084 156.977C409.367 157.215 408.662 156.849 408.416 156.107ZM408.768 155.984C408.959 156.56 409.455 156.838 409.98 156.664C410.501 156.491 410.737 155.97 410.546 155.394C410.358 154.828 409.855 154.547 409.335 154.719C408.81 154.894 408.58 155.419 408.768 155.984ZM412.228 156.198L411.879 156.314L410.657 152.632L411.006 152.516L412.228 156.198ZM412.392 154.787C412.144 154.039 412.489 153.324 413.207 153.086C413.924 152.848 414.629 153.214 414.877 153.962C415.123 154.704 414.777 155.419 414.06 155.657C413.343 155.896 412.638 155.529 412.392 154.787ZM412.744 154.665C412.935 155.24 413.431 155.519 413.956 155.344C414.477 155.172 414.713 154.65 414.522 154.074C414.334 153.509 413.831 153.227 413.311 153.4C412.785 153.574 412.556 154.099 412.744 154.665ZM416.296 152.1L416.4 152.413L416.208 152.477C415.759 152.626 415.572 153.025 415.726 153.489L416.189 154.884L415.84 154.999L415.029 152.555L415.357 152.446L415.508 152.816C415.517 152.521 415.717 152.264 416.061 152.15C416.137 152.125 416.204 152.108 416.296 152.1Z" fill="#030852"/>
<line x1="387.856" y1="168.672" x2="439.63" y2="151.485" stroke="#EBECFF" stroke-width="0.332639"/>
<path d="M392.779 177.102C391.769 177.437 390.832 176.913 390.463 175.801C390.094 174.69 390.54 173.701 391.56 173.362C392.338 173.104 393.105 173.371 393.49 174.04L393.101 174.169C392.777 173.699 392.227 173.528 391.661 173.716C390.868 173.979 390.539 174.761 390.842 175.676C391.144 176.585 391.876 177.015 392.669 176.752C393.239 176.562 393.592 176.103 393.587 175.566L393.976 175.437C394.036 176.174 393.557 176.844 392.779 177.102ZM394.312 175.174C394.064 174.427 394.41 173.712 395.127 173.474C395.845 173.235 396.549 173.602 396.798 174.349C397.044 175.092 396.698 175.807 395.981 176.045C395.264 176.283 394.559 175.917 394.312 175.174ZM394.664 175.052C394.855 175.628 395.352 175.906 395.877 175.731C396.397 175.559 396.633 175.037 396.442 174.461C396.255 173.896 395.752 173.614 395.231 173.787C394.706 173.961 394.476 174.486 394.664 175.052ZM398.741 175.129C398.028 175.365 397.428 174.959 397.185 174.226C396.94 173.489 397.175 172.794 397.902 172.552C398.306 172.418 398.688 172.488 398.977 172.784L398.412 171.082L398.761 170.966L399.983 174.649L399.68 174.749L399.479 174.261C399.433 174.697 399.15 174.993 398.741 175.129ZM398.696 174.79C399.231 174.612 399.41 174.104 399.222 173.539C399.036 172.978 398.587 172.673 398.052 172.851C397.521 173.027 397.349 173.538 397.535 174.099C397.723 174.664 398.165 174.966 398.696 174.79ZM401.756 174.128C401.039 174.366 400.388 174.01 400.133 173.242C399.88 172.479 400.18 171.796 400.877 171.565C401.539 171.345 402.145 171.666 402.374 172.358L402.431 172.529L400.487 173.175C400.71 173.763 401.137 174.002 401.662 173.828C402.061 173.695 402.262 173.438 402.246 173.085L402.579 172.974C402.619 173.533 402.332 173.936 401.756 174.128ZM400.976 171.863C400.517 172.015 400.314 172.419 400.413 172.919L401.999 172.393C401.843 171.923 401.436 171.71 400.976 171.863ZM404.505 171.062C404.333 171.119 404.138 171.021 404.083 170.854C404.026 170.682 404.125 170.492 404.297 170.435C404.469 170.378 404.662 170.471 404.719 170.643C404.775 170.81 404.677 171.005 404.505 171.062ZM405.147 172.996C404.975 173.053 404.782 172.96 404.727 172.794C404.67 172.622 404.767 172.427 404.939 172.37C405.111 172.313 405.306 172.411 405.363 172.582C405.418 172.749 405.319 172.939 405.147 172.996ZM407.083 170.744L407.609 170.57L407.5 169.686L406.884 169.891L406.836 169.542L407.452 169.338L407.31 168.201L407.654 168.087L407.8 169.222L408.684 168.928L408.543 167.792L408.891 167.676L409.033 168.813L409.568 168.635L409.612 168.985L409.081 169.161L409.19 170.045L409.75 169.859L409.799 170.207L409.238 170.393L409.38 171.53L409.031 171.645L408.889 170.509L408 170.804L408.147 171.939L407.799 172.054L407.657 170.918L407.127 171.094L407.083 170.744ZM407.957 170.454L408.841 170.161L408.733 169.277L407.844 169.572L407.957 170.454ZM412.137 170.682C411.409 170.923 410.794 170.623 410.557 169.911L410.921 169.79C411.093 170.31 411.516 170.518 412.031 170.347C412.576 170.166 412.809 169.684 412.632 169.149C412.464 168.644 412.003 168.354 411.432 168.543C411.099 168.654 410.846 168.906 410.721 169.189L410.403 169.193L410.234 167.231L411.982 166.651L412.092 166.984L410.607 167.477L410.712 168.704C410.86 168.475 411.093 168.297 411.375 168.203C412.128 167.953 412.772 168.34 412.997 169.017C413.238 169.744 412.894 170.43 412.137 170.682ZM415.137 169.618L414.036 169.984L412.835 166.367L413.926 166.005C415.017 165.643 415.986 166.129 416.345 167.21C416.704 168.291 416.223 169.258 415.137 169.618ZM414.022 166.343L413.31 166.58L414.289 169.53L415.011 169.29C415.895 168.997 416.27 168.233 415.971 167.334C415.671 166.43 414.916 166.047 414.022 166.343ZM417.093 167.875C416.946 167.431 417.096 166.988 417.477 166.699C417.065 166.674 416.759 166.444 416.635 166.071C416.45 165.515 416.799 164.979 417.491 164.749C418.178 164.521 418.764 164.747 418.95 165.308C419.075 165.687 418.972 166.052 418.659 166.307C419.122 166.299 419.52 166.571 419.671 167.025C419.876 167.642 419.496 168.239 418.729 168.493C417.961 168.748 417.3 168.497 417.093 167.875ZM416.981 165.967C417.114 166.366 417.526 166.526 418.021 166.362C418.511 166.199 418.744 165.836 418.611 165.437C418.482 165.048 418.083 164.911 417.593 165.074C417.098 165.238 416.856 165.588 416.981 165.967ZM417.442 167.726C417.591 168.176 418.064 168.35 418.625 168.163C419.175 167.981 419.45 167.559 419.301 167.109C419.153 166.664 418.694 166.497 418.123 166.687C417.563 166.873 417.295 167.282 417.442 167.726ZM421.796 167.408L420.695 167.773L419.495 164.157L420.586 163.794C421.677 163.432 422.646 163.918 423.004 164.999C423.363 166.08 422.882 167.047 421.796 167.408ZM420.681 164.133L419.969 164.369L420.948 167.319L421.671 167.079C422.554 166.786 422.929 166.022 422.631 165.123C422.33 164.219 421.575 163.836 420.681 164.133ZM426.429 165.87L424.262 166.589L423.061 162.973L425.223 162.255L425.334 162.589L423.535 163.185L423.968 164.489L425.6 163.947L425.709 164.275L424.077 164.817L424.515 166.135L426.318 165.537L426.429 165.87ZM429.339 164.904L426.955 165.695L426.859 165.407L427.681 164.013C428.155 163.211 428.242 162.901 428.1 162.472C427.937 161.982 427.545 161.781 427.066 161.941C426.565 162.107 426.358 162.579 426.529 163.145L426.165 163.266C425.934 162.501 426.248 161.842 426.96 161.606C427.642 161.379 428.242 161.668 428.462 162.33C428.636 162.855 428.515 163.282 428.002 164.153L427.403 165.171L429.227 164.566L429.339 164.904Z" fill="#030852"/>
</g>
<rect x="365.153" y="108.199" width="59.5424" height="46.2368" rx="1.16424" transform="rotate(-18.3638 365.153 108.199)" fill="white"/>
<rect x="365.153" y="108.199" width="59.5424" height="46.2368" rx="1.16424" transform="rotate(-18.3638 365.153 108.199)" stroke="#F5F5F5" stroke-width="0.332639"/>
</g>
</g>
<defs>
<filter id="filter0_d_4357_25793" x="234.502" y="97.168" width="73.1973" height="92.4902" filterUnits="userSpaceOnUse" color-interpolation-filters="sRGB">
<feFlood flood-opacity="0" result="BackgroundImageFix"/>
<feColorMatrix in="SourceAlpha" type="matrix" values="0 0 0 0 0 0 0 0 0 0 0 0 0 0 0 0 0 0 127 0" result="hardAlpha"/>
<feOffset/>
<feGaussianBlur stdDeviation="2"/>
<feComposite in2="hardAlpha" operator="out"/>
<feColorMatrix type="matrix" values="0 0 0 0 0 0 0 0 0 0 0 0 0 0 0 0 0 0 0.12 0"/>
<feBlend mode="normal" in2="BackgroundImageFix" result="effect1_dropShadow_4357_25793"/>
<feBlend mode="normal" in="SourceGraphic" in2="effect1_dropShadow_4357_25793" result="shape"/>
</filter>
<filter id="filter1_d_4357_25793" x="90.8027" y="93.1768" width="93.7686" height="107.067" filterUnits="userSpaceOnUse" color-interpolation-filters="sRGB">
<feFlood flood-opacity="0" result="BackgroundImageFix"/>
<feColorMatrix in="SourceAlpha" type="matrix" values="0 0 0 0 0 0 0 0 0 0 0 0 0 0 0 0 0 0 127 0" result="hardAlpha"/>
<feOffset/>
<feGaussianBlur stdDeviation="2"/>
<feComposite in2="hardAlpha" operator="out"/>
<feColorMatrix type="matrix" values="0 0 0 0 0 0 0 0 0 0 0 0 0 0 0 0 0 0 0.12 0"/>
<feBlend mode="normal" in2="BackgroundImageFix" result="effect1_dropShadow_4357_25793"/>
<feBlend mode="normal" in="SourceGraphic" in2="effect1_dropShadow_4357_25793" result="shape"/>
</filter>
<filter id="filter2_d_4357_25793" x="24.9395" y="90.1826" width="88.5488" height="103.668" filterUnits="userSpaceOnUse" color-interpolation-filters="sRGB">
<feFlood flood-opacity="0" result="BackgroundImageFix"/>
<feColorMatrix in="SourceAlpha" type="matrix" values="0 0 0 0 0 0 0 0 0 0 0 0 0 0 0 0 0 0 127 0" result="hardAlpha"/>
<feOffset/>
<feGaussianBlur stdDeviation="2"/>
<feComposite in2="hardAlpha" operator="out"/>
<feColorMatrix type="matrix" values="0 0 0 0 0 0 0 0 0 0 0 0 0 0 0 0 0 0 0.12 0"/>
<feBlend mode="normal" in2="BackgroundImageFix" result="effect1_dropShadow_4357_25793"/>
<feBlend mode="normal" in="SourceGraphic" in2="effect1_dropShadow_4357_25793" result="shape"/>
</filter>
<filter id="filter3_d_4357_25793" x="143.026" y="71.2227" width="112.466" height="114.584" filterUnits="userSpaceOnUse" color-interpolation-filters="sRGB">
<feFlood flood-opacity="0" result="BackgroundImageFix"/>
<feColorMatrix in="SourceAlpha" type="matrix" values="0 0 0 0 0 0 0 0 0 0 0 0 0 0 0 0 0 0 127 0" result="hardAlpha"/>
<feOffset/>
<feGaussianBlur stdDeviation="2"/>
<feComposite in2="hardAlpha" operator="out"/>
<feColorMatrix type="matrix" values="0 0 0 0 0 0 0 0 0 0 0 0 0 0 0 0 0 0 0.12 0"/>
<feBlend mode="normal" in2="BackgroundImageFix" result="effect1_dropShadow_4357_25793"/>
<feBlend mode="normal" in="SourceGraphic" in2="effect1_dropShadow_4357_25793" result="shape"/>
</filter>
<filter id="filter4_d_4357_25793" x="289.769" y="77.7939" width="93.0605" height="106.623" filterUnits="userSpaceOnUse" color-interpolation-filters="sRGB">
<feFlood flood-opacity="0" result="BackgroundImageFix"/>
<feColorMatrix in="SourceAlpha" type="matrix" values="0 0 0 0 0 0 0 0 0 0 0 0 0 0 0 0 0 0 127 0" result="hardAlpha"/>
<feOffset/>
<feGaussianBlur stdDeviation="2"/>
<feComposite in2="hardAlpha" operator="out"/>
<feColorMatrix type="matrix" values="0 0 0 0 0 0 0 0 0 0 0 0 0 0 0 0 0 0 0.12 0"/>
<feBlend mode="normal" in2="BackgroundImageFix" result="effect1_dropShadow_4357_25793"/>
<feBlend mode="normal" in="SourceGraphic" in2="effect1_dropShadow_4357_25793" result="shape"/>
</filter>
<filter id="filter5_d_4357_25793" x="357.579" y="81.8672" width="96.4961" height="108.728" filterUnits="userSpaceOnUse" color-interpolation-filters="sRGB">
<feFlood flood-opacity="0" result="BackgroundImageFix"/>
<feColorMatrix in="SourceAlpha" type="matrix" values="0 0 0 0 0 0 0 0 0 0 0 0 0 0 0 0 0 0 127 0" result="hardAlpha"/>
<feOffset/>
<feGaussianBlur stdDeviation="2"/>
<feComposite in2="hardAlpha" operator="out"/>
<feColorMatrix type="matrix" values="0 0 0 0 0 0 0 0 0 0 0 0 0 0 0 0 0 0 0.12 0"/>
<feBlend mode="normal" in2="BackgroundImageFix" result="effect1_dropShadow_4357_25793"/>
<feBlend mode="normal" in="SourceGraphic" in2="effect1_dropShadow_4357_25793" result="shape"/>
</filter>
<clipPath id="clip0_4357_25793">
<rect x="238.502" y="101.168" width="65.1972" height="84.4903" rx="4" fill="white"/>
</clipPath>
<clipPath id="clip1_4357_25793">
<rect x="238.502" y="101.168" width="65.1972" height="84.4903" rx="1.33056" fill="white"/>
</clipPath>
<clipPath id="clip2_4357_25793">
<rect x="94.8027" y="114.957" width="65.1972" height="84.4903" rx="4" transform="rotate(-15.8263 94.8027 114.957)" fill="white"/>
</clipPath>
<clipPath id="clip3_4357_25793">
<rect x="94.8027" y="114.957" width="65.1972" height="84.4903" rx="1.33056" transform="rotate(-15.8263 94.8027 114.957)" fill="white"/>
</clipPath>
<clipPath id="clip4_4357_25793">
<rect x="45.5654" y="94.1826" width="65.1972" height="84.4903" rx="4" transform="rotate(11.349 45.5654 94.1826)" fill="white"/>
</clipPath>
<clipPath id="clip5_4357_25793">
<rect x="45.5654" y="94.1826" width="65.1972" height="84.4903" rx="1.33056" transform="rotate(11.349 45.5654 94.1826)" fill="white"/>
</clipPath>
<clipPath id="clip6_4357_25793">
<rect x="147.026" y="117.604" width="65.1972" height="84.4903" rx="4" transform="rotate(-40.5452 147.026 117.604)" fill="white"/>
</clipPath>
<clipPath id="clip7_4357_25793">
<rect x="147.026" y="117.604" width="65.1972" height="84.4903" rx="1.33056" transform="rotate(-40.5452 147.026 117.604)" fill="white"/>
</clipPath>
<clipPath id="clip8_4357_25793">
<rect x="315.91" y="81.7939" width="65.1972" height="84.4903" rx="4" transform="rotate(15.1927 315.91 81.7939)" fill="white"/>
</clipPath>
<clipPath id="clip9_4357_25793">
<rect x="315.91" y="81.7939" width="65.1972" height="84.4903" rx="1.33056" transform="rotate(15.1927 315.91 81.7939)" fill="white"/>
</clipPath>
<clipPath id="clip10_4357_25793">
<rect x="361.579" y="106.407" width="65.1972" height="84.4903" rx="4" transform="rotate(-18.3638 361.579 106.407)" fill="white"/>
</clipPath>
<clipPath id="clip11_4357_25793">
<rect x="361.579" y="106.407" width="65.1972" height="84.4903" rx="1.33056" transform="rotate(-18.3638 361.579 106.407)" fill="white"/>
</clipPath>
</defs>
</svg>
