<svg width="35" height="31" viewBox="0 0 35 31" fill="none" xmlns="http://www.w3.org/2000/svg">
<path d="M1.5 15.5H9.54475C10.857 15.5002 12.1523 15.7955 13.3349 16.3641C14.5176 16.9327 15.5571 17.76 16.3768 18.7847L18.1232 20.9653C18.9429 21.99 19.9824 22.8173 21.1651 23.3859C22.3477 23.9545 23.643 24.2498 24.9552 24.25H33M33 24.25L27.75 19M33 24.25L27.75 29.5M33 6.75H24.1135C23.0642 6.75034 22.0284 6.98659 21.0826 7.44126C20.1369 7.89594 19.3056 8.55741 18.65 9.37675L15.8518 12.875C15.1958 13.6942 14.3641 14.3555 13.4181 14.8099C12.4721 15.2643 11.436 15.5001 10.3865 15.5H6.75M33 6.75L27.75 1.5M33 6.75L27.75 12" stroke="#FF805E" stroke-width="3" stroke-linecap="round" stroke-linejoin="round"/>
</svg>
