<svg width="548" height="80" viewBox="0 0 548 80" fill="none" xmlns="http://www.w3.org/2000/svg">
<path d="M540.707 79.7071C540.317 80.0976 539.683 80.0976 539.293 79.7071L532.929 73.3431C532.538 72.9526 532.538 72.3195 532.929 71.9289C533.319 71.5384 533.953 71.5384 534.343 71.9289L540 77.5858L545.657 71.9289C546.047 71.5384 546.681 71.5384 547.071 71.9289C547.462 72.3195 547.462 72.9526 547.071 73.3431L540.707 79.7071ZM540 79H539C539 78.3277 538.984 77.6594 538.952 76.9952L539.95 76.9469L540.949 76.8987C540.983 77.595 541 78.2955 541 79H540ZM539.553 72.8609L538.563 73.0064C538.367 71.6743 538.107 70.3632 537.786 69.0763L538.756 68.834L539.726 68.5918C540.063 69.9421 540.336 71.3178 540.542 72.7154L539.553 72.8609ZM537.566 64.9056L536.624 65.2426C536.172 63.9792 535.659 62.7445 535.09 61.5421L535.993 61.114L536.897 60.6858C537.495 61.9474 538.033 63.2429 538.507 64.5687L537.566 64.9056ZM534.055 57.4956L533.198 58.0105C532.509 56.8628 531.765 55.7517 530.969 54.6809L531.772 54.0845L532.575 53.4882C533.409 54.6113 534.19 55.7767 534.913 56.9806L534.055 57.4956ZM529.166 50.9129L528.425 51.5847C527.527 50.5946 526.582 49.6489 525.592 48.751L526.263 48.0103L526.935 47.2695C527.973 48.2111 528.965 49.2029 529.907 50.2411L529.166 50.9129ZM523.092 45.4044L522.495 46.2071C521.425 45.4117 520.314 44.6675 519.166 43.9781L519.681 43.1209L520.196 42.2636C521.4 42.9868 522.565 43.7674 523.688 44.6017L523.092 45.4044ZM516.062 41.1829L515.634 42.0866C514.432 41.5169 513.197 41.0042 511.934 40.5521L512.271 39.6106L512.608 38.6691C513.933 39.1435 515.229 39.6814 516.49 40.2792L516.062 41.1829ZM508.342 38.4204L508.1 39.3906C506.813 39.0692 505.502 38.809 504.17 38.613L504.315 37.6237L504.461 36.6343C505.858 36.8399 507.234 37.113 508.585 37.4502L508.342 38.4204ZM500.229 37.2258L500.181 38.2246C499.517 38.1925 498.849 38.1763 498.176 38.1763V37.1763V36.1763C498.881 36.1763 499.581 36.1933 500.278 36.2269L500.229 37.2258ZM498.176 37.1763V38.1763H496.194V37.1763V36.1763H498.176V37.1763ZM492.228 37.1763V38.1763H488.262V37.1763V36.1763H492.228V37.1763ZM484.297 37.1763V38.1763H480.331V37.1763V36.1763H484.297V37.1763ZM476.366 37.1763V38.1763H472.4V37.1763V36.1763H476.366V37.1763ZM468.435 37.1763V38.1763H464.469V37.1763V36.1763H468.435V37.1763ZM460.504 37.1763V38.1763H456.538V37.1763V36.1763H460.504V37.1763ZM452.573 37.1763V38.1763H448.607V37.1763V36.1763H452.573V37.1763ZM444.642 37.1763V38.1763H440.676V37.1763V36.1763H444.642V37.1763ZM436.711 37.1763V38.1763H432.745V37.1763V36.1763H436.711V37.1763ZM428.78 37.1763V38.1763H424.814V37.1763V36.1763H428.78V37.1763ZM420.849 37.1763V38.1763H416.883V37.1763V36.1763H420.849V37.1763ZM412.918 37.1763V38.1763H408.952V37.1763V36.1763H412.918V37.1763ZM404.987 37.1763V38.1763H401.021V37.1763V36.1763H404.987V37.1763ZM397.056 37.1763V38.1763H393.09V37.1763V36.1763H397.056V37.1763ZM389.125 37.1763V38.1763H385.159V37.1763V36.1763H389.125V37.1763ZM381.194 37.1763V38.1763H377.228V37.1763V36.1763H381.194V37.1763ZM373.262 37.1763V38.1763H369.297V37.1763V36.1763H373.262V37.1763ZM365.331 37.1763V38.1763H361.366V37.1763V36.1763H365.331V37.1763ZM357.4 37.1763V38.1763H353.435V37.1763V36.1763H357.4V37.1763ZM349.469 37.1763V38.1763H345.504V37.1763V36.1763H349.469V37.1763ZM341.538 37.1763V38.1763H337.573V37.1763V36.1763H341.538V37.1763ZM333.607 37.1763V38.1763H329.642V37.1763V36.1763H333.607V37.1763ZM325.676 37.1763V38.1763H321.711V37.1763V36.1763H325.676V37.1763ZM317.745 37.1763V38.1763H313.78V37.1763V36.1763H317.745V37.1763ZM309.814 37.1763V38.1763H305.849V37.1763V36.1763H309.814V37.1763ZM301.883 37.1763V38.1763H297.918V37.1763V36.1763H301.883V37.1763ZM293.952 37.1763V38.1763H289.987V37.1763V36.1763H293.952V37.1763ZM286.021 37.1763V38.1763H282.056V37.1763V36.1763H286.021V37.1763ZM278.09 37.1763V38.1763H274.125V37.1763V36.1763H278.09V37.1763ZM270.159 37.1763V38.1763H266.194V37.1763V36.1763H270.159V37.1763ZM262.228 37.1763V38.1763H258.263V37.1763V36.1763H262.228V37.1763ZM254.297 37.1763V38.1763H250.332V37.1763V36.1763H254.297V37.1763ZM246.366 37.1763V38.1763H242.401V37.1763V36.1763H246.366V37.1763ZM238.435 37.1763V38.1763H234.469V37.1763V36.1763H238.435V37.1763ZM230.504 37.1763V38.1763H226.538V37.1763V36.1763H230.504V37.1763ZM222.573 37.1763V38.1763H218.607V37.1763V36.1763H222.573V37.1763ZM214.642 37.1763V38.1763H210.676V37.1763V36.1763H214.642V37.1763ZM206.711 37.1763V38.1763H202.745V37.1763V36.1763H206.711V37.1763ZM198.78 37.1763V38.1763H194.814V37.1763V36.1763H198.78V37.1763ZM190.849 37.1763V38.1763H186.883V37.1763V36.1763H190.849V37.1763ZM182.918 37.1763V38.1763H178.952V37.1763V36.1763H182.918V37.1763ZM174.987 37.1763V38.1763H171.021V37.1763V36.1763H174.987V37.1763ZM167.056 37.1763V38.1763H163.09V37.1763V36.1763H167.056V37.1763ZM159.125 37.1763V38.1763H155.159V37.1763V36.1763H159.125V37.1763ZM151.194 37.1763V38.1763H147.228V37.1763V36.1763H151.194V37.1763ZM143.263 37.1763V38.1763H139.297V37.1763V36.1763H143.263V37.1763ZM135.332 37.1763V38.1763H131.366V37.1763V36.1763H135.332V37.1763ZM127.401 37.1763V38.1763H123.435V37.1763V36.1763H127.401V37.1763ZM119.47 37.1763V38.1763H115.504V37.1763V36.1763H119.47V37.1763ZM111.538 37.1763V38.1763H107.573V37.1763V36.1763H111.538V37.1763ZM103.607 37.1763V38.1763H99.6419V37.1763V36.1763H103.607V37.1763ZM95.6764 37.1763V38.1763H91.7109V37.1763V36.1763H95.6764V37.1763ZM87.7454 37.1763V38.1763H83.7798V37.1763V36.1763H87.7454V37.1763ZM79.8143 37.1763V38.1763H75.8488V37.1763V36.1763H79.8143V37.1763ZM71.8833 37.1763V38.1763H67.9178V37.1763V36.1763H71.8833V37.1763ZM63.9523 37.1763V38.1763H59.9868V37.1763V36.1763H63.9523V37.1763ZM56.0213 37.1763V38.1763H52.0558V37.1763V36.1763H56.0213V37.1763ZM48.0902 37.1763V38.1763H44.1247V37.1763V36.1763H48.0902V37.1763ZM40.1592 37.1763V38.1763H38.1763V37.1763V36.1763H40.1592V37.1763ZM38.1763 37.1763V38.1763C37.4579 38.1763 36.7441 38.1564 36.0354 38.1172L36.0906 37.1188L36.1458 36.1203C36.8178 36.1574 37.4948 36.1763 38.1763 36.1763V37.1763ZM31.9459 36.6565L31.7795 37.6426C30.3596 37.403 28.9662 37.085 27.6039 36.6932L27.8804 35.7321L28.1568 34.7711C29.4471 35.1422 30.767 35.4434 32.1123 35.6704L31.9459 36.6565ZM23.9456 34.3553L23.5626 35.279C22.2377 34.7296 20.9504 34.1078 19.7059 33.4185L20.1904 32.5437L20.6749 31.6689C21.8541 32.322 23.0736 32.9111 24.3287 33.4316L23.9456 34.3553ZM16.662 30.3221L16.0826 31.1372C14.9172 30.3089 13.8005 29.4168 12.7373 28.466L13.4039 27.7206L14.0705 26.9752C15.0783 27.8764 16.1368 28.722 17.2413 29.5071L16.662 30.3221ZM10.4557 24.7724L9.71027 25.439C8.75952 24.3758 7.86743 23.259 7.03906 22.0937L7.85413 21.5143L8.66919 20.9349C9.45428 22.0394 10.2999 23.098 11.201 24.1058L10.4557 24.7724ZM5.63257 17.9859L4.75775 18.4704C4.06848 17.2258 3.44666 15.9386 2.89722 14.6137L3.82092 14.2306L4.74469 13.8476C5.26514 15.1026 5.85425 16.3221 6.50732 17.5014L5.63257 17.9859ZM2.44415 10.2959L1.48309 10.5723C1.09131 9.21006 0.773315 7.81665 0.533691 6.39671L1.51978 6.23033L2.50586 6.06395C2.73285 7.40923 3.03406 8.72918 3.40515 10.0195L2.44415 10.2959ZM1.0575 2.08564L0.059021 2.14085C0.0198364 1.43212 0 0.718325 0 0H1H2C2 0.681472 2.0188 1.35844 2.05597 2.03042L1.0575 2.08564Z" fill="#A5A9AE"/>
</svg>
