<svg width="15" height="72" viewBox="0 0 15 72" fill="none" xmlns="http://www.w3.org/2000/svg">
<path d="M6.65715 71.7071C7.04768 72.0976 7.68084 72.0976 8.07136 71.7071L14.4353 65.3431C14.8259 64.9526 14.8259 64.3195 14.4353 63.9289C14.0448 63.5384 13.4116 63.5384 13.0211 63.9289L7.36426 69.5858L1.7074 63.9289C1.31688 63.5384 0.683714 63.5384 0.29319 63.9289C-0.0973344 64.3195 -0.0973344 64.9526 0.29319 65.3431L6.65715 71.7071ZM7.36426 0H6.36426V1.97222H7.36426H8.36426V0H7.36426ZM7.36426 5.91667H6.36426V9.86111H7.36426H8.36426V5.91667H7.36426ZM7.36426 13.8056H6.36426V17.75H7.36426H8.36426V13.8056H7.36426ZM7.36426 21.6944H6.36426V25.6389H7.36426H8.36426V21.6944H7.36426ZM7.36426 29.5833H6.36426V33.5278H7.36426H8.36426V29.5833H7.36426ZM7.36426 37.4722H6.36426V41.4167H7.36426H8.36426V37.4722H7.36426ZM7.36426 45.3611H6.36426V49.3055H7.36426H8.36426V45.3611H7.36426ZM7.36426 53.25H6.36426V57.1944H7.36426H8.36426V53.25H7.36426ZM7.36426 61.1389H6.36426V65.0833H7.36426H8.36426V61.1389H7.36426ZM7.36426 69.0278H6.36426V71H7.36426H8.36426V69.0278H7.36426Z" fill="#A5A9AE"/>
</svg>
