<svg width="533" height="80" viewBox="0 0 533 80" fill="none" xmlns="http://www.w3.org/2000/svg">
<path d="M6.65715 79.7071C7.04768 80.0976 7.68084 80.0976 8.07136 79.7071L14.4353 73.3431C14.8259 72.9526 14.8259 72.3195 14.4353 71.9289C14.0448 71.5384 13.4116 71.5384 13.0211 71.9289L7.36426 77.5858L1.7074 71.9289C1.31688 71.5384 0.683714 71.5384 0.29319 71.9289C-0.0973344 72.3195 -0.0973344 72.9526 0.29319 73.3431L6.65715 79.7071ZM7.36426 79H8.36426C8.36426 78.3277 8.3805 77.6594 8.4126 76.9952L7.41377 76.9469L6.41493 76.8987C6.38128 77.595 6.36426 78.2955 6.36426 79H7.36426ZM7.81164 72.8609L8.80099 73.0064C8.99695 71.6743 9.25723 70.3632 9.57858 69.0763L8.60837 68.834L7.63816 68.5918C7.30095 69.9421 7.02786 71.3178 6.82229 72.7154L7.81164 72.8609ZM9.79857 64.9056L10.7401 65.2426C11.1922 63.9792 11.7049 62.7445 12.2745 61.5421L11.3708 61.114L10.4671 60.6858C9.86941 61.9474 9.33148 63.2429 8.85704 64.5687L9.79857 64.9056ZM13.3089 57.4956L14.1661 58.0105C14.8555 56.8628 15.5997 55.7517 16.3951 54.6809L15.5924 54.0845L14.7896 53.4882C13.9554 54.6113 13.1748 55.7767 12.4516 56.9806L13.3089 57.4956ZM18.1982 50.9129L18.939 51.5847C19.8368 50.5946 20.7826 49.6488 21.7727 48.751L21.1009 48.0103L20.4291 47.2695C19.3909 48.2111 18.3991 49.2029 17.4575 50.2411L18.1982 50.9129ZM24.2725 45.4044L24.8689 46.2071C25.9397 45.4117 27.0508 44.6675 28.1985 43.9781L27.6835 43.1209L27.1686 42.2636C25.9647 42.9868 24.7993 43.7674 23.6762 44.6017L24.2725 45.4044ZM31.302 41.1829L31.7301 42.0866C32.9325 41.5169 34.1672 41.0042 35.4306 40.5521L35.0936 39.6106L34.7567 38.6691C33.4309 39.1435 32.1354 39.6814 30.8738 40.2792L31.302 41.1829ZM39.022 38.4204L39.2643 39.3906C40.5511 39.0692 41.8623 38.809 43.1944 38.613L43.0489 37.6237L42.9033 36.6343C41.5058 36.8399 40.1301 37.113 38.7797 37.4502L39.022 38.4204ZM47.1349 37.2258L47.1832 38.2246C47.8474 38.1925 48.5157 38.1763 49.188 38.1763V37.1763V36.1763C48.4835 36.1763 47.7829 36.1933 47.0867 36.2269L47.1349 37.2258ZM49.188 37.1763V38.1763H51.1746V37.1763V36.1763H49.188V37.1763ZM55.1478 37.1763V38.1763H59.121V37.1763V36.1763H55.1478V37.1763ZM63.0942 37.1763V38.1763H67.0675V37.1763V36.1763H63.0942V37.1763ZM71.0407 37.1763V38.1763H75.0139V37.1763V36.1763H71.0407V37.1763ZM78.9871 37.1763V38.1763H82.9603V37.1763V36.1763H78.9871V37.1763ZM86.9335 37.1763V38.1763H90.9067V37.1763V36.1763H86.9335V37.1763ZM94.88 37.1763V38.1763H98.8532V37.1763V36.1763H94.88V37.1763ZM102.826 37.1763V38.1763H106.8V37.1763V36.1763H102.826V37.1763ZM110.773 37.1763V38.1763H114.746V37.1763V36.1763H110.773V37.1763ZM118.719 37.1763V38.1763H122.692V37.1763V36.1763H118.719V37.1763ZM126.666 37.1763V38.1763H130.639V37.1763V36.1763H126.666V37.1763ZM134.612 37.1763V38.1763H138.585V37.1763V36.1763H134.612V37.1763ZM142.559 37.1763V38.1763H146.532V37.1763V36.1763H142.559V37.1763ZM150.505 37.1763V38.1763H154.478V37.1763V36.1763H150.505V37.1763ZM158.451 37.1763V38.1763H162.425V37.1763V36.1763H158.451V37.1763ZM166.398 37.1763V38.1763H170.371V37.1763V36.1763H166.398V37.1763ZM174.344 37.1763V38.1763H178.317V37.1763V36.1763H174.344V37.1763ZM182.291 37.1763V38.1763H186.264V37.1763V36.1763H182.291V37.1763ZM190.237 37.1763V38.1763H194.21V37.1763V36.1763H190.237V37.1763ZM198.184 37.1763V38.1763H202.157V37.1763V36.1763H198.184V37.1763ZM206.13 37.1763V38.1763H210.103V37.1763V36.1763H206.13V37.1763ZM214.076 37.1763V38.1763H218.05V37.1763V36.1763H214.076V37.1763ZM222.023 37.1763V38.1763H225.996V37.1763V36.1763H222.023V37.1763ZM229.969 37.1763V38.1763H233.943V37.1763V36.1763H229.969V37.1763ZM237.916 37.1763V38.1763H241.889V37.1763V36.1763H237.916V37.1763ZM245.862 37.1763V38.1763H249.835V37.1763V36.1763H245.862V37.1763ZM253.809 37.1763V38.1763H257.782V37.1763V36.1763H253.809V37.1763ZM261.755 37.1763V38.1763H265.728V37.1763V36.1763H261.755V37.1763ZM269.702 37.1763V38.1763H273.675V37.1763V36.1763H269.702V37.1763ZM277.648 37.1763V38.1763H281.621V37.1763V36.1763H277.648V37.1763ZM285.594 37.1763V38.1763H289.568V37.1763V36.1763H285.594V37.1763ZM293.541 37.1763V38.1763H297.514V37.1763V36.1763H293.541V37.1763ZM301.487 37.1763V38.1763H305.46V37.1763V36.1763H301.487V37.1763ZM309.434 37.1763V38.1763H313.407V37.1763V36.1763H309.434V37.1763ZM317.38 37.1763V38.1763H321.353V37.1763V36.1763H317.38V37.1763ZM325.327 37.1763V38.1763H329.3V37.1763V36.1763H325.327V37.1763ZM333.273 37.1763V38.1763H337.246V37.1763V36.1763H333.273V37.1763ZM341.219 37.1763V38.1763H345.193V37.1763V36.1763H341.219V37.1763ZM349.166 37.1763V38.1763H353.139V37.1763V36.1763H349.166V37.1763ZM357.112 37.1763V38.1763H361.085V37.1763V36.1763H357.112V37.1763ZM365.059 37.1763V38.1763H369.032V37.1763V36.1763H365.059V37.1763ZM373.005 37.1763V38.1763H376.978V37.1763V36.1763H373.005V37.1763ZM380.951 37.1763V38.1763H384.925V37.1763V36.1763H380.951V37.1763ZM388.898 37.1763V38.1763H392.871V37.1763V36.1763H388.898V37.1763ZM396.844 37.1763V38.1763H400.817V37.1763V36.1763H396.844V37.1763ZM404.791 37.1763V38.1763H408.764V37.1763V36.1763H404.791V37.1763ZM412.737 37.1763V38.1763H416.71V37.1763V36.1763H412.737V37.1763ZM420.683 37.1763V38.1763H424.657V37.1763V36.1763H420.683V37.1763ZM428.63 37.1763V38.1763H432.603V37.1763V36.1763H428.63V37.1763ZM436.576 37.1763V38.1763H440.549V37.1763V36.1763H436.576V37.1763ZM444.523 37.1763V38.1763H448.496V37.1763V36.1763H444.523V37.1763ZM452.469 37.1763V38.1763H456.442V37.1763V36.1763H452.469V37.1763ZM460.415 37.1763V38.1763H464.389V37.1763V36.1763H460.415V37.1763ZM468.362 37.1763V38.1763H472.335V37.1763V36.1763H468.362V37.1763ZM476.308 37.1763V38.1763H480.282V37.1763V36.1763H476.308V37.1763ZM484.255 37.1763V38.1763H488.228V37.1763V36.1763H484.255V37.1763ZM492.201 37.1763V38.1763H494.188V37.1763V36.1763H492.201V37.1763ZM494.188 37.1763V38.1763C494.906 38.1763 495.62 38.1564 496.329 38.1172L496.274 37.1188L496.218 36.1203C495.546 36.1574 494.869 36.1763 494.188 36.1763V37.1763ZM500.418 36.6565L500.585 37.6426C502.005 37.403 503.398 37.085 504.76 36.6932L504.484 35.7321L504.207 34.7711C502.917 35.1422 501.597 35.4434 500.252 35.6704L500.418 36.6565ZM508.419 34.3553L508.802 35.279C510.127 34.7296 511.414 34.1078 512.658 33.4185L512.174 32.5437L511.689 31.6689C510.51 32.322 509.291 32.9111 508.036 33.4316L508.419 34.3553ZM515.702 30.3221L516.282 31.1372C517.447 30.3089 518.564 29.4168 519.627 28.466L518.96 27.7206L518.294 26.9752C517.286 27.8764 516.227 28.722 515.123 29.5071L515.702 30.3221ZM521.909 24.7724L522.654 25.439C523.605 24.3758 524.497 23.259 525.325 22.0937L524.51 21.5143L523.695 20.9349C522.91 22.0394 522.064 23.098 521.163 24.1058L521.909 24.7724ZM526.732 17.9859L527.607 18.4704C528.296 17.2258 528.918 15.9386 529.467 14.6137L528.543 14.2306L527.62 13.8476C527.099 15.1026 526.51 16.3221 525.857 17.5014L526.732 17.9859ZM529.92 10.2959L530.881 10.5723C531.273 9.21006 531.591 7.81665 531.831 6.39671L530.844 6.23033L529.858 6.06395C529.631 7.40923 529.33 8.72918 528.959 10.0195L529.92 10.2959ZM531.307 2.08564L532.305 2.14085C532.344 1.43212 532.364 0.718325 532.364 0H531.364H530.364C530.364 0.681472 530.345 1.35844 530.308 2.03042L531.307 2.08564Z" fill="#A5A9AE"/>
</svg>
