<svg width="44" height="15" viewBox="0 0 44 15" fill="none" xmlns="http://www.w3.org/2000/svg">
<path d="M0.292893 6.65715C-0.0976311 7.04768 -0.0976311 7.68084 0.292893 8.07136L6.65685 14.4353C7.04738 14.8259 7.68054 14.8259 8.07107 14.4353C8.46159 14.0448 8.46159 13.4116 8.07107 13.0211L2.41421 7.36426L8.07107 1.7074C8.46159 1.31688 8.46159 0.683714 8.07107 0.29319C7.68054 -0.0973344 7.04738 -0.0973344 6.65685 0.29319L0.292893 6.65715ZM3.15 8.36426C3.70228 8.36426 4.15 7.91654 4.15 7.36426C4.15 6.81197 3.70228 6.36426 3.15 6.36426V7.36426V8.36426ZM7.45 6.36426C6.89772 6.36426 6.45 6.81197 6.45 7.36426C6.45 7.91654 6.89772 8.36426 7.45 8.36426V7.36426V6.36426ZM11.75 8.36426C12.3023 8.36426 12.75 7.91654 12.75 7.36426C12.75 6.81197 12.3023 6.36426 11.75 6.36426V7.36426V8.36426ZM16.05 6.36426C15.4977 6.36426 15.05 6.81197 15.05 7.36426C15.05 7.91654 15.4977 8.36426 16.05 8.36426V7.36426V6.36426ZM20.35 8.36426C20.9023 8.36426 21.35 7.91654 21.35 7.36426C21.35 6.81197 20.9023 6.36426 20.35 6.36426V7.36426V8.36426ZM24.65 6.36426C24.0977 6.36426 23.65 6.81197 23.65 7.36426C23.65 7.91654 24.0977 8.36426 24.65 8.36426V7.36426V6.36426ZM28.95 8.36426C29.5023 8.36426 29.95 7.91654 29.95 7.36426C29.95 6.81197 29.5023 6.36426 28.95 6.36426V7.36426V8.36426ZM33.25 6.36426C32.6977 6.36426 32.25 6.81197 32.25 7.36426C32.25 7.91654 32.6977 8.36426 33.25 8.36426V7.36426V6.36426ZM37.55 8.36426C38.1023 8.36426 38.55 7.91654 38.55 7.36426C38.55 6.81197 38.1023 6.36426 37.55 6.36426V7.36426V8.36426ZM41.85 6.36426C41.2977 6.36426 40.85 6.81197 40.85 7.36426C40.85 7.91654 41.2977 8.36426 41.85 8.36426V7.36426V6.36426ZM1 7.36426V8.36426H3.15V7.36426V6.36426H1V7.36426ZM7.45 7.36426V8.36426H11.75V7.36426V6.36426H7.45V7.36426ZM16.05 7.36426V8.36426H20.35V7.36426V6.36426H16.05V7.36426ZM24.65 7.36426V8.36426H28.95V7.36426V6.36426H24.65V7.36426ZM33.25 7.36426V8.36426H37.55V7.36426V6.36426H33.25V7.36426ZM41.85 7.36426V8.36426H44V7.36426V6.36426H41.85V7.36426ZM0.292893 6.65715C-0.0976311 7.04768 -0.0976311 7.68084 0.292893 8.07136L6.65685 14.4353C7.04738 14.8259 7.68054 14.8259 8.07107 14.4353C8.46159 14.0448 8.46159 13.4116 8.07107 13.0211L2.41421 7.36426L8.07107 1.7074C8.46159 1.31688 8.46159 0.683714 8.07107 0.29319C7.68054 -0.0973344 7.04738 -0.0973344 6.65685 0.29319L0.292893 6.65715ZM3.15 8.36426C3.70228 8.36426 4.15 7.91654 4.15 7.36426C4.15 6.81197 3.70228 6.36426 3.15 6.36426V7.36426V8.36426ZM7.45 6.36426C6.89772 6.36426 6.45 6.81197 6.45 7.36426C6.45 7.91654 6.89772 8.36426 7.45 8.36426V7.36426V6.36426ZM11.75 8.36426C12.3023 8.36426 12.75 7.91654 12.75 7.36426C12.75 6.81197 12.3023 6.36426 11.75 6.36426V7.36426V8.36426ZM16.05 6.36426C15.4977 6.36426 15.05 6.81197 15.05 7.36426C15.05 7.91654 15.4977 8.36426 16.05 8.36426V7.36426V6.36426ZM20.35 8.36426C20.9023 8.36426 21.35 7.91654 21.35 7.36426C21.35 6.81197 20.9023 6.36426 20.35 6.36426V7.36426V8.36426ZM24.65 6.36426C24.0977 6.36426 23.65 6.81197 23.65 7.36426C23.65 7.91654 24.0977 8.36426 24.65 8.36426V7.36426V6.36426ZM28.95 8.36426C29.5023 8.36426 29.95 7.91654 29.95 7.36426C29.95 6.81197 29.5023 6.36426 28.95 6.36426V7.36426V8.36426ZM33.25 6.36426C32.6977 6.36426 32.25 6.81197 32.25 7.36426C32.25 7.91654 32.6977 8.36426 33.25 8.36426V7.36426V6.36426ZM37.55 8.36426C38.1023 8.36426 38.55 7.91654 38.55 7.36426C38.55 6.81197 38.1023 6.36426 37.55 6.36426V7.36426V8.36426ZM41.85 6.36426C41.2977 6.36426 40.85 6.81197 40.85 7.36426C40.85 7.91654 41.2977 8.36426 41.85 8.36426V7.36426V6.36426ZM1 7.36426V8.36426H3.15V7.36426V6.36426H1V7.36426ZM7.45 7.36426V8.36426H11.75V7.36426V6.36426H7.45V7.36426ZM16.05 7.36426V8.36426H20.35V7.36426V6.36426H16.05V7.36426ZM24.65 7.36426V8.36426H28.95V7.36426V6.36426H24.65V7.36426ZM33.25 7.36426V8.36426H37.55V7.36426V6.36426H33.25V7.36426ZM41.85 7.36426V8.36426H44V7.36426V6.36426H41.85V7.36426Z" fill="black"/>
</svg>
