<svg width="1320" height="769" viewBox="0 0 1320 769" fill="none" xmlns="http://www.w3.org/2000/svg">
<g filter="url(#filter0_f_4318_51962)">
<path d="M140.374 745.561H1180.28C1191.5 745.561 1218.65 748.499 1240.93 752.124C1263.21 755.748 1270.82 758.687 1257.93 758.687H62.725C49.8295 758.687 57.4371 755.748 79.7171 752.124C101.997 748.499 129.154 745.561 140.374 745.561Z" fill="black"/>
</g>
<g filter="url(#filter1_dd_4318_51962)">
<path d="M125.371 51.7167C125.371 34.0735 125.371 25.252 128.805 18.5132C131.826 12.5856 136.646 7.76634 142.574 4.74608C149.314 1.3125 158.136 1.3125 175.782 1.3125H1144.22C1161.86 1.3125 1170.69 1.3125 1177.43 4.74608C1183.36 7.76634 1188.18 12.5856 1191.2 18.5132C1194.63 25.252 1194.63 34.0735 1194.63 51.7166V684.656C1194.63 702.299 1194.63 711.121 1191.2 717.86C1188.18 723.787 1183.36 728.607 1177.43 731.627C1170.69 735.06 1161.86 735.06 1144.22 735.06H175.782C158.136 735.06 149.314 735.06 142.574 731.627C136.646 728.607 131.826 723.787 128.805 717.86C125.371 711.121 125.371 702.299 125.371 684.656V51.7167Z" fill="black"/>
</g>
<path d="M127.998 50.1394C127.998 33.9665 127.998 25.8801 131.146 19.7029C133.915 14.2692 138.333 9.85156 143.767 7.08299C149.945 3.93555 158.033 3.93555 174.208 3.93555H1145.8C1161.97 3.93555 1170.06 3.93555 1176.24 7.08299C1181.67 9.85156 1186.09 14.2692 1188.86 19.7029C1192.01 25.8801 1192.01 33.9665 1192.01 50.1394V686.229C1192.01 702.402 1192.01 710.489 1188.86 716.666C1186.09 722.099 1181.67 726.517 1176.24 729.286C1170.06 732.433 1161.97 732.433 1145.8 732.433H174.208C158.033 732.433 149.945 732.433 143.767 729.286C138.333 726.517 133.915 722.099 131.146 716.666C127.998 710.489 127.998 702.402 127.998 686.229V50.1394Z" fill="black"/>
<path d="M130.623 48.5659C130.623 33.8634 130.623 26.5121 133.485 20.8964C136.002 15.9568 140.019 11.9407 144.959 9.42381C150.575 6.5625 157.927 6.5625 172.632 6.5625H1147.37C1162.08 6.5625 1169.43 6.5625 1175.04 9.42381C1179.98 11.9407 1184 15.9568 1186.52 20.8964C1189.38 26.5121 1189.38 33.8634 1189.38 48.566V687.806C1189.38 702.509 1189.38 709.86 1186.52 715.476C1184 720.415 1179.98 724.431 1175.04 726.948C1169.43 729.809 1162.08 729.809 1147.37 729.809H172.632C157.927 729.809 150.575 729.809 144.959 726.948C140.019 724.431 136.002 720.415 133.485 715.476C130.623 709.86 130.623 702.509 130.623 687.806V48.5659Z" fill="black"/>
<rect x="130.623" y="695.026" width="1058.76" height="19.6891" fill="black"/>
<path fill-rule="evenodd" clip-rule="evenodd" d="M659.244 36.1647C665.94 36.1647 671.368 30.7374 671.368 24.0423C671.368 17.3473 665.94 11.9199 659.244 11.9199C652.548 11.9199 647.12 17.3473 647.12 24.0423C647.12 30.7374 652.548 36.1647 659.244 36.1647Z" fill="black"/>
<rect x="651.668" y="16.46" width="15.155" height="15.155" rx="7.5775" fill="#292929"/>
<path opacity="0.4" fill-rule="evenodd" clip-rule="evenodd" d="M659.245 25.5525C660.082 25.5525 660.76 24.874 660.76 24.037C660.76 23.2 660.082 22.5215 659.245 22.5215C658.408 22.5215 657.729 23.2 657.729 24.037C657.729 24.874 658.408 25.5525 659.245 25.5525Z" fill="#1E1E1E"/>
<path d="M0 716.031C0 715.306 0.587751 714.719 1.31278 714.719H658.687C659.412 714.719 660 715.306 660 716.031C660 726.543 651.479 735.064 640.967 735.064H19.0328C8.5213 735.064 0 726.543 0 716.031Z" fill="url(#paint0_linear_4318_51962)"/>
<path d="M1319.67 716.031C1319.67 715.306 1319.08 714.719 1318.36 714.719H660.985C660.26 714.719 659.672 715.306 659.672 716.031C659.672 726.543 668.193 735.064 678.705 735.064H1300.64C1311.15 735.064 1319.67 726.543 1319.67 716.031Z" fill="url(#paint1_linear_4318_51962)"/>
<path d="M580.907 729.157H739.096C747.434 729.157 754.193 722.693 754.193 714.719H565.81C565.81 722.693 572.569 729.157 580.907 729.157Z" fill="#4E4F53"/>
<path d="M580.634 734.692H739.369C747.736 734.692 754.518 725.651 754.518 714.499H565.485C565.485 725.651 572.268 734.692 580.634 734.692Z" fill="#5F6266"/>
<path d="M1303.04 735.062C1303.04 735.062 1274.91 753.437 1182.56 753.438H138.245C45.9675 753.438 17.8169 735.091 17.7715 735.062H1303.04Z" fill="url(#paint2_linear_4318_51962)"/>
<defs>
<filter id="filter0_f_4318_51962" x="46.6014" y="735.715" width="1227.45" height="32.8177" filterUnits="userSpaceOnUse" color-interpolation-filters="sRGB">
<feFlood flood-opacity="0" result="BackgroundImageFix"/>
<feBlend mode="normal" in="SourceGraphic" in2="BackgroundImageFix" result="shape"/>
<feGaussianBlur stdDeviation="4.92292" result="effect1_foregroundBlur_4318_51962"/>
</filter>
<filter id="filter1_dd_4318_51962" x="122.746" y="-0.000279903" width="1074.51" height="738.999" filterUnits="userSpaceOnUse" color-interpolation-filters="sRGB">
<feFlood flood-opacity="0" result="BackgroundImageFix"/>
<feColorMatrix in="SourceAlpha" type="matrix" values="0 0 0 0 0 0 0 0 0 0 0 0 0 0 0 0 0 0 127 0" result="hardAlpha"/>
<feOffset/>
<feGaussianBlur stdDeviation="0.65639"/>
<feColorMatrix type="matrix" values="0 0 0 0 0 0 0 0 0 0.0823529 0 0 0 0 0.25098 0 0 0 0.14 0"/>
<feBlend mode="normal" in2="BackgroundImageFix" result="effect1_dropShadow_4318_51962"/>
<feColorMatrix in="SourceAlpha" type="matrix" values="0 0 0 0 0 0 0 0 0 0 0 0 0 0 0 0 0 0 127 0" result="hardAlpha"/>
<feOffset dy="1.31278"/>
<feGaussianBlur stdDeviation="1.31278"/>
<feColorMatrix type="matrix" values="0 0 0 0 0 0 0 0 0 0.0823529 0 0 0 0 0.25098 0 0 0 0.05 0"/>
<feBlend mode="normal" in2="effect1_dropShadow_4318_51962" result="effect2_dropShadow_4318_51962"/>
<feBlend mode="normal" in="SourceGraphic" in2="effect2_dropShadow_4318_51962" result="shape"/>
</filter>
<linearGradient id="paint0_linear_4318_51962" x1="-1.13575e-06" y1="725.219" x2="660" y2="725.219" gradientUnits="userSpaceOnUse">
<stop stop-color="#5F6266"/>
<stop offset="0.0218797" stop-color="#5F6266"/>
<stop offset="0.0363004" stop-color="#CACDCF"/>
<stop offset="0.05818" stop-color="#D9D9D9"/>
<stop offset="0.0865241" stop-color="#1A1A1A"/>
<stop offset="0.135753"/>
<stop offset="0.756906"/>
<stop offset="1" stop-color="#5F6266"/>
</linearGradient>
<linearGradient id="paint1_linear_4318_51962" x1="1319.67" y1="725.219" x2="659.672" y2="725.219" gradientUnits="userSpaceOnUse">
<stop stop-color="#5F6266"/>
<stop offset="0.0218797" stop-color="#5F6266"/>
<stop offset="0.0363004" stop-color="#CACDCF"/>
<stop offset="0.05818" stop-color="#D9D9D9"/>
<stop offset="0.0865241" stop-color="#1A1A1A"/>
<stop offset="0.135753"/>
<stop offset="0.756906"/>
<stop offset="1" stop-color="#5F6266"/>
</linearGradient>
<linearGradient id="paint2_linear_4318_51962" x1="660.404" y1="735.062" x2="660.404" y2="753.438" gradientUnits="userSpaceOnUse">
<stop stop-color="#1A1A1A"/>
<stop offset="1"/>
</linearGradient>
</defs>
</svg>
