<svg width="282" height="82" viewBox="0 0 282 82" fill="none" xmlns="http://www.w3.org/2000/svg">
<g filter="url(#filter0_d_4367_26388)">
<rect x="2" y="2" width="277.439" height="77.2755" rx="9.73469" fill="white" shape-rendering="crispEdges"/>
<rect x="2.40561" y="2.40561" width="276.628" height="76.4643" rx="9.32908" stroke="#B12CCF" stroke-width="0.811224" stroke-dasharray="1.62 1.62" shape-rendering="crispEdges"/>
<path d="M12.7346 22.7344V14.4746H13.7348V21.8471H17.5743V22.7344H12.7346ZM21.5106 22.8634C20.9513 22.8634 20.4606 22.7303 20.0385 22.4642C19.619 22.198 19.291 21.8256 19.0544 21.347C18.8205 20.8684 18.7035 20.3092 18.7035 19.6692C18.7035 19.0239 18.8205 18.4607 19.0544 17.9794C19.291 17.4981 19.619 17.1244 20.0385 16.8582C20.4606 16.592 20.9513 16.4589 21.5106 16.4589C22.0698 16.4589 22.5592 16.592 22.9786 16.8582C23.4007 17.1244 23.7287 17.4981 23.9627 17.9794C24.1993 18.4607 24.3176 19.0239 24.3176 19.6692C24.3176 20.3092 24.1993 20.8684 23.9627 21.347C23.7287 21.8256 23.4007 22.198 22.9786 22.4642C22.5592 22.7303 22.0698 22.8634 21.5106 22.8634ZM21.5106 22.0084C21.9354 22.0084 22.2849 21.8995 22.5592 21.6817C22.8334 21.464 23.0364 21.1776 23.1681 20.8227C23.2999 20.4678 23.3658 20.0833 23.3658 19.6692C23.3658 19.2552 23.2999 18.8693 23.1681 18.5117C23.0364 18.1541 22.8334 17.8651 22.5592 17.6446C22.2849 17.4242 21.9354 17.3139 21.5106 17.3139C21.0857 17.3139 20.7362 17.4242 20.462 17.6446C20.1877 17.8651 19.9847 18.1541 19.853 18.5117C19.7212 18.8693 19.6553 19.2552 19.6553 19.6692C19.6553 20.0833 19.7212 20.4678 19.853 20.8227C19.9847 21.1776 20.1877 21.464 20.462 21.6817C20.7362 21.8995 21.0857 22.0084 21.5106 22.0084ZM27.5934 22.8796C27.2009 22.8796 26.8446 22.8056 26.5247 22.6577C26.2047 22.5072 25.9506 22.2907 25.7624 22.0084C25.5742 21.7234 25.4801 21.3793 25.4801 20.976C25.4801 20.621 25.55 20.3334 25.6898 20.1129C25.8296 19.8897 26.0165 19.7149 26.2504 19.5886C26.4843 19.4622 26.7425 19.3681 27.0248 19.3063C27.3098 19.2417 27.5961 19.1906 27.8838 19.153C28.2602 19.1046 28.5654 19.0683 28.7993 19.0441C29.0359 19.0172 29.208 18.9729 29.3156 18.911C29.4258 18.8492 29.4809 18.7416 29.4809 18.5884V18.5561C29.4809 18.1582 29.372 17.849 29.1542 17.6285C28.9391 17.408 28.6125 17.2978 28.1742 17.2978C27.7198 17.2978 27.3636 17.3973 27.1054 17.5962C26.8473 17.7952 26.6658 18.0076 26.561 18.2335L25.6576 17.9108C25.8189 17.5344 26.034 17.2413 26.3029 17.0316C26.5744 16.8192 26.8702 16.6713 27.1901 16.588C27.5128 16.5019 27.83 16.4589 28.1419 16.4589C28.3409 16.4589 28.5694 16.4831 28.8276 16.5315C29.0884 16.5772 29.3398 16.6727 29.5817 16.8179C29.8264 16.963 30.0294 17.1822 30.1907 17.4752C30.3521 17.7683 30.4327 18.1609 30.4327 18.6529V22.7344H29.4809V21.8955H29.4325C29.368 22.0299 29.2604 22.1738 29.1099 22.327C28.9593 22.4803 28.759 22.6107 28.5089 22.7182C28.2589 22.8258 27.9537 22.8796 27.5934 22.8796ZM27.7386 22.0246C28.115 22.0246 28.4323 21.9506 28.6904 21.8027C28.9512 21.6549 29.1475 21.464 29.2793 21.23C29.4137 20.9961 29.4809 20.7501 29.4809 20.492V19.6208C29.4406 19.6692 29.3519 19.7136 29.2147 19.7539C29.0803 19.7916 28.9244 19.8252 28.7469 19.8548C28.5721 19.8816 28.4014 19.9058 28.2347 19.9274C28.0707 19.9462 27.9376 19.9623 27.8354 19.9758C27.5881 20.008 27.3568 20.0604 27.1417 20.133C26.9293 20.2029 26.7572 20.3092 26.6255 20.4517C26.4964 20.5915 26.4319 20.7824 26.4319 21.0244C26.4319 21.3551 26.5542 21.6051 26.7989 21.7745C27.0463 21.9412 27.3595 22.0246 27.7386 22.0246ZM34.5092 22.8634C33.9929 22.8634 33.5372 22.733 33.1419 22.4722C32.7467 22.2087 32.4375 21.8377 32.2143 21.3591C31.9912 20.8778 31.8796 20.3092 31.8796 19.6531C31.8796 19.0024 31.9912 18.4378 32.2143 17.9592C32.4375 17.4806 32.748 17.1109 33.146 16.8501C33.5439 16.5893 34.0037 16.4589 34.5253 16.4589C34.9286 16.4589 35.2472 16.5261 35.4811 16.6606C35.7177 16.7923 35.8979 16.9429 36.0216 17.1123C36.1479 17.279 36.2461 17.4161 36.316 17.5236H36.3966V14.4746H37.3484V22.7344H36.4289V21.7826H36.316C36.2461 21.8955 36.1466 22.038 36.0175 22.2101C35.8885 22.3795 35.7043 22.5314 35.465 22.6658C35.2257 22.7976 34.9071 22.8634 34.5092 22.8634ZM34.6382 22.0084C35.02 22.0084 35.3427 21.9089 35.6062 21.71C35.8696 21.5083 36.07 21.23 36.2071 20.8751C36.3442 20.5175 36.4128 20.1048 36.4128 19.637C36.4128 19.1745 36.3456 18.7699 36.2111 18.423C36.0767 18.0735 35.8777 17.8019 35.6142 17.6083C35.3507 17.4121 35.0254 17.3139 34.6382 17.3139C34.2349 17.3139 33.8988 17.4174 33.6299 17.6245C33.3638 17.8288 33.1635 18.1071 33.029 18.4593C32.8973 18.8088 32.8314 19.2014 32.8314 19.637C32.8314 20.0779 32.8986 20.4785 33.0331 20.8388C33.1702 21.1964 33.3718 21.4814 33.638 21.6938C33.9069 21.9036 34.2403 22.0084 34.6382 22.0084ZM39.2238 22.7344V16.5396H40.1756V22.7344H39.2238ZM39.7078 15.5071C39.5223 15.5071 39.3623 15.4439 39.2279 15.3175C39.0961 15.1912 39.0302 15.0393 39.0302 14.8618C39.0302 14.6844 39.0961 14.5324 39.2279 14.4061C39.3623 14.2797 39.5223 14.2165 39.7078 14.2165C39.8933 14.2165 40.0519 14.2797 40.1837 14.4061C40.3181 14.5324 40.3853 14.6844 40.3853 14.8618C40.3853 15.0393 40.3181 15.1912 40.1837 15.3175C40.0519 15.4439 39.8933 15.5071 39.7078 15.5071ZM42.8707 19.0078V22.7344H41.9189V16.5396H42.8385V17.5075H42.9191C43.0643 17.1929 43.2848 16.9402 43.5806 16.7493C43.8763 16.5557 44.2581 16.4589 44.7259 16.4589C45.1454 16.4589 45.5124 16.5449 45.827 16.717C46.1416 16.8864 46.3862 17.1445 46.561 17.4914C46.7358 17.8355 46.8231 18.2711 46.8231 18.7981V22.7344H45.8713V18.8626C45.8713 18.376 45.745 17.9969 45.4922 17.7253C45.2395 17.451 44.8926 17.3139 44.4517 17.3139C44.1479 17.3139 43.8763 17.3798 43.637 17.5115C43.4004 17.6433 43.2135 17.8355 43.0764 18.0883C42.9393 18.341 42.8707 18.6475 42.8707 19.0078ZM51.0629 25.1865C50.6031 25.1865 50.2079 25.1273 49.8772 25.009C49.5465 24.8934 49.2709 24.7402 49.0504 24.5493C48.8326 24.361 48.6592 24.1594 48.5301 23.9443L49.2884 23.4119C49.3744 23.5249 49.4833 23.6539 49.615 23.7991C49.7468 23.947 49.9269 24.0747 50.1555 24.1822C50.3867 24.2925 50.6892 24.3476 51.0629 24.3476C51.563 24.3476 51.9757 24.2266 52.3011 23.9846C52.6264 23.7426 52.7891 23.3635 52.7891 22.8473V21.589H52.7084C52.6385 21.7019 52.539 21.8417 52.41 22.0084C52.2836 22.1724 52.1008 22.319 51.8615 22.448C51.6249 22.5744 51.3049 22.6376 50.9016 22.6376C50.4015 22.6376 49.9525 22.5193 49.5545 22.2827C49.1593 22.0461 48.8461 21.7019 48.6148 21.2502C48.3863 20.7985 48.272 20.25 48.272 19.6047C48.272 18.9702 48.3836 18.4176 48.6068 17.9471C48.8299 17.4739 49.1405 17.1082 49.5384 16.8501C49.9363 16.5893 50.3961 16.4589 50.9177 16.4589C51.321 16.4589 51.641 16.5261 51.8776 16.6606C52.1169 16.7923 52.2997 16.9429 52.4261 17.1123C52.5552 17.279 52.6546 17.4161 52.7245 17.5236H52.8213V16.5396H53.7409V22.9118C53.7409 23.4442 53.6199 23.8771 53.3779 24.2105C53.1386 24.5466 52.816 24.7926 52.41 24.9485C52.0067 25.1072 51.5576 25.1865 51.0629 25.1865ZM51.0307 21.7826C51.4125 21.7826 51.7351 21.6952 51.9986 21.5204C52.2621 21.3457 52.4624 21.0943 52.5995 20.7662C52.7366 20.4382 52.8052 20.0457 52.8052 19.5886C52.8052 19.1422 52.738 18.7484 52.6036 18.4069C52.4691 18.0654 52.2702 17.7979 52.0067 17.6043C51.7432 17.4107 51.4178 17.3139 51.0307 17.3139C50.6273 17.3139 50.2913 17.4161 50.0224 17.6204C49.7562 17.8248 49.5559 18.099 49.4215 18.4432C49.2897 18.7873 49.2238 19.1691 49.2238 19.5886C49.2238 20.0188 49.2911 20.3992 49.4255 20.7299C49.5626 21.058 49.7643 21.3161 50.0304 21.5043C50.2993 21.6898 50.6327 21.7826 51.0307 21.7826ZM56.1769 22.7989C55.9779 22.7989 55.8072 22.7277 55.6647 22.5852C55.5222 22.4426 55.4509 22.2719 55.4509 22.073C55.4509 21.874 55.5222 21.7033 55.6647 21.5607C55.8072 21.4182 55.9779 21.347 56.1769 21.347C56.3758 21.347 56.5466 21.4182 56.6891 21.5607C56.8316 21.7033 56.9028 21.874 56.9028 22.073C56.9028 22.2047 56.8692 22.3257 56.802 22.4359C56.7375 22.5462 56.6501 22.6349 56.5398 22.7021C56.4323 22.7666 56.3113 22.7989 56.1769 22.7989ZM59.3045 22.7989C59.1055 22.7989 58.9348 22.7277 58.7923 22.5852C58.6498 22.4426 58.5786 22.2719 58.5786 22.073C58.5786 21.874 58.6498 21.7033 58.7923 21.5607C58.9348 21.4182 59.1055 21.347 59.3045 21.347C59.5035 21.347 59.6742 21.4182 59.8167 21.5607C59.9592 21.7033 60.0305 21.874 60.0305 22.073C60.0305 22.2047 59.9969 22.3257 59.9296 22.4359C59.8651 22.5462 59.7777 22.6349 59.6675 22.7021C59.5599 22.7666 59.4389 22.7989 59.3045 22.7989ZM62.4322 22.7989C62.2332 22.7989 62.0625 22.7277 61.92 22.5852C61.7775 22.4426 61.7062 22.2719 61.7062 22.073C61.7062 21.874 61.7775 21.7033 61.92 21.5607C62.0625 21.4182 62.2332 21.347 62.4322 21.347C62.6311 21.347 62.8019 21.4182 62.9444 21.5607C63.0869 21.7033 63.1581 21.874 63.1581 22.073C63.1581 22.2047 63.1245 22.3257 63.0573 22.4359C62.9928 22.5462 62.9054 22.6349 62.7951 22.7021C62.6876 22.7666 62.5666 22.7989 62.4322 22.7989ZM65.5598 22.7989C65.3608 22.7989 65.1901 22.7277 65.0476 22.5852C64.9051 22.4426 64.8339 22.2719 64.8339 22.073C64.8339 21.874 64.9051 21.7033 65.0476 21.5607C65.1901 21.4182 65.3608 21.347 65.5598 21.347C65.7588 21.347 65.9295 21.4182 66.072 21.5607C66.2145 21.7033 66.2858 21.874 66.2858 22.073C66.2858 22.2047 66.2522 22.3257 66.1849 22.4359C66.1204 22.5462 66.033 22.6349 65.9228 22.7021C65.8152 22.7666 65.6942 22.7989 65.5598 22.7989Z" fill="#A5A9AE"/>
<path d="M21.4697 48.4492V59.808" stroke="#141B34" stroke-width="1.21684" stroke-linecap="round" stroke-linejoin="round"/>
<path d="M27.1498 54.1289H15.791" stroke="#141B34" stroke-width="1.21684" stroke-linecap="round" stroke-linejoin="round"/>
<path d="M105.242 56.1463C105.063 56.1463 104.892 56.0754 104.766 55.9491C104.639 55.8229 104.568 55.6517 104.568 55.4731V52.7802C104.568 52.4084 104.87 52.107 105.242 52.107C105.613 52.107 105.915 52.4084 105.915 52.7802V55.4731C105.915 55.6517 105.844 55.8229 105.718 55.9491C105.591 56.0754 105.42 56.1463 105.242 56.1463ZM107.934 58.1659C107.756 58.1659 107.585 58.095 107.458 57.9688C107.332 57.8425 107.261 57.6713 107.261 57.4927V50.7605C107.261 50.3887 107.563 50.0873 107.934 50.0873C108.306 50.0873 108.608 50.3887 108.608 50.7605V57.4927C108.608 57.6713 108.537 57.8425 108.411 57.9688C108.284 58.095 108.113 58.1659 107.934 58.1659ZM118.706 58.1659C118.527 58.1659 118.356 58.095 118.23 57.9688C118.104 57.8425 118.033 57.6713 118.033 57.4927V50.7605C118.033 50.3887 118.334 50.0873 118.706 50.0873C119.078 50.0873 119.379 50.3887 119.379 50.7605V57.4927C119.379 57.6713 119.308 57.8425 119.182 57.9688C119.056 58.095 118.885 58.1659 118.706 58.1659ZM110.627 60.8588C110.449 60.8588 110.278 60.7879 110.151 60.6617C110.025 60.5354 109.954 60.3642 109.954 60.1856V48.0677C109.954 47.6958 110.255 47.3945 110.627 47.3945C110.999 47.3945 111.301 47.6958 111.301 48.0677V60.1857C111.301 60.2741 111.283 60.3616 111.249 60.4433C111.215 60.525 111.166 60.5992 111.103 60.6617C111.041 60.7242 110.967 60.7738 110.885 60.8076C110.803 60.8414 110.716 60.8589 110.627 60.8588ZM121.399 60.8588C121.22 60.8588 121.049 60.7879 120.923 60.6617C120.797 60.5354 120.726 60.3642 120.726 60.1856V48.0677C120.726 47.8891 120.797 47.7179 120.923 47.5916C121.049 47.4654 121.22 47.3945 121.399 47.3945C121.577 47.3945 121.749 47.4654 121.875 47.5916C122.001 47.7179 122.072 47.8891 122.072 48.0677V60.1857C122.072 60.5575 121.771 60.8588 121.399 60.8588ZM113.32 58.1659C113.142 58.1659 112.97 58.095 112.844 57.9688C112.718 57.8425 112.647 57.6713 112.647 57.4927V50.7605C112.647 50.3887 112.948 50.0873 113.32 50.0873C113.692 50.0873 113.993 50.3887 113.993 50.7605V57.4927C113.993 57.6713 113.923 57.8425 113.796 57.9688C113.67 58.095 113.499 58.1659 113.32 58.1659ZM116.013 56.1463C115.835 56.1463 115.663 56.0754 115.537 55.9491C115.411 55.8229 115.34 55.6517 115.34 55.4731V52.7802C115.34 52.4084 115.641 52.107 116.013 52.107C116.385 52.107 116.686 52.4084 116.686 52.7802V55.4731C116.686 55.6516 116.615 55.8229 116.489 55.9491C116.363 56.0754 116.192 56.1463 116.013 56.1463ZM129.478 58.1659C129.299 58.1659 129.128 58.095 129.002 57.9687C128.875 57.8425 128.804 57.6713 128.804 57.4927V50.7605C128.804 50.582 128.875 50.4107 129.001 50.2845C129.128 50.1582 129.299 50.0873 129.478 50.0873C129.656 50.0873 129.827 50.1582 129.954 50.2845C130.08 50.4107 130.151 50.582 130.151 50.7605V57.4927C130.151 57.6713 130.08 57.8425 129.954 57.9688C129.827 58.095 129.656 58.1659 129.478 58.1659ZM126.785 60.8588C126.606 60.8588 126.435 60.7879 126.309 60.6616C126.182 60.5354 126.111 60.3642 126.111 60.1856V48.0677C126.111 47.8891 126.182 47.7179 126.309 47.5916C126.435 47.4654 126.606 47.3945 126.785 47.3945C126.963 47.3945 127.134 47.4654 127.261 47.5916C127.387 47.7179 127.458 47.8891 127.458 48.0677V60.1857C127.458 60.2741 127.44 60.3616 127.407 60.4433C127.373 60.525 127.323 60.5992 127.261 60.6617C127.198 60.7242 127.124 60.7738 127.042 60.8076C126.961 60.8414 126.873 60.8589 126.785 60.8588ZM124.092 64.225C123.913 64.225 123.742 64.154 123.616 64.0278C123.49 63.9015 123.419 63.7303 123.419 63.5518V44.7015C123.419 44.523 123.489 44.3518 123.616 44.2255C123.742 44.0992 123.913 44.0283 124.092 44.0283C124.27 44.0283 124.442 44.0992 124.568 44.2255C124.694 44.3518 124.765 44.523 124.765 44.7015V63.5518C124.765 63.7303 124.694 63.9015 124.568 64.0278C124.442 64.154 124.27 64.225 124.092 64.225ZM132.17 60.8588C131.992 60.8588 131.821 60.7879 131.694 60.6616C131.568 60.5354 131.497 60.3642 131.497 60.1856V48.0677C131.497 47.8891 131.568 47.7179 131.694 47.5916C131.821 47.4654 131.992 47.3945 132.17 47.3945C132.349 47.3945 132.52 47.4654 132.646 47.5916C132.773 47.7179 132.844 47.8891 132.844 48.0677V60.1857C132.844 60.5575 132.542 60.8588 132.17 60.8588ZM134.863 58.1659C134.685 58.1659 134.514 58.095 134.387 57.9687C134.261 57.8425 134.19 57.6713 134.19 57.4927V50.7605C134.19 50.582 134.261 50.4107 134.387 50.2845C134.513 50.1582 134.685 50.0873 134.863 50.0873C135.042 50.0873 135.213 50.1582 135.339 50.2845C135.466 50.4107 135.537 50.582 135.537 50.7605V57.4927C135.537 57.6713 135.466 57.8425 135.339 57.9688C135.213 58.095 135.042 58.1659 134.863 58.1659ZM137.556 56.1463C137.378 56.1463 137.206 56.0754 137.08 55.9491C136.954 55.8229 136.883 55.6516 136.883 55.4731V52.7802C136.883 52.6016 136.954 52.4304 137.08 52.3042C137.206 52.1779 137.378 52.107 137.556 52.107C137.735 52.107 137.906 52.1779 138.032 52.3042C138.158 52.4304 138.229 52.6016 138.229 52.7802V55.4731C138.229 55.6516 138.158 55.8229 138.032 55.9491C137.906 56.0754 137.735 56.1463 137.556 56.1463Z" fill="#303030"/>
<path d="M72.9613 56.1463C72.7828 56.1463 72.6115 56.0754 72.4853 55.9491C72.359 55.8229 72.2881 55.6517 72.2881 55.4731V52.7802C72.2881 52.4084 72.5895 52.107 72.9613 52.107C73.3331 52.107 73.6345 52.4084 73.6345 52.7802V55.4731C73.6345 55.6517 73.5636 55.8229 73.4374 55.9491C73.3111 56.0754 73.1399 56.1463 72.9613 56.1463ZM75.6542 58.1659C75.4757 58.1659 75.3044 58.095 75.1782 57.9688C75.0519 57.8425 74.981 57.6713 74.981 57.4927V50.7605C74.981 50.3887 75.2824 50.0873 75.6542 50.0873C76.0261 50.0873 76.3274 50.3887 76.3274 50.7605V57.4927C76.3274 57.6713 76.2565 57.8425 76.1303 57.9688C76.004 58.095 75.8328 58.1659 75.6542 58.1659ZM86.4257 58.1659C86.2472 58.1659 86.0759 58.095 85.9497 57.9688C85.8234 57.8425 85.7525 57.6713 85.7525 57.4927V50.7605C85.7525 50.3887 86.0539 50.0873 86.4257 50.0873C86.7975 50.0873 87.0989 50.3887 87.0989 50.7605V57.4927C87.0989 57.6713 87.028 57.8425 86.9017 57.9688C86.7755 58.095 86.6043 58.1659 86.4257 58.1659ZM78.3471 60.8588C78.1685 60.8588 77.9973 60.7879 77.871 60.6617C77.7448 60.5354 77.6738 60.3642 77.6738 60.1856V48.0677C77.6738 47.6958 77.9752 47.3945 78.3471 47.3945C78.7189 47.3945 79.0203 47.6958 79.0203 48.0677V60.1857C79.0203 60.2741 79.0029 60.3616 78.969 60.4433C78.9352 60.525 78.8856 60.5992 78.8231 60.6617C78.7606 60.7242 78.6864 60.7738 78.6047 60.8076C78.523 60.8414 78.4355 60.8589 78.3471 60.8588ZM89.1186 60.8588C88.9401 60.8588 88.7688 60.7879 88.6426 60.6617C88.5163 60.5354 88.4454 60.3642 88.4454 60.1856V48.0677C88.4454 47.8891 88.5163 47.7179 88.6426 47.5916C88.7688 47.4654 88.9401 47.3945 89.1186 47.3945C89.2972 47.3945 89.4684 47.4654 89.5947 47.5916C89.7209 47.7179 89.7918 47.8891 89.7918 48.0677V60.1857C89.7918 60.5575 89.4904 60.8588 89.1186 60.8588ZM81.04 58.1659C80.8614 58.1659 80.6902 58.095 80.5639 57.9688C80.4377 57.8425 80.3667 57.6713 80.3667 57.4927V50.7605C80.3667 50.3887 80.6681 50.0873 81.04 50.0873C81.4118 50.0873 81.7132 50.3887 81.7132 50.7605V57.4927C81.7132 57.6713 81.6423 57.8425 81.516 57.9688C81.3898 58.095 81.2185 58.1659 81.04 58.1659ZM83.7329 56.1463C83.5543 56.1463 83.3831 56.0754 83.2568 55.9491C83.1306 55.8229 83.0596 55.6517 83.0596 55.4731V52.7802C83.0596 52.4084 83.361 52.107 83.7329 52.107C84.1047 52.107 84.4061 52.4084 84.4061 52.7802V55.4731C84.4061 55.6516 84.3351 55.8229 84.2089 55.9491C84.0826 56.0754 83.9114 56.1463 83.7329 56.1463ZM97.1973 58.1659C97.0187 58.1659 96.8475 58.095 96.7212 57.9687C96.595 57.8425 96.5241 57.6713 96.524 57.4927V50.7605C96.524 50.582 96.595 50.4107 96.7212 50.2845C96.8475 50.1582 97.0187 50.0873 97.1973 50.0873C97.3758 50.0873 97.547 50.1582 97.6733 50.2845C97.7996 50.4107 97.8705 50.582 97.8705 50.7605V57.4927C97.8705 57.6713 97.7996 57.8425 97.6733 57.9688C97.547 58.095 97.3758 58.1659 97.1973 58.1659ZM94.5044 60.8588C94.3258 60.8588 94.1546 60.7879 94.0283 60.6616C93.9021 60.5354 93.8311 60.3642 93.8311 60.1856V48.0677C93.8311 47.8891 93.9021 47.7179 94.0283 47.5916C94.1546 47.4654 94.3258 47.3945 94.5044 47.3945C94.6829 47.3945 94.8541 47.4654 94.9804 47.5916C95.1066 47.7179 95.1776 47.8891 95.1776 48.0677V60.1857C95.1776 60.2741 95.1602 60.3616 95.1263 60.4433C95.0925 60.525 95.0429 60.5992 94.9804 60.6617C94.9179 60.7242 94.8437 60.7738 94.762 60.8076C94.6803 60.8414 94.5928 60.8589 94.5044 60.8588ZM91.8115 64.225C91.633 64.225 91.4617 64.154 91.3355 64.0278C91.2092 63.9015 91.1383 63.7303 91.1383 63.5518V44.7015C91.1383 44.523 91.2092 44.3518 91.3355 44.2255C91.4617 44.0992 91.633 44.0283 91.8115 44.0283C91.9901 44.0283 92.1613 44.0992 92.2876 44.2255C92.4138 44.3518 92.4847 44.523 92.4847 44.7015V63.5518C92.4847 63.7303 92.4138 63.9015 92.2875 64.0278C92.1613 64.154 91.9901 64.225 91.8115 64.225ZM99.8902 60.8588C99.7116 60.8588 99.5404 60.7879 99.4141 60.6616C99.2879 60.5354 99.217 60.3642 99.2169 60.1856V48.0677C99.2169 47.8891 99.2879 47.7179 99.4141 47.5916C99.5404 47.4654 99.7116 47.3945 99.8902 47.3945C100.069 47.3945 100.24 47.4654 100.366 47.5916C100.492 47.7179 100.563 47.8891 100.563 48.0677V60.1857C100.563 60.5575 100.262 60.8588 99.8902 60.8588ZM102.583 58.1659C102.404 58.1659 102.233 58.095 102.107 57.9687C101.981 57.8425 101.91 57.6713 101.91 57.4927V50.7605C101.91 50.582 101.981 50.4107 102.107 50.2845C102.233 50.1582 102.404 50.0873 102.583 50.0873C102.762 50.0873 102.933 50.1582 103.059 50.2845C103.185 50.4107 103.256 50.582 103.256 50.7605V57.4927C103.256 57.6713 103.185 57.8425 103.059 57.9688C102.933 58.095 102.762 58.1659 102.583 58.1659ZM105.276 56.1463C105.097 56.1463 104.926 56.0754 104.8 55.9491C104.674 55.8229 104.603 55.6516 104.603 55.4731V52.7802C104.603 52.6016 104.674 52.4304 104.8 52.3042C104.926 52.1779 105.097 52.107 105.276 52.107C105.454 52.107 105.626 52.1779 105.752 52.3042C105.878 52.4304 105.949 52.6016 105.949 52.7802V55.4731C105.949 55.6516 105.878 55.8229 105.752 55.9491C105.626 56.0754 105.454 56.1463 105.276 56.1463Z" fill="#303030"/>
<path d="M137.222 56.1463C137.044 56.1463 136.872 56.0754 136.746 55.9491C136.62 55.8229 136.549 55.6517 136.549 55.4731V52.7802C136.549 52.4084 136.85 52.107 137.222 52.107C137.594 52.107 137.895 52.4084 137.895 52.7802V55.4731C137.895 55.6517 137.824 55.8229 137.698 55.9491C137.572 56.0754 137.401 56.1463 137.222 56.1463ZM139.915 58.1659C139.736 58.1659 139.565 58.095 139.439 57.9688C139.313 57.8425 139.242 57.6713 139.242 57.4927V50.7605C139.242 50.3887 139.543 50.0873 139.915 50.0873C140.287 50.0873 140.588 50.3887 140.588 50.7605V57.4927C140.588 57.6713 140.517 57.8425 140.391 57.9688C140.265 58.095 140.094 58.1659 139.915 58.1659ZM150.686 58.1659C150.508 58.1659 150.337 58.095 150.21 57.9688C150.084 57.8425 150.013 57.6713 150.013 57.4927V50.7605C150.013 50.3887 150.315 50.0873 150.686 50.0873C151.058 50.0873 151.36 50.3887 151.36 50.7605V57.4927C151.36 57.6713 151.289 57.8425 151.162 57.9688C151.036 58.095 150.865 58.1659 150.686 58.1659ZM142.608 60.8588C142.429 60.8588 142.258 60.7879 142.132 60.6617C142.005 60.5354 141.935 60.3642 141.935 60.1856V48.0677C141.935 47.6958 142.236 47.3945 142.608 47.3945C142.98 47.3945 143.281 47.6958 143.281 48.0677V60.1857C143.281 60.2741 143.264 60.3616 143.23 60.4433C143.196 60.525 143.146 60.5992 143.084 60.6617C143.021 60.7242 142.947 60.7738 142.865 60.8076C142.784 60.8414 142.696 60.8589 142.608 60.8588ZM153.379 60.8588C153.201 60.8588 153.03 60.7879 152.903 60.6617C152.777 60.5354 152.706 60.3642 152.706 60.1856V48.0677C152.706 47.8891 152.777 47.7179 152.903 47.5916C153.03 47.4654 153.201 47.3945 153.379 47.3945C153.558 47.3945 153.729 47.4654 153.855 47.5916C153.982 47.7179 154.053 47.8891 154.053 48.0677V60.1857C154.053 60.5575 153.751 60.8588 153.379 60.8588ZM145.301 58.1659C145.122 58.1659 144.951 58.095 144.825 57.9688C144.698 57.8425 144.627 57.6713 144.627 57.4927V50.7605C144.627 50.3887 144.929 50.0873 145.301 50.0873C145.673 50.0873 145.974 50.3887 145.974 50.7605V57.4927C145.974 57.6713 145.903 57.8425 145.777 57.9688C145.65 58.095 145.479 58.1659 145.301 58.1659ZM147.994 56.1463C147.815 56.1463 147.644 56.0754 147.518 55.9491C147.391 55.8229 147.32 55.6517 147.32 55.4731V52.7802C147.32 52.4084 147.622 52.107 147.994 52.107C148.365 52.107 148.667 52.4084 148.667 52.7802V55.4731C148.667 55.6516 148.596 55.8229 148.47 55.9491C148.343 56.0754 148.172 56.1463 147.994 56.1463ZM161.458 58.1659C161.279 58.1659 161.108 58.095 160.982 57.9687C160.856 57.8425 160.785 57.6713 160.785 57.4927V50.7605C160.785 50.582 160.856 50.4107 160.982 50.2845C161.108 50.1582 161.279 50.0873 161.458 50.0873C161.637 50.0873 161.808 50.1582 161.934 50.2845C162.06 50.4107 162.131 50.582 162.131 50.7605V57.4927C162.131 57.6713 162.06 57.8425 161.934 57.9688C161.808 58.095 161.637 58.1659 161.458 58.1659ZM158.765 60.8588C158.587 60.8588 158.415 60.7879 158.289 60.6616C158.163 60.5354 158.092 60.3642 158.092 60.1856V48.0677C158.092 47.8891 158.163 47.7179 158.289 47.5916C158.415 47.4654 158.587 47.3945 158.765 47.3945C158.944 47.3945 159.115 47.4654 159.241 47.5916C159.367 47.7179 159.438 47.8891 159.438 48.0677V60.1857C159.438 60.2741 159.421 60.3616 159.387 60.4433C159.353 60.525 159.304 60.5992 159.241 60.6617C159.179 60.7242 159.104 60.7738 159.023 60.8076C158.941 60.8414 158.854 60.8589 158.765 60.8588ZM156.072 64.225C155.894 64.225 155.722 64.154 155.596 64.0278C155.47 63.9015 155.399 63.7303 155.399 63.5518V44.7015C155.399 44.523 155.47 44.3518 155.596 44.2255C155.722 44.0992 155.894 44.0283 156.072 44.0283C156.251 44.0283 156.422 44.0992 156.548 44.2255C156.675 44.3518 156.745 44.523 156.745 44.7015V63.5518C156.745 63.7303 156.675 63.9015 156.548 64.0278C156.422 64.154 156.251 64.225 156.072 64.225ZM164.151 60.8588C163.972 60.8588 163.801 60.7879 163.675 60.6616C163.549 60.5354 163.478 60.3642 163.478 60.1856V48.0677C163.478 47.8891 163.549 47.7179 163.675 47.5916C163.801 47.4654 163.972 47.3945 164.151 47.3945C164.329 47.3945 164.501 47.4654 164.627 47.5916C164.753 47.7179 164.824 47.8891 164.824 48.0677V60.1857C164.824 60.5575 164.523 60.8588 164.151 60.8588ZM166.844 58.1659C166.665 58.1659 166.494 58.095 166.368 57.9687C166.241 57.8425 166.171 57.6713 166.171 57.4927V50.7605C166.171 50.582 166.241 50.4107 166.368 50.2845C166.494 50.1582 166.665 50.0873 166.844 50.0873C167.022 50.0873 167.194 50.1582 167.32 50.2845C167.446 50.4107 167.517 50.582 167.517 50.7605V57.4927C167.517 57.6713 167.446 57.8425 167.32 57.9688C167.194 58.095 167.022 58.1659 166.844 58.1659ZM169.537 56.1463C169.358 56.1463 169.187 56.0754 169.061 55.9491C168.934 55.8229 168.863 55.6516 168.863 55.4731V52.7802C168.863 52.6016 168.934 52.4304 169.061 52.3042C169.187 52.1779 169.358 52.107 169.537 52.107C169.715 52.107 169.886 52.1779 170.013 52.3042C170.139 52.4304 170.21 52.6016 170.21 52.7802V55.4731C170.21 55.6516 170.139 55.8229 170.013 55.9491C169.886 56.0754 169.715 56.1463 169.537 56.1463Z" fill="#303030"/>
<path d="M169.353 56.1464C169.174 56.1464 169.003 56.0755 168.877 55.9492C168.751 55.823 168.68 55.6517 168.68 55.4732V52.7803C168.68 52.4084 168.981 52.107 169.353 52.107C169.725 52.107 170.026 52.4084 170.026 52.7803V55.4732C170.026 55.6517 169.955 55.823 169.829 55.9492C169.703 56.0755 169.531 56.1464 169.353 56.1464ZM172.046 58.166C171.867 58.166 171.696 58.0951 171.57 57.9688C171.444 57.8426 171.373 57.6713 171.373 57.4928V50.7606C171.373 50.3888 171.674 50.0874 172.046 50.0874C172.418 50.0874 172.719 50.3888 172.719 50.7606V57.4928C172.719 57.6713 172.648 57.8426 172.522 57.9688C172.396 58.0951 172.224 58.166 172.046 58.166ZM182.817 58.166C182.639 58.166 182.468 58.0951 182.341 57.9688C182.215 57.8426 182.144 57.6713 182.144 57.4928V50.7606C182.144 50.3888 182.445 50.0874 182.817 50.0874C183.189 50.0874 183.491 50.3888 183.491 50.7606V57.4928C183.491 57.6713 183.42 57.8426 183.293 57.9688C183.167 58.0951 182.996 58.166 182.817 58.166ZM174.739 60.8589C174.56 60.8589 174.389 60.788 174.263 60.6617C174.136 60.5355 174.065 60.3642 174.065 60.1857V48.0678C174.065 47.6959 174.367 47.3945 174.739 47.3945C175.11 47.3945 175.412 47.6959 175.412 48.0678V60.1858C175.412 60.2742 175.394 60.3617 175.361 60.4434C175.327 60.5251 175.277 60.5993 175.215 60.6618C175.152 60.7243 175.078 60.7739 174.996 60.8077C174.915 60.8415 174.827 60.8589 174.739 60.8589ZM185.51 60.8589C185.332 60.8589 185.16 60.788 185.034 60.6617C184.908 60.5355 184.837 60.3642 184.837 60.1857V48.0678C184.837 47.8892 184.908 47.718 185.034 47.5917C185.16 47.4655 185.332 47.3945 185.51 47.3945C185.689 47.3945 185.86 47.4655 185.986 47.5917C186.113 47.718 186.183 47.8892 186.183 48.0678V60.1858C186.183 60.5575 185.882 60.8589 185.51 60.8589ZM177.432 58.166C177.253 58.166 177.082 58.0951 176.956 57.9688C176.829 57.8426 176.758 57.6713 176.758 57.4928V50.7606C176.758 50.3888 177.06 50.0874 177.432 50.0874C177.803 50.0874 178.105 50.3888 178.105 50.7606V57.4928C178.105 57.6713 178.034 57.8426 177.908 57.9688C177.781 58.0951 177.61 58.166 177.432 58.166ZM180.124 56.1464C179.946 56.1464 179.775 56.0755 179.648 55.9492C179.522 55.823 179.451 55.6517 179.451 55.4732V52.7803C179.451 52.4084 179.753 52.107 180.124 52.107C180.496 52.107 180.798 52.4084 180.798 52.7803V55.4732C180.798 55.6517 180.727 55.823 180.6 55.9492C180.474 56.0755 180.303 56.1464 180.124 56.1464Z" fill="#303030"/>
<path d="M193.607 57.2092C192.994 57.2092 192.503 56.9708 192.136 56.494C191.769 56.0172 191.585 55.3239 191.585 54.4142C191.585 53.5045 191.769 52.8112 192.136 52.3345C192.503 51.8577 192.994 51.6193 193.607 51.6193C194.227 51.6193 194.717 51.8577 195.079 52.3345C195.446 52.8112 195.63 53.5045 195.63 54.4142C195.63 55.3239 195.446 56.0172 195.079 56.494C194.717 56.9708 194.227 57.2092 193.607 57.2092ZM193.607 56.6173C193.898 56.6173 194.142 56.5351 194.339 56.3707C194.542 56.2008 194.692 55.9514 194.791 55.6226C194.895 55.2938 194.947 54.891 194.947 54.4142C194.947 53.9374 194.895 53.5346 194.791 53.2058C194.692 52.877 194.542 52.6304 194.339 52.466C194.142 52.2961 193.898 52.2111 193.607 52.2111C193.317 52.2111 193.07 52.2961 192.867 52.466C192.67 52.6304 192.519 52.877 192.415 53.2058C192.317 53.5346 192.267 53.9374 192.267 54.4142C192.267 54.891 192.317 55.2938 192.415 55.6226C192.519 55.9514 192.67 56.2008 192.867 56.3707C193.07 56.5351 193.317 56.6173 193.607 56.6173ZM196.893 56.1405C197.052 56.1405 197.18 56.1898 197.279 56.2885C197.378 56.3871 197.427 56.5159 197.427 56.6748C197.427 56.8338 197.378 56.9625 197.279 57.0612C197.18 57.1598 197.052 57.2092 196.893 57.2092C196.734 57.2092 196.605 57.1598 196.506 57.0612C196.408 56.9625 196.358 56.8338 196.358 56.6748C196.358 56.5159 196.408 56.3871 196.506 56.2885C196.605 56.1898 196.734 56.1405 196.893 56.1405ZM200.174 57.2092C199.561 57.2092 199.07 56.9708 198.703 56.494C198.336 56.0172 198.152 55.3239 198.152 54.4142C198.152 53.5045 198.336 52.8112 198.703 52.3345C199.07 51.8577 199.561 51.6193 200.174 51.6193C200.794 51.6193 201.284 51.8577 201.646 52.3345C202.013 52.8112 202.197 53.5045 202.197 54.4142C202.197 55.3239 202.013 56.0172 201.646 56.494C201.284 56.9708 200.794 57.2092 200.174 57.2092ZM200.174 56.6173C200.465 56.6173 200.709 56.5351 200.906 56.3707C201.109 56.2008 201.259 55.9514 201.358 55.6226C201.462 55.2938 201.514 54.891 201.514 54.4142C201.514 53.9374 201.462 53.5346 201.358 53.2058C201.259 52.877 201.109 52.6304 200.906 52.466C200.709 52.2961 200.465 52.2111 200.174 52.2111C199.884 52.2111 199.637 52.2961 199.435 52.466C199.237 52.6304 199.087 52.877 198.982 53.2058C198.884 53.5346 198.834 53.9374 198.834 54.4142C198.834 54.891 198.884 55.2938 198.982 55.6226C199.087 55.9514 199.237 56.2008 199.435 56.3707C199.637 56.5351 199.884 56.6173 200.174 56.6173ZM204.926 57.2092C204.444 57.2092 204.055 57.0996 203.759 56.8803C203.469 56.6611 203.244 56.357 203.085 55.9679L203.726 55.6308C203.814 55.9158 203.948 56.1487 204.129 56.3296C204.315 56.5049 204.587 56.5926 204.943 56.5926C205.195 56.5926 205.409 56.546 205.584 56.4529C205.765 56.3597 205.905 56.2282 206.003 56.0583C206.102 55.8829 206.151 55.6747 206.151 55.4335C206.151 55.176 206.105 54.9622 206.011 54.7924C205.924 54.617 205.795 54.4855 205.625 54.3978C205.455 54.3101 205.247 54.2663 205 54.2663C204.825 54.2663 204.661 54.2854 204.507 54.3238C204.359 54.3567 204.225 54.4115 204.104 54.4882C203.984 54.5649 203.88 54.6663 203.792 54.7924L203.216 54.6855L203.537 51.7015H206.587V52.318H204.096L203.882 54.0279L203.866 54.1018H203.882C204.014 53.9648 204.181 53.8552 204.384 53.773C204.592 53.6908 204.839 53.6497 205.124 53.6497C205.469 53.6497 205.768 53.7237 206.02 53.8717C206.277 54.0142 206.477 54.2169 206.62 54.48C206.762 54.743 206.833 55.0499 206.833 55.4007C206.833 55.6802 206.787 55.9323 206.694 56.1569C206.601 56.3816 206.469 56.5734 206.299 56.7324C206.129 56.8858 205.926 57.0036 205.691 57.0859C205.461 57.1681 205.206 57.2092 204.926 57.2092Z" fill="#A5A9AE"/>
<rect x="208.051" y="38.7139" width="30.8265" height="30.8265" rx="15.4133" fill="white"/>
<path fill-rule="evenodd" clip-rule="evenodd" d="M218.901 49.929C218.901 49.0035 219.916 48.4364 220.704 48.9215L227.527 53.1199C228.278 53.5819 228.278 54.673 227.527 55.135L220.704 59.3333C219.916 59.8184 218.901 59.2513 218.901 58.3258V49.929Z" fill="#303030"/>
<rect x="243.744" y="41.1475" width="25.9592" height="25.9592" rx="12.9796" fill="#303030"/>
<path d="M256.724 48.8545V59.806" stroke="white" stroke-width="1.21684" stroke-linecap="round" stroke-linejoin="round"/>
<path d="M261.591 53.3166C261.591 53.3166 258.006 48.4492 256.724 48.4492C255.441 48.4492 251.856 53.3166 251.856 53.3166" stroke="white" stroke-width="1.21684" stroke-linecap="round" stroke-linejoin="round"/>
</g>
<defs>
<filter id="filter0_d_4367_26388" x="0" y="0" width="281.438" height="81.2754" filterUnits="userSpaceOnUse" color-interpolation-filters="sRGB">
<feFlood flood-opacity="0" result="BackgroundImageFix"/>
<feColorMatrix in="SourceAlpha" type="matrix" values="0 0 0 0 0 0 0 0 0 0 0 0 0 0 0 0 0 0 127 0" result="hardAlpha"/>
<feOffset/>
<feGaussianBlur stdDeviation="1"/>
<feComposite in2="hardAlpha" operator="out"/>
<feColorMatrix type="matrix" values="0 0 0 0 0 0 0 0 0 0 0 0 0 0 0 0 0 0 0.24 0"/>
<feBlend mode="normal" in2="BackgroundImageFix" result="effect1_dropShadow_4367_26388"/>
<feBlend mode="normal" in="SourceGraphic" in2="effect1_dropShadow_4367_26388" result="shape"/>
</filter>
</defs>
</svg>
