<svg width="15" height="21" viewBox="0 0 15 21" fill="none" xmlns="http://www.w3.org/2000/svg">
<path d="M6.65715 20.7071C7.04768 21.0976 7.68084 21.0976 8.07136 20.7071L14.4353 14.3431C14.8259 13.9526 14.8259 13.3195 14.4353 12.9289C14.0448 12.5384 13.4116 12.5384 13.0211 12.9289L7.36426 18.5858L1.7074 12.9289C1.31688 12.5384 0.683714 12.5384 0.29319 12.9289C-0.0973344 13.3195 -0.0973344 13.9526 0.29319 14.3431L6.65715 20.7071ZM7.36426 0H6.36426V1.66667H7.36426H8.36426V0H7.36426ZM7.36426 5H6.36426V8.33333H7.36426H8.36426V5H7.36426ZM7.36426 11.6667H6.36426V15H7.36426H8.36426V11.6667H7.36426ZM7.36426 18.3333H6.36426V20H7.36426H8.36426V18.3333H7.36426Z" fill="#A5A9AE"/>
</svg>
