<svg width="44" height="15" viewBox="0 0 44 15" fill="none" xmlns="http://www.w3.org/2000/svg">
<path d="M43.7071 8.07136C44.0976 7.68084 44.0976 7.04768 43.7071 6.65715L37.3431 0.29319C36.9526 -0.0973344 36.3195 -0.0973344 35.9289 0.29319C35.5384 0.683714 35.5384 1.31688 35.9289 1.7074L41.5858 7.36426L35.9289 13.0211C35.5384 13.4116 35.5384 14.0448 35.9289 14.4353C36.3195 14.8259 36.9526 14.8259 37.3431 14.4353L43.7071 8.07136ZM2.15 8.36426C2.70228 8.36426 3.15 7.91654 3.15 7.36426C3.15 6.81197 2.70228 6.36426 2.15 6.36426V7.36426V8.36426ZM6.45 6.36426C5.89772 6.36426 5.45 6.81197 5.45 7.36426C5.45 7.91654 5.89772 8.36426 6.45 8.36426V7.36426V6.36426ZM10.75 8.36426C11.3023 8.36426 11.75 7.91654 11.75 7.36426C11.75 6.81197 11.3023 6.36426 10.75 6.36426V7.36426V8.36426ZM15.05 6.36426C14.4977 6.36426 14.05 6.81197 14.05 7.36426C14.05 7.91654 14.4977 8.36426 15.05 8.36426V7.36426V6.36426ZM19.35 8.36426C19.9023 8.36426 20.35 7.91654 20.35 7.36426C20.35 6.81197 19.9023 6.36426 19.35 6.36426V7.36426V8.36426ZM23.65 6.36426C23.0977 6.36426 22.65 6.81197 22.65 7.36426C22.65 7.91654 23.0977 8.36426 23.65 8.36426V7.36426V6.36426ZM27.95 8.36426C28.5023 8.36426 28.95 7.91654 28.95 7.36426C28.95 6.81197 28.5023 6.36426 27.95 6.36426V7.36426V8.36426ZM32.25 6.36426C31.6977 6.36426 31.25 6.81197 31.25 7.36426C31.25 7.91654 31.6977 8.36426 32.25 8.36426V7.36426V6.36426ZM36.55 8.36426C37.1023 8.36426 37.55 7.91654 37.55 7.36426C37.55 6.81197 37.1023 6.36426 36.55 6.36426V7.36426V8.36426ZM40.85 6.36426C40.2977 6.36426 39.85 6.81197 39.85 7.36426C39.85 7.91654 40.2977 8.36426 40.85 8.36426V7.36426V6.36426ZM0 7.36426V8.36426H2.15V7.36426V6.36426H0V7.36426ZM6.45 7.36426V8.36426H10.75V7.36426V6.36426H6.45V7.36426ZM15.05 7.36426V8.36426H19.35V7.36426V6.36426H15.05V7.36426ZM23.65 7.36426V8.36426H27.95V7.36426V6.36426H23.65V7.36426ZM32.25 7.36426V8.36426H36.55V7.36426V6.36426H32.25V7.36426ZM40.85 7.36426V8.36426H43V7.36426V6.36426H40.85V7.36426ZM43.7071 8.07136C44.0976 7.68084 44.0976 7.04768 43.7071 6.65715L37.3431 0.29319C36.9526 -0.0973344 36.3195 -0.0973344 35.9289 0.29319C35.5384 0.683714 35.5384 1.31688 35.9289 1.7074L41.5858 7.36426L35.9289 13.0211C35.5384 13.4116 35.5384 14.0448 35.9289 14.4353C36.3195 14.8259 36.9526 14.8259 37.3431 14.4353L43.7071 8.07136ZM2.15 8.36426C2.70228 8.36426 3.15 7.91654 3.15 7.36426C3.15 6.81197 2.70228 6.36426 2.15 6.36426V7.36426V8.36426ZM6.45 6.36426C5.89772 6.36426 5.45 6.81197 5.45 7.36426C5.45 7.91654 5.89772 8.36426 6.45 8.36426V7.36426V6.36426ZM10.75 8.36426C11.3023 8.36426 11.75 7.91654 11.75 7.36426C11.75 6.81197 11.3023 6.36426 10.75 6.36426V7.36426V8.36426ZM15.05 6.36426C14.4977 6.36426 14.05 6.81197 14.05 7.36426C14.05 7.91654 14.4977 8.36426 15.05 8.36426V7.36426V6.36426ZM19.35 8.36426C19.9023 8.36426 20.35 7.91654 20.35 7.36426C20.35 6.81197 19.9023 6.36426 19.35 6.36426V7.36426V8.36426ZM23.65 6.36426C23.0977 6.36426 22.65 6.81197 22.65 7.36426C22.65 7.91654 23.0977 8.36426 23.65 8.36426V7.36426V6.36426ZM27.95 8.36426C28.5023 8.36426 28.95 7.91654 28.95 7.36426C28.95 6.81197 28.5023 6.36426 27.95 6.36426V7.36426V8.36426ZM32.25 6.36426C31.6977 6.36426 31.25 6.81197 31.25 7.36426C31.25 7.91654 31.6977 8.36426 32.25 8.36426V7.36426V6.36426ZM36.55 8.36426C37.1023 8.36426 37.55 7.91654 37.55 7.36426C37.55 6.81197 37.1023 6.36426 36.55 6.36426V7.36426V8.36426ZM40.85 6.36426C40.2977 6.36426 39.85 6.81197 39.85 7.36426C39.85 7.91654 40.2977 8.36426 40.85 8.36426V7.36426V6.36426ZM0 7.36426V8.36426H2.15V7.36426V6.36426H0V7.36426ZM6.45 7.36426V8.36426H10.75V7.36426V6.36426H6.45V7.36426ZM15.05 7.36426V8.36426H19.35V7.36426V6.36426H15.05V7.36426ZM23.65 7.36426V8.36426H27.95V7.36426V6.36426H23.65V7.36426ZM32.25 7.36426V8.36426H36.55V7.36426V6.36426H32.25V7.36426ZM40.85 7.36426V8.36426H43V7.36426V6.36426H40.85V7.36426Z" fill="black"/>
</svg>
