<svg width="15" height="51" viewBox="0 0 15 51" fill="none" xmlns="http://www.w3.org/2000/svg">
<path d="M6.65715 50.7071C7.04768 51.0976 7.68084 51.0976 8.07136 50.7071L14.4353 44.3431C14.8259 43.9526 14.8259 43.3195 14.4353 42.9289C14.0448 42.5384 13.4116 42.5384 13.0211 42.9289L7.36426 48.5858L1.7074 42.9289C1.31688 42.5384 0.683714 42.5384 0.29319 42.9289C-0.0973344 43.3195 -0.0973344 43.9526 0.29319 44.3431L6.65715 50.7071ZM7.36426 0H6.36426V2.08333H7.36426H8.36426V0H7.36426ZM7.36426 6.25H6.36426V10.4167H7.36426H8.36426V6.25H7.36426ZM7.36426 14.5833H6.36426V18.75H7.36426H8.36426V14.5833H7.36426ZM7.36426 22.9167H6.36426V27.0833H7.36426H8.36426V22.9167H7.36426ZM7.36426 31.25H6.36426V35.4167H7.36426H8.36426V31.25H7.36426ZM7.36426 39.5833H6.36426V43.75H7.36426H8.36426V39.5833H7.36426ZM7.36426 47.9167H6.36426V50H7.36426H8.36426V47.9167H7.36426Z" fill="#A5A9AE"/>
</svg>
