<svg width="282" height="82" viewBox="0 0 282 82" fill="none" xmlns="http://www.w3.org/2000/svg">
<g filter="url(#filter0_d_4367_26361)">
<rect x="2" y="2" width="277.439" height="77.2755" rx="9.73469" fill="white" shape-rendering="crispEdges"/>
<rect x="2.40561" y="2.40561" width="276.628" height="76.4643" rx="9.32908" stroke="#B12CCF" stroke-width="0.811224" stroke-dasharray="1.62 1.62" shape-rendering="crispEdges"/>
<path d="M13.2992 22.7989C13.1002 22.7989 12.9295 22.7277 12.787 22.5852C12.6445 22.4426 12.5733 22.2719 12.5733 22.073C12.5733 21.874 12.6445 21.7033 12.787 21.5607C12.9295 21.4182 13.1002 21.347 13.2992 21.347C13.4982 21.347 13.6689 21.4182 13.8114 21.5607C13.9539 21.7033 14.0252 21.874 14.0252 22.073C14.0252 22.2047 13.9916 22.3257 13.9243 22.4359C13.8598 22.5462 13.7724 22.6349 13.6622 22.7021C13.5546 22.7666 13.4336 22.7989 13.2992 22.7989ZM16.4269 22.7989C16.2279 22.7989 16.0572 22.7277 15.9147 22.5852C15.7722 22.4426 15.7009 22.2719 15.7009 22.073C15.7009 21.874 15.7722 21.7033 15.9147 21.5607C16.0572 21.4182 16.2279 21.347 16.4269 21.347C16.6258 21.347 16.7966 21.4182 16.9391 21.5607C17.0816 21.7033 17.1528 21.874 17.1528 22.073C17.1528 22.2047 17.1192 22.3257 17.052 22.4359C16.9875 22.5462 16.9001 22.6349 16.7898 22.7021C16.6823 22.7666 16.5613 22.7989 16.4269 22.7989ZM19.5545 22.7989C19.3555 22.7989 19.1848 22.7277 19.0423 22.5852C18.8998 22.4426 18.8286 22.2719 18.8286 22.073C18.8286 21.874 18.8998 21.7033 19.0423 21.5607C19.1848 21.4182 19.3555 21.347 19.5545 21.347C19.7535 21.347 19.9242 21.4182 20.0667 21.5607C20.2092 21.7033 20.2805 21.874 20.2805 22.073C20.2805 22.2047 20.2469 22.3257 20.1796 22.4359C20.1151 22.5462 20.0277 22.6349 19.9175 22.7021C19.8099 22.7666 19.6889 22.7989 19.5545 22.7989ZM22.6822 22.7989C22.4832 22.7989 22.3125 22.7277 22.17 22.5852C22.0275 22.4426 21.9562 22.2719 21.9562 22.073C21.9562 21.874 22.0275 21.7033 22.17 21.5607C22.3125 21.4182 22.4832 21.347 22.6822 21.347C22.8811 21.347 23.0519 21.4182 23.1944 21.5607C23.3369 21.7033 23.4081 21.874 23.4081 22.073C23.4081 22.2047 23.3745 22.3257 23.3073 22.4359C23.2428 22.5462 23.1554 22.6349 23.0451 22.7021C22.9376 22.7666 22.8166 22.7989 22.6822 22.7989ZM25.8098 22.7989C25.6108 22.7989 25.4401 22.7277 25.2976 22.5852C25.1551 22.4426 25.0839 22.2719 25.0839 22.073C25.0839 21.874 25.1551 21.7033 25.2976 21.5607C25.4401 21.4182 25.6108 21.347 25.8098 21.347C26.0088 21.347 26.1795 21.4182 26.322 21.5607C26.4645 21.7033 26.5358 21.874 26.5358 22.073C26.5358 22.2047 26.5022 22.3257 26.4349 22.4359C26.3704 22.5462 26.283 22.6349 26.1728 22.7021C26.0652 22.7666 25.9442 22.7989 25.8098 22.7989ZM28.9375 22.7989C28.7385 22.7989 28.5678 22.7277 28.4253 22.5852C28.2828 22.4426 28.2115 22.2719 28.2115 22.073C28.2115 21.874 28.2828 21.7033 28.4253 21.5607C28.5678 21.4182 28.7385 21.347 28.9375 21.347C29.1364 21.347 29.3072 21.4182 29.4497 21.5607C29.5922 21.7033 29.6634 21.874 29.6634 22.073C29.6634 22.2047 29.6298 22.3257 29.5626 22.4359C29.4981 22.5462 29.4107 22.6349 29.3004 22.7021C29.1929 22.7666 29.0719 22.7989 28.9375 22.7989ZM32.0651 22.7989C31.8661 22.7989 31.6954 22.7277 31.5529 22.5852C31.4104 22.4426 31.3392 22.2719 31.3392 22.073C31.3392 21.874 31.4104 21.7033 31.5529 21.5607C31.6954 21.4182 31.8661 21.347 32.0651 21.347C32.2641 21.347 32.4348 21.4182 32.5773 21.5607C32.7198 21.7033 32.7911 21.874 32.7911 22.073C32.7911 22.2047 32.7575 22.3257 32.6902 22.4359C32.6257 22.5462 32.5383 22.6349 32.4281 22.7021C32.3205 22.7666 32.1995 22.7989 32.0651 22.7989ZM35.1928 22.7989C34.9938 22.7989 34.8231 22.7277 34.6806 22.5852C34.5381 22.4426 34.4668 22.2719 34.4668 22.073C34.4668 21.874 34.5381 21.7033 34.6806 21.5607C34.8231 21.4182 34.9938 21.347 35.1928 21.347C35.3917 21.347 35.5625 21.4182 35.705 21.5607C35.8475 21.7033 35.9187 21.874 35.9187 22.073C35.9187 22.2047 35.8851 22.3257 35.8179 22.4359C35.7534 22.5462 35.666 22.6349 35.5557 22.7021C35.4482 22.7666 35.3272 22.7989 35.1928 22.7989Z" fill="#A5A9AE"/>
<path d="M21.4697 48.4492V59.808" stroke="#141B34" stroke-width="1.21684" stroke-linecap="round" stroke-linejoin="round"/>
<path d="M27.1488 54.1289H15.79" stroke="#141B34" stroke-width="1.21684" stroke-linecap="round" stroke-linejoin="round"/>
<path d="M105.242 56.1463C105.063 56.1463 104.892 56.0754 104.766 55.9491C104.639 55.8229 104.568 55.6517 104.568 55.4731V52.7802C104.568 52.4084 104.87 52.107 105.242 52.107C105.613 52.107 105.915 52.4084 105.915 52.7802V55.4731C105.915 55.6517 105.844 55.8229 105.718 55.9491C105.591 56.0754 105.42 56.1463 105.242 56.1463ZM107.934 58.1659C107.756 58.1659 107.585 58.095 107.458 57.9688C107.332 57.8425 107.261 57.6713 107.261 57.4927V50.7605C107.261 50.3887 107.563 50.0873 107.934 50.0873C108.306 50.0873 108.608 50.3887 108.608 50.7605V57.4927C108.608 57.6713 108.537 57.8425 108.411 57.9688C108.284 58.095 108.113 58.1659 107.934 58.1659ZM118.706 58.1659C118.527 58.1659 118.356 58.095 118.23 57.9688C118.104 57.8425 118.033 57.6713 118.033 57.4927V50.7605C118.033 50.3887 118.334 50.0873 118.706 50.0873C119.078 50.0873 119.379 50.3887 119.379 50.7605V57.4927C119.379 57.6713 119.308 57.8425 119.182 57.9688C119.056 58.095 118.885 58.1659 118.706 58.1659ZM110.627 60.8588C110.449 60.8588 110.278 60.7879 110.151 60.6617C110.025 60.5354 109.954 60.3642 109.954 60.1856V48.0677C109.954 47.6958 110.255 47.3945 110.627 47.3945C110.999 47.3945 111.301 47.6958 111.301 48.0677V60.1857C111.301 60.2741 111.283 60.3616 111.249 60.4433C111.215 60.525 111.166 60.5992 111.103 60.6617C111.041 60.7242 110.967 60.7738 110.885 60.8076C110.803 60.8414 110.716 60.8589 110.627 60.8588ZM121.399 60.8588C121.22 60.8588 121.049 60.7879 120.923 60.6617C120.797 60.5354 120.726 60.3642 120.726 60.1856V48.0677C120.726 47.8891 120.797 47.7179 120.923 47.5916C121.049 47.4654 121.22 47.3945 121.399 47.3945C121.577 47.3945 121.749 47.4654 121.875 47.5916C122.001 47.7179 122.072 47.8891 122.072 48.0677V60.1857C122.072 60.5575 121.771 60.8588 121.399 60.8588ZM113.32 58.1659C113.142 58.1659 112.97 58.095 112.844 57.9688C112.718 57.8425 112.647 57.6713 112.647 57.4927V50.7605C112.647 50.3887 112.948 50.0873 113.32 50.0873C113.692 50.0873 113.993 50.3887 113.993 50.7605V57.4927C113.993 57.6713 113.923 57.8425 113.796 57.9688C113.67 58.095 113.499 58.1659 113.32 58.1659ZM116.013 56.1463C115.835 56.1463 115.663 56.0754 115.537 55.9491C115.411 55.8229 115.34 55.6517 115.34 55.4731V52.7802C115.34 52.4084 115.641 52.107 116.013 52.107C116.385 52.107 116.686 52.4084 116.686 52.7802V55.4731C116.686 55.6516 116.615 55.8229 116.489 55.9491C116.363 56.0754 116.192 56.1463 116.013 56.1463ZM129.478 58.1659C129.299 58.1659 129.128 58.095 129.002 57.9687C128.875 57.8425 128.804 57.6713 128.804 57.4927V50.7605C128.804 50.582 128.875 50.4107 129.001 50.2845C129.128 50.1582 129.299 50.0873 129.478 50.0873C129.656 50.0873 129.827 50.1582 129.954 50.2845C130.08 50.4107 130.151 50.582 130.151 50.7605V57.4927C130.151 57.6713 130.08 57.8425 129.954 57.9688C129.827 58.095 129.656 58.1659 129.478 58.1659ZM126.785 60.8588C126.606 60.8588 126.435 60.7879 126.309 60.6616C126.182 60.5354 126.111 60.3642 126.111 60.1856V48.0677C126.111 47.8891 126.182 47.7179 126.309 47.5916C126.435 47.4654 126.606 47.3945 126.785 47.3945C126.963 47.3945 127.134 47.4654 127.261 47.5916C127.387 47.7179 127.458 47.8891 127.458 48.0677V60.1857C127.458 60.2741 127.44 60.3616 127.407 60.4433C127.373 60.525 127.323 60.5992 127.261 60.6617C127.198 60.7242 127.124 60.7738 127.042 60.8076C126.961 60.8414 126.873 60.8589 126.785 60.8588ZM124.092 64.225C123.913 64.225 123.742 64.154 123.616 64.0278C123.49 63.9015 123.419 63.7303 123.419 63.5518V44.7015C123.419 44.523 123.489 44.3518 123.616 44.2255C123.742 44.0992 123.913 44.0283 124.092 44.0283C124.27 44.0283 124.442 44.0992 124.568 44.2255C124.694 44.3518 124.765 44.523 124.765 44.7015V63.5518C124.765 63.7303 124.694 63.9015 124.568 64.0278C124.442 64.154 124.27 64.225 124.092 64.225ZM132.17 60.8588C131.992 60.8588 131.821 60.7879 131.694 60.6616C131.568 60.5354 131.497 60.3642 131.497 60.1856V48.0677C131.497 47.8891 131.568 47.7179 131.694 47.5916C131.821 47.4654 131.992 47.3945 132.17 47.3945C132.349 47.3945 132.52 47.4654 132.646 47.5916C132.773 47.7179 132.844 47.8891 132.844 48.0677V60.1857C132.844 60.5575 132.542 60.8588 132.17 60.8588ZM134.863 58.1659C134.685 58.1659 134.514 58.095 134.387 57.9687C134.261 57.8425 134.19 57.6713 134.19 57.4927V50.7605C134.19 50.582 134.261 50.4107 134.387 50.2845C134.513 50.1582 134.685 50.0873 134.863 50.0873C135.042 50.0873 135.213 50.1582 135.339 50.2845C135.466 50.4107 135.537 50.582 135.537 50.7605V57.4927C135.537 57.6713 135.466 57.8425 135.339 57.9688C135.213 58.095 135.042 58.1659 134.863 58.1659ZM137.556 56.1463C137.378 56.1463 137.206 56.0754 137.08 55.9491C136.954 55.8229 136.883 55.6516 136.883 55.4731V52.7802C136.883 52.6016 136.954 52.4304 137.08 52.3042C137.206 52.1779 137.378 52.107 137.556 52.107C137.735 52.107 137.906 52.1779 138.032 52.3042C138.158 52.4304 138.229 52.6016 138.229 52.7802V55.4731C138.229 55.6516 138.158 55.8229 138.032 55.9491C137.906 56.0754 137.735 56.1463 137.556 56.1463Z" fill="#BDC1C4"/>
<path d="M72.9613 56.1463C72.7828 56.1463 72.6115 56.0754 72.4853 55.9491C72.359 55.8229 72.2881 55.6517 72.2881 55.4731V52.7802C72.2881 52.4084 72.5895 52.107 72.9613 52.107C73.3331 52.107 73.6345 52.4084 73.6345 52.7802V55.4731C73.6345 55.6517 73.5636 55.8229 73.4374 55.9491C73.3111 56.0754 73.1399 56.1463 72.9613 56.1463ZM75.6542 58.1659C75.4757 58.1659 75.3044 58.095 75.1782 57.9688C75.0519 57.8425 74.981 57.6713 74.981 57.4927V50.7605C74.981 50.3887 75.2824 50.0873 75.6542 50.0873C76.0261 50.0873 76.3274 50.3887 76.3274 50.7605V57.4927C76.3274 57.6713 76.2565 57.8425 76.1303 57.9688C76.004 58.095 75.8328 58.1659 75.6542 58.1659ZM86.4257 58.1659C86.2472 58.1659 86.0759 58.095 85.9497 57.9688C85.8234 57.8425 85.7525 57.6713 85.7525 57.4927V50.7605C85.7525 50.3887 86.0539 50.0873 86.4257 50.0873C86.7975 50.0873 87.0989 50.3887 87.0989 50.7605V57.4927C87.0989 57.6713 87.028 57.8425 86.9017 57.9688C86.7755 58.095 86.6043 58.1659 86.4257 58.1659ZM78.3471 60.8588C78.1685 60.8588 77.9973 60.7879 77.871 60.6617C77.7448 60.5354 77.6738 60.3642 77.6738 60.1856V48.0677C77.6738 47.6958 77.9752 47.3945 78.3471 47.3945C78.7189 47.3945 79.0203 47.6958 79.0203 48.0677V60.1857C79.0203 60.2741 79.0029 60.3616 78.969 60.4433C78.9352 60.525 78.8856 60.5992 78.8231 60.6617C78.7606 60.7242 78.6864 60.7738 78.6047 60.8076C78.523 60.8414 78.4355 60.8589 78.3471 60.8588ZM89.1186 60.8588C88.9401 60.8588 88.7688 60.7879 88.6426 60.6617C88.5163 60.5354 88.4454 60.3642 88.4454 60.1856V48.0677C88.4454 47.8891 88.5163 47.7179 88.6426 47.5916C88.7688 47.4654 88.9401 47.3945 89.1186 47.3945C89.2972 47.3945 89.4684 47.4654 89.5947 47.5916C89.7209 47.7179 89.7918 47.8891 89.7918 48.0677V60.1857C89.7918 60.5575 89.4904 60.8588 89.1186 60.8588ZM81.04 58.1659C80.8614 58.1659 80.6902 58.095 80.5639 57.9688C80.4377 57.8425 80.3667 57.6713 80.3667 57.4927V50.7605C80.3667 50.3887 80.6681 50.0873 81.04 50.0873C81.4118 50.0873 81.7132 50.3887 81.7132 50.7605V57.4927C81.7132 57.6713 81.6423 57.8425 81.516 57.9688C81.3898 58.095 81.2185 58.1659 81.04 58.1659ZM83.7329 56.1463C83.5543 56.1463 83.3831 56.0754 83.2568 55.9491C83.1306 55.8229 83.0596 55.6517 83.0596 55.4731V52.7802C83.0596 52.4084 83.361 52.107 83.7329 52.107C84.1047 52.107 84.4061 52.4084 84.4061 52.7802V55.4731C84.4061 55.6516 84.3351 55.8229 84.2089 55.9491C84.0826 56.0754 83.9114 56.1463 83.7329 56.1463ZM97.1973 58.1659C97.0187 58.1659 96.8475 58.095 96.7212 57.9687C96.595 57.8425 96.5241 57.6713 96.524 57.4927V50.7605C96.524 50.582 96.595 50.4107 96.7212 50.2845C96.8475 50.1582 97.0187 50.0873 97.1973 50.0873C97.3758 50.0873 97.547 50.1582 97.6733 50.2845C97.7996 50.4107 97.8705 50.582 97.8705 50.7605V57.4927C97.8705 57.6713 97.7996 57.8425 97.6733 57.9688C97.547 58.095 97.3758 58.1659 97.1973 58.1659ZM94.5044 60.8588C94.3258 60.8588 94.1546 60.7879 94.0283 60.6616C93.9021 60.5354 93.8311 60.3642 93.8311 60.1856V48.0677C93.8311 47.8891 93.9021 47.7179 94.0283 47.5916C94.1546 47.4654 94.3258 47.3945 94.5044 47.3945C94.6829 47.3945 94.8541 47.4654 94.9804 47.5916C95.1066 47.7179 95.1776 47.8891 95.1776 48.0677V60.1857C95.1776 60.2741 95.1602 60.3616 95.1263 60.4433C95.0925 60.525 95.0429 60.5992 94.9804 60.6617C94.9179 60.7242 94.8437 60.7738 94.762 60.8076C94.6803 60.8414 94.5928 60.8589 94.5044 60.8588ZM91.8115 64.225C91.633 64.225 91.4617 64.154 91.3355 64.0278C91.2092 63.9015 91.1383 63.7303 91.1383 63.5518V44.7015C91.1383 44.523 91.2092 44.3518 91.3355 44.2255C91.4617 44.0992 91.633 44.0283 91.8115 44.0283C91.9901 44.0283 92.1613 44.0992 92.2876 44.2255C92.4138 44.3518 92.4847 44.523 92.4847 44.7015V63.5518C92.4847 63.7303 92.4138 63.9015 92.2875 64.0278C92.1613 64.154 91.9901 64.225 91.8115 64.225ZM99.8902 60.8588C99.7116 60.8588 99.5404 60.7879 99.4141 60.6616C99.2879 60.5354 99.217 60.3642 99.2169 60.1856V48.0677C99.2169 47.8891 99.2879 47.7179 99.4141 47.5916C99.5404 47.4654 99.7116 47.3945 99.8902 47.3945C100.069 47.3945 100.24 47.4654 100.366 47.5916C100.492 47.7179 100.563 47.8891 100.563 48.0677V60.1857C100.563 60.5575 100.262 60.8588 99.8902 60.8588ZM102.583 58.1659C102.404 58.1659 102.233 58.095 102.107 57.9687C101.981 57.8425 101.91 57.6713 101.91 57.4927V50.7605C101.91 50.582 101.981 50.4107 102.107 50.2845C102.233 50.1582 102.404 50.0873 102.583 50.0873C102.762 50.0873 102.933 50.1582 103.059 50.2845C103.185 50.4107 103.256 50.582 103.256 50.7605V57.4927C103.256 57.6713 103.185 57.8425 103.059 57.9688C102.933 58.095 102.762 58.1659 102.583 58.1659ZM105.276 56.1463C105.097 56.1463 104.926 56.0754 104.8 55.9491C104.674 55.8229 104.603 55.6516 104.603 55.4731V52.7802C104.603 52.6016 104.674 52.4304 104.8 52.3042C104.926 52.1779 105.097 52.107 105.276 52.107C105.454 52.107 105.626 52.1779 105.752 52.3042C105.878 52.4304 105.949 52.6016 105.949 52.7802V55.4731C105.949 55.6516 105.878 55.8229 105.752 55.9491C105.626 56.0754 105.454 56.1463 105.276 56.1463Z" fill="#303030"/>
<path d="M137.223 56.1463C137.044 56.1463 136.873 56.0754 136.747 55.9491C136.621 55.8229 136.55 55.6517 136.55 55.4731V52.7802C136.55 52.4084 136.851 52.107 137.223 52.107C137.595 52.107 137.896 52.4084 137.896 52.7802V55.4731C137.896 55.6517 137.825 55.8229 137.699 55.9491C137.573 56.0754 137.402 56.1463 137.223 56.1463ZM139.916 58.1659C139.737 58.1659 139.566 58.095 139.44 57.9688C139.314 57.8425 139.243 57.6713 139.243 57.4927V50.7605C139.243 50.3887 139.544 50.0873 139.916 50.0873C140.288 50.0873 140.589 50.3887 140.589 50.7605V57.4927C140.589 57.6713 140.518 57.8425 140.392 57.9688C140.266 58.095 140.094 58.1659 139.916 58.1659ZM150.687 58.1659C150.509 58.1659 150.338 58.095 150.211 57.9688C150.085 57.8425 150.014 57.6713 150.014 57.4927V50.7605C150.014 50.3887 150.316 50.0873 150.687 50.0873C151.059 50.0873 151.361 50.3887 151.361 50.7605V57.4927C151.361 57.6713 151.29 57.8425 151.163 57.9688C151.037 58.095 150.866 58.1659 150.687 58.1659ZM142.609 60.8588C142.43 60.8588 142.259 60.7879 142.133 60.6617C142.006 60.5354 141.936 60.3642 141.936 60.1856V48.0677C141.936 47.6958 142.237 47.3945 142.609 47.3945C142.981 47.3945 143.282 47.6958 143.282 48.0677V60.1857C143.282 60.2741 143.265 60.3616 143.231 60.4433C143.197 60.525 143.147 60.5992 143.085 60.6617C143.022 60.7242 142.948 60.7738 142.866 60.8076C142.785 60.8414 142.697 60.8589 142.609 60.8588ZM153.38 60.8588C153.202 60.8588 153.031 60.7879 152.904 60.6617C152.778 60.5354 152.707 60.3642 152.707 60.1856V48.0677C152.707 47.8891 152.778 47.7179 152.904 47.5916C153.031 47.4654 153.202 47.3945 153.38 47.3945C153.559 47.3945 153.73 47.4654 153.856 47.5916C153.983 47.7179 154.054 47.8891 154.054 48.0677V60.1857C154.054 60.5575 153.752 60.8588 153.38 60.8588ZM145.302 58.1659C145.123 58.1659 144.952 58.095 144.826 57.9688C144.699 57.8425 144.628 57.6713 144.628 57.4927V50.7605C144.628 50.3887 144.93 50.0873 145.302 50.0873C145.674 50.0873 145.975 50.3887 145.975 50.7605V57.4927C145.975 57.6713 145.904 57.8425 145.778 57.9688C145.651 58.095 145.48 58.1659 145.302 58.1659ZM147.995 56.1463C147.816 56.1463 147.645 56.0754 147.519 55.9491C147.392 55.8229 147.321 55.6517 147.321 55.4731V52.7802C147.321 52.4084 147.623 52.107 147.995 52.107C148.366 52.107 148.668 52.4084 148.668 52.7802V55.4731C148.668 55.6516 148.597 55.8229 148.471 55.9491C148.344 56.0754 148.173 56.1463 147.995 56.1463ZM161.459 58.1659C161.28 58.1659 161.109 58.095 160.983 57.9687C160.857 57.8425 160.786 57.6713 160.786 57.4927V50.7605C160.786 50.582 160.857 50.4107 160.983 50.2845C161.109 50.1582 161.28 50.0873 161.459 50.0873C161.638 50.0873 161.809 50.1582 161.935 50.2845C162.061 50.4107 162.132 50.582 162.132 50.7605V57.4927C162.132 57.6713 162.061 57.8425 161.935 57.9688C161.809 58.095 161.638 58.1659 161.459 58.1659ZM158.766 60.8588C158.588 60.8588 158.416 60.7879 158.29 60.6616C158.164 60.5354 158.093 60.3642 158.093 60.1856V48.0677C158.093 47.8891 158.164 47.7179 158.29 47.5916C158.416 47.4654 158.588 47.3945 158.766 47.3945C158.945 47.3945 159.116 47.4654 159.242 47.5916C159.368 47.7179 159.439 47.8891 159.439 48.0677V60.1857C159.439 60.2741 159.422 60.3616 159.388 60.4433C159.354 60.525 159.305 60.5992 159.242 60.6617C159.18 60.7242 159.105 60.7738 159.024 60.8076C158.942 60.8414 158.854 60.8589 158.766 60.8588ZM156.073 64.225C155.895 64.225 155.723 64.154 155.597 64.0278C155.471 63.9015 155.4 63.7303 155.4 63.5518V44.7015C155.4 44.523 155.471 44.3518 155.597 44.2255C155.723 44.0992 155.895 44.0283 156.073 44.0283C156.252 44.0283 156.423 44.0992 156.549 44.2255C156.676 44.3518 156.746 44.523 156.746 44.7015V63.5518C156.746 63.7303 156.676 63.9015 156.549 64.0278C156.423 64.154 156.252 64.225 156.073 64.225ZM164.152 60.8588C163.973 60.8588 163.802 60.7879 163.676 60.6616C163.55 60.5354 163.479 60.3642 163.479 60.1856V48.0677C163.479 47.8891 163.55 47.7179 163.676 47.5916C163.802 47.4654 163.973 47.3945 164.152 47.3945C164.33 47.3945 164.502 47.4654 164.628 47.5916C164.754 47.7179 164.825 47.8891 164.825 48.0677V60.1857C164.825 60.5575 164.524 60.8588 164.152 60.8588ZM166.845 58.1659C166.666 58.1659 166.495 58.095 166.369 57.9687C166.242 57.8425 166.172 57.6713 166.171 57.4927V50.7605C166.171 50.582 166.242 50.4107 166.369 50.2845C166.495 50.1582 166.666 50.0873 166.845 50.0873C167.023 50.0873 167.195 50.1582 167.321 50.2845C167.447 50.4107 167.518 50.582 167.518 50.7605V57.4927C167.518 57.6713 167.447 57.8425 167.321 57.9688C167.195 58.095 167.023 58.1659 166.845 58.1659ZM169.538 56.1463C169.359 56.1463 169.188 56.0754 169.062 55.9491C168.935 55.8229 168.864 55.6516 168.864 55.4731V52.7802C168.864 52.6016 168.935 52.4304 169.062 52.3042C169.188 52.1779 169.359 52.107 169.538 52.107C169.716 52.107 169.887 52.1779 170.014 52.3042C170.14 52.4304 170.211 52.6016 170.211 52.7802V55.4731C170.211 55.6516 170.14 55.8229 170.014 55.9491C169.887 56.0754 169.716 56.1463 169.538 56.1463Z" fill="#BDC1C4"/>
<path d="M169.353 56.1464C169.174 56.1464 169.003 56.0755 168.877 55.9492C168.751 55.823 168.68 55.6517 168.68 55.4732V52.7803C168.68 52.4084 168.981 52.107 169.353 52.107C169.725 52.107 170.026 52.4084 170.026 52.7803V55.4732C170.026 55.6517 169.955 55.823 169.829 55.9492C169.703 56.0755 169.531 56.1464 169.353 56.1464ZM172.046 58.166C171.867 58.166 171.696 58.0951 171.57 57.9688C171.444 57.8426 171.373 57.6713 171.373 57.4928V50.7606C171.373 50.3888 171.674 50.0874 172.046 50.0874C172.418 50.0874 172.719 50.3888 172.719 50.7606V57.4928C172.719 57.6713 172.648 57.8426 172.522 57.9688C172.396 58.0951 172.224 58.166 172.046 58.166ZM182.817 58.166C182.639 58.166 182.468 58.0951 182.341 57.9688C182.215 57.8426 182.144 57.6713 182.144 57.4928V50.7606C182.144 50.3888 182.445 50.0874 182.817 50.0874C183.189 50.0874 183.491 50.3888 183.491 50.7606V57.4928C183.491 57.6713 183.42 57.8426 183.293 57.9688C183.167 58.0951 182.996 58.166 182.817 58.166ZM174.739 60.8589C174.56 60.8589 174.389 60.788 174.263 60.6617C174.136 60.5355 174.065 60.3642 174.065 60.1857V48.0678C174.065 47.6959 174.367 47.3945 174.739 47.3945C175.11 47.3945 175.412 47.6959 175.412 48.0678V60.1858C175.412 60.2742 175.394 60.3617 175.361 60.4434C175.327 60.5251 175.277 60.5993 175.215 60.6618C175.152 60.7243 175.078 60.7739 174.996 60.8077C174.915 60.8415 174.827 60.8589 174.739 60.8589ZM185.51 60.8589C185.332 60.8589 185.16 60.788 185.034 60.6617C184.908 60.5355 184.837 60.3642 184.837 60.1857V48.0678C184.837 47.8892 184.908 47.718 185.034 47.5917C185.16 47.4655 185.332 47.3945 185.51 47.3945C185.689 47.3945 185.86 47.4655 185.986 47.5917C186.113 47.718 186.183 47.8892 186.183 48.0678V60.1858C186.183 60.5575 185.882 60.8589 185.51 60.8589ZM177.432 58.166C177.253 58.166 177.082 58.0951 176.956 57.9688C176.829 57.8426 176.758 57.6713 176.758 57.4928V50.7606C176.758 50.3888 177.06 50.0874 177.432 50.0874C177.803 50.0874 178.105 50.3888 178.105 50.7606V57.4928C178.105 57.6713 178.034 57.8426 177.908 57.9688C177.781 58.0951 177.61 58.166 177.432 58.166ZM180.124 56.1464C179.946 56.1464 179.775 56.0755 179.648 55.9492C179.522 55.823 179.451 55.6517 179.451 55.4732V52.7803C179.451 52.4084 179.753 52.107 180.124 52.107C180.496 52.107 180.798 52.4084 180.798 52.7803V55.4732C180.798 55.6517 180.727 55.823 180.6 55.9492C180.474 56.0755 180.303 56.1464 180.124 56.1464Z" fill="#BDC1C4"/>
<path d="M193.607 57.2092C192.994 57.2092 192.503 56.9708 192.136 56.494C191.769 56.0172 191.585 55.3239 191.585 54.4142C191.585 53.5045 191.769 52.8112 192.136 52.3345C192.503 51.8577 192.994 51.6193 193.607 51.6193C194.227 51.6193 194.717 51.8577 195.079 52.3345C195.446 52.8112 195.63 53.5045 195.63 54.4142C195.63 55.3239 195.446 56.0172 195.079 56.494C194.717 56.9708 194.227 57.2092 193.607 57.2092ZM193.607 56.6173C193.898 56.6173 194.142 56.5351 194.339 56.3707C194.542 56.2008 194.692 55.9514 194.791 55.6226C194.895 55.2938 194.947 54.891 194.947 54.4142C194.947 53.9374 194.895 53.5346 194.791 53.2058C194.692 52.877 194.542 52.6304 194.339 52.466C194.142 52.2961 193.898 52.2111 193.607 52.2111C193.317 52.2111 193.07 52.2961 192.867 52.466C192.67 52.6304 192.519 52.877 192.415 53.2058C192.317 53.5346 192.267 53.9374 192.267 54.4142C192.267 54.891 192.317 55.2938 192.415 55.6226C192.519 55.9514 192.67 56.2008 192.867 56.3707C193.07 56.5351 193.317 56.6173 193.607 56.6173ZM196.893 56.1405C197.052 56.1405 197.18 56.1898 197.279 56.2885C197.378 56.3871 197.427 56.5159 197.427 56.6748C197.427 56.8338 197.378 56.9625 197.279 57.0612C197.18 57.1598 197.052 57.2092 196.893 57.2092C196.734 57.2092 196.605 57.1598 196.506 57.0612C196.408 56.9625 196.358 56.8338 196.358 56.6748C196.358 56.5159 196.408 56.3871 196.506 56.2885C196.605 56.1898 196.734 56.1405 196.893 56.1405ZM200.174 57.2092C199.561 57.2092 199.07 56.9708 198.703 56.494C198.336 56.0172 198.152 55.3239 198.152 54.4142C198.152 53.5045 198.336 52.8112 198.703 52.3345C199.07 51.8577 199.561 51.6193 200.174 51.6193C200.794 51.6193 201.284 51.8577 201.646 52.3345C202.013 52.8112 202.197 53.5045 202.197 54.4142C202.197 55.3239 202.013 56.0172 201.646 56.494C201.284 56.9708 200.794 57.2092 200.174 57.2092ZM200.174 56.6173C200.465 56.6173 200.709 56.5351 200.906 56.3707C201.109 56.2008 201.259 55.9514 201.358 55.6226C201.462 55.2938 201.514 54.891 201.514 54.4142C201.514 53.9374 201.462 53.5346 201.358 53.2058C201.259 52.877 201.109 52.6304 200.906 52.466C200.709 52.2961 200.465 52.2111 200.174 52.2111C199.884 52.2111 199.637 52.2961 199.435 52.466C199.237 52.6304 199.087 52.877 198.982 53.2058C198.884 53.5346 198.834 53.9374 198.834 54.4142C198.834 54.891 198.884 55.2938 198.982 55.6226C199.087 55.9514 199.237 56.2008 199.435 56.3707C199.637 56.5351 199.884 56.6173 200.174 56.6173ZM204.926 57.2092C204.444 57.2092 204.055 57.0996 203.759 56.8803C203.469 56.6611 203.244 56.357 203.085 55.9679L203.726 55.6308C203.814 55.9158 203.948 56.1487 204.129 56.3296C204.315 56.5049 204.587 56.5926 204.943 56.5926C205.195 56.5926 205.409 56.546 205.584 56.4529C205.765 56.3597 205.905 56.2282 206.003 56.0583C206.102 55.8829 206.151 55.6747 206.151 55.4335C206.151 55.176 206.105 54.9622 206.011 54.7924C205.924 54.617 205.795 54.4855 205.625 54.3978C205.455 54.3101 205.247 54.2663 205 54.2663C204.825 54.2663 204.661 54.2854 204.507 54.3238C204.359 54.3567 204.225 54.4115 204.104 54.4882C203.984 54.5649 203.88 54.6663 203.792 54.7924L203.216 54.6855L203.537 51.7015H206.587V52.318H204.096L203.882 54.0279L203.866 54.1018H203.882C204.014 53.9648 204.181 53.8552 204.384 53.773C204.592 53.6908 204.839 53.6497 205.124 53.6497C205.469 53.6497 205.768 53.7237 206.02 53.8717C206.277 54.0142 206.477 54.2169 206.62 54.48C206.762 54.743 206.833 55.0499 206.833 55.4007C206.833 55.6802 206.787 55.9323 206.694 56.1569C206.601 56.3816 206.469 56.5734 206.299 56.7324C206.129 56.8858 205.926 57.0036 205.691 57.0859C205.461 57.1681 205.206 57.2092 204.926 57.2092Z" fill="#A5A9AE"/>
<rect x="208.051" y="38.7139" width="30.8265" height="30.8265" rx="15.4133" fill="white"/>
<path d="M223.493 48.2109C224.577 48.2109 225.43 48.2109 226.109 48.2825C226.803 48.3557 227.374 48.5082 227.866 48.8528C228.205 49.0903 228.5 49.3852 228.737 49.7244C229.082 50.2165 229.234 50.7866 229.308 51.4808C229.379 52.1598 229.379 53.0132 229.379 54.0966V54.1556C229.379 55.239 229.379 56.0924 229.308 56.7714C229.234 57.4656 229.082 58.0357 228.737 58.5279C228.5 58.867 228.205 59.162 227.866 59.3994C227.374 59.744 226.803 59.8966 226.109 59.9697C225.43 60.0413 224.577 60.0413 223.493 60.0413H223.435C222.351 60.0413 221.498 60.0413 220.819 59.9697C220.125 59.8966 219.554 59.744 219.062 59.3994C218.723 59.162 218.428 58.867 218.191 58.5279C217.846 58.0357 217.694 57.4656 217.62 56.7714C217.549 56.0924 217.549 55.239 217.549 54.1556V54.0966C217.549 53.0132 217.549 52.1598 217.62 51.4808C217.694 50.7866 217.846 50.2165 218.191 49.7244C218.428 49.3852 218.723 49.0903 219.062 48.8528C219.554 48.5082 220.125 48.3557 220.819 48.2825C221.498 48.2109 222.351 48.2109 223.435 48.2109H223.493Z" fill="#303030"/>
<rect x="243.744" y="41.1475" width="25.9592" height="25.9592" rx="12.9796" fill="#303030"/>
<path d="M256.725 48.8545V59.806" stroke="white" stroke-width="1.21684" stroke-linecap="round" stroke-linejoin="round"/>
<path d="M261.591 53.3166C261.591 53.3166 258.006 48.4492 256.724 48.4492C255.441 48.4492 251.856 53.3166 251.856 53.3166" stroke="white" stroke-width="1.21684" stroke-linecap="round" stroke-linejoin="round"/>
</g>
<defs>
<filter id="filter0_d_4367_26361" x="0" y="0" width="281.438" height="81.2754" filterUnits="userSpaceOnUse" color-interpolation-filters="sRGB">
<feFlood flood-opacity="0" result="BackgroundImageFix"/>
<feColorMatrix in="SourceAlpha" type="matrix" values="0 0 0 0 0 0 0 0 0 0 0 0 0 0 0 0 0 0 127 0" result="hardAlpha"/>
<feOffset/>
<feGaussianBlur stdDeviation="1"/>
<feComposite in2="hardAlpha" operator="out"/>
<feColorMatrix type="matrix" values="0 0 0 0 0 0 0 0 0 0 0 0 0 0 0 0 0 0 0.24 0"/>
<feBlend mode="normal" in2="BackgroundImageFix" result="effect1_dropShadow_4367_26361"/>
<feBlend mode="normal" in="SourceGraphic" in2="effect1_dropShadow_4367_26361" result="shape"/>
</filter>
</defs>
</svg>
