<svg width="15" height="78" viewBox="0 0 15 78" fill="none" xmlns="http://www.w3.org/2000/svg">
<path d="M6.65715 77.7071C7.04768 78.0976 7.68084 78.0976 8.07136 77.7071L14.4353 71.3431C14.8259 70.9526 14.8259 70.3195 14.4353 69.9289C14.0448 69.5384 13.4116 69.5384 13.0211 69.9289L7.36426 75.5858L1.7074 69.9289C1.31688 69.5384 0.683714 69.5384 0.29319 69.9289C-0.0973344 70.3195 -0.0973344 70.9526 0.29319 71.3431L6.65715 77.7071ZM7.36426 0H6.36426V1.87327H7.36426H8.36426V0H7.36426ZM7.36426 5.61981H6.36426V9.36636H7.36426H8.36426V5.61981H7.36426ZM7.36426 13.1129H6.36426V16.8594H7.36426H8.36426V13.1129H7.36426ZM7.36426 20.606H6.36426V24.3525H7.36426H8.36426V20.606H7.36426ZM7.36426 28.0991H6.36426V31.8456H7.36426H8.36426V28.0991H7.36426ZM7.36426 35.5922H6.36426V37.4654H7.36426H8.36426V35.5922H7.36426ZM7.36426 37.4654H6.36426V39.4422H7.36426H8.36426V37.4654H7.36426ZM7.36426 43.3956H6.36426V47.3491H7.36426H8.36426V43.3956H7.36426ZM7.36426 51.3025H6.36426V55.256H7.36426H8.36426V51.3025H7.36426ZM7.36426 59.2094H6.36426V63.1629H7.36426H8.36426V59.2094H7.36426ZM7.36426 67.1164H6.36426V71.0698H7.36426H8.36426V67.1164H7.36426ZM7.36426 75.0233H6.36426V77H7.36426H8.36426V75.0233H7.36426Z" fill="#A5A9AE"/>
</svg>
