<svg width="37" height="15" viewBox="0 0 37 15" fill="none" xmlns="http://www.w3.org/2000/svg">
<path d="M-6.53267e-05 7.36401L5.77344 13.1375L11.5469 7.36401L5.77344 1.59051L-6.53267e-05 7.36401ZM36.4805 8.07112C36.8711 7.6806 36.8711 7.04743 36.4805 6.65691L30.1166 0.292946C29.7261 -0.0975785 29.0929 -0.0975785 28.7024 0.292946C28.3118 0.68347 28.3118 1.31664 28.7024 1.70716L34.3592 7.36401L28.7024 13.0209C28.3118 13.4114 28.3118 14.0446 28.7024 14.4351C29.0929 14.8256 29.7261 14.8256 30.1166 14.4351L36.4805 8.07112ZM5.77344 7.36401V8.36401H35.7734V7.36401V6.36401H5.77344V7.36401Z" fill="#5F6266"/>
</svg>
