<svg width="178" height="68" viewBox="0 0 178 68" fill="none" xmlns="http://www.w3.org/2000/svg">
<g filter="url(#filter0_d_4367_26297)">
<rect x="1.38379" y="1.38379" width="175.039" height="65" rx="6.14173" fill="white" shape-rendering="crispEdges"/>
<rect x="1.63969" y="1.63969" width="174.528" height="64.4882" rx="5.88583" stroke="#B12CCF" stroke-width="0.511811" stroke-dasharray="1.62 1.62" shape-rendering="crispEdges"/>
<path d="M7.87144 11.5156V10.9558H11.7798V11.5156H10.1412V16.167H9.51011V11.5156H7.87144ZM12.6112 17.6326C12.5095 17.6326 12.4187 17.6242 12.339 17.6072C12.2592 17.5919 12.2041 17.5767 12.1736 17.5614L12.3263 17.0321C12.4721 17.0694 12.6011 17.083 12.713 17.0728C12.825 17.0627 12.9242 17.0126 13.0107 16.9227C13.0989 16.8345 13.1795 16.6912 13.2525 16.4927L13.3644 16.1873L11.9191 12.2586H12.5705L13.6494 15.3731H13.6901L14.769 12.2586H15.4204L13.7614 16.737C13.6867 16.9388 13.5943 17.1059 13.484 17.2382C13.3737 17.3722 13.2457 17.4715 13.0998 17.5359C12.9556 17.6004 12.7927 17.6326 12.6112 17.6326ZM16.213 17.6326V12.2586H16.7931V12.8795H16.8644C16.9085 12.8116 16.9696 12.7251 17.0476 12.6199C17.1273 12.5131 17.241 12.4181 17.3886 12.335C17.5378 12.2501 17.7397 12.2077 17.9942 12.2077C18.3233 12.2077 18.6133 12.29 18.8644 12.4545C19.1154 12.6191 19.3114 12.8523 19.4522 13.1543C19.593 13.4562 19.6634 13.8125 19.6634 14.223C19.6634 14.6369 19.593 14.9957 19.4522 15.2993C19.3114 15.6013 19.1163 15.8354 18.8669 16.0016C18.6176 16.1661 18.33 16.2484 18.0043 16.2484C17.7533 16.2484 17.5523 16.2069 17.4013 16.1237C17.2503 16.0389 17.1341 15.9431 17.0527 15.8362C16.9713 15.7276 16.9085 15.6377 16.8644 15.5665H16.8135V17.6326H16.213ZM16.8033 14.2128C16.8033 14.508 16.8466 14.7684 16.9331 14.994C17.0196 15.2179 17.146 15.3935 17.3122 15.5207C17.4785 15.6462 17.682 15.709 17.9229 15.709C18.174 15.709 18.3835 15.6428 18.5514 15.5105C18.721 15.3765 18.8483 15.1967 18.9331 14.9711C19.0196 14.7438 19.0629 14.491 19.0629 14.2128C19.0629 13.938 19.0204 13.6903 18.9356 13.4698C18.8525 13.2476 18.7261 13.072 18.5565 12.9431C18.3886 12.8125 18.1774 12.7472 17.9229 12.7472C17.6786 12.7472 17.4734 12.8091 17.3071 12.9329C17.1409 13.0551 17.0154 13.2264 16.9306 13.4469C16.8457 13.6657 16.8033 13.921 16.8033 14.2128ZM22.2181 16.2484C21.8415 16.2484 21.5166 16.1653 21.2435 15.9991C20.9721 15.8311 20.7626 15.597 20.615 15.2968C20.4691 14.9948 20.3962 14.6437 20.3962 14.2433C20.3962 13.843 20.4691 13.4902 20.615 13.1848C20.7626 12.8778 20.9679 12.6386 21.2308 12.4673C21.4954 12.2942 21.8041 12.2077 22.157 12.2077C22.3605 12.2077 22.5616 12.2417 22.76 12.3095C22.9585 12.3774 23.1392 12.4876 23.302 12.6403C23.4649 12.7913 23.5946 12.9914 23.6913 13.2408C23.788 13.4902 23.8364 13.7972 23.8364 14.1619V14.4164H20.8237V13.8973H23.2257C23.2257 13.6768 23.1816 13.48 23.0934 13.307C23.0069 13.1339 22.883 12.9974 22.7219 12.8973C22.5624 12.7972 22.3741 12.7472 22.157 12.7472C21.9178 12.7472 21.7108 12.8065 21.5361 12.9253C21.3631 13.0423 21.2299 13.195 21.1366 13.3833C21.0433 13.5716 20.9967 13.7735 20.9967 13.9889V14.3349C20.9967 14.6301 21.0476 14.8803 21.1494 15.0856C21.2528 15.2891 21.3962 15.4443 21.5794 15.5512C21.7626 15.6564 21.9755 15.709 22.2181 15.709C22.3758 15.709 22.5183 15.6869 22.6455 15.6428C22.7745 15.597 22.8856 15.5292 22.9789 15.4393C23.0722 15.3477 23.1443 15.234 23.1951 15.0983L23.7753 15.2611C23.7142 15.4579 23.6116 15.6309 23.4674 15.7802C23.3232 15.9278 23.1451 16.0432 22.9331 16.1263C22.721 16.2077 22.4827 16.2484 22.2181 16.2484Z" fill="#A5A9AE"/>
<path d="M34.7606 11.1076L30.1543 15.7139" stroke="#5F6266" stroke-width="1.02362" stroke-linecap="round" stroke-linejoin="round"/>
<path d="M32.7129 8.54883C33.8514 8.54883 34.7311 8.54788 35.4141 8.63965C36.1045 8.73247 36.6324 8.92444 37.0439 9.33594C37.4553 9.74734 37.6464 10.2747 37.7393 10.9648C37.8311 11.6479 37.8311 12.5282 37.8311 13.667C37.8311 14.8055 37.831 15.6852 37.7393 16.3682C37.6464 17.0586 37.4554 17.5865 37.0439 17.998C36.6324 18.4095 36.1045 18.6005 35.4141 18.6934C34.7311 18.7851 33.8514 18.7852 32.7129 18.7852C31.5741 18.7852 30.6938 18.7852 30.0107 18.6934C29.3206 18.6005 28.7932 18.4094 28.3818 17.998C27.9703 17.5865 27.7784 17.0586 27.6855 16.3682C27.5938 15.6852 27.5947 14.8055 27.5947 13.667C27.5947 12.5282 27.5937 11.6479 27.6855 10.9648C27.7784 10.2746 27.9704 9.74738 28.3818 9.33594C28.7933 8.9245 29.3205 8.73249 30.0107 8.63965C30.6938 8.54782 31.5741 8.54883 32.7129 8.54883Z" stroke="#A5A9AE" stroke-width="0.511811"/>
<path d="M41.2494 11.5156V10.9558H45.1577V11.5156H43.5191V16.167H42.888V11.5156H41.2494ZM45.9892 17.6326C45.8874 17.6326 45.7966 17.6242 45.7169 17.6072C45.6372 17.5919 45.582 17.5767 45.5515 17.5614L45.7042 17.0321C45.8501 17.0694 45.979 17.083 46.0909 17.0728C46.2029 17.0627 46.3021 17.0126 46.3887 16.9227C46.4769 16.8345 46.5574 16.6912 46.6304 16.4927L46.7423 16.1873L45.2971 12.2586H45.9485L47.0273 15.3731H47.068L48.1469 12.2586H48.7983L47.1393 16.737C47.0647 16.9388 46.9722 17.1059 46.8619 17.2382C46.7517 17.3722 46.6236 17.4715 46.4777 17.5359C46.3335 17.6004 46.1707 17.6326 45.9892 17.6326ZM49.5909 17.6326V12.2586H50.1711V12.8795H50.2423C50.2864 12.8116 50.3475 12.7251 50.4255 12.6199C50.5053 12.5131 50.6189 12.4181 50.7665 12.335C50.9158 12.2501 51.1176 12.2077 51.3721 12.2077C51.7012 12.2077 51.9913 12.29 52.2423 12.4545C52.4934 12.6191 52.6893 12.8523 52.8301 13.1543C52.9709 13.4562 53.0413 13.8125 53.0413 14.223C53.0413 14.6369 52.9709 14.9957 52.8301 15.2993C52.6893 15.6013 52.4942 15.8354 52.2449 16.0016C51.9955 16.1661 51.708 16.2484 51.3823 16.2484C51.1312 16.2484 50.9302 16.2069 50.7792 16.1237C50.6282 16.0389 50.512 15.9431 50.4306 15.8362C50.3492 15.7276 50.2864 15.6377 50.2423 15.5665H50.1914V17.6326H49.5909ZM50.1813 14.2128C50.1813 14.508 50.2245 14.7684 50.311 14.994C50.3975 15.2179 50.5239 15.3935 50.6902 15.5207C50.8564 15.6462 51.06 15.709 51.3008 15.709C51.5519 15.709 51.7614 15.6428 51.9293 15.5105C52.099 15.3765 52.2262 15.1967 52.311 14.9711C52.3975 14.7438 52.4408 14.491 52.4408 14.2128C52.4408 13.938 52.3984 13.6903 52.3136 13.4698C52.2304 13.2476 52.1041 13.072 51.9344 12.9431C51.7665 12.8125 51.5553 12.7472 51.3008 12.7472C51.0566 12.7472 50.8513 12.8091 50.6851 12.9329C50.5188 13.0551 50.3933 13.2264 50.3085 13.4469C50.2237 13.6657 50.1813 13.921 50.1813 14.2128ZM55.596 16.2484C55.2194 16.2484 54.8945 16.1653 54.6214 15.9991C54.35 15.8311 54.1405 15.597 53.9929 15.2968C53.8471 14.9948 53.7741 14.6437 53.7741 14.2433C53.7741 13.843 53.8471 13.4902 53.9929 13.1848C54.1405 12.8778 54.3458 12.6386 54.6087 12.4673C54.8733 12.2942 55.1821 12.2077 55.5349 12.2077C55.7385 12.2077 55.9395 12.2417 56.138 12.3095C56.3364 12.3774 56.5171 12.4876 56.6799 12.6403C56.8428 12.7913 56.9726 12.9914 57.0693 13.2408C57.166 13.4902 57.2143 13.7972 57.2143 14.1619V14.4164H54.2016V13.8973H56.6036C56.6036 13.6768 56.5595 13.48 56.4713 13.307C56.3848 13.1339 56.261 12.9974 56.0998 12.8973C55.9403 12.7972 55.752 12.7472 55.5349 12.7472C55.2957 12.7472 55.0888 12.8065 54.9141 12.9253C54.741 13.0423 54.6079 13.195 54.5146 13.3833C54.4213 13.5716 54.3746 13.7735 54.3746 13.9889V14.3349C54.3746 14.6301 54.4255 14.8803 54.5273 15.0856C54.6308 15.2891 54.7741 15.4443 54.9573 15.5512C55.1405 15.6564 55.3534 15.709 55.596 15.709C55.7537 15.709 55.8962 15.6869 56.0235 15.6428C56.1524 15.597 56.2635 15.5292 56.3568 15.4393C56.4501 15.3477 56.5222 15.234 56.5731 15.0983L57.1532 15.2611C57.0922 15.4579 56.9895 15.6309 56.8453 15.7802C56.7012 15.9278 56.523 16.0432 56.311 16.1263C56.099 16.2077 55.8606 16.2484 55.596 16.2484ZM61.8835 12.2586V12.7675H59.7766V12.2586H61.8835ZM60.4077 16.167V11.7192C60.4077 11.4953 60.4602 11.3087 60.5654 11.1594C60.6706 11.0101 60.8072 10.8981 60.9751 10.8235C61.143 10.7489 61.3203 10.7116 61.5069 10.7116C61.6545 10.7116 61.7749 10.7234 61.8682 10.7472C61.9615 10.7709 62.0311 10.793 62.0769 10.8133L61.9038 11.3324C61.8733 11.3222 61.8309 11.3095 61.7766 11.2942C61.724 11.279 61.6545 11.2713 61.568 11.2713C61.3695 11.2713 61.2261 11.3214 61.1379 11.4215C61.0514 11.5216 61.0082 11.6683 61.0082 11.8617V16.167H60.4077ZM64.1519 16.2484C63.7991 16.2484 63.4895 16.1644 63.2232 15.9965C62.9585 15.8286 62.7516 15.5936 62.6023 15.2917C62.4547 14.9897 62.3809 14.6369 62.3809 14.2332C62.3809 13.826 62.4547 13.4707 62.6023 13.167C62.7516 12.8634 62.9585 12.6276 63.2232 12.4596C63.4895 12.2917 63.7991 12.2077 64.1519 12.2077C64.5048 12.2077 64.8135 12.2917 65.0781 12.4596C65.3444 12.6276 65.5514 12.8634 65.699 13.167C65.8483 13.4707 65.9229 13.826 65.9229 14.2332C65.9229 14.6369 65.8483 14.9897 65.699 15.2917C65.5514 15.5936 65.3444 15.8286 65.0781 15.9965C64.8135 16.1644 64.5048 16.2484 64.1519 16.2484ZM64.1519 15.709C64.4199 15.709 64.6405 15.6403 64.8135 15.5029C64.9865 15.3655 65.1146 15.1848 65.1977 14.9609C65.2808 14.737 65.3224 14.4944 65.3224 14.2332C65.3224 13.9719 65.2808 13.7285 65.1977 13.5029C65.1146 13.2773 64.9865 13.0949 64.8135 12.9558C64.6405 12.8167 64.4199 12.7472 64.1519 12.7472C63.8839 12.7472 63.6634 12.8167 63.4903 12.9558C63.3173 13.0949 63.1892 13.2773 63.1061 13.5029C63.023 13.7285 62.9814 13.9719 62.9814 14.2332C62.9814 14.4944 63.023 14.737 63.1061 14.9609C63.1892 15.1848 63.3173 15.3655 63.4903 15.5029C63.6634 15.6403 63.8839 15.709 64.1519 15.709ZM66.8396 16.167V12.2586H67.4197V12.8489H67.4604C67.5317 12.6556 67.6606 12.4986 67.8472 12.3782C68.0338 12.2578 68.2441 12.1975 68.4782 12.1975C68.5223 12.1975 68.5775 12.1984 68.6436 12.2001C68.7098 12.2018 68.7598 12.2043 68.7937 12.2077V12.8184C68.7734 12.8133 68.7267 12.8057 68.6538 12.7955C68.5826 12.7836 68.5071 12.7777 68.4273 12.7777C68.2373 12.7777 68.0677 12.8176 67.9184 12.8973C67.7709 12.9753 67.6538 13.0839 67.5673 13.223C67.4825 13.3604 67.4401 13.5173 67.4401 13.6937V16.167H66.8396ZM73.1086 16.2484C72.7422 16.2484 72.4267 16.1619 72.162 15.9889C71.8974 15.8158 71.6939 15.5775 71.5514 15.2739C71.4089 14.9702 71.3376 14.6233 71.3376 14.2332C71.3376 13.8362 71.4106 13.4859 71.5565 13.1823C71.704 12.8769 71.9093 12.6386 72.1722 12.4673C72.4369 12.2942 72.7456 12.2077 73.0984 12.2077C73.3732 12.2077 73.6209 12.2586 73.8414 12.3604C74.062 12.4622 74.2426 12.6047 74.3834 12.7879C74.5242 12.9711 74.6116 13.1848 74.6455 13.4291H74.045C73.9992 13.251 73.8974 13.0932 73.7396 12.9558C73.5836 12.8167 73.3732 12.7472 73.1086 12.7472C72.8745 12.7472 72.6693 12.8082 72.4928 12.9304C72.3181 13.0508 72.1816 13.2213 72.0832 13.4418C71.9865 13.6606 71.9381 13.9176 71.9381 14.2128C71.9381 14.5148 71.9856 14.7777 72.0806 15.0016C72.1773 15.2255 72.313 15.3994 72.4877 15.5232C72.6642 15.6471 72.8711 15.709 73.1086 15.709C73.2647 15.709 73.4063 15.6818 73.5335 15.6276C73.6608 15.5733 73.7685 15.4952 73.8567 15.3935C73.9449 15.2917 74.0077 15.1695 74.045 15.027H74.6455C74.6116 15.2578 74.5276 15.4656 74.3936 15.6505C74.2613 15.8337 74.0857 15.9795 73.8669 16.0881C73.6497 16.195 73.397 16.2484 73.1086 16.2484ZM77.1111 16.2484C76.7583 16.2484 76.4487 16.1644 76.1824 15.9965C75.9178 15.8286 75.7108 15.5936 75.5615 15.2917C75.4139 14.9897 75.3401 14.6369 75.3401 14.2332C75.3401 13.826 75.4139 13.4707 75.5615 13.167C75.7108 12.8634 75.9178 12.6276 76.1824 12.4596C76.4487 12.2917 76.7583 12.2077 77.1111 12.2077C77.464 12.2077 77.7727 12.2917 78.0373 12.4596C78.3037 12.6276 78.5106 12.8634 78.6582 13.167C78.8075 13.4707 78.8821 13.826 78.8821 14.2332C78.8821 14.6369 78.8075 14.9897 78.6582 15.2917C78.5106 15.5936 78.3037 15.8286 78.0373 15.9965C77.7727 16.1644 77.464 16.2484 77.1111 16.2484ZM77.1111 15.709C77.3792 15.709 77.5997 15.6403 77.7727 15.5029C77.9457 15.3655 78.0738 15.1848 78.1569 14.9609C78.24 14.737 78.2816 14.4944 78.2816 14.2332C78.2816 13.9719 78.24 13.7285 78.1569 13.5029C78.0738 13.2773 77.9457 13.0949 77.7727 12.9558C77.5997 12.8167 77.3792 12.7472 77.1111 12.7472C76.8431 12.7472 76.6226 12.8167 76.4496 12.9558C76.2765 13.0949 76.1485 13.2773 76.0653 13.5029C75.9822 13.7285 75.9407 13.9719 75.9407 14.2332C75.9407 14.4944 75.9822 14.737 76.0653 14.9609C76.1485 15.1848 76.2765 15.3655 76.4496 15.5029C76.6226 15.6403 76.8431 15.709 77.1111 15.709ZM79.7988 16.167V12.2586H80.3789V12.8693H80.4298C80.5112 12.6607 80.6427 12.4986 80.8242 12.3833C81.0057 12.2663 81.2237 12.2077 81.4782 12.2077C81.736 12.2077 81.9506 12.2663 82.1219 12.3833C82.2949 12.4986 82.4298 12.6607 82.5265 12.8693H82.5672C82.6673 12.6674 82.8174 12.5071 83.0176 12.3884C83.2178 12.2679 83.4578 12.2077 83.7377 12.2077C84.0871 12.2077 84.373 12.3171 84.5952 12.536C84.8174 12.7531 84.9285 13.0915 84.9285 13.5512V16.167H84.328V13.5512C84.328 13.2629 84.2491 13.0567 84.0914 12.9329C83.9336 12.8091 83.7479 12.7472 83.5341 12.7472C83.2593 12.7472 83.0464 12.8303 82.8955 12.9965C82.7445 13.1611 82.669 13.3697 82.669 13.6225V16.167H82.0583V13.4902C82.0583 13.2679 81.9862 13.089 81.842 12.9533C81.6978 12.8159 81.5121 12.7472 81.2848 12.7472C81.1287 12.7472 80.9828 12.7887 80.8471 12.8718C80.7131 12.955 80.6045 13.0703 80.5214 13.2179C80.44 13.3638 80.3993 13.5326 80.3993 13.7243V16.167H79.7988ZM86.0265 16.167V12.2586H86.6066V12.8693H86.6575C86.7389 12.6607 86.8704 12.4986 87.0519 12.3833C87.2334 12.2663 87.4514 12.2077 87.7059 12.2077C87.9637 12.2077 88.1783 12.2663 88.3496 12.3833C88.5226 12.4986 88.6575 12.6607 88.7542 12.8693H88.7949C88.895 12.6674 89.0451 12.5071 89.2453 12.3884C89.4455 12.2679 89.6855 12.2077 89.9654 12.2077C90.3148 12.2077 90.6007 12.3171 90.8229 12.536C91.0451 12.7531 91.1562 13.0915 91.1562 13.5512V16.167H90.5557V13.5512C90.5557 13.2629 90.4768 13.0567 90.3191 12.9329C90.1613 12.8091 89.9756 12.7472 89.7618 12.7472C89.487 12.7472 89.2741 12.8303 89.1232 12.9965C88.9722 13.1611 88.8967 13.3697 88.8967 13.6225V16.167H88.286V13.4902C88.286 13.2679 88.2139 13.089 88.0697 12.9533C87.9255 12.8159 87.7398 12.7472 87.5125 12.7472C87.3564 12.7472 87.2105 12.7887 87.0748 12.8718C86.9408 12.955 86.8322 13.0703 86.7491 13.2179C86.6677 13.3638 86.627 13.5326 86.627 13.7243V16.167H86.0265ZM93.4043 16.2586C93.1566 16.2586 92.9319 16.2119 92.73 16.1186C92.5281 16.0237 92.3678 15.8871 92.2491 15.709C92.1303 15.5292 92.071 15.312 92.071 15.0576C92.071 14.8337 92.1151 14.6522 92.2033 14.5131C92.2915 14.3723 92.4094 14.262 92.557 14.1823C92.7046 14.1025 92.8674 14.0432 93.0455 14.0042C93.2253 13.9634 93.406 13.9312 93.5875 13.9075C93.825 13.8769 94.0175 13.854 94.1651 13.8388C94.3144 13.8218 94.4229 13.7938 94.4908 13.7548C94.5604 13.7158 94.5951 13.6479 94.5951 13.5512V13.5309C94.5951 13.2798 94.5264 13.0847 94.389 12.9456C94.2533 12.8065 94.0472 12.737 93.7707 12.737C93.484 12.737 93.2593 12.7998 93.0964 12.9253C92.9336 13.0508 92.8191 13.1848 92.7529 13.3273L92.1829 13.1238C92.2847 12.8863 92.4204 12.7014 92.5901 12.569C92.7614 12.435 92.948 12.3417 93.1498 12.2892C93.3534 12.2349 93.5536 12.2077 93.7503 12.2077C93.8759 12.2077 94.0201 12.223 94.1829 12.2535C94.3475 12.2824 94.5061 12.3426 94.6587 12.4342C94.8131 12.5258 94.9412 12.664 95.043 12.8489C95.1447 13.0338 95.1956 13.2815 95.1956 13.5919V16.167H94.5951V15.6377H94.5646C94.5239 15.7226 94.456 15.8133 94.361 15.91C94.266 16.0067 94.1397 16.089 93.9819 16.1568C93.8241 16.2247 93.6316 16.2586 93.4043 16.2586ZM93.4959 15.7192C93.7334 15.7192 93.9336 15.6725 94.0964 15.5792C94.2609 15.4859 94.3848 15.3655 94.4679 15.2179C94.5527 15.0703 94.5951 14.9151 94.5951 14.7522V14.2026C94.5697 14.2332 94.5137 14.2612 94.4272 14.2866C94.3424 14.3103 94.244 14.3315 94.132 14.3502C94.0218 14.3672 93.914 14.3824 93.8089 14.396C93.7054 14.4079 93.6214 14.4181 93.557 14.4265C93.4009 14.4469 93.255 14.48 93.1193 14.5258C92.9853 14.5699 92.8767 14.6369 92.7936 14.7268C92.7122 14.815 92.6715 14.9354 92.6715 15.0881C92.6715 15.2968 92.7487 15.4545 92.903 15.5614C93.0591 15.6666 93.2567 15.7192 93.4959 15.7192ZM96.8922 13.8159V16.167H96.2917V12.2586H96.8718V12.8693H96.9227C97.0143 12.6708 97.1534 12.5114 97.34 12.3909C97.5266 12.2688 97.7675 12.2077 98.0627 12.2077C98.3273 12.2077 98.5588 12.262 98.7573 12.3706C98.9558 12.4774 99.1102 12.6403 99.2204 12.8591C99.3307 13.0763 99.3858 13.3511 99.3858 13.6835V16.167H98.7853V13.7243C98.7853 13.4172 98.7056 13.178 98.5461 13.0067C98.3867 12.8337 98.1678 12.7472 97.8896 12.7472C97.698 12.7472 97.5266 12.7887 97.3756 12.8718C97.2264 12.955 97.1085 13.0763 97.022 13.2357C96.9354 13.3952 96.8922 13.5886 96.8922 13.8159ZM101.959 16.2484C101.633 16.2484 101.346 16.1661 101.096 16.0016C100.847 15.8354 100.652 15.6013 100.511 15.2993C100.37 14.9957 100.3 14.6369 100.3 14.223C100.3 13.8125 100.37 13.4562 100.511 13.1543C100.652 12.8523 100.848 12.6191 101.099 12.4545C101.35 12.29 101.64 12.2077 101.969 12.2077C102.224 12.2077 102.425 12.2501 102.572 12.335C102.721 12.4181 102.835 12.5131 102.913 12.6199C102.993 12.7251 103.055 12.8116 103.099 12.8795H103.15V10.9558H103.75V16.167H103.17V15.5665H103.099C103.055 15.6377 102.992 15.7276 102.911 15.8362C102.829 15.9431 102.713 16.0389 102.562 16.1237C102.411 16.2069 102.21 16.2484 101.959 16.2484ZM102.04 15.709C102.281 15.709 102.485 15.6462 102.651 15.5207C102.817 15.3935 102.944 15.2179 103.03 14.994C103.117 14.7684 103.16 14.508 103.16 14.2128C103.16 13.921 103.118 13.6657 103.033 13.4469C102.948 13.2264 102.822 13.0551 102.656 12.9329C102.49 12.8091 102.285 12.7472 102.04 12.7472C101.786 12.7472 101.574 12.8125 101.404 12.9431C101.236 13.072 101.11 13.2476 101.025 13.4698C100.942 13.6903 100.9 13.938 100.9 14.2128C100.9 14.491 100.943 14.7438 101.028 14.9711C101.114 15.1967 101.241 15.3765 101.409 15.5105C101.579 15.6428 101.789 15.709 102.04 15.709Z" fill="#A5A9AE"/>
<path d="M13.667 46.9355V54.1019" stroke="#141B34" stroke-width="0.767716" stroke-linecap="round" stroke-linejoin="round"/>
<path d="M17.2513 50.5186H10.085" stroke="#141B34" stroke-width="0.767716" stroke-linecap="round" stroke-linejoin="round"/>
<path d="M147.25 47.9575V50.0047C147.25 51.4181 146.104 52.5638 144.691 52.5638C143.278 52.5638 142.132 51.4181 142.132 50.0047V47.9575C142.132 46.5442 143.278 45.3984 144.691 45.3984C146.104 45.3984 147.25 46.5442 147.25 47.9575Z" stroke="#5F6266" stroke-width="0.767716"/>
<path d="M148.786 50.0049C148.786 52.2662 146.953 54.0994 144.691 54.0994M144.691 54.0994C142.43 54.0994 140.597 52.2662 140.597 50.0049M144.691 54.0994V55.6348M144.691 55.6348H146.227M144.691 55.6348H143.156" stroke="#5F6266" stroke-width="0.767716" stroke-linecap="round"/>
<rect x="153.903" y="42.3281" width="16.378" height="16.378" rx="8.18898" fill="#303030"/>
<path d="M162.092 47.1904V54.0999" stroke="white" stroke-width="0.767716" stroke-linecap="round" stroke-linejoin="round"/>
<path d="M165.163 50.0054C165.163 50.0054 162.902 46.9346 162.092 46.9346C161.283 46.9346 159.021 50.0054 159.021 50.0054" stroke="white" stroke-width="0.767716" stroke-linecap="round" stroke-linejoin="round"/>
</g>
<defs>
<filter id="filter0_d_4367_26297" x="7.86781e-05" y="7.86781e-05" width="177.806" height="67.7674" filterUnits="userSpaceOnUse" color-interpolation-filters="sRGB">
<feFlood flood-opacity="0" result="BackgroundImageFix"/>
<feColorMatrix in="SourceAlpha" type="matrix" values="0 0 0 0 0 0 0 0 0 0 0 0 0 0 0 0 0 0 127 0" result="hardAlpha"/>
<feOffset/>
<feGaussianBlur stdDeviation="0.691855"/>
<feComposite in2="hardAlpha" operator="out"/>
<feColorMatrix type="matrix" values="0 0 0 0 0 0 0 0 0 0 0 0 0 0 0 0 0 0 0.24 0"/>
<feBlend mode="normal" in2="BackgroundImageFix" result="effect1_dropShadow_4367_26297"/>
<feBlend mode="normal" in="SourceGraphic" in2="effect1_dropShadow_4367_26297" result="shape"/>
</filter>
</defs>
</svg>
