<svg width="15" height="22" viewBox="0 0 15 22" fill="none" xmlns="http://www.w3.org/2000/svg">
<path d="M6.65715 21.7071C7.04768 22.0976 7.68084 22.0976 8.07136 21.7071L14.4353 15.3431C14.8259 14.9526 14.8259 14.3195 14.4353 13.9289C14.0448 13.5384 13.4116 13.5384 13.0211 13.9289L7.36426 19.5858L1.7074 13.9289C1.31688 13.5384 0.683714 13.5384 0.29319 13.9289C-0.0973344 14.3195 -0.0973344 14.9526 0.29319 15.3431L6.65715 21.7071ZM7.36426 0H6.36426V1.75H7.36426H8.36426V0H7.36426ZM7.36426 5.25H6.36426V8.75H7.36426H8.36426V5.25H7.36426ZM7.36426 12.25H6.36426V15.75H7.36426H8.36426V12.25H7.36426ZM7.36426 19.25H6.36426V21H7.36426H8.36426V19.25H7.36426Z" fill="#A5A9AE"/>
</svg>
