<svg width="16" height="455" viewBox="0 0 16 455" fill="none" xmlns="http://www.w3.org/2000/svg">
<path d="M0.000163555 7.92188C0.000163555 12.2969 3.54683 15.8436 7.92188 15.8436C12.2969 15.8436 15.8436 12.2969 15.8436 7.92188C15.8436 3.54683 12.2969 0.000163555 7.92188 0.000163555C3.54683 0.000163555 0.000163555 3.54683 0.000163555 7.92188ZM0.000163555 446.092C0.000163555 450.467 3.54683 454.013 7.92188 454.013C12.2969 454.013 15.8436 450.467 15.8436 446.092C15.8436 441.716 12.2969 438.17 7.92188 438.17C3.54683 438.17 0.000163555 441.716 0.000163555 446.092ZM7.92188 7.92188H6.43655V446.092H7.92188H9.4072V7.92188H7.92188Z" fill="black"/>
</svg>
