<svg width="52" height="6" viewBox="0 0 52 6" fill="none" xmlns="http://www.w3.org/2000/svg">
<path d="M51.1348 2.99695C51.2798 2.85193 51.2798 2.61682 51.1348 2.4718L48.7717 0.108674C48.6267 -0.0363398 48.3916 -0.0363398 48.2465 0.108674C48.1015 0.253687 48.1015 0.488801 48.2465 0.633814L50.3471 2.73438L48.2465 4.83494C48.1015 4.97995 48.1015 5.21506 48.2465 5.36008C48.3916 5.50509 48.6267 5.50509 48.7717 5.36008L51.1348 2.99695ZM1.15619 3.10571C1.36127 3.10571 1.52752 2.93946 1.52752 2.73438C1.52752 2.52929 1.36127 2.36304 1.15619 2.36304V2.73438V3.10571ZM3.46856 2.36304C3.26348 2.36304 3.09723 2.52929 3.09723 2.73438C3.09723 2.93946 3.26348 3.10571 3.46856 3.10571V2.73438V2.36304ZM5.78094 3.10571C5.98602 3.10571 6.15227 2.93946 6.15227 2.73438C6.15227 2.52929 5.98602 2.36304 5.78094 2.36304V2.73438V3.10571ZM8.09331 2.36304C7.88823 2.36304 7.72198 2.52929 7.72198 2.73438C7.72198 2.93946 7.88823 3.10571 8.09331 3.10571V2.73438V2.36304ZM10.4057 3.10571C10.6108 3.10571 10.777 2.93946 10.777 2.73438C10.777 2.52929 10.6108 2.36304 10.4057 2.36304V2.73438V3.10571ZM12.7181 2.36304C12.513 2.36304 12.3467 2.52929 12.3467 2.73438C12.3467 2.93946 12.513 3.10571 12.7181 3.10571V2.73438V2.36304ZM15.0304 3.10571C15.2355 3.10571 15.4018 2.93946 15.4018 2.73438C15.4018 2.52929 15.2355 2.36304 15.0304 2.36304V2.73438V3.10571ZM17.3428 2.36304C17.1377 2.36304 16.9715 2.52929 16.9715 2.73438C16.9715 2.93946 17.1377 3.10571 17.3428 3.10571V2.73438V2.36304ZM19.6552 3.10571C19.8603 3.10571 20.0265 2.93946 20.0265 2.73438C20.0265 2.52929 19.8603 2.36304 19.6552 2.36304V2.73438V3.10571ZM21.9676 2.36304C21.7625 2.36304 21.5962 2.52929 21.5962 2.73438C21.5962 2.93946 21.7625 3.10571 21.9676 3.10571V2.73438V2.36304ZM24.2799 3.10571C24.485 3.10571 24.6513 2.93946 24.6513 2.73438C24.6513 2.52929 24.485 2.36304 24.2799 2.36304V2.73438V3.10571ZM26.5923 2.36304C26.3872 2.36304 26.221 2.52929 26.221 2.73438C26.221 2.93946 26.3872 3.10571 26.5923 3.10571V2.73438V2.36304ZM28.9047 3.10571C29.1098 3.10571 29.276 2.93946 29.276 2.73438C29.276 2.52929 29.1098 2.36304 28.9047 2.36304V2.73438V3.10571ZM31.2171 2.36304C31.012 2.36304 30.8457 2.52929 30.8457 2.73438C30.8457 2.93946 31.012 3.10571 31.2171 3.10571V2.73438V2.36304ZM33.5294 3.10571C33.7345 3.10571 33.9008 2.93946 33.9008 2.73438C33.9008 2.52929 33.7345 2.36304 33.5294 2.36304V2.73438V3.10571ZM35.8418 2.36304C35.6367 2.36304 35.4705 2.52929 35.4705 2.73438C35.4705 2.93946 35.6367 3.10571 35.8418 3.10571V2.73438V2.36304ZM38.1542 3.10571C38.3593 3.10571 38.5255 2.93946 38.5255 2.73438C38.5255 2.52929 38.3593 2.36304 38.1542 2.36304V2.73438V3.10571ZM40.4665 2.36304C40.2615 2.36304 40.0952 2.52929 40.0952 2.73438C40.0952 2.93946 40.2615 3.10571 40.4665 3.10571V2.73438V2.36304ZM42.7789 3.10571C42.984 3.10571 43.1503 2.93946 43.1503 2.73438C43.1503 2.52929 42.984 2.36304 42.7789 2.36304V2.73438V3.10571ZM45.0913 2.36304C44.8862 2.36304 44.72 2.52929 44.72 2.73438C44.72 2.93946 44.8862 3.10571 45.0913 3.10571V2.73438V2.36304ZM47.4037 3.10571C47.6087 3.10571 47.775 2.93946 47.775 2.73438C47.775 2.52929 47.6087 2.36304 47.4037 2.36304V2.73438V3.10571ZM49.716 2.36304C49.511 2.36304 49.3447 2.52929 49.3447 2.73438C49.3447 2.93946 49.511 3.10571 49.716 3.10571V2.73438V2.36304ZM0 2.73438V3.10571H1.15619V2.73438V2.36304H0V2.73438ZM3.46856 2.73438V3.10571H5.78094V2.73438V2.36304H3.46856V2.73438ZM8.09331 2.73438V3.10571H10.4057V2.73438V2.36304H8.09331V2.73438ZM12.7181 2.73438V3.10571H15.0304V2.73438V2.36304H12.7181V2.73438ZM17.3428 2.73438V3.10571H19.6552V2.73438V2.36304H17.3428V2.73438ZM21.9676 2.73438V3.10571H24.2799V2.73438V2.36304H21.9676V2.73438ZM26.5923 2.73438V3.10571H28.9047V2.73438V2.36304H26.5923V2.73438ZM31.2171 2.73438V3.10571H33.5294V2.73438V2.36304H31.2171V2.73438ZM35.8418 2.73438V3.10571H38.1542V2.73438V2.36304H35.8418V2.73438ZM40.4665 2.73438V3.10571H42.7789V2.73438V2.36304H40.4665V2.73438ZM45.0913 2.73438V3.10571H47.4037V2.73438V2.36304H45.0913V2.73438ZM49.716 2.73438V3.10571H50.8722V2.73438V2.36304H49.716V2.73438ZM51.1348 2.99695C51.2798 2.85193 51.2798 2.61682 51.1348 2.4718L48.7717 0.108674C48.6267 -0.0363398 48.3916 -0.0363398 48.2465 0.108674C48.1015 0.253687 48.1015 0.488801 48.2465 0.633814L50.3471 2.73438L48.2465 4.83494C48.1015 4.97995 48.1015 5.21506 48.2465 5.36008C48.3916 5.50509 48.6267 5.50509 48.7717 5.36008L51.1348 2.99695ZM1.15619 3.10571C1.36127 3.10571 1.52752 2.93946 1.52752 2.73438C1.52752 2.52929 1.36127 2.36304 1.15619 2.36304V2.73438V3.10571ZM3.46856 2.36304C3.26348 2.36304 3.09723 2.52929 3.09723 2.73438C3.09723 2.93946 3.26348 3.10571 3.46856 3.10571V2.73438V2.36304ZM5.78094 3.10571C5.98602 3.10571 6.15227 2.93946 6.15227 2.73438C6.15227 2.52929 5.98602 2.36304 5.78094 2.36304V2.73438V3.10571ZM8.09331 2.36304C7.88823 2.36304 7.72198 2.52929 7.72198 2.73438C7.72198 2.93946 7.88823 3.10571 8.09331 3.10571V2.73438V2.36304ZM10.4057 3.10571C10.6108 3.10571 10.777 2.93946 10.777 2.73438C10.777 2.52929 10.6108 2.36304 10.4057 2.36304V2.73438V3.10571ZM12.7181 2.36304C12.513 2.36304 12.3467 2.52929 12.3467 2.73438C12.3467 2.93946 12.513 3.10571 12.7181 3.10571V2.73438V2.36304ZM15.0304 3.10571C15.2355 3.10571 15.4018 2.93946 15.4018 2.73438C15.4018 2.52929 15.2355 2.36304 15.0304 2.36304V2.73438V3.10571ZM17.3428 2.36304C17.1377 2.36304 16.9715 2.52929 16.9715 2.73438C16.9715 2.93946 17.1377 3.10571 17.3428 3.10571V2.73438V2.36304ZM19.6552 3.10571C19.8603 3.10571 20.0265 2.93946 20.0265 2.73438C20.0265 2.52929 19.8603 2.36304 19.6552 2.36304V2.73438V3.10571ZM21.9676 2.36304C21.7625 2.36304 21.5962 2.52929 21.5962 2.73438C21.5962 2.93946 21.7625 3.10571 21.9676 3.10571V2.73438V2.36304ZM24.2799 3.10571C24.485 3.10571 24.6513 2.93946 24.6513 2.73438C24.6513 2.52929 24.485 2.36304 24.2799 2.36304V2.73438V3.10571ZM26.5923 2.36304C26.3872 2.36304 26.221 2.52929 26.221 2.73438C26.221 2.93946 26.3872 3.10571 26.5923 3.10571V2.73438V2.36304ZM28.9047 3.10571C29.1098 3.10571 29.276 2.93946 29.276 2.73438C29.276 2.52929 29.1098 2.36304 28.9047 2.36304V2.73438V3.10571ZM31.2171 2.36304C31.012 2.36304 30.8457 2.52929 30.8457 2.73438C30.8457 2.93946 31.012 3.10571 31.2171 3.10571V2.73438V2.36304ZM33.5294 3.10571C33.7345 3.10571 33.9008 2.93946 33.9008 2.73438C33.9008 2.52929 33.7345 2.36304 33.5294 2.36304V2.73438V3.10571ZM35.8418 2.36304C35.6367 2.36304 35.4705 2.52929 35.4705 2.73438C35.4705 2.93946 35.6367 3.10571 35.8418 3.10571V2.73438V2.36304ZM38.1542 3.10571C38.3593 3.10571 38.5255 2.93946 38.5255 2.73438C38.5255 2.52929 38.3593 2.36304 38.1542 2.36304V2.73438V3.10571ZM40.4665 2.36304C40.2615 2.36304 40.0952 2.52929 40.0952 2.73438C40.0952 2.93946 40.2615 3.10571 40.4665 3.10571V2.73438V2.36304ZM42.7789 3.10571C42.984 3.10571 43.1503 2.93946 43.1503 2.73438C43.1503 2.52929 42.984 2.36304 42.7789 2.36304V2.73438V3.10571ZM45.0913 2.36304C44.8862 2.36304 44.72 2.52929 44.72 2.73438C44.72 2.93946 44.8862 3.10571 45.0913 3.10571V2.73438V2.36304ZM47.4037 3.10571C47.6087 3.10571 47.775 2.93946 47.775 2.73438C47.775 2.52929 47.6087 2.36304 47.4037 2.36304V2.73438V3.10571ZM49.716 2.36304C49.511 2.36304 49.3447 2.52929 49.3447 2.73438C49.3447 2.93946 49.511 3.10571 49.716 3.10571V2.73438V2.36304ZM0 2.73438V3.10571H1.15619V2.73438V2.36304H0V2.73438ZM3.46856 2.73438V3.10571H5.78094V2.73438V2.36304H3.46856V2.73438ZM8.09331 2.73438V3.10571H10.4057V2.73438V2.36304H8.09331V2.73438ZM12.7181 2.73438V3.10571H15.0304V2.73438V2.36304H12.7181V2.73438ZM17.3428 2.73438V3.10571H19.6552V2.73438V2.36304H17.3428V2.73438ZM21.9676 2.73438V3.10571H24.2799V2.73438V2.36304H21.9676V2.73438ZM26.5923 2.73438V3.10571H28.9047V2.73438V2.36304H26.5923V2.73438ZM31.2171 2.73438V3.10571H33.5294V2.73438V2.36304H31.2171V2.73438ZM35.8418 2.73438V3.10571H38.1542V2.73438V2.36304H35.8418V2.73438ZM40.4665 2.73438V3.10571H42.7789V2.73438V2.36304H40.4665V2.73438ZM45.0913 2.73438V3.10571H47.4037V2.73438V2.36304H45.0913V2.73438ZM49.716 2.73438V3.10571H50.8722V2.73438V2.36304H49.716V2.73438Z" fill="black"/>
</svg>
