<svg width="52" height="6" viewBox="0 0 52 6" fill="none" xmlns="http://www.w3.org/2000/svg">
<path d="M0.108524 2.4718C-0.0364898 2.61682 -0.0364898 2.85193 0.108524 2.99695L2.47165 5.36008C2.61667 5.50509 2.85178 5.50509 2.99679 5.36008C3.14181 5.21506 3.14181 4.97995 2.99679 4.83494L0.896234 2.73438L2.99679 0.633814C3.14181 0.488801 3.14181 0.253687 2.99679 0.108674C2.85178 -0.0363398 2.61667 -0.0363398 2.47165 0.108674L0.108524 2.4718ZM1.52728 3.10571C1.73236 3.10571 1.89861 2.93946 1.89861 2.73438C1.89861 2.52929 1.73236 2.36304 1.52728 2.36304V2.73438V3.10571ZM3.83966 2.36304C3.63458 2.36304 3.46833 2.52929 3.46833 2.73438C3.46833 2.93946 3.63458 3.10571 3.83966 3.10571V2.73438V2.36304ZM6.15203 3.10571C6.35711 3.10571 6.52336 2.93946 6.52336 2.73438C6.52336 2.52929 6.35711 2.36304 6.15203 2.36304V2.73438V3.10571ZM8.46441 2.36304C8.25933 2.36304 8.09307 2.52929 8.09307 2.73438C8.09307 2.93946 8.25933 3.10571 8.46441 3.10571V2.73438V2.36304ZM10.7768 3.10571C10.9819 3.10571 11.1481 2.93946 11.1481 2.73438C11.1481 2.52929 10.9819 2.36304 10.7768 2.36304V2.73438V3.10571ZM13.0892 2.36304C12.8841 2.36304 12.7178 2.52929 12.7178 2.73438C12.7178 2.93946 12.8841 3.10571 13.0892 3.10571V2.73438V2.36304ZM15.4015 3.10571C15.6066 3.10571 15.7729 2.93946 15.7729 2.73438C15.7729 2.52929 15.6066 2.36304 15.4015 2.36304V2.73438V3.10571ZM17.7139 2.36304C17.5088 2.36304 17.3426 2.52929 17.3426 2.73438C17.3426 2.93946 17.5088 3.10571 17.7139 3.10571V2.73438V2.36304ZM20.0263 3.10571C20.2314 3.10571 20.3976 2.93946 20.3976 2.73438C20.3976 2.52929 20.2314 2.36304 20.0263 2.36304V2.73438V3.10571ZM22.3386 2.36304C22.1336 2.36304 21.9673 2.52929 21.9673 2.73438C21.9673 2.93946 22.1336 3.10571 22.3386 3.10571V2.73438V2.36304ZM24.651 3.10571C24.8561 3.10571 25.0224 2.93946 25.0224 2.73438C25.0224 2.52929 24.8561 2.36304 24.651 2.36304V2.73438V3.10571ZM26.9634 2.36304C26.7583 2.36304 26.5921 2.52929 26.5921 2.73438C26.5921 2.93946 26.7583 3.10571 26.9634 3.10571V2.73438V2.36304ZM29.2758 3.10571C29.4809 3.10571 29.6471 2.93946 29.6471 2.73438C29.6471 2.52929 29.4809 2.36304 29.2758 2.36304V2.73438V3.10571ZM31.5881 2.36304C31.3831 2.36304 31.2168 2.52929 31.2168 2.73438C31.2168 2.93946 31.3831 3.10571 31.5881 3.10571V2.73438V2.36304ZM33.9005 3.10571C34.1056 3.10571 34.2719 2.93946 34.2719 2.73438C34.2719 2.52929 34.1056 2.36304 33.9005 2.36304V2.73438V3.10571ZM36.2129 2.36304C36.0078 2.36304 35.8416 2.52929 35.8416 2.73438C35.8416 2.93946 36.0078 3.10571 36.2129 3.10571V2.73438V2.36304ZM38.5253 3.10571C38.7304 3.10571 38.8966 2.93946 38.8966 2.73438C38.8966 2.52929 38.7304 2.36304 38.5253 2.36304V2.73438V3.10571ZM40.8376 2.36304C40.6326 2.36304 40.4663 2.52929 40.4663 2.73438C40.4663 2.93946 40.6326 3.10571 40.8376 3.10571V2.73438V2.36304ZM43.15 3.10571C43.3551 3.10571 43.5213 2.93946 43.5213 2.73438C43.5213 2.52929 43.3551 2.36304 43.15 2.36304V2.73438V3.10571ZM45.4624 2.36304C45.2573 2.36304 45.0911 2.52929 45.0911 2.73438C45.0911 2.93946 45.2573 3.10571 45.4624 3.10571V2.73438V2.36304ZM47.7748 3.10571C47.9798 3.10571 48.1461 2.93946 48.1461 2.73438C48.1461 2.52929 47.9798 2.36304 47.7748 2.36304V2.73438V3.10571ZM50.0871 2.36304C49.8821 2.36304 49.7158 2.52929 49.7158 2.73438C49.7158 2.93946 49.8821 3.10571 50.0871 3.10571V2.73438V2.36304ZM0.371094 2.73438V3.10571H1.52728V2.73438V2.36304H0.371094V2.73438ZM3.83966 2.73438V3.10571H6.15203V2.73438V2.36304H3.83966V2.73438ZM8.46441 2.73438V3.10571H10.7768V2.73438V2.36304H8.46441V2.73438ZM13.0892 2.73438V3.10571H15.4015V2.73438V2.36304H13.0892V2.73438ZM17.7139 2.73438V3.10571H20.0263V2.73438V2.36304H17.7139V2.73438ZM22.3386 2.73438V3.10571H24.651V2.73438V2.36304H22.3386V2.73438ZM26.9634 2.73438V3.10571H29.2758V2.73438V2.36304H26.9634V2.73438ZM31.5881 2.73438V3.10571H33.9005V2.73438V2.36304H31.5881V2.73438ZM36.2129 2.73438V3.10571H38.5253V2.73438V2.36304H36.2129V2.73438ZM40.8376 2.73438V3.10571H43.15V2.73438V2.36304H40.8376V2.73438ZM45.4624 2.73438V3.10571H47.7748V2.73438V2.36304H45.4624V2.73438ZM50.0871 2.73438V3.10571H51.2433V2.73438V2.36304H50.0871V2.73438ZM0.108524 2.4718C-0.0364898 2.61682 -0.0364898 2.85193 0.108524 2.99695L2.47165 5.36008C2.61667 5.50509 2.85178 5.50509 2.99679 5.36008C3.14181 5.21506 3.14181 4.97995 2.99679 4.83494L0.896234 2.73438L2.99679 0.633814C3.14181 0.488801 3.14181 0.253687 2.99679 0.108674C2.85178 -0.0363398 2.61667 -0.0363398 2.47165 0.108674L0.108524 2.4718ZM1.52728 3.10571C1.73236 3.10571 1.89861 2.93946 1.89861 2.73438C1.89861 2.52929 1.73236 2.36304 1.52728 2.36304V2.73438V3.10571ZM3.83966 2.36304C3.63458 2.36304 3.46833 2.52929 3.46833 2.73438C3.46833 2.93946 3.63458 3.10571 3.83966 3.10571V2.73438V2.36304ZM6.15203 3.10571C6.35711 3.10571 6.52336 2.93946 6.52336 2.73438C6.52336 2.52929 6.35711 2.36304 6.15203 2.36304V2.73438V3.10571ZM8.46441 2.36304C8.25933 2.36304 8.09307 2.52929 8.09307 2.73438C8.09307 2.93946 8.25933 3.10571 8.46441 3.10571V2.73438V2.36304ZM10.7768 3.10571C10.9819 3.10571 11.1481 2.93946 11.1481 2.73438C11.1481 2.52929 10.9819 2.36304 10.7768 2.36304V2.73438V3.10571ZM13.0892 2.36304C12.8841 2.36304 12.7178 2.52929 12.7178 2.73438C12.7178 2.93946 12.8841 3.10571 13.0892 3.10571V2.73438V2.36304ZM15.4015 3.10571C15.6066 3.10571 15.7729 2.93946 15.7729 2.73438C15.7729 2.52929 15.6066 2.36304 15.4015 2.36304V2.73438V3.10571ZM17.7139 2.36304C17.5088 2.36304 17.3426 2.52929 17.3426 2.73438C17.3426 2.93946 17.5088 3.10571 17.7139 3.10571V2.73438V2.36304ZM20.0263 3.10571C20.2314 3.10571 20.3976 2.93946 20.3976 2.73438C20.3976 2.52929 20.2314 2.36304 20.0263 2.36304V2.73438V3.10571ZM22.3386 2.36304C22.1336 2.36304 21.9673 2.52929 21.9673 2.73438C21.9673 2.93946 22.1336 3.10571 22.3386 3.10571V2.73438V2.36304ZM24.651 3.10571C24.8561 3.10571 25.0224 2.93946 25.0224 2.73438C25.0224 2.52929 24.8561 2.36304 24.651 2.36304V2.73438V3.10571ZM26.9634 2.36304C26.7583 2.36304 26.5921 2.52929 26.5921 2.73438C26.5921 2.93946 26.7583 3.10571 26.9634 3.10571V2.73438V2.36304ZM29.2758 3.10571C29.4809 3.10571 29.6471 2.93946 29.6471 2.73438C29.6471 2.52929 29.4809 2.36304 29.2758 2.36304V2.73438V3.10571ZM31.5881 2.36304C31.3831 2.36304 31.2168 2.52929 31.2168 2.73438C31.2168 2.93946 31.3831 3.10571 31.5881 3.10571V2.73438V2.36304ZM33.9005 3.10571C34.1056 3.10571 34.2719 2.93946 34.2719 2.73438C34.2719 2.52929 34.1056 2.36304 33.9005 2.36304V2.73438V3.10571ZM36.2129 2.36304C36.0078 2.36304 35.8416 2.52929 35.8416 2.73438C35.8416 2.93946 36.0078 3.10571 36.2129 3.10571V2.73438V2.36304ZM38.5253 3.10571C38.7304 3.10571 38.8966 2.93946 38.8966 2.73438C38.8966 2.52929 38.7304 2.36304 38.5253 2.36304V2.73438V3.10571ZM40.8376 2.36304C40.6326 2.36304 40.4663 2.52929 40.4663 2.73438C40.4663 2.93946 40.6326 3.10571 40.8376 3.10571V2.73438V2.36304ZM43.15 3.10571C43.3551 3.10571 43.5213 2.93946 43.5213 2.73438C43.5213 2.52929 43.3551 2.36304 43.15 2.36304V2.73438V3.10571ZM45.4624 2.36304C45.2573 2.36304 45.0911 2.52929 45.0911 2.73438C45.0911 2.93946 45.2573 3.10571 45.4624 3.10571V2.73438V2.36304ZM47.7748 3.10571C47.9798 3.10571 48.1461 2.93946 48.1461 2.73438C48.1461 2.52929 47.9798 2.36304 47.7748 2.36304V2.73438V3.10571ZM50.0871 2.36304C49.8821 2.36304 49.7158 2.52929 49.7158 2.73438C49.7158 2.93946 49.8821 3.10571 50.0871 3.10571V2.73438V2.36304ZM0.371094 2.73438V3.10571H1.52728V2.73438V2.36304H0.371094V2.73438ZM3.83966 2.73438V3.10571H6.15203V2.73438V2.36304H3.83966V2.73438ZM8.46441 2.73438V3.10571H10.7768V2.73438V2.36304H8.46441V2.73438ZM13.0892 2.73438V3.10571H15.4015V2.73438V2.36304H13.0892V2.73438ZM17.7139 2.73438V3.10571H20.0263V2.73438V2.36304H17.7139V2.73438ZM22.3386 2.73438V3.10571H24.651V2.73438V2.36304H22.3386V2.73438ZM26.9634 2.73438V3.10571H29.2758V2.73438V2.36304H26.9634V2.73438ZM31.5881 2.73438V3.10571H33.9005V2.73438V2.36304H31.5881V2.73438ZM36.2129 2.73438V3.10571H38.5253V2.73438V2.36304H36.2129V2.73438ZM40.8376 2.73438V3.10571H43.15V2.73438V2.36304H40.8376V2.73438ZM45.4624 2.73438V3.10571H47.7748V2.73438V2.36304H45.4624V2.73438ZM50.0871 2.73438V3.10571H51.2433V2.73438V2.36304H50.0871V2.73438Z" fill="black"/>
</svg>
