<svg width="86" height="101" viewBox="0 0 86 101" fill="none" xmlns="http://www.w3.org/2000/svg">
<g filter="url(#filter0_d_4367_26329)">
<path d="M2 6.03737C2 3.80759 3.80759 2 6.03737 2H79.2148C81.4445 2 83.2521 3.80759 83.2521 6.03737V94.8596C83.2521 97.0893 81.4445 98.8969 79.2147 98.8969H6.03736C3.80759 98.8969 2 97.0893 2 94.8596V6.03737Z" fill="white" shape-rendering="crispEdges"/>
<path d="M78.4189 2V2.25195H79.2148C79.4679 2.25196 79.7153 2.27698 79.9541 2.32422L80.002 2.07715C80.5316 2.18183 81.0239 2.38985 81.457 2.67969L81.3174 2.88965C81.7302 3.16606 82.0859 3.5217 82.3623 3.93457L82.5713 3.79395C82.8613 4.22706 83.069 4.71939 83.1738 5.24902H83.1748L82.9277 5.29883C82.9749 5.53742 83 5.78424 83 6.03711V6.85938H83.252V8.50488H83V10.1494H83.252V11.7939H83V13.4395H83.252V15.084H83V16.7285H83.252V18.374H83V20.0186H83.252V21.6631H83V23.3086H83.252V24.9531H83V26.5977H83.252V28.2432H83V29.8877H83.252V31.5322H83V33.1777H83.252V34.8223H83V36.4668H83.252V38.1123H83V39.7568H83.252V41.4014H83V43.0469H83.252V44.6914H83V46.3359H83.252V47.9814H83V49.626H83.252V51.2705H83V52.916H83.252V54.5605H83V56.2051H83.252V57.8506H83V59.4951H83.252V61.1396H83V62.7852H83.252V64.4297H83V66.0742H83.252V67.7197H83V69.3643H83.252V71.0088H83V72.6543H83.252V74.2988H83V75.9434H83.252V77.5889H83V79.2334H83.252V80.8779H83V82.5234H83.252V84.168H83V85.8125H83.252V87.458H83V89.1025H83.252V90.7471H83V92.3926H83.252V94.0371H83V94.8594C83 95.1125 82.975 95.3598 82.9277 95.5986L83.1738 95.6465C83.0691 96.1762 82.8613 96.6683 82.5713 97.1016L82.3623 96.9629C82.0859 97.3756 81.7301 97.7305 81.3174 98.0068L81.457 98.2158C81.0238 98.5058 80.5317 98.7136 80.002 98.8184L79.9541 98.5723C79.7153 98.6195 79.4679 98.6445 79.2148 98.6445H78.4189V98.8965H76.8281V98.6445H75.2373V98.8965H73.6465V98.6445H72.0557V98.8965H70.4648V98.6445H68.874V98.8965H67.2832V98.6445H65.6924V98.8965H64.1016V98.6445H62.5107V98.8965H60.9199V98.6445H59.3291V98.8965H57.7393V98.6445H56.1484V98.8965H54.5576V98.6445H52.9668V98.8965H51.376V98.6445H49.7852V98.8965H48.1943V98.6445H46.6035V98.8965H45.0127V98.6445H43.4219V98.8965H41.8311V98.6445H40.2402V98.8965H38.6494V98.6445H37.0586V98.8965H35.4678V98.6445H33.877V98.8965H32.2861V98.6445H30.6953V98.8965H29.1045V98.6445H27.5137V98.8965H25.9229V98.6445H24.332V98.8965H22.7412V98.6445H21.1504V98.8965H19.5596V98.6445H17.9688V98.8965H16.3779V98.6445H14.7871V98.8965H13.1963V98.6445H11.6055V98.8965H10.0146V98.6445H8.42383V98.8965H6.83301V98.6445H6.03711C5.78422 98.6445 5.53743 98.6194 5.29883 98.5723L5.24902 98.8184C4.71936 98.7135 4.22708 98.5059 3.79395 98.2158L3.93457 98.0068C3.52186 97.7305 3.166 97.3756 2.88965 96.9629L2.67969 97.1016C2.38987 96.6684 2.18179 96.1761 2.07715 95.6465L2.32422 95.5986C2.27698 95.3598 2.25195 95.1125 2.25195 94.8594V94.0371H2V92.3926H2.25195V90.7471H2V89.1025H2.25195V87.458H2V85.8125H2.25195V84.168H2V82.5234H2.25195V80.8779H2V79.2334H2.25195V77.5889H2V75.9434H2.25195V74.2988H2V72.6543H2.25195V71.0088H2V69.3643H2.25195V67.7197H2V66.0742H2.25195V64.4297H2V62.7852H2.25195V61.1396H2V59.4951H2.25195V57.8506H2V56.2051H2.25195V54.5605H2V52.916H2.25195V51.2705H2V49.626H2.25195V47.9814H2V46.3359H2.25195V44.6914H2V43.0469H2.25195V41.4014H2V39.7568H2.25195V38.1123H2V36.4668H2.25195V34.8223H2V33.1777H2.25195V31.5322H2V29.8877H2.25195V28.2432H2V26.5977H2.25195V24.9531H2V23.3086H2.25195V21.6631H2V20.0186H2.25195V18.374H2V16.7285H2.25195V15.084H2V13.4395H2.25195V11.7939H2V10.1494H2.25195V8.50488H2V6.85938H2.25195V6.03711C2.25197 5.78425 2.27705 5.53741 2.32422 5.29883L2.07715 5.24902C2.18196 4.71952 2.38977 4.22699 2.67969 3.79395L2.88965 3.93457C3.16606 3.5217 3.5217 3.16606 3.93457 2.88965L3.79395 2.67969C4.22699 2.38977 4.71952 2.18196 5.24902 2.07715L5.29883 2.32422C5.53741 2.27705 5.78425 2.25197 6.03711 2.25195H6.83301V2H8.42383V2.25195H10.0146V2H11.6055V2.25195H13.1963V2H14.7871V2.25195H16.3779V2H17.9688V2.25195H19.5596V2H21.1504V2.25195H22.7412V2H24.332V2.25195H25.9229V2H27.5137V2.25195H29.1045V2H30.6953V2.25195H32.2861V2H33.877V2.25195H35.4678V2H37.0586V2.25195H38.6494V2H40.2402V2.25195H41.8311V2H43.4219V2.25195H45.0127V2H46.6035V2.25195H48.1943V2H49.7852V2.25195H51.376V2H52.9668V2.25195H54.5576V2H56.1484V2.25195H57.7393V2H59.3301V2.25195H60.9199V2H62.5107V2.25195H64.1016V2H65.6924V2.25195H67.2832V2H68.874V2.25195H70.4648V2H72.0557V2.25195H73.6465V2H75.2373V2.25195H76.8281V2H78.4189Z" stroke="#B12CCF" stroke-width="0.504672" stroke-dasharray="1.62 1.62" shape-rendering="crispEdges"/>
<path d="M3.00977 6.03779C3.00977 4.36546 4.36546 3.00977 6.03779 3.00977H79.2152C80.8875 3.00977 82.2432 4.36546 82.2432 6.03779V19.6639H3.00977V6.03779Z" fill="#F2F2F2"/>
<path d="M9.51009 8.99737H8.06875V8.51289H11.5268V8.99737H10.0854V12.8369H9.51009V8.99737ZM11.623 11.2745C11.623 11.4642 11.6472 11.6338 11.6957 11.7832C11.7482 11.9285 11.8188 12.0516 11.9076 12.1526C11.9965 12.2495 12.0994 12.3242 12.2165 12.3767C12.3376 12.4291 12.4648 12.4554 12.598 12.4554C12.7313 12.4554 12.8564 12.4291 12.9735 12.3767C13.0946 12.3242 13.1996 12.2495 13.2884 12.1526C13.3772 12.0516 13.4459 11.9285 13.4943 11.7832C13.5468 11.6338 13.573 11.4642 13.573 11.2745C13.573 11.0847 13.5468 10.9171 13.4943 10.7718C13.4459 10.6224 13.3772 10.4973 13.2884 10.3963C13.1996 10.2954 13.0946 10.2187 12.9735 10.1662C12.8564 10.1137 12.7313 10.0875 12.598 10.0875C12.4648 10.0875 12.3376 10.1137 12.2165 10.1662C12.0994 10.2187 11.9965 10.2954 11.9076 10.3963C11.8188 10.4973 11.7482 10.6224 11.6957 10.7718C11.6472 10.9171 11.623 11.0847 11.623 11.2745ZM11.078 11.2745C11.078 11.0443 11.1103 10.8303 11.1748 10.6325C11.2394 10.4306 11.3363 10.257 11.4655 10.1117C11.5947 9.96231 11.7542 9.84522 11.944 9.76044C12.1337 9.67565 12.3517 9.63326 12.598 9.63326C12.8483 9.63326 13.0664 9.67565 13.2521 9.76044C13.4418 9.84522 13.6013 9.96231 13.7305 10.1117C13.8597 10.257 13.9566 10.4306 14.0212 10.6325C14.0858 10.8303 14.1181 11.0443 14.1181 11.2745C14.1181 11.5046 14.0858 11.7186 14.0212 11.9164C13.9566 12.1142 13.8597 12.2878 13.7305 12.4372C13.6013 12.5826 13.4418 12.6976 13.2521 12.7824C13.0664 12.8632 12.8483 12.9035 12.598 12.9035C12.3517 12.9035 12.1337 12.8632 11.944 12.7824C11.7542 12.6976 11.5947 12.5826 11.4655 12.4372C11.3363 12.2878 11.2394 12.1142 11.1748 11.9164C11.1103 11.7186 11.078 11.5046 11.078 11.2745ZM15.1005 11.2745C15.1005 11.4642 15.1247 11.6338 15.1732 11.7832C15.2257 11.9285 15.2963 12.0516 15.3851 12.1526C15.474 12.2495 15.5769 12.3242 15.694 12.3767C15.8151 12.4291 15.9423 12.4554 16.0755 12.4554C16.2088 12.4554 16.3339 12.4291 16.451 12.3767C16.5721 12.3242 16.6771 12.2495 16.7659 12.1526C16.8547 12.0516 16.9234 11.9285 16.9718 11.7832C17.0243 11.6338 17.0505 11.4642 17.0505 11.2745C17.0505 11.0847 17.0243 10.9171 16.9718 10.7718C16.9234 10.6224 16.8547 10.4973 16.7659 10.3963C16.6771 10.2954 16.5721 10.2187 16.451 10.1662C16.3339 10.1137 16.2088 10.0875 16.0755 10.0875C15.9423 10.0875 15.8151 10.1137 15.694 10.1662C15.5769 10.2187 15.474 10.2954 15.3851 10.3963C15.2963 10.4973 15.2257 10.6224 15.1732 10.7718C15.1247 10.9171 15.1005 11.0847 15.1005 11.2745ZM14.5555 11.2745C14.5555 11.0443 14.5878 10.8303 14.6524 10.6325C14.7169 10.4306 14.8138 10.257 14.943 10.1117C15.0722 9.96231 15.2317 9.84522 15.4215 9.76044C15.6112 9.67565 15.8292 9.63326 16.0755 9.63326C16.3258 9.63326 16.5439 9.67565 16.7296 9.76044C16.9193 9.84522 17.0788 9.96231 17.208 10.1117C17.3372 10.257 17.4341 10.4306 17.4987 10.6325C17.5633 10.8303 17.5956 11.0443 17.5956 11.2745C17.5956 11.5046 17.5633 11.7186 17.4987 11.9164C17.4341 12.1142 17.3372 12.2878 17.208 12.4372C17.0788 12.5826 16.9193 12.6976 16.7296 12.7824C16.5439 12.8632 16.3258 12.9035 16.0755 12.9035C15.8292 12.9035 15.6112 12.8632 15.4215 12.7824C15.2317 12.6976 15.0722 12.5826 14.943 12.4372C14.8138 12.2878 14.7169 12.1142 14.6524 11.9164C14.5878 11.7186 14.5555 11.5046 14.5555 11.2745ZM18.2328 8.51289H18.7476V12.8369H18.2328V8.51289ZM19.8599 11.8498C19.864 11.9628 19.8902 12.0597 19.9387 12.1405C19.9871 12.2172 20.0497 12.2798 20.1264 12.3282C20.2072 12.3726 20.296 12.4049 20.3929 12.4251C20.4938 12.4453 20.5968 12.4554 20.7017 12.4554C20.7825 12.4554 20.8673 12.4493 20.9561 12.4372C21.0449 12.4251 21.1257 12.4029 21.1983 12.3706C21.275 12.3383 21.3376 12.2919 21.3861 12.2313C21.4345 12.1667 21.4587 12.086 21.4587 11.9891C21.4587 11.8558 21.4083 11.7549 21.3073 11.6863C21.2064 11.6176 21.0792 11.5631 20.9258 11.5227C20.7764 11.4783 20.6129 11.44 20.4353 11.4077C20.2576 11.3713 20.0921 11.3229 19.9387 11.2623C19.7893 11.1977 19.6641 11.1089 19.5632 10.9959C19.4623 10.8828 19.4118 10.7254 19.4118 10.5235C19.4118 10.366 19.4461 10.2308 19.5147 10.1177C19.5874 10.0047 19.6783 9.91386 19.7873 9.84522C19.9003 9.77255 20.0255 9.72006 20.1627 9.68776C20.3041 9.65143 20.4433 9.63326 20.5806 9.63326C20.7583 9.63326 20.9218 9.64941 21.0712 9.68171C21.2205 9.70997 21.3518 9.76246 21.4648 9.83917C21.5819 9.91184 21.6747 10.0128 21.7434 10.142C21.812 10.2671 21.8524 10.4246 21.8645 10.6143H21.3497C21.3417 10.5134 21.3154 10.4306 21.271 10.366C21.2266 10.2974 21.1701 10.2429 21.1014 10.2025C21.0328 10.1622 20.9561 10.1339 20.8713 10.1177C20.7906 10.0976 20.7078 10.0875 20.623 10.0875C20.5463 10.0875 20.4676 10.0935 20.3868 10.1056C20.3101 10.1177 20.2395 10.1399 20.1749 10.1722C20.1103 10.2005 20.0578 10.2409 20.0174 10.2934C19.977 10.3418 19.9568 10.4064 19.9568 10.4872C19.9568 10.576 19.9871 10.6507 20.0477 10.7112C20.1123 10.7678 20.193 10.8162 20.2899 10.8566C20.3868 10.8929 20.4958 10.9252 20.617 10.9535C20.7381 10.9777 20.8592 11.0039 20.9803 11.0322C21.1095 11.0605 21.2347 11.0948 21.3558 11.1352C21.4809 11.1755 21.59 11.23 21.6828 11.2987C21.7797 11.3633 21.8564 11.446 21.9129 11.547C21.9735 11.6479 22.0038 11.7731 22.0038 11.9224C22.0038 12.1122 21.9634 12.2697 21.8827 12.3948C21.806 12.52 21.703 12.6209 21.5738 12.6976C21.4487 12.7743 21.3053 12.8268 21.1438 12.8551C20.9864 12.8874 20.8289 12.9035 20.6715 12.9035C20.4978 12.9035 20.3323 12.8854 20.1749 12.849C20.0174 12.8127 19.8781 12.7541 19.757 12.6734C19.6359 12.5886 19.539 12.4796 19.4663 12.3464C19.3936 12.2091 19.3533 12.0436 19.3452 11.8498H19.8599Z" fill="#8C8C8C"/>
<path d="M11.8414 28.1578H15.1007C15.9867 28.1578 16.4297 28.1578 16.7479 28.3705C16.8857 28.4625 17.004 28.5808 17.096 28.7186C17.3087 29.0368 17.3087 29.4798 17.3087 30.3658C17.3087 31.8424 17.3087 32.5807 16.9542 33.1111C16.8009 33.3407 16.6037 33.5379 16.3741 33.6913C15.8437 34.0457 15.1054 34.0457 13.6288 34.0457H13.1031C11.1205 34.0457 10.1293 34.0457 9.51336 33.4297C8.89746 32.8139 8.89746 31.8226 8.89746 29.8401V28.5549C8.89746 27.791 8.89746 27.409 9.05741 27.1224C9.17142 26.9181 9.34 26.7495 9.54431 26.6355C9.83092 26.4756 10.2129 26.4756 10.9768 26.4756C11.4662 26.4756 11.711 26.4756 11.9252 26.5559C12.4143 26.7393 12.616 27.1836 12.8367 27.625L13.1031 28.1578" stroke="#DEA25F" stroke-width="0.630839" stroke-linecap="round"/>
<path d="M14.5752 30.2607L14.9621 30.5942C15.1247 30.7344 15.206 30.8045 15.206 30.8916C15.206 30.9787 15.1247 31.0488 14.9621 31.189L14.5752 31.5224" stroke="#DEA25F" stroke-width="0.630839" stroke-linecap="round" stroke-linejoin="round"/>
<path d="M11.6308 30.2607L11.244 30.5942C11.0813 30.7344 11 30.8045 11 30.8916C11 30.9787 11.0813 31.0488 11.244 31.189L11.6308 31.5224" stroke="#DEA25F" stroke-width="0.630839" stroke-linecap="round" stroke-linejoin="round"/>
<path d="M13.5237 29.8408L12.6826 31.9436" stroke="#DEA25F" stroke-width="0.630839" stroke-linecap="round" stroke-linejoin="round"/>
<path d="M21.5023 32.7617L20.298 28.3573H20.8399L21.7604 31.9445H21.8034L22.741 28.3573H23.3432L24.2809 31.9445H24.3239L25.2443 28.3573H25.7863L24.582 32.7617H24.0314L23.0593 29.252H23.0249L22.0529 32.7617H21.5023ZM26.175 32.7617V29.4584H26.6653V29.9574H26.6997C26.76 29.7939 26.8689 29.6613 27.0266 29.5595C27.1843 29.4577 27.3621 29.4068 27.56 29.4068C27.5973 29.4068 27.6439 29.4075 27.6998 29.409C27.7557 29.4104 27.798 29.4125 27.8267 29.4154V29.9315C27.8094 29.9272 27.77 29.9208 27.7084 29.9122C27.6482 29.9022 27.5844 29.8971 27.517 29.8971C27.3564 29.8971 27.213 29.9308 27.0869 29.9982C26.9621 30.0642 26.8632 30.1559 26.7901 30.2735C26.7184 30.3896 26.6825 30.5222 26.6825 30.6713V32.7617H26.175ZM28.4283 32.7617V29.4584H28.9358V32.7617H28.4283ZM28.6864 28.9079C28.5874 28.9079 28.5021 28.8742 28.4304 28.8068C28.3602 28.7394 28.3251 28.6584 28.3251 28.5638C28.3251 28.4691 28.3602 28.3881 28.4304 28.3208C28.5021 28.2534 28.5874 28.2197 28.6864 28.2197C28.7853 28.2197 28.8699 28.2534 28.9401 28.3208C29.0118 28.3881 29.0477 28.4691 29.0477 28.5638C29.0477 28.6584 29.0118 28.7394 28.9401 28.8068C28.8699 28.8742 28.7853 28.9079 28.6864 28.9079ZM31.302 29.4584V29.8885H29.5901V29.4584H31.302ZM30.0891 28.667H30.5966V31.8155C30.5966 31.9588 30.6174 32.0664 30.659 32.138C30.702 32.2083 30.7565 32.2556 30.8224 32.28C30.8898 32.3029 30.9608 32.3144 31.0353 32.3144C31.0912 32.3144 31.1371 32.3115 31.173 32.3058C31.2088 32.2986 31.2375 32.2929 31.259 32.2886L31.3622 32.7445C31.3278 32.7574 31.2798 32.7703 31.2181 32.7832C31.1565 32.7976 31.0783 32.8047 30.9837 32.8047C30.8403 32.8047 30.6998 32.7739 30.5622 32.7123C30.426 32.6506 30.3127 32.5567 30.2224 32.4305C30.1335 32.3044 30.0891 32.1452 30.0891 31.9531V28.667ZM33.415 32.8305C33.0967 32.8305 32.8221 32.7603 32.5913 32.6198C32.3619 32.4778 32.1848 32.28 32.0601 32.0262C31.9368 31.771 31.8751 31.4742 31.8751 31.1359C31.8751 30.7975 31.9368 30.4993 32.0601 30.2412C32.1848 29.9817 32.3583 29.7796 32.5805 29.6348C32.8042 29.4885 33.0651 29.4154 33.3633 29.4154C33.5354 29.4154 33.7053 29.4441 33.873 29.5014C34.0408 29.5588 34.1935 29.652 34.3311 29.781C34.4687 29.9086 34.5784 30.0778 34.6602 30.2885C34.7419 30.4993 34.7827 30.7588 34.7827 31.0671V31.2821H32.2364V30.8434H34.2666C34.2666 30.657 34.2293 30.4907 34.1548 30.3445C34.0816 30.1982 33.977 30.0828 33.8408 29.9982C33.706 29.9136 33.5469 29.8713 33.3633 29.8713C33.1612 29.8713 32.9863 29.9215 32.8386 30.0219C32.6924 30.1208 32.5798 30.2498 32.501 30.409C32.4221 30.5681 32.3827 30.7387 32.3827 30.9208V31.2133C32.3827 31.4628 32.4257 31.6742 32.5117 31.8477C32.5992 32.0198 32.7203 32.151 32.8752 32.2413C33.03 32.3302 33.2099 32.3746 33.415 32.3746C33.5483 32.3746 33.6687 32.356 33.7763 32.3187C33.8852 32.28 33.9791 32.2226 34.058 32.1467C34.1368 32.0692 34.1978 31.9732 34.2408 31.8585L34.7311 31.9961C34.6795 32.1624 34.5928 32.3087 34.4709 32.4348C34.349 32.5596 34.1985 32.6571 34.0193 32.7273C33.8401 32.7961 33.6386 32.8305 33.415 32.8305ZM38.6 32.8305C38.2903 32.8305 38.0237 32.7574 37.8 32.6112C37.5763 32.4649 37.4043 32.2635 37.2839 32.0069C37.1634 31.7502 37.1032 31.457 37.1032 31.1273C37.1032 30.7918 37.1649 30.4957 37.2882 30.2391C37.4129 29.981 37.5864 29.7796 37.8086 29.6348C38.0323 29.4885 38.2932 29.4154 38.5914 29.4154C38.8237 29.4154 39.033 29.4584 39.2194 29.5444C39.4058 29.6305 39.5585 29.7509 39.6775 29.9057C39.7965 30.0606 39.8703 30.2412 39.899 30.4477H39.3914C39.3527 30.2971 39.2667 30.1638 39.1334 30.0477C39.0015 29.9301 38.8237 29.8713 38.6 29.8713C38.4022 29.8713 38.2287 29.9229 38.0796 30.0262C37.9319 30.128 37.8165 30.2721 37.7333 30.4584C37.6516 30.6434 37.6108 30.8606 37.6108 31.1101C37.6108 31.3653 37.6509 31.5875 37.7312 31.7767C37.8129 31.966 37.9276 32.113 38.0753 32.2176C38.2244 32.3223 38.3993 32.3746 38.6 32.3746C38.7319 32.3746 38.8516 32.3517 38.9592 32.3058C39.0667 32.2599 39.1577 32.194 39.2323 32.1079C39.3069 32.0219 39.3599 31.9187 39.3914 31.7983H39.899C39.8703 31.9932 39.7993 32.1689 39.6861 32.3251C39.5742 32.48 39.4259 32.6033 39.2409 32.6951C39.0574 32.7854 38.8438 32.8305 38.6 32.8305ZM41.9829 32.8305C41.6847 32.8305 41.423 32.7596 41.1979 32.6176C40.9743 32.4757 40.7994 32.2771 40.6732 32.0219C40.5485 31.7667 40.4861 31.4685 40.4861 31.1273C40.4861 30.7832 40.5485 30.4828 40.6732 30.2262C40.7994 29.9695 40.9743 29.7702 41.1979 29.6283C41.423 29.4864 41.6847 29.4154 41.9829 29.4154C42.2811 29.4154 42.5421 29.4864 42.7657 29.6283C42.9908 29.7702 43.1657 29.9695 43.2905 30.2262C43.4166 30.4828 43.4797 30.7832 43.4797 31.1273C43.4797 31.4685 43.4166 31.7667 43.2905 32.0219C43.1657 32.2771 42.9908 32.4757 42.7657 32.6176C42.5421 32.7596 42.2811 32.8305 41.9829 32.8305ZM41.9829 32.3746C42.2094 32.3746 42.3958 32.3165 42.5421 32.2004C42.6883 32.0843 42.7965 31.9316 42.8668 31.7423C42.937 31.5531 42.9722 31.3481 42.9722 31.1273C42.9722 30.9065 42.937 30.7007 42.8668 30.5101C42.7965 30.3194 42.6883 30.1652 42.5421 30.0477C42.3958 29.9301 42.2094 29.8713 41.9829 29.8713C41.7564 29.8713 41.57 29.9301 41.4238 30.0477C41.2775 30.1652 41.1693 30.3194 41.099 30.5101C41.0288 30.7007 40.9936 30.9065 40.9936 31.1273C40.9936 31.3481 41.0288 31.5531 41.099 31.7423C41.1693 31.9316 41.2775 32.0843 41.4238 32.2004C41.57 32.3165 41.7564 32.3746 41.9829 32.3746ZM45.5018 32.8305C45.2265 32.8305 44.9835 32.761 44.7728 32.6219C44.562 32.4814 44.3971 32.2836 44.2781 32.0284C44.1591 31.7717 44.0996 31.4685 44.0996 31.1187C44.0996 30.7717 44.1591 30.4706 44.2781 30.2154C44.3971 29.9602 44.5627 29.7631 44.7749 29.624C44.9871 29.4849 45.2323 29.4154 45.5104 29.4154C45.7255 29.4154 45.8954 29.4512 46.0201 29.5229C46.1463 29.5932 46.2423 29.6735 46.3083 29.7638C46.3757 29.8527 46.428 29.9258 46.4653 29.9832H46.5083V28.3573H47.0158V32.7617H46.5255V32.2542H46.4653C46.428 32.3144 46.3749 32.3904 46.3061 32.4821C46.2373 32.5725 46.1391 32.6535 46.0115 32.7252C45.8839 32.7954 45.714 32.8305 45.5018 32.8305ZM45.5706 32.3746C45.7742 32.3746 45.9463 32.3216 46.0868 32.2155C46.2273 32.1079 46.3341 31.9595 46.4072 31.7703C46.4803 31.5796 46.5169 31.3595 46.5169 31.1101C46.5169 30.8635 46.481 30.6477 46.4094 30.4627C46.3377 30.2764 46.2316 30.1315 46.0911 30.0283C45.9506 29.9237 45.7771 29.8713 45.5706 29.8713C45.3556 29.8713 45.1764 29.9265 45.033 30.0369C44.891 30.1459 44.7842 30.2943 44.7125 30.4821C44.6423 30.6685 44.6072 30.8778 44.6072 31.1101C44.6072 31.3452 44.643 31.5588 44.7147 31.7509C44.7878 31.9416 44.8953 32.0936 45.0373 32.2069C45.1807 32.3187 45.3584 32.3746 45.5706 32.3746ZM49.4008 32.8305C49.0825 32.8305 48.808 32.7603 48.5771 32.6198C48.3478 32.4778 48.1707 32.28 48.046 32.0262C47.9227 31.771 47.861 31.4742 47.861 31.1359C47.861 30.7975 47.9227 30.4993 48.046 30.2412C48.1707 29.9817 48.3442 29.7796 48.5664 29.6348C48.7901 29.4885 49.051 29.4154 49.3492 29.4154C49.5213 29.4154 49.6912 29.4441 49.8589 29.5014C50.0266 29.5588 50.1793 29.652 50.317 29.781C50.4546 29.9086 50.5643 30.0778 50.646 30.2885C50.7277 30.4993 50.7686 30.7588 50.7686 31.0671V31.2821H48.2223V30.8434H50.2525C50.2525 30.657 50.2152 30.4907 50.1406 30.3445C50.0675 30.1982 49.9628 30.0828 49.8266 29.9982C49.6919 29.9136 49.5327 29.8713 49.3492 29.8713C49.1471 29.8713 48.9721 29.9215 48.8245 30.0219C48.6782 30.1208 48.5657 30.2498 48.4868 30.409C48.408 30.5681 48.3685 30.7387 48.3685 30.9208V31.2133C48.3685 31.4628 48.4116 31.6742 48.4976 31.8477C48.585 32.0198 48.7062 32.151 48.861 32.2413C49.0159 32.3302 49.1958 32.3746 49.4008 32.3746C49.5342 32.3746 49.6546 32.356 49.7621 32.3187C49.8711 32.28 49.965 32.2226 50.0438 32.1467C50.1227 32.0692 50.1836 31.9732 50.2266 31.8585L50.717 31.9961C50.6654 32.1624 50.5786 32.3087 50.4568 32.4348C50.3349 32.5596 50.1844 32.6571 50.0051 32.7273C49.8259 32.7961 49.6245 32.8305 49.4008 32.8305Z" fill="#303030"/>
<path d="M9.10742 47.4211C9.10742 45.5377 9.10742 44.596 9.69252 44.0109C10.2776 43.4258 11.2193 43.4258 13.1027 43.4258C14.9861 43.4258 15.9278 43.4258 16.513 44.0109C17.0981 44.596 17.0981 45.5377 17.0981 47.4211C17.0981 49.3045 17.0981 50.2462 16.513 50.8313C15.9278 51.4164 14.9861 51.4164 13.1027 51.4164C11.2193 51.4164 10.2776 51.4164 9.69252 50.8313C9.10742 50.2462 9.10742 49.3045 9.10742 47.4211Z" stroke="#5F9FDE" stroke-width="0.630839"/>
<path d="M9.10742 46.1592H17.0981" stroke="#5F9FDE" stroke-width="0.630839" stroke-linejoin="round"/>
<path d="M11 44.8984H11.0022" stroke="#5F9FDE" stroke-width="0.841119" stroke-linecap="round" stroke-linejoin="round"/>
<path d="M12.6826 44.8984H12.6849" stroke="#5F9FDE" stroke-width="0.841119" stroke-linecap="round" stroke-linejoin="round"/>
<path d="M23.111 46.6176C23.0851 46.3997 22.9805 46.2305 22.797 46.1101C22.6134 45.9896 22.3884 45.9294 22.1217 45.9294C21.9267 45.9294 21.7561 45.9609 21.6098 46.024C21.465 46.0871 21.3518 46.1739 21.27 46.2843C21.1898 46.3946 21.1496 46.5201 21.1496 46.6606C21.1496 46.7782 21.1776 46.8792 21.2335 46.9638C21.2908 47.047 21.364 47.1165 21.4528 47.1724C21.5417 47.2269 21.6349 47.2721 21.7324 47.3079C21.8299 47.3423 21.9195 47.3703 22.0012 47.3918L22.4486 47.5122C22.5633 47.5423 22.6909 47.5839 22.8314 47.637C22.9733 47.69 23.1088 47.7624 23.2378 47.8542C23.3683 47.9445 23.4758 48.0606 23.5604 48.2026C23.645 48.3445 23.6873 48.5187 23.6873 48.7252C23.6873 48.9632 23.6249 49.1782 23.5002 49.3703C23.3769 49.5625 23.1963 49.7152 22.9583 49.8284C22.7217 49.9417 22.4342 49.9983 22.0959 49.9983C21.7805 49.9983 21.5073 49.9474 21.2765 49.8456C21.0471 49.7438 20.8665 49.6019 20.7346 49.4198C20.6041 49.2377 20.5302 49.0263 20.513 48.7854H21.0636C21.0779 48.9517 21.1338 49.0893 21.2313 49.1983C21.3303 49.3058 21.455 49.3861 21.6055 49.4392C21.7575 49.4908 21.921 49.5166 22.0959 49.5166C22.2995 49.5166 22.4823 49.4836 22.6443 49.4177C22.8063 49.3503 22.9346 49.2571 23.0292 49.1381C23.1239 49.0177 23.1712 48.8771 23.1712 48.7166C23.1712 48.5703 23.1303 48.4513 23.0486 48.3596C22.9669 48.2678 22.8593 48.1933 22.726 48.1359C22.5927 48.0786 22.4486 48.0284 22.2937 47.9854L21.7518 47.8305C21.4077 47.7316 21.1353 47.5904 20.9346 47.4069C20.7338 47.2233 20.6335 46.9832 20.6335 46.6864C20.6335 46.4398 20.7001 46.2248 20.8335 46.0412C20.9682 45.8563 21.1489 45.7129 21.3754 45.6111C21.6034 45.5079 21.8579 45.4563 22.1389 45.4563C22.4228 45.4563 22.6751 45.5072 22.8959 45.609C23.1167 45.7093 23.2916 45.847 23.4206 46.0219C23.5511 46.1968 23.6199 46.3954 23.6271 46.6176H23.111ZM25.8804 49.9897C25.5621 49.9897 25.2875 49.9195 25.0567 49.779C24.8273 49.637 24.6502 49.4392 24.5255 49.1854C24.4022 48.9302 24.3405 48.6334 24.3405 48.2951C24.3405 47.9567 24.4022 47.6585 24.5255 47.4004C24.6502 47.1409 24.8237 46.9387 25.0459 46.7939C25.2696 46.6477 25.5305 46.5746 25.8288 46.5746C26.0008 46.5746 26.1707 46.6033 26.3384 46.6606C26.5062 46.718 26.6589 46.8111 26.7965 46.9402C26.9342 47.0678 27.0438 47.237 27.1256 47.4477C27.2073 47.6585 27.2481 47.918 27.2481 48.2262V48.4413H24.7018V48.0026H26.732C26.732 47.8162 26.6947 47.6499 26.6202 47.5036C26.5471 47.3574 26.4424 47.242 26.3062 47.1574C26.1714 47.0728 26.0123 47.0305 25.8288 47.0305C25.6266 47.0305 25.4517 47.0807 25.304 47.181C25.1578 47.28 25.0452 47.409 24.9664 47.5682C24.8875 47.7273 24.8481 47.8979 24.8481 48.08V48.3725C24.8481 48.6219 24.8911 48.8334 24.9771 49.0069C25.0646 49.1789 25.1857 49.3101 25.3406 49.4005C25.4954 49.4893 25.6753 49.5338 25.8804 49.5338C26.0137 49.5338 26.1341 49.5152 26.2417 49.4779C26.3506 49.4392 26.4445 49.3818 26.5234 49.3058C26.6023 49.2284 26.6632 49.1323 26.7062 49.0177L27.1965 49.1553C27.1449 49.3216 27.0582 49.4678 26.9363 49.594C26.8144 49.7187 26.6639 49.8162 26.4847 49.8865C26.3055 49.9553 26.104 49.9897 25.8804 49.9897ZM28.9923 49.9983C28.7829 49.9983 28.593 49.9589 28.4224 49.88C28.2518 49.7997 28.1163 49.6843 28.0159 49.5338C27.9155 49.3818 27.8654 49.1983 27.8654 48.9832C27.8654 48.794 27.9026 48.6406 27.9772 48.523C28.0517 48.404 28.1514 48.3108 28.2761 48.2434C28.4009 48.1761 28.5385 48.1259 28.689 48.0929C28.841 48.0585 28.9937 48.0312 29.1471 48.0112C29.3478 47.9854 29.5106 47.966 29.6353 47.9531C29.7615 47.9388 29.8532 47.9151 29.9106 47.8821C29.9694 47.8492 29.9987 47.7918 29.9987 47.7101V47.6929C29.9987 47.4807 29.9407 47.3158 29.8246 47.1983C29.7099 47.0807 29.5357 47.0219 29.302 47.0219C29.0597 47.0219 28.8697 47.075 28.7321 47.181C28.5944 47.2871 28.4976 47.4004 28.4417 47.5208L27.96 47.3488C28.046 47.1481 28.1607 46.9918 28.3041 46.88C28.4489 46.7667 28.6066 46.6878 28.7772 46.6434C28.9493 46.5975 29.1184 46.5746 29.2848 46.5746C29.3908 46.5746 29.5127 46.5875 29.6504 46.6133C29.7894 46.6377 29.9235 46.6886 30.0525 46.766C30.183 46.8434 30.2912 46.9603 30.3773 47.1165C30.4633 47.2728 30.5063 47.4821 30.5063 47.7445V49.9209H29.9987V49.4736H29.9729C29.9385 49.5453 29.8812 49.622 29.8009 49.7037C29.7206 49.7854 29.6138 49.8549 29.4805 49.9123C29.3471 49.9696 29.1844 49.9983 28.9923 49.9983ZM29.0697 49.5424C29.2704 49.5424 29.4396 49.503 29.5772 49.4241C29.7163 49.3453 29.821 49.2435 29.8912 49.1187C29.9629 48.994 29.9987 48.8628 29.9987 48.7252V48.2606C29.9772 48.2865 29.9299 48.3101 29.8568 48.3316C29.7851 48.3517 29.702 48.3696 29.6073 48.3854C29.5141 48.3997 29.4231 48.4126 29.3342 48.4241C29.2468 48.4341 29.1758 48.4427 29.1213 48.4499C28.9894 48.4671 28.8661 48.4951 28.7514 48.5338C28.6381 48.571 28.5464 48.6277 28.4761 48.7037C28.4073 48.7782 28.3729 48.88 28.3729 49.009C28.3729 49.1854 28.4381 49.3187 28.5686 49.4091C28.7005 49.4979 28.8675 49.5424 29.0697 49.5424ZM31.4327 49.9209V46.6176H31.923V47.1165H31.9574C32.0176 46.9531 32.1266 46.8205 32.2843 46.7187C32.442 46.6169 32.6198 46.566 32.8176 46.566C32.8549 46.566 32.9015 46.5667 32.9574 46.5681C33.0133 46.5696 33.0556 46.5717 33.0843 46.5746V47.0907C33.0671 47.0864 33.0277 47.08 32.966 47.0714C32.9058 47.0613 32.842 47.0563 32.7746 47.0563C32.614 47.0563 32.4707 47.09 32.3445 47.1574C32.2198 47.2233 32.1208 47.3151 32.0477 47.4327C31.976 47.5488 31.9402 47.6814 31.9402 47.8305V49.9209H31.4327ZM34.9274 49.9897C34.6177 49.9897 34.351 49.9166 34.1273 49.7704C33.9037 49.6241 33.7316 49.4227 33.6112 49.166C33.4908 48.9094 33.4306 48.6162 33.4306 48.2865C33.4306 47.951 33.4922 47.6549 33.6155 47.3983C33.7402 47.1402 33.9137 46.9387 34.1359 46.7939C34.3596 46.6477 34.6205 46.5746 34.9188 46.5746C35.151 46.5746 35.3603 46.6176 35.5467 46.7036C35.7331 46.7896 35.8858 46.9101 36.0048 47.0649C36.1238 47.2198 36.1976 47.4004 36.2263 47.6069H35.7188C35.6801 47.4563 35.594 47.323 35.4607 47.2069C35.3288 47.0893 35.151 47.0305 34.9274 47.0305C34.7295 47.0305 34.556 47.0821 34.4069 47.1853C34.2592 47.2871 34.1438 47.4312 34.0607 47.6176C33.979 47.8026 33.9381 48.0198 33.9381 48.2692C33.9381 48.5244 33.9782 48.7467 34.0585 48.9359C34.1402 49.1252 34.2549 49.2721 34.4026 49.3768C34.5517 49.4815 34.7266 49.5338 34.9274 49.5338C35.0593 49.5338 35.179 49.5109 35.2865 49.465C35.394 49.4191 35.4851 49.3531 35.5596 49.2671C35.6342 49.1811 35.6872 49.0779 35.7188 48.9574H36.2263C36.1976 49.1524 36.1267 49.3281 36.0134 49.4843C35.9016 49.6392 35.7532 49.7625 35.5682 49.8542C35.3847 49.9446 35.1711 49.9897 34.9274 49.9897ZM37.4758 47.9338V49.9209H36.9683V45.5165H37.4758V47.1337H37.5188C37.5962 46.9631 37.7124 46.8276 37.8672 46.7273C38.0235 46.6255 38.2314 46.5746 38.4909 46.5746C38.716 46.5746 38.9131 46.6197 39.0823 46.7101C39.2515 46.799 39.3827 46.9359 39.4759 47.1208C39.5705 47.3043 39.6178 47.538 39.6178 47.8219V49.9209H39.1103V47.8563C39.1103 47.594 39.0422 47.3911 38.9059 47.2477C38.7712 47.1029 38.5841 47.0305 38.3446 47.0305C38.1783 47.0305 38.0292 47.0656 37.8973 47.1359C37.7669 47.2061 37.6636 47.3086 37.5876 47.4434C37.5131 47.5782 37.4758 47.7416 37.4758 47.9338ZM42.998 49.9209L41.9915 46.6176H42.5249L43.2388 49.1467H43.2733L43.9787 46.6176H44.5206L45.2174 49.1381H45.2518L45.9658 46.6176H46.4991L45.4927 49.9209H44.9937L44.2711 47.3832H44.2195L43.4969 49.9209H42.998ZM48.4427 49.9897C48.1244 49.9897 47.8499 49.9195 47.6191 49.779C47.3897 49.637 47.2126 49.4392 47.0879 49.1854C46.9646 48.9302 46.9029 48.6334 46.9029 48.2951C46.9029 47.9567 46.9646 47.6585 47.0879 47.4004C47.2126 47.1409 47.3861 46.9387 47.6083 46.7939C47.832 46.6477 48.0929 46.5746 48.3911 46.5746C48.5632 46.5746 48.7331 46.6033 48.9008 46.6606C49.0686 46.718 49.2212 46.8111 49.3589 46.9402C49.4965 47.0678 49.6062 47.237 49.6879 47.4477C49.7696 47.6585 49.8105 47.918 49.8105 48.2262V48.4413H47.2642V48.0026H49.2944C49.2944 47.8162 49.2571 47.6499 49.1825 47.5036C49.1094 47.3574 49.0048 47.242 48.8686 47.1574C48.7338 47.0728 48.5746 47.0305 48.3911 47.0305C48.189 47.0305 48.0141 47.0807 47.8664 47.181C47.7201 47.28 47.6076 47.409 47.5287 47.5682C47.4499 47.7273 47.4105 47.8979 47.4105 48.08V48.3725C47.4105 48.6219 47.4535 48.8334 47.5395 49.0069C47.6269 49.1789 47.7481 49.3101 47.9029 49.4005C48.0578 49.4893 48.2377 49.5338 48.4427 49.5338C48.5761 49.5338 48.6965 49.5152 48.804 49.4779C48.913 49.4392 49.0069 49.3818 49.0858 49.3058C49.1646 49.2284 49.2256 49.1323 49.2686 49.0177L49.7589 49.1553C49.7073 49.3216 49.6205 49.4678 49.4987 49.594C49.3768 49.7187 49.2263 49.8162 49.0471 49.8865C48.8678 49.9553 48.6664 49.9897 48.4427 49.9897ZM50.6514 49.9209V45.5165H51.1589V47.1423H51.2019C51.2392 47.085 51.2908 47.0119 51.3568 46.923C51.4242 46.8327 51.5202 46.7524 51.645 46.6821C51.7711 46.6104 51.9417 46.5746 52.1568 46.5746C52.4349 46.5746 52.6801 46.6441 52.8923 46.7832C53.1045 46.9223 53.2701 47.1194 53.3891 47.3746C53.5081 47.6298 53.5676 47.9309 53.5676 48.2778C53.5676 48.6277 53.5081 48.9309 53.3891 49.1875C53.2701 49.4428 53.1052 49.6406 52.8945 49.7811C52.6837 49.9202 52.4407 49.9897 52.1654 49.9897C51.9532 49.9897 51.7833 49.9546 51.6557 49.8843C51.5281 49.8127 51.4299 49.7316 51.3611 49.6413C51.2923 49.5496 51.2392 49.4736 51.2019 49.4134H51.1417V49.9209H50.6514ZM51.1503 48.2692C51.1503 48.5187 51.1869 48.7388 51.26 48.9295C51.3331 49.1187 51.4399 49.2671 51.5804 49.3746C51.7209 49.4807 51.893 49.5338 52.0966 49.5338C52.3088 49.5338 52.4858 49.4779 52.6278 49.366C52.7712 49.2528 52.8787 49.1008 52.9504 48.9101C53.0235 48.718 53.06 48.5044 53.06 48.2692C53.06 48.037 53.0242 47.8277 52.9525 47.6413C52.8823 47.4535 52.7755 47.3051 52.6321 47.1961C52.4901 47.0857 52.3116 47.0305 52.0966 47.0305C51.8901 47.0305 51.7166 47.0828 51.5761 47.1875C51.4356 47.2907 51.3295 47.4355 51.2579 47.6219C51.1862 47.8069 51.1503 48.0226 51.1503 48.2692Z" fill="#303030"/>
<path d="M9.31738 66.261L11.1971 64.3812C11.34 64.2384 11.5336 64.1582 11.7356 64.1582C11.9376 64.1582 12.1313 64.2384 12.274 64.3812L13.9435 66.0507M13.9435 66.0507L14.5744 66.6816M13.9435 66.0507L14.7719 65.2223C14.9147 65.0796 15.1084 64.9993 15.3104 64.9993C15.5123 64.9993 15.706 65.0796 15.8488 65.2223L16.8875 66.261" stroke="#DE5FD8" stroke-width="0.630839" stroke-linecap="round" stroke-linejoin="round"/>
<path d="M14.5755 62.8961C14.6916 62.8961 14.7858 62.802 14.7858 62.6859C14.7858 62.5697 14.6916 62.4756 14.5755 62.4756M14.5755 62.8961C14.4594 62.8961 14.3652 62.802 14.3652 62.6859C14.3652 62.5697 14.4594 62.4756 14.5755 62.4756M14.5755 62.8961V62.4756" stroke="#DE5FD8" stroke-width="0.630839" stroke-linecap="round" stroke-linejoin="round"/>
<path d="M9.61124 67.8365C9.10742 67.2466 9.10742 66.3572 9.10742 64.5783C9.10742 62.7995 9.10742 61.91 9.61124 61.3201C9.68278 61.2364 9.76079 61.1584 9.84456 61.0868C10.4345 60.583 11.3239 60.583 13.1027 60.583C14.8816 60.583 15.771 60.583 16.3609 61.0868C16.4447 61.1584 16.5227 61.2364 16.5942 61.3201C17.0981 61.91 17.0981 62.7995 17.0981 64.5783C17.0981 66.3572 17.0981 67.2466 16.5942 67.8365C16.5227 67.9203 16.4447 67.9983 16.3609 68.0698C15.771 68.5736 14.8816 68.5736 13.1027 68.5736C11.3239 68.5736 10.4345 68.5736 9.84456 68.0698C9.76079 67.9983 9.68278 67.9203 9.61124 67.8365Z" stroke="#DE5FD8" stroke-width="0.630839" stroke-linecap="round" stroke-linejoin="round"/>
<path d="M21.2356 62.6747V67.0791H20.7023V62.6747H21.2356ZM22.2362 67.0791V63.7758H22.7265V64.2919H22.7695C22.8384 64.1156 22.9495 63.9787 23.1029 63.8812C23.2563 63.7822 23.4405 63.7328 23.6556 63.7328C23.8735 63.7328 24.0549 63.7822 24.1997 63.8812C24.3459 63.9787 24.4599 64.1156 24.5416 64.2919H24.576C24.6606 64.1213 24.7875 63.9858 24.9567 63.8855C25.1259 63.7837 25.3287 63.7328 25.5653 63.7328C25.8607 63.7328 26.1022 63.8253 26.2901 64.0102C26.4779 64.1937 26.5718 64.4798 26.5718 64.8683V67.0791H26.0642V64.8683C26.0642 64.6246 25.9976 64.4504 25.8642 64.3457C25.7309 64.241 25.5739 64.1887 25.3933 64.1887C25.161 64.1887 24.9811 64.259 24.8535 64.3995C24.7259 64.5385 24.6621 64.7149 24.6621 64.9285V67.0791H24.1459V64.8167C24.1459 64.6289 24.085 64.4776 23.9631 64.3629C23.8413 64.2468 23.6843 64.1887 23.4921 64.1887C23.3602 64.1887 23.2369 64.2238 23.1222 64.2941C23.009 64.3643 22.9172 64.4618 22.847 64.5866C22.7781 64.7099 22.7437 64.8525 22.7437 65.0145V67.0791H22.2362ZM28.4718 67.1565C28.2625 67.1565 28.0725 67.1171 27.9019 67.0382C27.7313 66.958 27.5958 66.8425 27.4955 66.692C27.3951 66.54 27.3449 66.3565 27.3449 66.1414C27.3449 65.9522 27.3822 65.7988 27.4568 65.6812C27.5313 65.5622 27.631 65.469 27.7557 65.4016C27.8804 65.3343 28.0181 65.2841 28.1686 65.2511C28.3206 65.2167 28.4733 65.1895 28.6267 65.1694C28.8274 65.1436 28.9901 65.1242 29.1149 65.1113C29.241 65.097 29.3328 65.0733 29.3901 65.0403C29.4489 65.0074 29.4783 64.95 29.4783 64.8683V64.8511C29.4783 64.6389 29.4202 64.474 29.3041 64.3565C29.1894 64.2389 29.0152 64.1801 28.7815 64.1801C28.5392 64.1801 28.3492 64.2332 28.2116 64.3393C28.074 64.4453 27.9772 64.5586 27.9213 64.679L27.4395 64.507C27.5256 64.3063 27.6403 64.15 27.7836 64.0382C27.9284 63.9249 28.0862 63.846 28.2568 63.8016C28.4288 63.7557 28.598 63.7328 28.7643 63.7328C28.8704 63.7328 28.9923 63.7457 29.1299 63.7715C29.269 63.7959 29.403 63.8468 29.5321 63.9242C29.6625 64.0016 29.7708 64.1185 29.8568 64.2747C29.9428 64.431 29.9858 64.6403 29.9858 64.9027V67.0791H29.4783V66.6318H29.4525C29.4181 66.7035 29.3607 66.7802 29.2805 66.8619C29.2002 66.9436 29.0934 67.0132 28.96 67.0705C28.8267 67.1278 28.6639 67.1565 28.4718 67.1565ZM28.5493 66.7006C28.75 66.7006 28.9192 66.6612 29.0568 66.5823C29.1959 66.5035 29.3005 66.4017 29.3708 66.2769C29.4425 66.1522 29.4783 66.021 29.4783 65.8834V65.4188C29.4568 65.4447 29.4095 65.4683 29.3364 65.4898C29.2647 65.5099 29.1815 65.5278 29.0869 65.5436C28.9937 65.5579 28.9027 65.5708 28.8138 65.5823C28.7263 65.5923 28.6553 65.6009 28.6009 65.6081C28.469 65.6253 28.3457 65.6533 28.231 65.692C28.1177 65.7292 28.0259 65.7859 27.9557 65.8619C27.8869 65.9364 27.8525 66.0382 27.8525 66.1673C27.8525 66.3436 27.9177 66.4769 28.0482 66.5673C28.1801 66.6562 28.3471 66.7006 28.5493 66.7006ZM32.2456 68.3867C32.0004 68.3867 31.7897 68.3551 31.6133 68.292C31.437 68.2304 31.29 68.1487 31.1724 68.0469C31.0563 67.9465 30.9638 67.839 30.895 67.7243L31.2993 67.4404C31.3452 67.5006 31.4033 67.5694 31.4735 67.6469C31.5438 67.7257 31.6398 67.7938 31.7617 67.8512C31.885 67.9099 32.0463 67.9393 32.2456 67.9393C32.5122 67.9393 32.7323 67.8748 32.9058 67.7458C33.0793 67.6167 33.166 67.4146 33.166 67.1393V66.4683H33.123C33.0857 66.5286 33.0327 66.6031 32.9639 66.692C32.8965 66.7795 32.799 66.8576 32.6714 66.9264C32.5452 66.9938 32.3746 67.0275 32.1596 67.0275C31.8929 67.0275 31.6534 66.9644 31.4413 66.8382C31.2305 66.7121 31.0635 66.5286 30.9402 66.2877C30.8183 66.0468 30.7574 65.7543 30.7574 65.4102C30.7574 65.0719 30.8169 64.7773 30.9359 64.5264C31.0549 64.274 31.2205 64.079 31.4327 63.9414C31.6448 63.8023 31.89 63.7328 32.1682 63.7328C32.3832 63.7328 32.5538 63.7686 32.68 63.8403C32.8076 63.9106 32.9051 63.9909 32.9725 64.0812C33.0413 64.1701 33.0943 64.2432 33.1316 64.3005H33.1832V63.7758H33.6736V67.1737C33.6736 67.4576 33.609 67.6884 33.48 67.8662C33.3524 68.0454 33.1804 68.1766 32.9639 68.2598C32.7488 68.3444 32.5094 68.3867 32.2456 68.3867ZM32.2284 66.5716C32.432 66.5716 32.604 66.525 32.7445 66.4318C32.885 66.3386 32.9918 66.2045 33.065 66.0296C33.1381 65.8547 33.1746 65.6454 33.1746 65.4016C33.1746 65.1636 33.1388 64.9536 33.0671 64.7715C32.9954 64.5894 32.8893 64.4468 32.7488 64.3436C32.6083 64.2403 32.4348 64.1887 32.2284 64.1887C32.0133 64.1887 31.8341 64.2432 31.6907 64.3522C31.5488 64.4611 31.442 64.6074 31.3703 64.7909C31.3 64.9744 31.2649 65.178 31.2649 65.4016C31.2649 65.631 31.3008 65.8339 31.3724 66.0103C31.4456 66.1852 31.5531 66.3228 31.695 66.4232C31.8384 66.5221 32.0162 66.5716 32.2284 66.5716ZM35.9876 67.1479C35.6693 67.1479 35.3948 67.0777 35.1639 66.9372C34.9345 66.7952 34.7575 66.5974 34.6327 66.3436C34.5094 66.0884 34.4478 65.7916 34.4478 65.4533C34.4478 65.1149 34.5094 64.8167 34.6327 64.5586C34.7575 64.2991 34.9309 64.097 35.1532 63.9521C35.3768 63.8059 35.6378 63.7328 35.936 63.7328C36.108 63.7328 36.2779 63.7615 36.4457 63.8188C36.6134 63.8762 36.7661 63.9694 36.9038 64.0984C37.0414 64.226 37.1511 64.3952 37.2328 64.6059C37.3145 64.8167 37.3554 65.0762 37.3554 65.3844V65.5995H34.8091V65.1608H36.8392C36.8392 64.9744 36.802 64.8081 36.7274 64.6618C36.6543 64.5156 36.5496 64.4002 36.4134 64.3156C36.2786 64.231 36.1195 64.1887 35.936 64.1887C35.7338 64.1887 35.5589 64.2389 35.4112 64.3393C35.265 64.4382 35.1525 64.5672 35.0736 64.7264C34.9947 64.8855 34.9553 65.0561 34.9553 65.2382V65.5307C34.9553 65.7801 34.9983 65.9916 35.0844 66.1651C35.1718 66.3371 35.293 66.4683 35.4478 66.5587C35.6026 66.6476 35.7826 66.692 35.9876 66.692C36.1209 66.692 36.2414 66.6734 36.3489 66.6361C36.4579 66.5974 36.5518 66.54 36.6306 66.464C36.7095 66.3866 36.7704 66.2906 36.8134 66.1759L37.3038 66.3135C37.2521 66.4798 37.1654 66.626 37.0435 66.7522C36.9217 66.8769 36.7711 66.9744 36.5919 67.0447C36.4127 67.1135 36.2113 67.1479 35.9876 67.1479Z" fill="#303030"/>
<path d="M13.1031 85.3116C13.8641 85.3116 14.594 85.2364 15.2704 85.0986C16.1152 84.9263 16.5377 84.8402 16.9232 84.3446C17.3087 83.849 17.3087 83.28 17.3087 82.1421V81.3317C17.3087 80.1937 17.3087 79.6248 16.9232 79.1291C16.5377 78.6335 16.1152 78.5474 15.2704 78.3752C14.594 78.2373 13.8641 78.1621 13.1031 78.1621C12.342 78.1621 11.6121 78.2373 10.9357 78.3752C10.0909 78.5474 9.66844 78.6335 9.28295 79.1291C8.89746 79.6248 8.89746 80.1937 8.89746 81.3317V82.1421C8.89746 83.28 8.89746 83.849 9.28295 84.3446C9.66844 84.8402 10.0909 84.9263 10.9357 85.0986C11.6121 85.2364 12.342 85.3116 13.1031 85.3116Z" stroke="#CABDFF" stroke-width="0.630839"/>
<path d="M14.7698 81.8692C14.7074 82.124 14.3753 82.3069 13.7111 82.6729C12.9887 83.071 12.6276 83.27 12.335 83.1933C12.2359 83.1674 12.1447 83.1217 12.0681 83.0597C11.8418 82.8768 11.8418 82.4971 11.8418 81.7376C11.8418 80.9781 11.8418 80.5983 12.0681 80.4154C12.1447 80.3535 12.2359 80.3078 12.335 80.2818C12.6276 80.2052 12.9887 80.4042 13.7111 80.8022C14.3753 81.1682 14.7074 81.3512 14.7698 81.606C14.791 81.6927 14.791 81.7825 14.7698 81.8692Z" stroke="#CABDFF" stroke-width="0.630839" stroke-linejoin="round"/>
<path d="M20.3238 79.8339H20.9346L22.1561 81.8898H22.2077L23.4292 79.8339H24.04L22.4486 82.4232V84.2383H21.9152V82.4232L20.3238 79.8339ZM25.5357 84.3071C25.2375 84.3071 24.9759 84.2361 24.7508 84.0942C24.5271 83.9523 24.3522 83.7537 24.226 83.4985C24.1013 83.2433 24.0389 82.9451 24.0389 82.6038C24.0389 82.2597 24.1013 81.9594 24.226 81.7027C24.3522 81.4461 24.5271 81.2468 24.7508 81.1049C24.9759 80.9629 25.2375 80.892 25.5357 80.892C25.834 80.892 26.0949 80.9629 26.3186 81.1049C26.5436 81.2468 26.7186 81.4461 26.8433 81.7027C26.9695 81.9594 27.0325 82.2597 27.0325 82.6038C27.0325 82.9451 26.9695 83.2433 26.8433 83.4985C26.7186 83.7537 26.5436 83.9523 26.3186 84.0942C26.0949 84.2361 25.834 84.3071 25.5357 84.3071ZM25.5357 83.8512C25.7623 83.8512 25.9487 83.7931 26.0949 83.677C26.2411 83.5608 26.3494 83.4082 26.4196 83.2189C26.4899 83.0297 26.525 82.8246 26.525 82.6038C26.525 82.383 26.4899 82.1773 26.4196 81.9866C26.3494 81.7959 26.2411 81.6418 26.0949 81.5242C25.9487 81.4067 25.7623 81.3479 25.5357 81.3479C25.3092 81.3479 25.1228 81.4067 24.9766 81.5242C24.8303 81.6418 24.7221 81.7959 24.6518 81.9866C24.5816 82.1773 24.5465 82.383 24.5465 82.6038C24.5465 82.8246 24.5816 83.0297 24.6518 83.2189C24.7221 83.4082 24.8303 83.5608 24.9766 83.677C25.1228 83.7931 25.3092 83.8512 25.5357 83.8512ZM29.8891 82.8877V80.935H30.3966V84.2383H29.8891V83.6791H29.8547C29.7772 83.8469 29.6568 83.9895 29.4934 84.1071C29.3299 84.2232 29.1235 84.2813 28.874 84.2813C28.6675 84.2813 28.484 84.2361 28.3234 84.1458C28.1629 84.054 28.0367 83.9164 27.9449 83.7329C27.8532 83.5479 27.8073 83.315 27.8073 83.034V80.935H28.3148V82.9995C28.3148 83.2404 28.3822 83.4325 28.517 83.5759C28.6532 83.7193 28.8267 83.791 29.0374 83.791C29.1636 83.791 29.2919 83.7587 29.4224 83.6942C29.5543 83.6297 29.6647 83.5307 29.7536 83.3974C29.8439 83.2641 29.8891 83.0942 29.8891 82.8877ZM32.7628 80.935V81.3651H31.0509V80.935H32.7628ZM31.5499 80.1436H32.0574V83.292C32.0574 83.4354 32.0782 83.5429 32.1198 83.6146C32.1628 83.6849 32.2173 83.7322 32.2832 83.7565C32.3506 83.7795 32.4216 83.791 32.4961 83.791C32.552 83.791 32.5979 83.7881 32.6338 83.7824C32.6696 83.7752 32.6983 83.7695 32.7198 83.7652L32.823 84.2211C32.7886 84.234 32.7406 84.2469 32.6789 84.2598C32.6173 84.2741 32.5391 84.2813 32.4445 84.2813C32.3011 84.2813 32.1606 84.2505 32.023 84.1888C31.8868 84.1272 31.7735 84.0333 31.6832 83.9071C31.5943 83.7809 31.5499 83.6218 31.5499 83.4297V80.1436ZM35.608 82.8877V80.935H36.1156V84.2383H35.608V83.6791H35.5736C35.4962 83.8469 35.3758 83.9895 35.2123 84.1071C35.0489 84.2232 34.8424 84.2813 34.5929 84.2813C34.3865 84.2813 34.203 84.2361 34.0424 84.1458C33.8818 84.054 33.7556 83.9164 33.6639 83.7329C33.5721 83.5479 33.5263 83.315 33.5263 83.034V80.935H34.0338V82.9995C34.0338 83.2404 34.1012 83.4325 34.2359 83.5759C34.3722 83.7193 34.5456 83.791 34.7564 83.791C34.8826 83.791 35.0109 83.7587 35.1413 83.6942C35.2732 83.6297 35.3836 83.5307 35.4725 83.3974C35.5629 83.2641 35.608 83.0942 35.608 82.8877ZM37.114 84.2383V79.8339H37.6215V81.4597H37.6645C37.7018 81.4024 37.7534 81.3293 37.8194 81.2404C37.8867 81.15 37.9828 81.0697 38.1075 80.9995C38.2337 80.9278 38.4043 80.892 38.6194 80.892C38.8975 80.892 39.1427 80.9615 39.3549 81.1006C39.5671 81.2396 39.7327 81.4368 39.8517 81.692C39.9707 81.9472 40.0302 82.2483 40.0302 82.5952C40.0302 82.9451 39.9707 83.2483 39.8517 83.5049C39.7327 83.7601 39.5678 83.958 39.357 84.0985C39.1463 84.2376 38.9033 84.3071 38.628 84.3071C38.4158 84.3071 38.2459 84.272 38.1183 84.2017C37.9907 84.13 37.8925 84.049 37.8237 83.9587C37.7548 83.8669 37.7018 83.791 37.6645 83.7307H37.6043V84.2383H37.114ZM37.6129 82.5866C37.6129 82.8361 37.6495 83.0562 37.7226 83.2469C37.7957 83.4361 37.9025 83.5845 38.043 83.692C38.1835 83.7981 38.3556 83.8512 38.5592 83.8512C38.7714 83.8512 38.9484 83.7953 39.0904 83.6834C39.2337 83.5702 39.3413 83.4182 39.413 83.2275C39.4861 83.0354 39.5226 82.8218 39.5226 82.5866C39.5226 82.3544 39.4868 82.145 39.4151 81.9587C39.3448 81.7708 39.238 81.6224 39.0947 81.5135C38.9527 81.4031 38.7742 81.3479 38.5592 81.3479C38.3527 81.3479 38.1792 81.4002 38.0387 81.5049C37.8982 81.6081 37.7921 81.7529 37.7204 81.9393C37.6488 82.1243 37.6129 82.34 37.6129 82.5866ZM42.1915 84.3071C41.8732 84.3071 41.5987 84.2368 41.3678 84.0963C41.1384 83.9544 40.9614 83.7565 40.8366 83.5028C40.7133 83.2476 40.6517 82.9508 40.6517 82.6124C40.6517 82.2741 40.7133 81.9759 40.8366 81.7178C40.9614 81.4583 41.1349 81.2561 41.3571 81.1113C41.5807 80.9651 41.8417 80.892 42.1399 80.892C42.3119 80.892 42.4818 80.9206 42.6496 80.978C42.8173 81.0353 42.97 81.1285 43.1077 81.2576C43.2453 81.3852 43.355 81.5543 43.4367 81.7651C43.5184 81.9759 43.5593 82.2354 43.5593 82.5436V82.7587H41.013V82.32H43.0431C43.0431 82.1336 43.0059 81.9673 42.9313 81.821C42.8582 81.6748 42.7535 81.5594 42.6173 81.4748C42.4826 81.3902 42.3234 81.3479 42.1399 81.3479C41.9377 81.3479 41.7628 81.3981 41.6152 81.4984C41.4689 81.5974 41.3564 81.7264 41.2775 81.8855C41.1987 82.0447 41.1592 82.2153 41.1592 82.3974V82.6899C41.1592 82.9393 41.2022 83.1508 41.2883 83.3243C41.3757 83.4963 41.4969 83.6275 41.6517 83.7178C41.8066 83.8067 41.9865 83.8512 42.1915 83.8512C42.3248 83.8512 42.4453 83.8325 42.5528 83.7953C42.6618 83.7565 42.7557 83.6992 42.8345 83.6232C42.9134 83.5458 42.9743 83.4497 43.0173 83.335L43.5077 83.4727C43.4561 83.639 43.3693 83.7852 43.2475 83.9114C43.1256 84.0361 42.975 84.1336 42.7958 84.2039C42.6166 84.2727 42.4152 84.3071 42.1915 84.3071ZM46.1034 84.2383V79.8339H47.5916C47.9357 79.8339 48.2182 79.8927 48.439 80.0102C48.6598 80.1264 48.8232 80.2862 48.9293 80.4898C49.0354 80.6934 49.0885 80.9249 49.0885 81.1844C49.0885 81.4439 49.0354 81.6741 48.9293 81.8748C48.8232 82.0755 48.6605 82.2332 48.4411 82.3479C48.2218 82.4612 47.9415 82.5178 47.6002 82.5178H46.3959V82.0361H47.583C47.8182 82.0361 48.0074 82.0017 48.1508 81.9328C48.2956 81.864 48.4003 81.7665 48.4648 81.6404C48.5307 81.5128 48.5637 81.3608 48.5637 81.1844C48.5637 81.0081 48.5307 80.854 48.4648 80.7221C48.3988 80.5902 48.2934 80.4884 48.1486 80.4167C48.0038 80.3436 47.8124 80.307 47.5744 80.307H46.6368V84.2383H46.1034ZM48.1766 82.2597L49.2605 84.2383H48.6411L47.5744 82.2597H48.1766ZM51.2579 84.3071C50.9396 84.3071 50.665 84.2368 50.4342 84.0963C50.2048 83.9544 50.0277 83.7565 49.903 83.5028C49.7797 83.2476 49.718 82.9508 49.718 82.6124C49.718 82.2741 49.7797 81.9759 49.903 81.7178C50.0277 81.4583 50.2012 81.2561 50.4234 81.1113C50.6471 80.9651 50.908 80.892 51.2062 80.892C51.3783 80.892 51.5482 80.9206 51.7159 80.978C51.8837 81.0353 52.0364 81.1285 52.174 81.2576C52.3116 81.3852 52.4213 81.5543 52.503 81.7651C52.5848 81.9759 52.6256 82.2354 52.6256 82.5436V82.7587H50.0793V82.32H52.1095C52.1095 82.1336 52.0722 81.9673 51.9977 81.821C51.9245 81.6748 51.8199 81.5594 51.6837 81.4748C51.5489 81.3902 51.3898 81.3479 51.2062 81.3479C51.0041 81.3479 50.8292 81.3981 50.6815 81.4984C50.5353 81.5974 50.4227 81.7264 50.3439 81.8855C50.265 82.0447 50.2256 82.2153 50.2256 82.3974V82.6899C50.2256 82.9393 50.2686 83.1508 50.3546 83.3243C50.4421 83.4963 50.5632 83.6275 50.7181 83.7178C50.8729 83.8067 51.0528 83.8512 51.2579 83.8512C51.3912 83.8512 51.5116 83.8325 51.6192 83.7953C51.7281 83.7565 51.822 83.6992 51.9009 83.6232C51.9797 83.5458 52.0407 83.4497 52.0837 83.335L52.574 83.4727C52.5224 83.639 52.4357 83.7852 52.3138 83.9114C52.1919 84.0361 52.0414 84.1336 51.8622 84.2039C51.683 84.2727 51.4815 84.3071 51.2579 84.3071ZM54.7397 84.3071C54.43 84.3071 54.1633 84.234 53.9396 84.0877C53.716 83.9415 53.5439 83.7401 53.4235 83.4834C53.3031 83.2268 53.2429 82.9336 53.2429 82.6038C53.2429 82.2683 53.3045 81.9723 53.4278 81.7156C53.5525 81.4576 53.726 81.2561 53.9482 81.1113C54.1719 80.9651 54.4328 80.892 54.7311 80.892C54.9633 80.892 55.1726 80.935 55.359 81.021C55.5454 81.107 55.6981 81.2275 55.8171 81.3823C55.9361 81.5371 56.0099 81.7178 56.0386 81.9242H55.5311C55.4924 81.7737 55.4063 81.6404 55.273 81.5242C55.1411 81.4067 54.9633 81.3479 54.7397 81.3479C54.5418 81.3479 54.3683 81.3995 54.2192 81.5027C54.0715 81.6045 53.9561 81.7486 53.873 81.935C53.7913 82.12 53.7504 82.3372 53.7504 82.5866C53.7504 82.8418 53.7905 83.0641 53.8708 83.2533C53.9525 83.4426 54.0672 83.5895 54.2149 83.6942C54.364 83.7988 54.5389 83.8512 54.7397 83.8512C54.8716 83.8512 54.9913 83.8282 55.0988 83.7824C55.2063 83.7365 55.2974 83.6705 55.3719 83.5845C55.4465 83.4985 55.4995 83.3953 55.5311 83.2748H56.0386C56.0099 83.4698 55.939 83.6454 55.8257 83.8017C55.7139 83.9566 55.5655 84.0799 55.3805 84.1716C55.197 84.2619 54.9834 84.3071 54.7397 84.3071ZM57.7526 84.3157C57.5433 84.3157 57.3533 84.2763 57.1827 84.1974C57.0121 84.1171 56.8766 84.0017 56.7763 83.8512C56.6759 83.6992 56.6257 83.5157 56.6257 83.3006C56.6257 83.1114 56.663 82.958 56.7376 82.8404C56.8121 82.7214 56.9118 82.6282 57.0365 82.5608C57.1612 82.4934 57.2989 82.4433 57.4494 82.4103C57.6014 82.3759 57.7541 82.3486 57.9075 82.3286C58.1082 82.3028 58.2709 82.2834 58.3957 82.2705C58.5218 82.2562 58.6136 82.2325 58.6709 82.1995C58.7297 82.1665 58.7591 82.1092 58.7591 82.0275V82.0103C58.7591 81.7981 58.701 81.6332 58.5849 81.5156C58.4702 81.3981 58.296 81.3393 58.0623 81.3393C57.82 81.3393 57.63 81.3923 57.4924 81.4984C57.3548 81.6045 57.258 81.7178 57.2021 81.8382L56.7204 81.6662C56.8064 81.4655 56.9211 81.3092 57.0644 81.1973C57.2093 81.0841 57.367 81.0052 57.5376 80.9608C57.7096 80.9149 57.8788 80.892 58.0451 80.892C58.1512 80.892 58.2731 80.9049 58.4107 80.9307C58.5498 80.955 58.6838 81.0059 58.8129 81.0834C58.9433 81.1608 59.0516 81.2776 59.1376 81.4339C59.2236 81.5902 59.2666 81.7995 59.2666 82.0619V84.2383H58.7591V83.791H58.7333C58.6989 83.8626 58.6415 83.9393 58.5613 84.0211C58.481 84.1028 58.3742 84.1723 58.2408 84.2297C58.1075 84.287 57.9448 84.3157 57.7526 84.3157ZM57.8301 83.8598C58.0308 83.8598 58.2 83.8204 58.3376 83.7415C58.4767 83.6626 58.5813 83.5608 58.6516 83.4361C58.7233 83.3114 58.7591 83.1802 58.7591 83.0426V82.578C58.7376 82.6038 58.6903 82.6275 58.6172 82.649C58.5455 82.6691 58.4623 82.687 58.3677 82.7028C58.2745 82.7171 58.1835 82.73 58.0946 82.7415C58.0071 82.7515 57.9362 82.7601 57.8817 82.7673C57.7498 82.7845 57.6265 82.8124 57.5118 82.8512C57.3985 82.8884 57.3067 82.9451 57.2365 83.021C57.1677 83.0956 57.1333 83.1974 57.1333 83.3264C57.1333 83.5028 57.1985 83.6361 57.329 83.7264C57.4609 83.8153 57.6279 83.8598 57.8301 83.8598ZM60.193 85.477V80.935H60.6834V81.4597H60.7436C60.7808 81.4024 60.8325 81.3293 60.8984 81.2404C60.9658 81.15 61.0619 81.0697 61.1866 80.9995C61.3128 80.9278 61.4834 80.892 61.6984 80.892C61.9766 80.892 62.2217 80.9615 62.4339 81.1006C62.6461 81.2396 62.8117 81.4368 62.9307 81.692C63.0497 81.9472 63.1092 82.2483 63.1092 82.5952C63.1092 82.9451 63.0497 83.2483 62.9307 83.5049C62.8117 83.7601 62.6468 83.958 62.4361 84.0985C62.2253 84.2376 61.9823 84.3071 61.707 84.3071C61.4948 84.3071 61.3249 84.272 61.1973 84.2017C61.0697 84.13 60.9715 84.049 60.9027 83.9587C60.8339 83.8669 60.7808 83.791 60.7436 83.7307H60.7006V85.477H60.193ZM60.692 82.5866C60.692 82.8361 60.7285 83.0562 60.8016 83.2469C60.8748 83.4361 60.9816 83.5845 61.1221 83.692C61.2626 83.7981 61.4346 83.8512 61.6382 83.8512C61.8504 83.8512 62.0275 83.7953 62.1694 83.6834C62.3128 83.5702 62.4203 83.4182 62.492 83.2275C62.5651 83.0354 62.6017 82.8218 62.6017 82.5866C62.6017 82.3544 62.5658 82.145 62.4941 81.9587C62.4239 81.7708 62.3171 81.6224 62.1737 81.5135C62.0318 81.4031 61.8533 81.3479 61.6382 81.3479C61.4318 81.3479 61.2583 81.4002 61.1178 81.5049C60.9773 81.6081 60.8712 81.7529 60.7995 81.9393C60.7278 82.1243 60.692 82.34 60.692 82.5866Z" fill="#303030"/>
</g>
<defs>
<filter id="filter0_d_4367_26329" x="0" y="0" width="85.252" height="100.896" filterUnits="userSpaceOnUse" color-interpolation-filters="sRGB">
<feFlood flood-opacity="0" result="BackgroundImageFix"/>
<feColorMatrix in="SourceAlpha" type="matrix" values="0 0 0 0 0 0 0 0 0 0 0 0 0 0 0 0 0 0 127 0" result="hardAlpha"/>
<feOffset/>
<feGaussianBlur stdDeviation="1"/>
<feComposite in2="hardAlpha" operator="out"/>
<feColorMatrix type="matrix" values="0 0 0 0 0 0 0 0 0 0 0 0 0 0 0 0 0 0 0.24 0"/>
<feBlend mode="normal" in2="BackgroundImageFix" result="effect1_dropShadow_4367_26329"/>
<feBlend mode="normal" in="SourceGraphic" in2="effect1_dropShadow_4367_26329" result="shape"/>
</filter>
</defs>
</svg>
