<svg preserveAspectRatio="none" width="100%" height="100%" overflow="visible" style="display: block;" viewBox="0 0 9.10517 9.10517" fill="none" xmlns="http://www.w3.org/2000/svg">
<g id="Globe">
<path id="Vector" d="M4.55258 7.96702C6.43832 7.96702 7.96702 6.43832 7.96702 4.55258C7.96702 2.66684 6.43832 1.13815 4.55258 1.13815C2.66684 1.13815 1.13815 2.66684 1.13815 4.55258C1.13815 6.43832 2.66684 7.96702 4.55258 7.96702Z" stroke="var(--stroke-0, #707070)" stroke-width="0.910517" stroke-miterlimit="10"/>
<path id="Vector_2" d="M7.6172 6.05964L5.68639 4.87211C5.65255 4.85129 5.61472 4.83779 5.57534 4.83249L4.76374 4.72308C4.7028 4.71487 4.64084 4.72662 4.58713 4.75657C4.53343 4.78653 4.49087 4.83308 4.46584 4.88924L3.97861 5.98252C3.95595 6.03336 3.94871 6.08973 3.95777 6.14465C3.96682 6.19957 3.99179 6.25063 4.02958 6.2915L4.69824 7.01474C4.72855 7.04753 4.75072 7.08699 4.76296 7.12994C4.77519 7.17288 4.77715 7.2181 4.76867 7.26194L4.63247 7.96604C5.32108 7.92778 6.88209 7.49293 7.6172 6.05964Z" fill="var(--fill-0, #707070)" stroke="var(--stroke-0, #707070)" stroke-width="0.607011" stroke-linecap="round" stroke-linejoin="round"/>
<g id="Vector_3">
<path d="M5.42248 1.25013L5.75445 1.84475C5.78583 1.90097 5.79722 1.96616 5.78676 2.02968C5.7763 2.09321 5.74461 2.15131 5.69686 2.19449L4.73972 3.0601C4.72347 3.07479 4.70559 3.08756 4.68642 3.09815L4.25101 3.33859C4.2089 3.36185 4.16157 3.37405 4.11346 3.37405H3.35427C3.29828 3.37405 3.24354 3.39057 3.1969 3.42153C3.15025 3.4525 3.11378 3.49653 3.09205 3.54813L2.79587 4.25123" fill="var(--fill-0, #707070)"/>
<path d="M2.31015 1.97772L1.99204 2.72996C1.96367 2.79703 1.9621 2.87243 1.98765 2.94062L2.39635 4.0314C2.41309 4.07606 2.44078 4.11581 2.47689 4.14697C2.513 4.17814 2.55637 4.19972 2.60301 4.20975L3.36521 4.37357C3.4075 4.38266 3.44716 4.40127 3.48118 4.42799C3.5152 4.45471 3.54268 4.48884 3.56153 4.52778L3.69688 4.80741C3.72017 4.85553 3.75655 4.89611 3.80185 4.92451C3.84715 4.95291 3.89953 4.96797 3.95299 4.96797H4.43075" fill="var(--fill-0, #707070)"/>
<path d="M5.42248 1.25013L5.75445 1.84475C5.78583 1.90097 5.79722 1.96616 5.78676 2.02968C5.7763 2.09321 5.74461 2.15131 5.69686 2.19449L4.73972 3.0601C4.72347 3.07479 4.70559 3.08756 4.68642 3.09815L4.25101 3.33859C4.2089 3.36185 4.16157 3.37405 4.11346 3.37405H3.35427C3.29828 3.37405 3.24354 3.39057 3.1969 3.42153C3.15025 3.4525 3.11378 3.49653 3.09205 3.54813L2.79587 4.25123L2.60301 4.20975C2.55637 4.19972 2.513 4.17814 2.47689 4.14697C2.44078 4.11581 2.41309 4.07606 2.39635 4.0314L1.98765 2.94062C1.9621 2.87243 1.96367 2.79703 1.99204 2.72996L2.31015 1.97772C2.6891 1.58283 3.84209 0.884455 5.42248 1.25013Z" fill="var(--fill-0, #707070)"/>
<path d="M2.60301 4.20975C2.55637 4.19972 2.513 4.17814 2.47689 4.14697C2.44078 4.11581 2.41309 4.07606 2.39635 4.0314L1.98765 2.94062C1.9621 2.87243 1.96367 2.79703 1.99204 2.72996L2.31015 1.97772C2.6891 1.58283 3.84209 0.884455 5.42248 1.25013L5.75445 1.84475C5.78583 1.90097 5.79722 1.96616 5.78676 2.02968C5.7763 2.09321 5.74461 2.15131 5.69686 2.19449L4.73972 3.0601C4.72347 3.07479 4.70559 3.08756 4.68642 3.09815L4.25101 3.33859C4.2089 3.36185 4.16157 3.37405 4.11346 3.37405H3.35427C3.29828 3.37405 3.24354 3.39057 3.1969 3.42153C3.15025 3.4525 3.11378 3.49653 3.09205 3.54813L2.79587 4.25123L2.60301 4.20975ZM2.60301 4.20975L3.36521 4.37357C3.4075 4.38266 3.44716 4.40127 3.48118 4.42799C3.5152 4.45471 3.54268 4.48884 3.56153 4.52778L3.69688 4.80741C3.72017 4.85553 3.75655 4.89611 3.80185 4.92451C3.84715 4.95291 3.89953 4.96797 3.95299 4.96797H4.43075" stroke="var(--stroke-0, #707070)" stroke-width="0.607011" stroke-linecap="round" stroke-linejoin="round"/>
</g>
</g>
</svg>
