<svg preserveAspectRatio="none" width="100%" height="100%" overflow="visible" style="display: block;" viewBox="0 0 15.7823 15.7823" fill="none" xmlns="http://www.w3.org/2000/svg">
<g id="Like">
<path id="Vector" d="M1.97242 6.41155H4.9316V12.8231H1.97242C1.84162 12.8231 1.71617 12.7711 1.62368 12.6787C1.53119 12.5862 1.47923 12.4607 1.47923 12.3299V6.90475C1.47923 6.77395 1.53119 6.6485 1.62368 6.55601C1.71617 6.46352 1.84162 6.41155 1.97242 6.41155V6.41155Z" stroke="var(--stroke-0, #707070)" stroke-width="1.21402" stroke-linecap="round" stroke-linejoin="round"/>
<path id="Vector_2" d="M4.9316 6.41155L7.39759 1.47959C7.65666 1.47959 7.91319 1.53062 8.15254 1.62976C8.39189 1.7289 8.60937 1.87421 8.79256 2.0574C8.97575 2.2406 9.12106 2.45807 9.2202 2.69742C9.31935 2.93677 9.37037 3.19331 9.37037 3.45238V4.93196H13.185C13.3248 4.93196 13.4631 4.96171 13.5906 5.01922C13.7181 5.07674 13.8319 5.16071 13.9244 5.26556C14.017 5.37041 14.0862 5.49375 14.1275 5.62739C14.1687 5.76103 14.1811 5.90192 14.1637 6.0407L13.4239 11.9591C13.3941 12.1976 13.2782 12.4171 13.098 12.5762C12.9177 12.7353 12.6856 12.8231 12.4452 12.8231H4.9316" stroke="var(--stroke-0, #707070)" stroke-width="1.21402" stroke-linecap="round" stroke-linejoin="round"/>
</g>
</svg>
