<svg preserveAspectRatio="none" width="100%" height="100%" overflow="visible" style="display: block;" viewBox="0 0 15.7823 15.7823" fill="none" xmlns="http://www.w3.org/2000/svg">
<g id="Comment">
<path id="Vector" d="M2.80065 10.9119C2.06533 9.67229 1.80782 8.20693 2.07646 6.79093C2.3451 5.37493 3.12142 4.10571 4.25965 3.22159C5.39787 2.33747 6.8197 1.89928 8.25814 1.9893C9.69658 2.07931 11.0527 2.69134 12.0718 3.71046C13.0909 4.72958 13.703 6.08568 13.793 7.52412C13.883 8.96256 13.4448 10.3844 12.5607 11.5226C11.6766 12.6608 10.4074 13.4372 8.99138 13.7058C7.57539 13.9745 6.11002 13.717 4.87045 12.9817L4.87047 12.9816L2.82638 13.5656C2.74181 13.5898 2.65231 13.5909 2.56717 13.5688C2.48203 13.5468 2.40433 13.5023 2.34214 13.4401C2.27995 13.3779 2.23552 13.3003 2.21346 13.2151C2.19139 13.13 2.1925 13.0405 2.21666 12.9559L2.80069 10.9118L2.80065 10.9119Z" stroke="var(--stroke-0, #707070)" stroke-width="1.21402" stroke-linecap="round" stroke-linejoin="round"/>
<path id="Vector_2" d="M5.91836 6.90475H9.86393" stroke="var(--stroke-0, #707070)" stroke-width="1.21402" stroke-linecap="round" stroke-linejoin="round"/>
<path id="Vector_3" d="M5.91836 8.87754H9.86393" stroke="var(--stroke-0, #707070)" stroke-width="1.21402" stroke-linecap="round" stroke-linejoin="round"/>
</g>
</svg>
