<svg preserveAspectRatio="none" width="100%" height="100%" overflow="visible" style="display: block;" viewBox="0 0 14.9269 14.9269" fill="none" xmlns="http://www.w3.org/2000/svg">
<g id="Reactions elements">
<rect x="0.761574" y="0.761574" width="13.4037" height="13.4037" rx="6.70185" stroke="var(--stroke-0, white)" stroke-width="1.52315"/>
<path id="Vector" d="M7.49964 14.0768C11.2516 14.0768 14.2932 11.1043 14.2932 7.43762C14.2932 3.7709 11.2516 0.798434 7.49964 0.798434C3.74765 0.798434 0.706055 3.7709 0.706055 7.43762C0.706055 11.1043 3.74765 14.0768 7.49964 14.0768Z" fill="var(--fill-0, #DF704D)"/>
<path id="Vector_2" fill-rule="evenodd" clip-rule="evenodd" d="M7.21819 4.59225C6.98199 4.36082 6.70139 4.17721 6.39246 4.05193C6.08354 3.92665 5.75236 3.86216 5.41789 3.86216C5.08342 3.86216 4.75224 3.92665 4.44331 4.05193C4.13439 4.17721 3.85379 4.36082 3.61759 4.59225C3.37843 4.82568 3.1887 5.10289 3.05925 5.40804C2.92981 5.71318 2.86318 6.04027 2.86318 6.3706C2.86318 6.70093 2.92981 7.02802 3.05925 7.33316C3.1887 7.63831 3.37843 7.91552 3.61759 8.14895L7.49964 11.9428L11.3817 8.14895C11.6208 7.91552 11.8106 7.63831 11.94 7.33316C12.0695 7.02802 12.1361 6.70093 12.1361 6.3706C12.1361 6.04027 12.0695 5.71318 11.94 5.40804C11.8106 5.10289 11.6208 4.82568 11.3817 4.59225C11.147 4.36008 10.8674 4.17592 10.5592 4.05053C10.2509 3.92513 9.92014 3.86102 9.58624 3.86194C9.25217 3.85996 8.9211 3.92358 8.61268 4.04903C8.30426 4.17449 8.02476 4.35921 7.79079 4.59225L7.49964 4.87678L7.21819 4.59225Z" fill="var(--fill-0, #FFF3F0)" stroke="var(--stroke-0, #77280C)" stroke-width="0.607011"/>
<g id="Vector_3" opacity="0.6">
</g>
<g id="Vector_4" opacity="0.4">
</g>
<path id="Vector_5" fill-rule="evenodd" clip-rule="evenodd" d="M7.21774 4.59213C6.98287 4.35841 6.7027 4.17277 6.39359 4.04604C6.08449 3.91932 5.75265 3.85405 5.41744 3.85405C5.08224 3.85405 4.7504 3.91932 4.44129 4.04604C4.13219 4.17277 3.85202 4.35841 3.61714 4.59213C3.14882 5.06153 2.8867 5.69118 2.8867 6.34677C2.8867 7.00237 3.14882 7.63201 3.61714 8.10141L7.49919 11.8952L11.3812 8.10141C11.8496 7.63201 12.1117 7.00237 12.1117 6.34677C12.1117 5.69118 11.8496 5.06153 11.3812 4.59213C11.1471 4.35867 10.8678 4.17304 10.5595 4.04603C10.2513 3.91903 9.9203 3.85319 9.58579 3.85233C9.25112 3.85213 8.9198 3.91749 8.61141 4.04455C8.30303 4.17162 8.02384 4.35781 7.79034 4.59213L7.49919 4.82924L7.21774 4.59213Z" stroke="var(--stroke-0, #77280C)" stroke-width="0.607011" stroke-linecap="round" stroke-linejoin="round"/>
</g>
</svg>
