<svg preserveAspectRatio="none" width="100%" height="100%" overflow="visible" style="display: block;" viewBox="0 0 14.9269 14.9269" fill="none" xmlns="http://www.w3.org/2000/svg">
<g id="Reactions elements">
<rect x="0.761574" y="0.761574" width="13.4037" height="13.4037" rx="6.70185" stroke="var(--stroke-0, white)" stroke-width="1.52315"/>
<path id="Vector" d="M7.48695 13.997C11.2389 13.997 14.2805 11.0246 14.2805 7.35785C14.2805 3.69113 11.2389 0.718663 7.48695 0.718663C3.73496 0.718663 0.693371 3.69113 0.693371 7.35785C0.693371 11.0246 3.73496 13.997 7.48695 13.997Z" fill="var(--fill-0, #1485BD)"/>
<path id="Vector_2" fill-rule="evenodd" clip-rule="evenodd" d="M11.3002 6.64661H10.7664C10.7179 6.64661 10.6209 6.4664 10.3782 6.21032C10.0191 5.83094 9.62123 5.34723 9.33978 5.08166C8.64143 4.48936 8.07068 3.76715 7.6608 2.95712C7.42788 2.47341 7.40847 2.25526 6.93292 2.25526C6.74509 2.27896 6.57349 2.37147 6.45278 2.51408C6.33207 2.65669 6.27128 2.83877 6.28267 3.02351C6.28267 3.1563 6.35061 3.62104 6.37972 3.78228C6.58759 4.52383 6.91522 5.22822 7.35024 5.86888H7.87431H3.72052C3.60287 5.86718 3.48616 5.88953 3.37787 5.9345C3.26957 5.97947 3.1721 6.04607 3.09168 6.13001C3.01127 6.21395 2.94969 6.3134 2.91091 6.42196C2.87213 6.53052 2.85699 6.64581 2.86647 6.76042C2.88143 6.98264 2.9837 7.19061 3.15191 7.34085C3.32011 7.4911 3.54124 7.57199 3.76905 7.56661H3.92433C3.82491 7.56907 3.72696 7.59065 3.63608 7.63012C3.54519 7.66959 3.46316 7.72617 3.39466 7.79663C3.32616 7.8671 3.27254 7.95006 3.23687 8.04079C3.20119 8.13151 3.18416 8.22822 3.18674 8.32537C3.18842 8.51649 3.26294 8.70013 3.39574 8.84043C3.52854 8.98074 3.71008 9.06763 3.90492 9.08414C3.78632 9.17281 3.6964 9.29303 3.64595 9.43037C3.59549 9.56772 3.58663 9.71638 3.62043 9.85852C3.65423 10.0007 3.72926 10.1303 3.83652 10.2318C3.94379 10.3333 4.07873 10.4025 4.22519 10.4309C4.13219 10.5887 4.10115 10.7741 4.13784 10.9526C4.18754 11.1278 4.2957 11.2817 4.44516 11.39C4.59462 11.4983 4.7768 11.5546 4.96278 11.5501H7.18525C7.4764 11.5501 7.76658 11.5141 8.049 11.4458L9.42713 11.0474H11.2711C12.261 11.0095 12.5231 6.64661 11.3002 6.64661V6.64661Z" fill="var(--fill-0, #E6F7FF)"/>
<path id="Vector_3" d="M6.93315 5.86873H3.71106C3.58839 5.86761 3.46692 5.89232 3.3549 5.94119C3.24289 5.99007 3.14296 6.06195 3.06193 6.15194C2.98089 6.24194 2.92064 6.34794 2.88528 6.46274C2.84991 6.57753 2.84027 6.69842 2.85701 6.81718C2.87434 7.03771 2.97765 7.24331 3.1456 7.39156C3.31355 7.53981 3.53333 7.61939 3.75958 7.61388H3.91486C3.81544 7.61634 3.71749 7.63792 3.62661 7.67739C3.53573 7.71686 3.45369 7.77344 3.38519 7.84391C3.3167 7.91437 3.26308 7.99734 3.2274 8.08806C3.19173 8.17878 3.17469 8.27549 3.17727 8.37265C3.18084 8.56417 3.25575 8.74785 3.38796 8.88927C3.52016 9.03069 3.7006 9.12016 3.89545 9.1409C3.80264 9.21205 3.72741 9.30271 3.67533 9.40614C3.62325 9.50958 3.59566 9.62315 3.59459 9.73842C3.59508 9.91633 3.65797 10.0887 3.77276 10.2268C3.88756 10.3649 4.04733 10.4603 4.22543 10.4972C4.13176 10.6582 4.10074 10.8468 4.13808 11.0283C4.18958 11.2018 4.29851 11.3536 4.4478 11.46C4.59709 11.5664 4.7783 11.6214 4.96302 11.6164H7.18549C7.47664 11.6164 7.76682 11.5803 8.04924 11.512L9.42737 11.0663H11.2713C12.2419 11.0663 12.5039 6.66543 11.2713 6.66543C11.0936 6.675 10.9154 6.675 10.7376 6.66543C10.689 6.66543 10.592 6.48522 10.3494 6.22914C9.99027 5.84976 9.59236 5.36605 9.31091 5.10048C8.62201 4.50271 8.06124 3.77739 7.66104 2.96645C7.58396 2.78749 7.47922 2.62115 7.35048 2.47326C7.18884 2.34042 6.98028 2.27493 6.76971 2.29089C6.55915 2.30686 6.36342 2.403 6.22468 2.55862C6.1241 2.66492 6.04213 2.78669 5.98205 2.91903C5.94279 3.01062 5.91351 3.10599 5.89471 3.20357C5.86867 3.47097 5.89167 3.74077 5.96264 4.00027C6.02476 4.27343 6.11307 4.53994 6.22468 4.79697C6.40714 5.13178 6.62259 5.44951 6.86522 5.74543C6.89516 5.76346 6.91884 5.7899 6.93315 5.8213" stroke="var(--stroke-0, #004B7C)" stroke-width="0.607011" stroke-linecap="round" stroke-linejoin="round"/>
</g>
</svg>
