<svg preserveAspectRatio="none" width="100%" height="100%" overflow="visible" style="display: block;" viewBox="0 0 15.7823 15.7823" fill="none" xmlns="http://www.w3.org/2000/svg">
<g id="Send">
<path id="Vector" d="M12.9619 2.21186L1.47484 5.45179C1.3782 5.47905 1.29219 5.53515 1.22829 5.61261C1.16439 5.69006 1.12565 5.78517 1.11726 5.88522C1.10886 5.98528 1.1312 6.08551 1.1813 6.17253C1.23139 6.25955 1.30685 6.32921 1.39759 6.37219L6.67547 8.87224C6.77841 8.921 6.86129 9.00388 6.91006 9.10682L9.4101 14.3847C9.45308 14.4754 9.52274 14.5509 9.60975 14.601C9.69677 14.6511 9.79701 14.6734 9.89707 14.665C9.99712 14.6566 10.0922 14.6179 10.1697 14.554C10.2471 14.4901 10.3032 14.4041 10.3305 14.3074L13.5704 2.82042C13.5942 2.73604 13.5951 2.64685 13.573 2.56202C13.5508 2.47719 13.5065 2.39979 13.4445 2.3378C13.3825 2.2758 13.3051 2.23146 13.2203 2.20932C13.1354 2.18719 13.0462 2.18806 12.9619 2.21186Z" stroke="var(--stroke-0, #707070)" stroke-width="1.21402" stroke-linecap="round" stroke-linejoin="round"/>
<path id="Vector_2" d="M6.83465 8.94764L9.62459 6.1577" stroke="var(--stroke-0, #707070)" stroke-width="1.21402" stroke-linecap="round" stroke-linejoin="round"/>
</g>
</svg>
