<svg preserveAspectRatio="none" width="100%" height="100%" overflow="visible" style="display: block;" viewBox="0 0 14.9269 14.9269" fill="none" xmlns="http://www.w3.org/2000/svg">
<g id="Reactions elements">
<rect x="0.761574" y="0.761574" width="13.4037" height="13.4037" rx="6.70185" stroke="var(--stroke-0, white)" stroke-width="1.52315"/>
<mask id="mask0_4736_13356" style="mask-type:alpha" maskUnits="userSpaceOnUse" x="0" y="0" width="15" height="15">
<g id="reactions praise consumption small b">
<path id="Vector" d="M14.0393 7.43773C14.0393 3.77102 11.0668 0.798552 7.40007 0.798552C3.73335 0.798552 0.760886 3.77102 0.760886 7.43773C0.760886 11.1045 3.73335 14.0769 7.40007 14.0769C11.0668 14.0769 14.0393 11.1045 14.0393 7.43773Z" fill="var(--fill-0, white)"/>
</g>
</mask>
<g mask="url(#mask0_4736_13356)">
<path id="Vector_2" d="M14.0396 7.43762C14.0396 3.7709 11.0671 0.798434 7.40041 0.798434C3.73369 0.798434 0.76123 3.7709 0.76123 7.43762C0.76123 11.1043 3.73369 14.0768 7.40041 14.0768C11.0671 14.0768 14.0396 11.1043 14.0396 7.43762Z" fill="var(--fill-0, #D8D8D8)"/>
<g id="Group">
<path id="Vector_3" d="M7.40086 14.077C11.0676 14.077 14.04 11.1045 14.04 7.43779C14.04 3.77107 11.0676 0.79861 7.40086 0.79861C3.73414 0.79861 0.761677 3.77107 0.761677 7.43779C0.761677 11.1045 3.73414 14.077 7.40086 14.077Z" fill="var(--fill-0, #6DAE4F)"/>
<path id="Vector_4" d="M7.40089 0.798637C9.16171 0.798637 10.8504 1.49812 12.0955 2.74321C13.3406 3.9883 14.0401 5.677 14.0401 7.43782C14.0401 9.19864 13.3406 10.8873 12.0955 12.1324C10.8504 13.3775 9.16171 14.077 7.40089 14.077C5.64007 14.077 3.95136 13.3775 2.70628 12.1324C1.46119 10.8873 0.761704 9.19864 0.761704 7.43782C0.761704 5.677 1.46119 3.9883 2.70628 2.74321C3.95136 1.49812 5.64007 0.798637 7.40089 0.798637V0.798637ZM7.40089 -0.149817C5.38852 -0.149817 3.45858 0.649592 2.03562 2.07255C0.612659 3.49551 -0.186751 5.42545 -0.186751 7.43782C-0.186751 9.45019 0.612659 11.3801 2.03562 12.8031C3.45858 14.2261 5.38852 15.0255 7.40089 15.0255C9.41325 15.0255 11.3432 14.2261 12.7662 12.8031C14.1891 11.3801 14.9885 9.45019 14.9885 7.43782C14.9885 5.42545 14.1891 3.49551 12.7662 2.07255C11.3432 0.649592 9.41325 -0.149817 7.40089 -0.149817V-0.149817Z" fill="var(--fill-0, white)"/>
<path id="Vector_5" d="M11.321 8.59869C11.3037 7.85346 11.1889 7.11369 10.9795 6.39827C10.4054 5.93685 9.96907 5.32661 9.71807 4.63415C9.56632 4.13147 9.46199 3.95126 9.01622 3.94178C8.92549 3.95003 8.83733 3.97635 8.75693 4.01919C8.67653 4.06203 8.60551 4.12053 8.54806 4.19123C8.49061 4.26194 8.44789 4.34343 8.42242 4.43089C8.39694 4.51836 8.38923 4.61004 8.39972 4.70054C8.40541 4.92817 8.42438 5.15675 8.45663 5.38343C8.58657 6.00467 8.76962 6.61452 9.00673 7.20446L4.73869 3.96075C4.66749 3.8914 4.58256 3.83774 4.48936 3.80322C4.39615 3.76871 4.29675 3.75411 4.19756 3.76036C4.09837 3.76662 4.0016 3.79359 3.91347 3.83954C3.82534 3.88549 3.74782 3.94939 3.6859 4.02714C3.63884 4.10581 3.6081 4.19316 3.59551 4.28397C3.58293 4.37479 3.58876 4.4672 3.61266 4.55571C3.63655 4.64422 3.67803 4.72701 3.73461 4.79915C3.79119 4.87129 3.86172 4.9313 3.94198 4.97559L6.07601 6.58797L6.6356 7.1191L3.24961 4.54879C3.18174 4.48034 3.09996 4.42726 3.0098 4.39314C2.91965 4.35902 2.82322 4.34465 2.72703 4.35101C2.63085 4.35736 2.53715 4.3843 2.45226 4.42999C2.36738 4.47568 2.2933 4.53906 2.23503 4.61584C2.17675 4.69263 2.13564 4.78103 2.11447 4.87508C2.09331 4.96912 2.09258 5.06661 2.11233 5.16096C2.13209 5.25531 2.17187 5.34432 2.22899 5.42197C2.28611 5.49962 2.35924 5.5641 2.44343 5.61106L4.57745 7.22343L5.85786 8.17188L3.08838 6.09477C3.01718 6.02542 2.93225 5.97176 2.83904 5.93725C2.74584 5.90273 2.64644 5.88813 2.54725 5.89439C2.44806 5.90064 2.35128 5.92761 2.26316 5.97356C2.17503 6.01951 2.09751 6.08342 2.03559 6.16116C1.74157 6.54054 1.97868 6.92941 2.28219 7.16652L4.41621 8.76941L5.48797 9.5756L3.35394 7.96322C3.2882 7.89165 3.20831 7.8345 3.11933 7.79541C3.03035 7.75633 2.93422 7.73614 2.83703 7.73614C2.73985 7.73614 2.64372 7.75633 2.55474 7.79541C2.46576 7.8345 2.38587 7.89165 2.32013 7.96322C2.26191 8.04435 2.22143 8.13683 2.20131 8.23463C2.1812 8.33244 2.1819 8.43338 2.20337 8.5309C2.22484 8.62842 2.2666 8.72032 2.32594 8.80063C2.38527 8.88095 2.46085 8.94787 2.54776 8.99704L6.43642 11.8424C6.9998 12.2664 8.39972 12.6325 9.01622 12.0966" stroke="var(--stroke-0, #165209)" stroke-width="0.910517" stroke-linecap="round" stroke-linejoin="round"/>
<path id="Vector_6" fill-rule="evenodd" clip-rule="evenodd" d="M11.7761 9.24357L11.3777 8.89264C11.3259 8.19459 11.1626 7.50934 10.894 6.86295C10.3388 6.21157 9.94551 5.43806 9.74639 4.60562C9.59464 4.10294 9.49031 3.92274 9.04454 3.91325C8.95381 3.9215 8.86565 3.94782 8.78525 3.99067C8.70485 4.03351 8.63383 4.092 8.57638 4.16271C8.51893 4.23342 8.47621 4.3149 8.45074 4.40237C8.42526 4.48984 8.41755 4.58152 8.42804 4.67202C8.43373 4.89965 8.4527 5.12822 8.48495 5.3549C8.59402 5.95338 8.76949 6.53858 9.0066 7.10006L8.82639 6.99573L4.73855 3.85635C4.66736 3.787 4.58243 3.73334 4.48922 3.69882C4.39602 3.66431 4.29662 3.64971 4.19743 3.65596C4.09824 3.66222 4.00146 3.68919 3.91334 3.73514C3.82521 3.78109 3.74769 3.84499 3.68577 3.92274C3.63059 4.00384 3.59327 4.09573 3.57629 4.19234C3.5593 4.28895 3.56304 4.38807 3.58725 4.48313C3.61147 4.57818 3.6556 4.66701 3.71673 4.74372C3.77786 4.82043 3.8546 4.88328 3.94185 4.9281L6.02845 6.53099L6.63546 7.0147L3.24948 4.44439C3.17892 4.37449 3.09451 4.32015 3.00167 4.28485C2.90884 4.24955 2.80964 4.23409 2.71047 4.23945C2.6113 4.24481 2.51435 4.27088 2.42586 4.31597C2.33737 4.36107 2.25931 4.4242 2.1967 4.50129C2.14263 4.58226 2.106 4.67359 2.08914 4.76947C2.07227 4.86535 2.07554 4.96369 2.09873 5.05825C2.12193 5.1528 2.16454 5.24149 2.22385 5.31869C2.28317 5.39589 2.3579 5.4599 2.44329 5.50666L4.57732 7.11903L5.85773 8.06748L3.08824 5.99985C3.01842 5.92858 2.93421 5.87301 2.84122 5.83685C2.74823 5.80069 2.6486 5.78477 2.54898 5.79016C2.44935 5.79554 2.35202 5.82211 2.26347 5.86808C2.17492 5.91405 2.09719 5.97838 2.03546 6.05676C1.97993 6.13727 1.94208 6.22862 1.92442 6.32481C1.90675 6.421 1.90966 6.51984 1.93296 6.61483C1.95625 6.70981 1.99941 6.79878 2.05958 6.87588C2.11975 6.95297 2.19558 7.01645 2.28206 7.06212L4.41608 8.66501L5.48783 9.4712L3.35381 7.86831C3.2897 7.79405 3.21035 7.73448 3.12115 7.69364C3.03195 7.65281 2.935 7.63167 2.8369 7.63167C2.7388 7.63167 2.64185 7.65281 2.55265 7.69364C2.46345 7.73448 2.3841 7.79405 2.31999 7.86831C2.26194 7.94867 2.22156 8.04041 2.20153 8.1375C2.18149 8.23459 2.18225 8.33482 2.20376 8.4316C2.22526 8.52837 2.26703 8.61949 2.32629 8.69896C2.38556 8.77843 2.461 8.84444 2.54762 8.89264L6.43629 11.8423C6.71527 12.0523 7.03397 12.2034 7.37307 12.2865C7.71217 12.3697 8.06462 12.3831 8.40907 12.326C8.91934 12.622 9.36512 12.622 9.74639 12.326C10.3174 11.8812 10.1296 11.8414 10.5526 11.2543C11.0313 10.6299 11.4415 9.95574 11.7761 9.24357V9.24357Z" fill="var(--fill-0, #DCF0CB)"/>
<path id="Vector_7" d="M11.321 8.59869C11.3037 7.85346 11.1889 7.11369 10.9795 6.39827C10.4054 5.93685 9.96907 5.32662 9.71807 4.63415C9.56632 4.13147 9.46199 3.95126 9.01622 3.94178C8.92549 3.95003 8.83733 3.97635 8.75693 4.01919C8.67653 4.06203 8.60551 4.12053 8.54806 4.19123C8.49061 4.26194 8.44789 4.34343 8.42242 4.4309C8.39694 4.51836 8.38923 4.61004 8.39972 4.70054C8.40541 4.92817 8.42438 5.15675 8.45663 5.38343C8.58657 6.00467 8.76962 6.61452 9.00673 7.20446L4.73869 3.96075C4.66749 3.8914 4.58256 3.83774 4.48936 3.80322C4.39615 3.76871 4.29675 3.75411 4.19756 3.76036C4.09837 3.76662 4.0016 3.79359 3.91347 3.83954C3.82534 3.88549 3.74782 3.94939 3.6859 4.02714C3.63884 4.10581 3.6081 4.19316 3.59551 4.28397C3.58293 4.37479 3.58876 4.4672 3.61266 4.55571C3.63655 4.64422 3.67803 4.72701 3.73461 4.79915C3.79119 4.87129 3.86172 4.9313 3.94198 4.97559L6.07601 6.58797L6.6356 7.1191L3.24961 4.54879C3.18174 4.48034 3.09996 4.42726 3.0098 4.39314C2.91965 4.35902 2.82322 4.34465 2.72703 4.35101C2.63085 4.35736 2.53715 4.3843 2.45226 4.42999C2.36738 4.47568 2.2933 4.53906 2.23503 4.61584C2.17675 4.69263 2.13564 4.78103 2.11447 4.87508C2.09331 4.96912 2.09258 5.06661 2.11233 5.16096C2.13209 5.25531 2.17187 5.34432 2.22899 5.42197C2.28611 5.49962 2.35924 5.5641 2.44343 5.61106L4.57745 7.22343L5.85786 8.17189L3.08838 6.09477C3.01718 6.02542 2.93225 5.97176 2.83904 5.93725C2.74584 5.90273 2.64644 5.88813 2.54725 5.89439C2.44806 5.90064 2.35128 5.92761 2.26316 5.97356C2.17503 6.01951 2.09751 6.08342 2.03559 6.16116C1.74157 6.54054 1.97868 6.92941 2.28219 7.16652L4.41621 8.76941L5.48797 9.5756L3.35394 7.96323C3.2882 7.89165 3.20831 7.83451 3.11933 7.79542C3.03035 7.75633 2.93422 7.73614 2.83703 7.73614C2.73985 7.73614 2.64372 7.75633 2.55474 7.79542C2.46576 7.83451 2.38587 7.89165 2.32013 7.96323C2.26191 8.04435 2.22143 8.13683 2.20131 8.23463C2.1812 8.33244 2.1819 8.43338 2.20337 8.5309C2.22484 8.62842 2.2666 8.72032 2.32594 8.80063C2.38527 8.88095 2.46085 8.94787 2.54776 8.99704L6.43642 11.8424C6.9998 12.2664 8.32005 12.5462 9.01622 12.4304" stroke="var(--stroke-0, #165209)" stroke-width="0.303506" stroke-linecap="round" stroke-linejoin="round"/>
<path id="Vector_8" fill-rule="evenodd" clip-rule="evenodd" d="M13.8193 10.6511C13.6274 10.4458 13.479 10.2039 13.383 9.93979C13.383 9.73113 13.3261 9.53196 13.2881 9.3233C13.2585 8.95933 13.1414 8.60792 12.9467 8.29897C12.397 7.64392 12.0044 6.87177 11.7991 6.04164C11.6473 5.53896 11.543 5.35876 11.0972 5.34927C11.0065 5.35752 10.9183 5.38384 10.8379 5.42668C10.7575 5.46953 10.6865 5.52802 10.6291 5.59873C10.5716 5.66943 10.5289 5.75092 10.5034 5.83839C10.4779 5.92586 10.4702 6.01754 10.4807 6.10803C10.4873 6.33566 10.5063 6.56329 10.5376 6.79092C10.7083 7.6635 10.8885 8.38433 10.9075 8.43175L6.83864 5.38721C6.76818 5.31647 6.68344 5.26158 6.59007 5.22621C6.49671 5.19083 6.39687 5.17578 6.29722 5.18207C6.19758 5.18835 6.10042 5.21582 6.01224 5.26265C5.92405 5.30947 5.84688 5.37457 5.78586 5.4536C5.73841 5.53171 5.70713 5.61854 5.69385 5.70895C5.68058 5.79937 5.68559 5.89153 5.70859 5.97998C5.73158 6.06842 5.7721 6.15135 5.82773 6.22385C5.88336 6.29635 5.95298 6.35695 6.03246 6.40206L8.16648 8.01443L8.81143 8.54556L5.39699 5.97525C5.32717 5.90398 5.24296 5.84841 5.14997 5.81225C5.05698 5.77609 4.95735 5.76017 4.85773 5.76556C4.7581 5.77094 4.66077 5.79751 4.57222 5.84348C4.48367 5.88945 4.40594 5.95377 4.34421 6.03216C4.28868 6.11266 4.25083 6.20402 4.23316 6.30021C4.2155 6.3964 4.21841 6.49524 4.24171 6.59022C4.265 6.68521 4.30816 6.77418 4.36833 6.85128C4.4285 6.92837 4.50433 6.99185 4.59081 7.03752L6.72483 8.64989L8.00524 9.59835L5.22627 7.52123C5.15528 7.45263 5.07061 7.39978 4.9778 7.36613C4.88499 7.33248 4.78612 7.31879 4.68766 7.32595C4.5892 7.33311 4.49335 7.36096 4.40639 7.40769C4.31942 7.45441 4.24329 7.51896 4.18297 7.59711C3.88895 7.97649 4.11658 8.36536 4.42957 8.60247L6.56359 10.1959L7.62586 11.0021L5.4539 9.38969C5.32073 9.27399 5.14842 9.2135 4.97215 9.22055C4.79588 9.2276 4.62895 9.30166 4.50544 9.42763C4.44738 9.50535 4.40606 9.59426 4.3841 9.68876C4.36213 9.78325 4.35999 9.88127 4.37782 9.97663C4.39564 10.072 4.43304 10.1626 4.48766 10.2428C4.54227 10.323 4.61292 10.391 4.69514 10.4425L8.48896 13.2878C8.80574 13.525 9.17184 13.6871 9.56071 13.7621L10.1108 13.8474C10.4001 13.8901 10.6799 13.9831 10.936 14.1225C11.113 14.209 11.3161 14.2259 11.505 14.1699C12.1721 13.9347 12.7556 13.5093 13.1838 12.9464C13.5848 12.3921 13.8155 11.7329 13.8477 11.0495C13.8718 10.9164 13.862 10.7794 13.8193 10.6511Z" stroke="var(--stroke-0, #165209)" stroke-width="0.910517" stroke-linecap="round" stroke-linejoin="round"/>
<path id="Vector_9" fill-rule="evenodd" clip-rule="evenodd" d="M13.8581 10.6037L13.4313 10.2813C13.384 9.58252 13.2205 8.89654 12.9476 8.25158C12.3961 7.59766 12.0034 6.8251 11.7999 5.99426C11.6482 5.49158 11.5439 5.31137 11.0981 5.30189C11.0074 5.31014 10.9192 5.33646 10.8388 5.3793C10.7584 5.42214 10.6874 5.48064 10.6299 5.55134C10.5725 5.62205 10.5298 5.70354 10.5043 5.79101C10.4788 5.87847 10.4711 5.97016 10.4816 6.06065C10.4882 6.28828 10.5072 6.51591 10.5385 6.74354C10.7092 7.6256 10.8894 8.34643 10.9084 8.38437L6.83953 5.33983C6.76833 5.27048 6.6834 5.21682 6.5902 5.1823C6.49699 5.14779 6.39759 5.13319 6.2984 5.13944C6.19921 5.1457 6.10244 5.17267 6.01431 5.21862C5.92618 5.26457 5.84866 5.32847 5.78674 5.40622C5.49272 5.79508 5.72983 6.17447 6.03334 6.41158L8.16736 8.01447L8.81231 8.5456L5.39788 5.92787C5.32668 5.85852 5.24175 5.80486 5.14855 5.77034C5.05534 5.73583 4.95594 5.72123 4.85675 5.72749C4.75756 5.73374 4.66078 5.76071 4.57266 5.80666C4.48453 5.85261 4.40701 5.91652 4.34509 5.99426C4.05107 6.37364 4.28818 6.76251 4.59169 6.99962L6.72571 8.60251L8.00613 9.55096L5.22715 7.47385C5.15679 7.40472 5.07265 7.35119 4.98021 7.31676C4.88777 7.28233 4.78912 7.26778 4.69068 7.27404C4.59223 7.28031 4.49622 7.30725 4.40889 7.35312C4.32156 7.39899 4.24488 7.46275 4.18385 7.54024C4.12678 7.62025 4.08766 7.71163 4.06914 7.80814C4.05063 7.90466 4.05316 8.00403 4.07657 8.09948C4.09998 8.19493 4.14372 8.28419 4.20479 8.36119C4.26587 8.43818 4.34284 8.50108 4.43045 8.5456L6.56447 10.1485L7.62674 10.9547L5.45478 9.35179C5.32372 9.2316 5.15043 9.16813 4.97273 9.17524C4.79504 9.18234 4.62738 9.25945 4.50633 9.38973C4.44008 9.46766 4.39192 9.5593 4.36532 9.65807C4.33871 9.75684 4.33432 9.86027 4.35246 9.96093C4.3706 10.0616 4.41081 10.157 4.47022 10.2403C4.52962 10.3235 4.60674 10.3926 4.69602 10.4425L8.48984 13.2879C9.06505 13.6309 9.71746 13.8234 10.3867 13.8475C10.6296 13.9959 10.8832 14.1259 11.1455 14.2363C11.9065 14.0929 12.5845 13.6657 13.0424 13.0413C13.5423 12.3237 13.8254 11.4776 13.8581 10.6037V10.6037Z" fill="var(--fill-0, #DDF6D1)"/>
<g id="Vector_10" opacity="0.5">
</g>
<path id="Vector_11" fill-rule="evenodd" clip-rule="evenodd" d="M13.8193 10.6511C13.6274 10.4458 13.479 10.2039 13.383 9.93979C13.383 9.73113 13.3261 9.53196 13.2881 9.3233C13.2585 8.95933 13.1414 8.60792 12.9467 8.29897C12.397 7.64392 12.0044 6.87177 11.7991 6.04164C11.6473 5.53896 11.543 5.35876 11.0972 5.34927C11.0065 5.35752 10.9183 5.38384 10.8379 5.42668C10.7575 5.46953 10.6865 5.52802 10.6291 5.59873C10.5716 5.66943 10.5289 5.75092 10.5034 5.83839C10.4779 5.92586 10.4702 6.01754 10.4807 6.10803C10.4873 6.33566 10.5063 6.56329 10.5376 6.79092C10.7083 7.6635 10.8885 8.38433 10.9075 8.43175L6.83864 5.38721C6.76818 5.31647 6.68344 5.26158 6.59007 5.22621C6.49671 5.19083 6.39687 5.17578 6.29722 5.18207C6.19758 5.18835 6.10042 5.21582 6.01224 5.26265C5.92405 5.30947 5.84688 5.37457 5.78586 5.4536C5.73841 5.53171 5.70713 5.61854 5.69385 5.70895C5.68058 5.79937 5.68559 5.89153 5.70859 5.97998C5.73158 6.06842 5.7721 6.15135 5.82773 6.22385C5.88336 6.29635 5.95298 6.35695 6.03246 6.40206L8.16648 8.01443L8.81143 8.54556L5.39699 5.97525C5.32717 5.90398 5.24296 5.84841 5.14997 5.81225C5.05698 5.77609 4.95735 5.76017 4.85773 5.76556C4.7581 5.77094 4.66077 5.79751 4.57222 5.84348C4.48367 5.88945 4.40594 5.95377 4.34421 6.03216C4.28868 6.11266 4.25083 6.20402 4.23316 6.30021C4.2155 6.3964 4.21841 6.49524 4.24171 6.59022C4.265 6.68521 4.30816 6.77418 4.36833 6.85128C4.4285 6.92837 4.50433 6.99185 4.59081 7.03752L6.72483 8.64989L8.00524 9.59835L5.22627 7.52123C5.15528 7.45263 5.07061 7.39978 4.9778 7.36613C4.88499 7.33248 4.78612 7.31879 4.68766 7.32595C4.5892 7.33311 4.49335 7.36096 4.40639 7.40769C4.31942 7.45441 4.24329 7.51896 4.18297 7.59711C3.88895 7.97649 4.11658 8.36536 4.42957 8.60247L6.56359 10.1959L7.62586 11.0021L5.4539 9.38969C5.32073 9.27399 5.14842 9.2135 4.97215 9.22055C4.79588 9.2276 4.62895 9.30166 4.50544 9.42763C4.44738 9.50535 4.40606 9.59426 4.3841 9.68876C4.36213 9.78325 4.35999 9.88127 4.37782 9.97663C4.39564 10.072 4.43304 10.1626 4.48766 10.2428C4.54227 10.323 4.61292 10.391 4.69514 10.4425L8.48896 13.2878C8.80574 13.525 9.17184 13.6871 9.56071 13.7621L10.1108 13.8474C10.4001 13.8901 10.6799 13.9831 10.936 14.1225C11.113 14.209 11.3161 14.2259 11.505 14.1699C12.1721 13.9347 12.7556 13.5093 13.1838 12.9464C13.5848 12.3921 13.8155 11.7329 13.8477 11.0495C13.8718 10.9164 13.862 10.7794 13.8193 10.6511Z" stroke="var(--stroke-0, #165209)" stroke-width="0.303506" stroke-linecap="round" stroke-linejoin="round"/>
<path id="Vector_12" d="M6.9631 1.39897L6.34755 2.87855M8.18755 2.52288L7.49518 3.39546L8.18755 2.52288ZM5.02446 1.39138L5.0861 2.52288L5.02446 1.39138Z" stroke="var(--stroke-0, #165209)" stroke-width="0.607011" stroke-linecap="round" stroke-linejoin="round"/>
</g>
</g>
</g>
</svg>
