<svg preserveAspectRatio="none" width="100%" height="100%" overflow="visible" style="display: block;" viewBox="0 0 14.9269 14.9269" fill="none" xmlns="http://www.w3.org/2000/svg">
<g id="Reactions elements">
<rect x="0.761574" y="0.761574" width="13.4037" height="13.4037" rx="6.70185" stroke="var(--stroke-0, white)" stroke-width="1.52315"/>
<path id="Vector" d="M7.44104 14.0768C11.193 14.0768 14.2346 11.1043 14.2346 7.43762C14.2346 3.7709 11.193 0.798434 7.44104 0.798434C3.68905 0.798434 0.647457 3.7709 0.647457 7.43762C0.647457 11.1043 3.68905 14.0768 7.44104 14.0768Z" fill="var(--fill-0, #F5BB5C)"/>
<path id="Vector_2" fill-rule="evenodd" clip-rule="evenodd" d="M8.237 12.5594H6.68418C6.54518 12.5594 6.41188 12.5054 6.3136 12.4094C6.21532 12.3133 6.1601 12.1831 6.1601 12.0472V10.7858H8.76107V12.0472C8.76107 12.1831 8.70586 12.3133 8.60758 12.4094C8.50929 12.5054 8.37599 12.5594 8.237 12.5594V12.5594Z" fill="var(--fill-0, #FFE1B2)"/>
<path id="Vector_3" fill-rule="evenodd" clip-rule="evenodd" d="M6.17015 11.0322V10.7856C6.17015 10.4631 6.11677 10.1435 6.01487 9.83712C5.87887 9.56868 5.7058 9.31976 5.5005 9.09733C5.14298 8.81018 4.85426 8.44988 4.65471 8.04183C4.45517 7.63378 4.34965 7.18791 4.34559 6.73568C4.34559 5.92822 4.67381 5.15382 5.25805 4.58286C5.84229 4.0119 6.63469 3.69114 7.46093 3.69114C8.28717 3.69114 9.07957 4.0119 9.66381 4.58286C10.2481 5.15382 10.5763 5.92822 10.5763 6.73568C10.568 7.19781 10.4569 7.65264 10.2508 8.06863C10.0446 8.48463 9.74838 8.85182 9.38255 9.14475C9.45048 9.09733 9.3049 9.20166 9.20785 9.33444C9.11233 9.47201 9.03718 9.62209 8.98464 9.78022C8.88577 10.087 8.83665 10.407 8.83906 10.7287V10.9753" fill="var(--fill-0, #FCF0DE)"/>
<path id="Vector_4" d="M6.91743 4.38353C6.46477 4.45806 6.04919 4.67444 5.7334 5.00002C5.40229 5.3143 5.17283 5.71663 5.07345 6.15714" stroke="var(--stroke-0, white)" stroke-width="1.21402" stroke-linecap="round" stroke-linejoin="round"/>
<path id="Vector_5" fill-rule="evenodd" clip-rule="evenodd" d="M8.237 12.5594H6.68418C6.54518 12.5594 6.41188 12.5054 6.3136 12.4094C6.21532 12.3133 6.1601 12.1831 6.1601 12.0472V10.7858H8.76107V12.0472C8.76107 12.1831 8.70586 12.3133 8.60758 12.4094C8.50929 12.5054 8.37599 12.5594 8.237 12.5594V12.5594Z" stroke="var(--stroke-0, #5D3B01)" stroke-width="0.607011" stroke-linecap="round" stroke-linejoin="round"/>
<path id="Vector_6" d="M7.44094 1.27265V2.4677M6.15986 11.0322V10.7856C6.16243 10.464 6.11331 10.144 6.01429 9.83719C5.95107 9.67819 5.86619 9.52825 5.76195 9.39142C5.65822 9.2428 5.53777 9.106 5.40287 8.98358C5.27339 8.86971 5.15333 8.74603 5.04378 8.61369C4.5944 8.07882 4.3476 7.40883 4.34501 6.71678C4.34501 5.90932 4.67323 5.13492 5.25747 4.56396C5.84171 3.993 6.63411 3.67224 7.46035 3.67224C8.28659 3.67224 9.07899 3.993 9.66323 4.56396C10.2475 5.13492 10.5757 5.90932 10.5757 6.71678C10.5642 7.40888 10.3146 8.07706 9.86722 8.61369C9.70223 8.81286 9.51784 8.99307 9.31403 9.15431C9.24448 9.21602 9.17961 9.28259 9.11992 9.35348C9.02733 9.49134 8.95543 9.64146 8.90641 9.79925C8.80755 10.106 8.75843 10.4261 8.76084 10.7477V10.9943L6.15986 11.0322ZM4.1412 2.35009L4.73321 3.10032L4.1412 2.35009ZM10.7552 2.3463L10.1681 3.10032L10.7552 2.3463Z" stroke="var(--stroke-0, #5D3B01)" stroke-width="0.607011" stroke-linecap="round" stroke-linejoin="round"/>
</g>
</svg>
