<svg preserveAspectRatio="none" width="100%" height="100%" overflow="visible" style="display: block;" viewBox="0 0 20.0314 7.89114" fill="none" xmlns="http://www.w3.org/2000/svg">
<g id="More">
<path id="Vector" d="M5.15959 4.85609C5.66246 4.85609 6.07011 4.44844 6.07011 3.94557C6.07011 3.44271 5.66246 3.03506 5.15959 3.03506C4.65673 3.03506 4.24908 3.44271 4.24908 3.94557C4.24908 4.44844 4.65673 4.85609 5.15959 4.85609Z" fill="var(--fill-0, #707070)" stroke="var(--stroke-0, #707070)" stroke-width="0.607011" stroke-linecap="round" stroke-linejoin="round"/>
<path id="Vector_2" d="M10.0157 4.85609C10.5185 4.85609 10.9262 4.44844 10.9262 3.94557C10.9262 3.44271 10.5185 3.03506 10.0157 3.03506C9.51282 3.03506 9.10517 3.44271 9.10517 3.94557C9.10517 4.44844 9.51282 4.85609 10.0157 4.85609Z" fill="var(--fill-0, #707070)" stroke="var(--stroke-0, #707070)" stroke-width="0.607011" stroke-linecap="round" stroke-linejoin="round"/>
<path id="Vector_3" d="M14.8718 4.85609C15.3746 4.85609 15.7823 4.44844 15.7823 3.94557C15.7823 3.44271 15.3746 3.03506 14.8718 3.03506C14.3689 3.03506 13.9613 3.44271 13.9613 3.94557C13.9613 4.44844 14.3689 4.85609 14.8718 4.85609Z" fill="var(--fill-0, #707070)" stroke="var(--stroke-0, #707070)" stroke-width="0.607011" stroke-linecap="round" stroke-linejoin="round"/>
</g>
</svg>
