<svg width="88" height="42" viewBox="0 0 88 42" fill="none" xmlns="http://www.w3.org/2000/svg">
<path d="M82.7184 11.1061C82.7184 11.4106 82.6722 11.6643 82.6261 11.8673C82.5799 12.0702 82.4876 12.2732 82.3492 12.3747C82.2107 12.5269 82.0723 12.5777 81.8415 12.6791C81.6569 12.7299 81.4262 12.7806 81.1031 12.7806C80.8262 12.7806 80.5955 12.7299 80.3647 12.6791C80.1802 12.6284 79.9956 12.5269 79.8571 12.3747C79.7187 12.2225 79.6264 12.0702 79.5802 11.8673C79.5341 11.6643 79.4879 11.4106 79.4879 11.1061C79.4879 10.8017 79.5341 10.548 79.5802 10.345C79.6264 10.142 79.7187 9.93906 79.8571 9.83758C79.9956 9.73609 80.134 9.63461 80.3647 9.53312C80.5493 9.48238 80.7801 9.43164 81.1031 9.43164C81.38 9.43164 81.6108 9.48238 81.8415 9.53312C82.0261 9.58387 82.2107 9.68535 82.3492 9.83758C82.4876 9.9898 82.5799 10.142 82.6261 10.345C82.6722 10.4972 82.7184 10.8017 82.7184 11.1061ZM79.9956 11.1061C79.9956 11.3598 79.9956 11.5628 80.0417 11.715C80.0879 11.8673 80.134 12.0195 80.2263 12.121C80.3186 12.2225 80.4109 12.2732 80.5493 12.3239C80.6878 12.3747 80.8724 12.3747 81.1031 12.3747C81.3339 12.3747 81.5185 12.3747 81.6569 12.3239C81.7954 12.2732 81.9338 12.2225 81.98 12.121C82.0723 12.0195 82.1184 11.918 82.1646 11.715C82.2107 11.5628 82.2107 11.3598 82.2107 11.1061C82.2107 10.8524 82.2107 10.6495 82.1646 10.4972C82.1184 10.345 82.0723 10.1928 81.98 10.0913C81.8877 9.9898 81.7954 9.93906 81.6569 9.88832C81.5185 9.83758 81.3339 9.83758 81.1031 9.83758C80.8724 9.83758 80.6878 9.83758 80.5493 9.88832C80.4109 9.93906 80.2724 9.9898 80.2263 10.0913C80.134 10.1928 80.0879 10.2943 80.0417 10.4972C80.0417 10.6495 79.9956 10.8524 79.9956 11.1061ZM81.7954 10.8017C81.7954 10.9032 81.7954 11.0046 81.7492 11.1061C81.7031 11.2076 81.6569 11.2584 81.5646 11.3091L81.8877 11.918H81.4262L81.1493 11.3598H80.9647V11.918H80.5493V10.1928H81.3339C81.5185 10.1928 81.6108 10.2435 81.7031 10.2943C81.7954 10.345 81.8415 10.4972 81.8415 10.7002V10.8017H81.7954ZM81.38 10.7509C81.38 10.6495 81.38 10.5987 81.3339 10.5987C81.2877 10.5987 81.2416 10.548 81.1493 10.548H80.9185V11.0046H81.1493C81.2416 11.0046 81.2877 11.0046 81.3339 10.9539C81.38 10.9539 81.38 10.8524 81.38 10.8017V10.7509Z" fill="#070707"/>
<path d="M58.3539 40.3836C58.1693 40.3836 57.9386 40.2821 57.8001 40.1806C57.431 39.8254 57.3848 39.2165 57.7079 38.8613L67.9068 25.2117C67.953 25.1102 67.9991 25.0595 68.0453 25.0087C68.1376 24.958 68.1837 24.9072 68.276 24.8565C68.3222 24.8565 68.3222 24.8565 68.3683 24.8057C68.4606 24.755 68.5529 24.755 68.5991 24.755C68.6914 24.755 68.7837 24.755 68.876 24.8057C68.9221 24.8057 68.9221 24.8057 68.9683 24.8565C69.0606 24.9072 69.1067 24.9072 69.1529 24.958C69.2452 25.0087 69.2913 25.0595 69.3375 25.1609L73.9985 31.3515L74.0447 31.4022C74.3216 31.7067 74.6446 31.8589 75.0138 31.8589C75.383 31.8589 75.706 31.7067 75.9368 31.453C76.1675 31.1993 76.306 30.7933 76.306 30.4381C76.306 30.0322 76.1675 29.677 75.9368 29.4233L75.8906 29.3218L70.8604 22.5731C70.5835 22.2179 70.5835 21.6597 70.9065 21.3045L75.5214 15.114C75.706 14.911 75.9368 14.7588 76.1675 14.7588C76.3521 14.7588 76.5829 14.8603 76.7213 14.9618C76.9059 15.114 76.9982 15.3677 77.0444 15.6214C77.0444 15.8751 76.9982 16.1288 76.8598 16.3318L72.7063 21.9642L77.2751 28.104C78.4289 29.4233 78.4288 31.5545 77.229 32.8737C76.629 33.5334 75.8906 33.8886 75.06 33.8886C74.3216 33.8886 73.6293 33.5841 73.0755 33.0767C73.0294 33.026 72.9832 32.9752 72.9371 32.9752L72.8909 32.9245C72.8448 32.8737 72.7986 32.823 72.7525 32.7723L68.6452 27.3429L59 40.0284C58.8616 40.2314 58.6308 40.3836 58.3539 40.3836Z" fill="#070707"/>
<path d="M45.2467 31.8597C44.7852 31.8597 44.3699 31.4537 44.3699 30.8956V12.9329C44.3699 12.4254 44.7391 11.9688 45.2467 11.9688C45.7082 11.9688 46.1235 12.3747 46.1235 12.9329V30.8956C46.1235 31.403 45.7082 31.8597 45.2467 31.8597Z" fill="#070707"/>
<path d="M81.1025 31.8583C80.6411 31.8583 80.2257 31.4524 80.2257 30.8942V18.1072C80.2257 17.5997 80.5949 17.1431 81.1025 17.1431C81.564 17.1431 81.9794 17.549 81.9794 18.1072V30.8942C81.9794 31.4016 81.564 31.8583 81.1025 31.8583Z" fill="#070707"/>
<path d="M54.4756 31.8583H54.291H54.1526C52.445 31.8583 51.0606 31.4524 50.0453 30.5898C48.9377 29.6764 48.3378 28.3571 48.3378 26.7334V22.877C48.3378 21.101 48.9839 19.6802 50.2299 18.6654C51.3836 17.7013 52.9065 17.1938 54.7525 17.1938C56.6446 17.1938 58.1214 17.7013 59.229 18.6654C60.3827 19.6802 60.9827 21.101 60.9827 22.8262V24.653C60.9827 25.1604 60.6135 25.6171 60.1058 25.6171H52.7219C52.2605 25.6171 51.8451 25.2111 51.8451 24.653C51.8451 24.1455 52.2143 23.6888 52.7219 23.6888H59.229V22.7755C59.229 21.6084 58.8598 20.7458 58.1214 20.0862C57.3369 19.3758 56.1831 19.0206 54.7064 19.0206C53.2757 19.0206 52.0759 19.3758 51.2452 20.0862C50.4145 20.7458 50.0453 21.6084 50.0453 22.7755V26.6319C50.0453 27.6467 50.3683 28.4079 51.0144 28.966C51.7528 29.5749 52.8142 29.8794 54.1064 29.8794H54.1987H54.3833H54.4295H58.9982C59.4597 29.8794 59.8751 30.2853 59.8751 30.8435C59.8751 31.3509 59.5059 31.8076 58.9982 31.8076H54.4756V31.8583Z" fill="#070707"/>
<path d="M35.6486 31.8583H35.464H35.3255C33.618 31.8583 32.2335 31.4524 31.2183 30.5898C30.1107 29.6764 29.5107 28.3571 29.5107 26.7334V22.877C29.5107 21.101 30.1568 19.6802 31.4029 18.6654C32.5566 17.7013 34.0795 17.1938 35.9255 17.1938C37.8176 17.1938 39.2944 17.7013 40.402 18.6654C41.5557 19.6802 42.1556 21.101 42.1556 22.8262V24.653C42.1556 25.1604 41.7864 25.6171 41.2788 25.6171H33.8949C33.4334 25.6171 33.0181 25.2111 33.0181 24.653C33.0181 24.1455 33.3873 23.6888 33.8949 23.6888H40.402V22.7755C40.402 21.6084 40.0328 20.7458 39.2944 20.0862C38.5098 19.3758 37.3561 19.0206 35.8793 19.0206C34.4487 19.0206 33.2488 19.3758 32.4181 20.0862C31.5875 20.7458 31.2183 21.6084 31.2183 22.7755V26.6319C31.2183 27.6467 31.5413 28.4079 32.1874 28.966C32.9258 29.5749 33.9872 29.8794 35.2794 29.8794H35.3717H35.5563H35.6024H40.2174C40.6789 29.8794 41.0942 30.2853 41.0942 30.8435C41.0942 31.3509 40.725 31.8076 40.2174 31.8076H35.6486V31.8583Z" fill="#070707"/>
<path d="M81.6589 0.702969C81.5204 0.550742 81.2897 0.5 81.1051 0.5C80.8282 0.5 80.5974 0.601484 80.459 0.855195L68.6448 16.636L64.5375 11.2066C64.4914 11.1559 64.4452 11.1051 64.3991 11.0544L64.3529 11.0036C64.3068 10.9529 64.2606 10.9529 64.2145 10.9021C63.6607 10.3947 62.9223 10.0903 62.23 10.0903C61.3994 10.0903 60.6148 10.4455 60.061 11.1051C58.8612 12.4244 58.8612 14.5556 60.0149 15.8749L64.5837 22.0147L65.0452 22.6236C65.2298 22.8266 65.4605 22.9788 65.7374 22.9788C65.922 22.9788 66.1527 22.8773 66.2912 22.7251C66.3373 22.6743 66.3373 22.6743 66.3373 22.6236C66.3835 22.5729 66.3835 22.5729 66.3835 22.5221C66.4296 22.4714 66.4296 22.4206 66.4758 22.3699C66.5219 22.3191 66.5219 22.2177 66.5219 22.1669C66.5219 22.1162 66.5681 22.1162 66.5681 22.0654C66.5681 22.0654 66.5681 22.0654 66.5681 22.0147C66.5681 21.9132 66.5681 21.8117 66.5219 21.761C66.5219 21.7102 66.5219 21.7102 66.5219 21.6595C66.4758 21.558 66.4296 21.4565 66.3835 21.355L65.2297 19.782L61.3532 14.6063L61.3071 14.5048C61.0763 14.2511 60.9379 13.8452 60.9379 13.49C60.9379 13.0841 61.0763 12.7289 61.3071 12.4752C61.5378 12.2214 61.907 12.0692 62.23 12.0692C62.5531 12.0692 62.9223 12.2214 63.1992 12.5259L63.2453 12.5766L67.9064 18.6657C67.9526 18.7672 67.9987 18.8179 68.091 18.8687C68.1371 18.9194 68.2294 18.9702 68.2756 18.9702C68.3217 18.9702 68.3217 18.9702 68.3679 19.0209C68.4602 19.0716 68.5063 19.0716 68.6448 19.0716C68.7371 19.0716 68.7832 19.0716 68.8755 19.0209C68.9217 19.0209 68.9217 19.0209 68.9678 18.9702C69.0601 18.9194 69.1063 18.8687 69.1986 18.8179C69.2447 18.7672 69.2909 18.7164 69.337 18.615L81.7512 2.02227C82.0742 1.66707 82.0281 1.05816 81.6589 0.702969Z" fill="#070707"/>
<path d="M21.4787 23.3337C19.7712 22.877 17.3714 22.2681 17.3714 21.1517C17.3714 20.0862 18.3867 18.8683 21.2018 18.8683C23.6016 18.8683 24.7092 19.9339 25.0322 20.9995C25.0784 21.2025 25.2168 21.4054 25.4014 21.5069C25.4937 21.5577 25.586 21.6084 25.6321 21.6592H25.6783C25.7706 21.7099 25.8629 21.7099 25.9552 21.7099C26.509 21.7099 26.9705 21.2532 26.9705 20.6443C26.9705 20.5428 26.9705 20.4413 26.9243 20.2891C26.9243 20.2891 26.9243 20.2891 26.9243 20.2384C26.3244 18.6654 24.5246 17.1938 21.2018 17.1938C16.8638 17.1938 15.2947 19.325 15.2947 21.2025C15.2947 23.6381 18.1098 24.3485 20.7865 25.0589H20.8326C22.9555 25.6171 25.4014 26.226 25.4014 27.6975C25.4014 29.169 23.6939 30.1331 21.248 30.1331C18.5713 30.1331 17.2791 28.966 16.8638 27.7482C16.7254 27.3423 16.3562 27.0886 15.9408 27.0886C15.387 27.0886 14.9717 27.5453 14.9717 28.1034C14.9717 28.2556 15.0178 28.4079 15.064 28.5094C15.8024 30.2853 17.6945 31.8076 21.248 31.8076C24.9399 31.8076 27.4781 30.1331 27.4781 27.6467C27.4781 24.8559 24.0169 23.9933 21.4787 23.3337Z" fill="#070707"/>
<path d="M9.25154 40.2316C8.97464 40.2316 8.69774 40.1809 8.5593 40.1302C8.3747 40.0794 8.23625 39.9779 8.14395 39.8257C8.05166 39.6735 7.95936 39.5212 7.95936 39.369C7.91321 39.1661 7.91321 38.9631 7.91321 38.7094V38.3034C7.91321 38.0497 7.91321 37.796 7.95936 37.593C8.00551 37.3901 8.05166 37.2378 8.14395 37.0856C8.23625 36.9841 8.3747 36.8319 8.5593 36.7812C8.74389 36.7304 8.97464 36.6797 9.29768 36.6797C9.57458 36.6797 9.80533 36.7304 9.98992 36.7812C10.1745 36.8319 10.2668 36.9334 10.3591 37.0349C10.4514 37.1364 10.4976 37.2886 10.5437 37.4408C10.5899 37.593 10.5899 37.7453 10.5899 37.8975V37.999C10.5899 38.1512 10.5899 38.3034 10.5899 38.4049C10.5899 38.5064 10.5437 38.5571 10.5437 38.6079C10.4976 38.6586 10.4976 38.6586 10.4514 38.6586C10.4053 38.6586 10.3591 38.6586 10.2668 38.6586H8.32855V38.7601C8.32855 38.9631 8.32855 39.1153 8.3747 39.2675C8.3747 39.4198 8.467 39.5212 8.51315 39.6227C8.60545 39.7242 8.69774 39.775 8.79004 39.8257C8.88234 39.8764 9.06694 39.8764 9.20539 39.8764H9.66688C9.85148 39.8764 10.0361 39.8764 10.2668 39.8764L10.1745 40.2824H9.89762H9.62073H9.25154V40.2316ZM9.25154 37.0349C9.06694 37.0349 8.92849 37.0349 8.79004 37.0856C8.6516 37.1364 8.5593 37.1871 8.51315 37.2886C8.467 37.3901 8.42085 37.4916 8.3747 37.6438C8.3747 37.796 8.32855 37.9482 8.32855 38.202V38.3034H10.1284V37.9482C10.1284 37.796 10.1284 37.6438 10.0822 37.5423C10.0361 37.3901 9.98992 37.2886 9.94377 37.2379C9.85147 37.1871 9.75918 37.0856 9.66688 37.0856C9.57458 37.0349 9.43613 37.0349 9.25154 37.0349Z" fill="#070707"/>
<path d="M9.25154 40.2316C8.97464 40.2316 8.69774 40.1809 8.5593 40.1302C8.3747 40.0794 8.23625 39.9779 8.14395 39.8257C8.05166 39.6735 7.95936 39.5212 7.95936 39.369C7.91321 39.1661 7.91321 38.9631 7.91321 38.7094V38.3034C7.91321 38.0497 7.91321 37.796 7.95936 37.593C8.00551 37.3901 8.05166 37.2378 8.14395 37.0856C8.23625 36.9841 8.3747 36.8319 8.5593 36.7812C8.74389 36.7304 8.97464 36.6797 9.29768 36.6797C9.57458 36.6797 9.80533 36.7304 9.98992 36.7812C10.1745 36.8319 10.2668 36.9334 10.3591 37.0349C10.4514 37.1364 10.4976 37.2886 10.5437 37.4408C10.5899 37.593 10.5899 37.7453 10.5899 37.8975V37.999C10.5899 38.1512 10.5899 38.3034 10.5899 38.4049C10.5899 38.5064 10.5437 38.5571 10.5437 38.6079C10.4976 38.6586 10.4976 38.6586 10.4514 38.6586C10.4053 38.6586 10.3591 38.6586 10.2668 38.6586H8.32855V38.7601C8.32855 38.9631 8.32855 39.1153 8.3747 39.2675C8.3747 39.4198 8.467 39.5212 8.51315 39.6227C8.60545 39.7242 8.69774 39.775 8.79004 39.8257C8.88234 39.8764 9.06694 39.8764 9.20539 39.8764H9.66688C9.85148 39.8764 10.0361 39.8764 10.2668 39.8764L10.1745 40.2824H9.89762H9.62073H9.25154V40.2316ZM9.25154 37.0349C9.06694 37.0349 8.92849 37.0349 8.79004 37.0856C8.6516 37.1364 8.5593 37.1871 8.51315 37.2886C8.467 37.3901 8.42085 37.4916 8.3747 37.6438C8.3747 37.796 8.32855 37.9482 8.32855 38.202V38.3034H10.1284V37.9482C10.1284 37.796 10.1284 37.6438 10.0822 37.5423C10.0361 37.3901 9.98992 37.2886 9.94377 37.2379C9.85147 37.1871 9.75918 37.0856 9.66688 37.0856C9.57458 37.0349 9.43613 37.0349 9.25154 37.0349Z" fill="#070707"/>
<path d="M12.2025 40.2317H11.5564L11.6487 39.8257C11.8333 39.8257 12.064 39.8257 12.2948 39.8257C12.5255 39.8257 12.7563 39.8257 12.9409 39.8257C13.2178 39.8257 13.4024 39.775 13.4947 39.7243C13.6331 39.6228 13.6793 39.4705 13.6793 39.2676C13.6793 39.2168 13.6793 39.1661 13.6793 39.0646C13.6793 39.0139 13.6331 38.9124 13.587 38.8616C13.5408 38.8109 13.4947 38.7602 13.4024 38.7602C13.3101 38.7094 13.2639 38.7094 13.1255 38.7094L12.3409 38.6079C12.2025 38.6079 12.064 38.5572 11.9717 38.5064C11.8794 38.4557 11.7871 38.405 11.741 38.3035C11.6948 38.202 11.6487 38.1512 11.6025 38.0498C11.5564 37.9483 11.5564 37.8468 11.5564 37.7453V37.6438C11.5564 37.3394 11.6487 37.1364 11.8333 36.9842C12.0179 36.832 12.3409 36.7305 12.7563 36.7305H13.4024C13.587 36.7305 13.8177 36.7305 14.0485 36.7305L13.9562 37.1364H13.587C13.4485 37.1364 12.7101 37.1364 12.7101 37.1364C12.4794 37.1364 12.2948 37.1871 12.2025 37.2379C12.1102 37.2886 12.0179 37.3901 12.0179 37.6438C12.0179 37.6946 12.0179 37.7961 12.0179 37.8468C12.0179 37.8975 12.064 37.999 12.1102 37.999C12.1563 38.0498 12.2025 38.1005 12.2948 38.1005C12.3871 38.1512 12.4332 38.1513 12.5717 38.1513L13.3101 38.2527C13.4947 38.2527 13.6331 38.3035 13.7254 38.3542C13.8177 38.405 13.91 38.5064 13.9562 38.5572C14.0023 38.6587 14.0485 38.7094 14.0485 38.8109C14.0485 38.9124 14.0946 39.0139 14.0946 39.1154V39.2168C14.0946 39.5213 14.0023 39.7243 13.8177 39.9272C13.6331 40.0795 13.3101 40.1809 12.8486 40.1809L12.2025 40.2317Z" fill="#070707"/>
<path d="M12.2025 40.2317H11.5564L11.6487 39.8257C11.8333 39.8257 12.064 39.8257 12.2948 39.8257C12.5255 39.8257 12.7563 39.8257 12.9409 39.8257C13.2178 39.8257 13.4024 39.775 13.4947 39.7243C13.6331 39.6228 13.6793 39.4705 13.6793 39.2676C13.6793 39.2168 13.6793 39.1661 13.6793 39.0646C13.6793 39.0139 13.6331 38.9124 13.587 38.8616C13.5408 38.8109 13.4947 38.7602 13.4024 38.7602C13.3101 38.7094 13.2639 38.7094 13.1255 38.7094L12.3409 38.6079C12.2025 38.6079 12.064 38.5572 11.9717 38.5064C11.8794 38.4557 11.7871 38.405 11.741 38.3035C11.6948 38.202 11.6487 38.1512 11.6025 38.0498C11.5564 37.9483 11.5564 37.8468 11.5564 37.7453V37.6438C11.5564 37.3394 11.6487 37.1364 11.8333 36.9842C12.0179 36.832 12.3409 36.7305 12.7563 36.7305H13.4024C13.587 36.7305 13.8177 36.7305 14.0485 36.7305L13.9562 37.1364H13.587C13.4485 37.1364 12.7101 37.1364 12.7101 37.1364C12.4794 37.1364 12.2948 37.1871 12.2025 37.2379C12.1102 37.2886 12.0179 37.3901 12.0179 37.6438C12.0179 37.6946 12.0179 37.7961 12.0179 37.8468C12.0179 37.8975 12.064 37.999 12.1102 37.999C12.1563 38.0498 12.2025 38.1005 12.2948 38.1005C12.3871 38.1512 12.4332 38.1513 12.5717 38.1513L13.3101 38.2527C13.4947 38.2527 13.6331 38.3035 13.7254 38.3542C13.8177 38.405 13.91 38.5064 13.9562 38.5572C14.0023 38.6587 14.0485 38.7094 14.0485 38.8109C14.0485 38.9124 14.0946 39.0139 14.0946 39.1154V39.2168C14.0946 39.5213 14.0023 39.7243 13.8177 39.9272C13.6331 40.0795 13.3101 40.1809 12.8486 40.1809L12.2025 40.2317Z" fill="#070707"/>
<path d="M16.4026 40.232C16.1719 40.232 15.9411 40.232 15.8027 40.1812C15.6642 40.1305 15.5258 40.0797 15.4796 39.9782C15.3873 39.8768 15.3412 39.7753 15.2951 39.623C15.2489 39.4708 15.2489 39.2679 15.2489 39.0141V35.9189L15.7104 35.8174V36.7815H16.9103L16.818 37.1874H15.7104V39.0141C15.7104 39.1664 15.7104 39.3186 15.7104 39.4201C15.7104 39.5216 15.7565 39.623 15.8027 39.7245C15.8488 39.7753 15.9411 39.826 16.0334 39.8768C16.1257 39.8768 16.218 39.9275 16.3565 39.9275H16.818L16.7257 40.2827H16.4026V40.232Z" fill="#070707"/>
<path d="M16.4026 40.232C16.1719 40.232 15.9411 40.232 15.8027 40.1812C15.6642 40.1305 15.5258 40.0797 15.4796 39.9782C15.3873 39.8768 15.3412 39.7753 15.2951 39.623C15.2489 39.4708 15.2489 39.2679 15.2489 39.0141V35.9189L15.7104 35.8174V36.7815H16.9103L16.818 37.1874H15.7104V39.0141C15.7104 39.1664 15.7104 39.3186 15.7104 39.4201C15.7104 39.5216 15.7565 39.623 15.8027 39.7245C15.8488 39.7753 15.9411 39.826 16.0334 39.8768C16.1257 39.8768 16.218 39.9275 16.3565 39.9275H16.818L16.7257 40.2827H16.4026V40.232Z" fill="#070707"/>
<path d="M6.4351 40.232C6.20436 40.232 5.97361 40.232 5.83516 40.1812C5.69671 40.1305 5.55827 40.0797 5.51212 39.9782C5.41982 39.8768 5.37367 39.7753 5.32752 39.623C5.28137 39.4708 5.28137 39.2679 5.28137 39.0141V35.9189L5.74286 35.8174V36.7815H6.94274L6.85045 37.1874H5.74286V39.0141C5.74286 39.1664 5.74286 39.3186 5.74286 39.4201C5.74286 39.5216 5.78901 39.623 5.83516 39.7245C5.88131 39.7753 5.97361 39.826 6.06591 39.8768C6.15821 39.8768 6.25051 39.9275 6.38895 39.9275H6.85045L6.75815 40.2827H6.4351V40.232Z" fill="#070707"/>
<path d="M6.4351 40.232C6.20436 40.232 5.97361 40.232 5.83516 40.1812C5.69671 40.1305 5.55827 40.0797 5.51212 39.9782C5.41982 39.8768 5.37367 39.7753 5.32752 39.623C5.28137 39.4708 5.28137 39.2679 5.28137 39.0141V35.9189L5.74286 35.8174V36.7815H6.94274L6.85045 37.1874H5.74286V39.0141C5.74286 39.1664 5.74286 39.3186 5.74286 39.4201C5.74286 39.5216 5.78901 39.623 5.83516 39.7245C5.88131 39.7753 5.97361 39.826 6.06591 39.8768C6.15821 39.8768 6.25051 39.9275 6.38895 39.9275H6.85045L6.75815 40.2827H6.4351V40.232Z" fill="#070707"/>
<path d="M20.3248 41.5002H20.0479H19.8172L19.9095 41.0943C20.0941 41.0943 20.2325 41.0943 20.371 41.0943H20.8786C21.0632 41.0943 21.2016 41.0943 21.2939 41.0435C21.4324 40.9928 21.5247 40.942 21.617 40.8405C21.7093 40.7391 21.7554 40.6376 21.8016 40.4854C21.8477 40.3331 21.8477 40.1809 21.8477 39.9779V39.6227L21.6631 39.775C21.617 39.8257 21.5708 39.8257 21.5247 39.8764C21.4785 39.9272 21.4324 39.9272 21.3862 39.9779C21.3401 40.0287 21.2478 40.0287 21.1555 40.0287C21.0632 40.0287 20.9247 40.0287 20.7863 40.0287C20.4171 40.0287 20.0941 39.9272 19.9095 39.775C19.7249 39.6227 19.6326 39.369 19.6326 38.9631V36.7304H20.0941V38.8109C20.0941 38.9123 20.0941 39.0646 20.0941 39.1153C20.0941 39.2168 20.1402 39.3183 20.1864 39.4198C20.2325 39.5213 20.3248 39.572 20.4633 39.572C20.5556 39.6227 20.694 39.6227 20.8786 39.6227C21.0632 39.6227 21.2478 39.6227 21.3401 39.572C21.4785 39.5212 21.5708 39.4705 21.6631 39.4198C21.7554 39.3183 21.8016 39.2168 21.8016 39.1153C21.8477 39.0138 21.8477 38.8616 21.8477 38.7094V36.6797H22.3092V39.8764C22.3092 40.1302 22.2631 40.3839 22.2169 40.5868C22.1708 40.7898 22.0785 40.942 21.9862 41.0435C21.8939 41.145 21.7093 41.2465 21.5247 41.2972C21.3401 41.348 21.1093 41.3987 20.8324 41.3987H20.3248V41.5002Z" fill="#070707"/>
<path d="M20.3248 41.5002H20.0479H19.8172L19.9095 41.0943C20.0941 41.0943 20.2325 41.0943 20.371 41.0943H20.8786C21.0632 41.0943 21.2016 41.0943 21.2939 41.0435C21.4324 40.9928 21.5247 40.942 21.617 40.8405C21.7093 40.7391 21.7554 40.6376 21.8016 40.4854C21.8477 40.3331 21.8477 40.1809 21.8477 39.9779V39.6227L21.6631 39.775C21.617 39.8257 21.5708 39.8257 21.5247 39.8764C21.4785 39.9272 21.4324 39.9272 21.3862 39.9779C21.3401 40.0287 21.2478 40.0287 21.1555 40.0287C21.0632 40.0287 20.9247 40.0287 20.7863 40.0287C20.4171 40.0287 20.0941 39.9272 19.9095 39.775C19.7249 39.6227 19.6326 39.369 19.6326 38.9631V36.7304H20.0941V38.8109C20.0941 38.9123 20.0941 39.0646 20.0941 39.1153C20.0941 39.2168 20.1402 39.3183 20.1864 39.4198C20.2325 39.5213 20.3248 39.572 20.4633 39.572C20.5556 39.6227 20.694 39.6227 20.8786 39.6227C21.0632 39.6227 21.2478 39.6227 21.3401 39.572C21.4785 39.5212 21.5708 39.4705 21.6631 39.4198C21.7554 39.3183 21.8016 39.2168 21.8016 39.1153C21.8477 39.0138 21.8477 38.8616 21.8477 38.7094V36.6797H22.3092V39.8764C22.3092 40.1302 22.2631 40.3839 22.2169 40.5868C22.1708 40.7898 22.0785 40.942 21.9862 41.0435C21.8939 41.145 21.7093 41.2465 21.5247 41.2972C21.3401 41.348 21.1093 41.3987 20.8324 41.3987H20.3248V41.5002Z" fill="#070707"/>
<path d="M24.8477 40.3321C24.5708 40.3321 24.3401 40.2813 24.1555 40.2306C23.9709 40.1798 23.8325 40.0784 23.7402 39.9769C23.6479 39.8754 23.5556 39.6724 23.5094 39.4695C23.4633 39.2665 23.4171 38.962 23.4171 38.6576V38.2516C23.4171 37.9472 23.4633 37.6427 23.5094 37.4398C23.5556 37.2368 23.6479 37.0846 23.7402 36.9323C23.8325 36.8309 24.0171 36.7294 24.1555 36.6786C24.3401 36.6279 24.5708 36.5771 24.8477 36.5771C25.1246 36.5771 25.3554 36.6279 25.54 36.6786C25.7246 36.7294 25.863 36.8309 25.9553 36.9323C26.0476 37.0338 26.1399 37.2368 26.1861 37.4398C26.2322 37.6427 26.2784 37.9472 26.2784 38.2516V38.6576C26.2784 38.962 26.2322 39.2665 26.1861 39.4695C26.1399 39.6724 26.0476 39.8247 25.9553 39.9769C25.863 40.0784 25.6784 40.1798 25.54 40.2306C25.3554 40.3321 25.1246 40.3321 24.8477 40.3321ZM24.8477 37.0338C24.6631 37.0338 24.5247 37.0338 24.3862 37.0846C24.2478 37.1353 24.1555 37.1861 24.0632 37.2875C23.9709 37.389 23.9248 37.5413 23.9248 37.6935C23.8786 37.8457 23.8786 38.0487 23.8786 38.3024V38.7083C23.8786 38.962 23.8786 39.165 23.9248 39.3172C23.9709 39.4695 24.0171 39.6217 24.0632 39.7232C24.1555 39.8247 24.2478 39.8754 24.3862 39.9261C24.5247 39.9769 24.6631 39.9769 24.8477 39.9769C25.0323 39.9769 25.1708 39.9769 25.3092 39.9261C25.4477 39.8754 25.54 39.8247 25.6323 39.7232C25.7246 39.6217 25.7707 39.4695 25.7707 39.3172C25.8169 39.165 25.8169 38.962 25.8169 38.7083V38.3024C25.8169 38.0487 25.8169 37.8457 25.7707 37.6935C25.7246 37.5413 25.6784 37.389 25.6323 37.2875C25.54 37.1861 25.4477 37.1353 25.3092 37.0846C25.2169 37.0846 25.0323 37.0338 24.8477 37.0338Z" fill="#070707"/>
<path d="M24.8477 40.3321C24.5708 40.3321 24.3401 40.2813 24.1555 40.2306C23.9709 40.1798 23.8325 40.0784 23.7402 39.9769C23.6479 39.8754 23.5556 39.6724 23.5094 39.4695C23.4633 39.2665 23.4171 38.962 23.4171 38.6576V38.2516C23.4171 37.9472 23.4633 37.6427 23.5094 37.4398C23.5556 37.2368 23.6479 37.0846 23.7402 36.9323C23.8325 36.8309 24.0171 36.7294 24.1555 36.6786C24.3401 36.6279 24.5708 36.5771 24.8477 36.5771C25.1246 36.5771 25.3554 36.6279 25.54 36.6786C25.7246 36.7294 25.863 36.8309 25.9553 36.9323C26.0476 37.0338 26.1399 37.2368 26.1861 37.4398C26.2322 37.6427 26.2784 37.9472 26.2784 38.2516V38.6576C26.2784 38.962 26.2322 39.2665 26.1861 39.4695C26.1399 39.6724 26.0476 39.8247 25.9553 39.9769C25.863 40.0784 25.6784 40.1798 25.54 40.2306C25.3554 40.3321 25.1246 40.3321 24.8477 40.3321ZM24.8477 37.0338C24.6631 37.0338 24.5247 37.0338 24.3862 37.0846C24.2478 37.1353 24.1555 37.1861 24.0632 37.2875C23.9709 37.389 23.9248 37.5413 23.9248 37.6935C23.8786 37.8457 23.8786 38.0487 23.8786 38.3024V38.7083C23.8786 38.962 23.8786 39.165 23.9248 39.3172C23.9709 39.4695 24.0171 39.6217 24.0632 39.7232C24.1555 39.8247 24.2478 39.8754 24.3862 39.9261C24.5247 39.9769 24.6631 39.9769 24.8477 39.9769C25.0323 39.9769 25.1708 39.9769 25.3092 39.9261C25.4477 39.8754 25.54 39.8247 25.6323 39.7232C25.7246 39.6217 25.7707 39.4695 25.7707 39.3172C25.8169 39.165 25.8169 38.962 25.8169 38.7083V38.3024C25.8169 38.0487 25.8169 37.8457 25.7707 37.6935C25.7246 37.5413 25.6784 37.389 25.6323 37.2875C25.54 37.1861 25.4477 37.1353 25.3092 37.0846C25.2169 37.0846 25.0323 37.0338 24.8477 37.0338Z" fill="#070707"/>
<path d="M28.7703 40.3327C28.3088 40.3327 27.9397 40.2312 27.7089 40.079C27.4782 39.9268 27.3859 39.6731 27.3859 39.2671V36.7808H27.8474V39.1149C27.8474 39.2164 27.8474 39.3686 27.8474 39.4701C27.8474 39.5716 27.8935 39.6731 27.9858 39.7746C28.032 39.876 28.1243 39.9268 28.2627 39.9268C28.355 39.9775 28.5396 39.9775 28.7242 39.9775C28.9088 39.9775 29.0934 39.9775 29.1857 39.9268C29.3241 39.876 29.4164 39.8253 29.4626 39.7746C29.5087 39.6731 29.5549 39.6223 29.601 39.4701C29.601 39.3686 29.601 39.2671 29.601 39.1149V36.7808H30.0625V39.2671C30.0625 39.6731 29.9702 39.9268 29.7395 40.079C29.5549 40.2312 29.1857 40.3327 28.7703 40.3327Z" fill="#070707"/>
<path d="M28.7703 40.3327C28.3088 40.3327 27.9397 40.2312 27.7089 40.079C27.4782 39.9268 27.3859 39.6731 27.3859 39.2671V36.7808H27.8474V39.1149C27.8474 39.2164 27.8474 39.3686 27.8474 39.4701C27.8474 39.5716 27.8935 39.6731 27.9858 39.7746C28.032 39.876 28.1243 39.9268 28.2627 39.9268C28.355 39.9775 28.5396 39.9775 28.7242 39.9775C28.9088 39.9775 29.0934 39.9775 29.1857 39.9268C29.3241 39.876 29.4164 39.8253 29.4626 39.7746C29.5087 39.6731 29.5549 39.6223 29.601 39.4701C29.601 39.3686 29.601 39.2671 29.601 39.1149V36.7808H30.0625V39.2671C30.0625 39.6731 29.9702 39.9268 29.7395 40.079C29.5549 40.2312 29.1857 40.3327 28.7703 40.3327Z" fill="#070707"/>
<path d="M31.2634 40.2312V37.8463C31.2634 37.6434 31.3096 37.4912 31.3557 37.3389C31.4019 37.1867 31.4942 37.0852 31.5865 37.0345C31.6788 36.933 31.8172 36.8822 31.9557 36.8315C32.0941 36.7808 32.2787 36.7808 32.4633 36.7808C32.4633 36.7808 33.0632 36.7808 33.1094 36.7808L33.0171 37.1867C33.0171 37.1867 32.7864 37.1867 32.6941 37.1867H32.5095C32.3249 37.1867 32.2326 37.1867 32.1403 37.2374C32.048 37.2882 31.9557 37.3389 31.9095 37.4404C31.8634 37.5419 31.8172 37.5926 31.8172 37.7449C31.8172 37.8463 31.8172 37.9478 31.8172 38.0493V40.282H31.2634V40.2312Z" fill="#070707"/>
<path d="M31.2634 40.2312V37.8463C31.2634 37.6434 31.3096 37.4912 31.3557 37.3389C31.4019 37.1867 31.4942 37.0852 31.5865 37.0345C31.6788 36.933 31.8172 36.8822 31.9557 36.8315C32.0941 36.7808 32.2787 36.7808 32.4633 36.7808C32.4633 36.7808 33.0632 36.7808 33.1094 36.7808L33.0171 37.1867C33.0171 37.1867 32.7864 37.1867 32.6941 37.1867H32.5095C32.3249 37.1867 32.2326 37.1867 32.1403 37.2374C32.048 37.2882 31.9557 37.3389 31.9095 37.4404C31.8634 37.5419 31.8172 37.5926 31.8172 37.7449C31.8172 37.8463 31.8172 37.9478 31.8172 38.0493V40.282H31.2634V40.2312Z" fill="#070707"/>
<path d="M35.6927 40.23V36.7288C35.6927 36.4243 35.7389 36.1706 35.785 35.9676C35.8312 35.7647 35.9235 35.6124 36.0158 35.511C36.1081 35.4095 36.2465 35.308 36.4311 35.2572C36.6157 35.2065 36.8465 35.1558 37.1234 35.1558C37.1234 35.1558 37.6772 35.1558 37.7233 35.1558L37.631 35.5617C37.5849 35.5617 37.1695 35.5617 37.1695 35.5617C36.9849 35.5617 36.8003 35.5617 36.708 35.6124C36.5696 35.6632 36.4773 35.7139 36.385 35.7647C36.2927 35.8662 36.2465 35.9676 36.2465 36.1199C36.2004 36.2721 36.2004 36.4243 36.2004 36.678V36.7795H37.4464L37.3541 37.1854H36.2004V40.23H35.6927Z" fill="#070707"/>
<path d="M35.6927 40.23V36.7288C35.6927 36.4243 35.7389 36.1706 35.785 35.9676C35.8312 35.7647 35.9235 35.6124 36.0158 35.511C36.1081 35.4095 36.2465 35.308 36.4311 35.2572C36.6157 35.2065 36.8465 35.1558 37.1234 35.1558C37.1234 35.1558 37.6772 35.1558 37.7233 35.1558L37.631 35.5617C37.5849 35.5617 37.1695 35.5617 37.1695 35.5617C36.9849 35.5617 36.8003 35.5617 36.708 35.6124C36.5696 35.6632 36.4773 35.7139 36.385 35.7647C36.2927 35.8662 36.2465 35.9676 36.2465 36.1199C36.2004 36.2721 36.2004 36.4243 36.2004 36.678V36.7795H37.4464L37.3541 37.1854H36.2004V40.23H35.6927Z" fill="#070707"/>
<path d="M39.6635 40.3327C39.202 40.3327 38.8328 40.2312 38.6021 40.079C38.3713 39.9268 38.2791 39.6731 38.2791 39.2671V36.7808H38.7405V39.1149C38.7405 39.2164 38.7405 39.3686 38.7405 39.4701C38.7405 39.5716 38.7867 39.6731 38.879 39.7746C38.9251 39.876 39.0174 39.9268 39.1559 39.9268C39.2482 39.9775 39.4328 39.9775 39.6174 39.9775C39.802 39.9775 39.9866 39.9775 40.0789 39.9268C40.2173 39.876 40.3096 39.8253 40.3558 39.7746C40.4019 39.6731 40.4481 39.6223 40.4942 39.4701C40.4942 39.3686 40.4942 39.2671 40.4942 39.1149V36.7808H40.9557V39.2671C40.9557 39.6731 40.8634 39.9268 40.6327 40.079C40.4942 40.2312 40.125 40.3327 39.6635 40.3327Z" fill="#070707"/>
<path d="M39.6635 40.3327C39.202 40.3327 38.8328 40.2312 38.6021 40.079C38.3713 39.9268 38.2791 39.6731 38.2791 39.2671V36.7808H38.7405V39.1149C38.7405 39.2164 38.7405 39.3686 38.7405 39.4701C38.7405 39.5716 38.7867 39.6731 38.879 39.7746C38.9251 39.876 39.0174 39.9268 39.1559 39.9268C39.2482 39.9775 39.4328 39.9775 39.6174 39.9775C39.802 39.9775 39.9866 39.9775 40.0789 39.9268C40.2173 39.876 40.3096 39.8253 40.3558 39.7746C40.4019 39.6731 40.4481 39.6223 40.4942 39.4701C40.4942 39.3686 40.4942 39.2671 40.4942 39.1149V36.7808H40.9557V39.2671C40.9557 39.6731 40.8634 39.9268 40.6327 40.079C40.4942 40.2312 40.125 40.3327 39.6635 40.3327Z" fill="#070707"/>
<path d="M43.356 40.232C43.1253 40.232 42.8945 40.232 42.7561 40.1812C42.6176 40.1305 42.4792 40.0797 42.433 39.9782C42.3407 39.8768 42.2946 39.7753 42.2484 39.623C42.2023 39.4708 42.2023 39.2679 42.2023 39.0141V35.9189L42.6638 35.8174V36.7815H43.8636L43.7713 37.1874H42.6638V39.0141C42.6638 39.1664 42.6638 39.3186 42.7099 39.4201C42.7099 39.5216 42.7561 39.623 42.8022 39.7245C42.8484 39.7753 42.9407 39.826 43.033 39.8768C43.1253 39.8768 43.2176 39.9275 43.356 39.9275H43.8175L43.7252 40.2827H43.356V40.232Z" fill="#070707"/>
<path d="M43.356 40.232C43.1253 40.232 42.8945 40.232 42.7561 40.1812C42.6176 40.1305 42.4792 40.0797 42.433 39.9782C42.3407 39.8768 42.2946 39.7753 42.2484 39.623C42.2023 39.4708 42.2023 39.2679 42.2023 39.0141V35.9189L42.6638 35.8174V36.7815H43.8636L43.7713 37.1874H42.6638V39.0141C42.6638 39.1664 42.6638 39.3186 42.7099 39.4201C42.7099 39.5216 42.7561 39.623 42.8022 39.7245C42.8484 39.7753 42.9407 39.826 43.033 39.8768C43.1253 39.8768 43.2176 39.9275 43.356 39.9275H43.8175L43.7252 40.2827H43.356V40.232Z" fill="#070707"/>
<path d="M46.1229 40.3327C45.6614 40.3327 45.2922 40.2312 45.0614 40.079C44.8307 39.9268 44.7384 39.6731 44.7384 39.2671V36.7808H45.1999V39.1149C45.1999 39.2164 45.1999 39.3686 45.1999 39.4701C45.1999 39.5716 45.246 39.6731 45.3383 39.7746C45.3845 39.876 45.4768 39.9268 45.6152 39.9268C45.7075 39.9775 45.8921 39.9775 46.0767 39.9775C46.2613 39.9775 46.4459 39.9775 46.5382 39.9268C46.6767 39.876 46.769 39.8253 46.8151 39.7746C46.8613 39.6731 46.9074 39.6223 46.9536 39.4701C46.9536 39.3686 46.9536 39.2671 46.9536 39.1149V36.7808H47.4151V39.2671C47.4151 39.6731 47.3228 39.9268 47.092 40.079C46.9536 40.2312 46.5844 40.3327 46.1229 40.3327Z" fill="#070707"/>
<path d="M46.1229 40.3327C45.6614 40.3327 45.2922 40.2312 45.0614 40.079C44.8307 39.9268 44.7384 39.6731 44.7384 39.2671V36.7808H45.1999V39.1149C45.1999 39.2164 45.1999 39.3686 45.1999 39.4701C45.1999 39.5716 45.246 39.6731 45.3383 39.7746C45.3845 39.876 45.4768 39.9268 45.6152 39.9268C45.7075 39.9775 45.8921 39.9775 46.0767 39.9775C46.2613 39.9775 46.4459 39.9775 46.5382 39.9268C46.6767 39.876 46.769 39.8253 46.8151 39.7746C46.8613 39.6731 46.9074 39.6223 46.9536 39.4701C46.9536 39.3686 46.9536 39.2671 46.9536 39.1149V36.7808H47.4151V39.2671C47.4151 39.6731 47.3228 39.9268 47.092 40.079C46.9536 40.2312 46.5844 40.3327 46.1229 40.3327Z" fill="#070707"/>
<path d="M48.6606 40.2312V37.8463C48.6606 37.6434 48.7068 37.4912 48.7529 37.3389C48.7991 37.1867 48.8914 37.0852 48.9837 37.0345C49.076 36.933 49.2144 36.8822 49.3529 36.8315C49.4913 36.7808 49.6759 36.7808 49.8605 36.7808C49.8605 36.7808 50.4605 36.7808 50.5066 36.7808L50.3682 37.136C50.3682 37.136 50.1374 37.136 50.0451 37.136H49.8605C49.6759 37.136 49.5836 37.136 49.4913 37.1867C49.399 37.2374 49.3067 37.2882 49.2606 37.3897C49.2144 37.4912 49.1683 37.5419 49.1683 37.6941C49.1683 37.7956 49.1683 37.8971 49.1683 37.9986V40.2312H48.6606Z" fill="#070707"/>
<path d="M48.6606 40.2312V37.8463C48.6606 37.6434 48.7068 37.4912 48.7529 37.3389C48.7991 37.1867 48.8914 37.0852 48.9837 37.0345C49.076 36.933 49.2144 36.8822 49.3529 36.8315C49.4913 36.7808 49.6759 36.7808 49.8605 36.7808C49.8605 36.7808 50.4605 36.7808 50.5066 36.7808L50.3682 37.136C50.3682 37.136 50.1374 37.136 50.0451 37.136H49.8605C49.6759 37.136 49.5836 37.136 49.4913 37.1867C49.399 37.2374 49.3067 37.2882 49.2606 37.3897C49.2144 37.4912 49.1683 37.5419 49.1683 37.6941C49.1683 37.7956 49.1683 37.8971 49.1683 37.9986V40.2312H48.6606Z" fill="#070707"/>
<path d="M52.4931 40.2316C52.2162 40.2316 51.9393 40.1809 51.8009 40.1302C51.6163 40.0794 51.4778 39.9779 51.3855 39.8257C51.2932 39.6735 51.2009 39.5212 51.2009 39.369C51.1548 39.1661 51.1548 38.9631 51.1548 38.7094V38.3034C51.1548 38.0497 51.1548 37.796 51.2009 37.593C51.2471 37.3901 51.2932 37.2378 51.3855 37.0856C51.4778 36.9334 51.6163 36.8319 51.8009 36.7812C51.9855 36.7304 52.2162 36.6797 52.5393 36.6797C52.8162 36.6797 53.0469 36.7304 53.2315 36.7812C53.4161 36.8319 53.5084 36.9334 53.6007 37.0349C53.693 37.1364 53.7391 37.2886 53.7853 37.4408C53.8314 37.593 53.8314 37.7453 53.8314 37.8975V37.999C53.8314 38.1512 53.8314 38.3034 53.7853 38.4049C53.7853 38.5064 53.7391 38.5571 53.7391 38.6079C53.693 38.6586 53.693 38.6586 53.6468 38.6586C53.6007 38.6586 53.5545 38.6586 53.4622 38.6586H51.5701V38.7601C51.5701 38.9631 51.5701 39.1153 51.6163 39.2675C51.6163 39.4198 51.7086 39.5212 51.7547 39.6227C51.847 39.7242 51.9393 39.775 52.0316 39.8257C52.1239 39.8764 52.3085 39.8764 52.447 39.8764H52.9085C53.0931 39.8764 53.2777 39.8764 53.5084 39.8764L53.4161 40.2824H53.1392H52.8623H52.4931V40.2316ZM52.4931 37.0349C52.3085 37.0349 52.1701 37.0349 52.0316 37.0856C51.8932 37.1364 51.8009 37.1871 51.7547 37.2886C51.7086 37.3901 51.6163 37.4916 51.6163 37.6438C51.6163 37.796 51.5701 37.9482 51.5701 38.202V38.3034H53.3699V37.9482C53.3699 37.796 53.3699 37.6438 53.3238 37.5423C53.2777 37.3901 53.2315 37.2886 53.1854 37.2379C53.0931 37.1871 53.0008 37.0856 52.9085 37.0856C52.8162 37.0349 52.6777 37.0349 52.4931 37.0349Z" fill="#070707"/>
<path d="M52.4931 40.2316C52.2162 40.2316 51.9393 40.1809 51.8009 40.1302C51.6163 40.0794 51.4778 39.9779 51.3855 39.8257C51.2932 39.6735 51.2009 39.5212 51.2009 39.369C51.1548 39.1661 51.1548 38.9631 51.1548 38.7094V38.3034C51.1548 38.0497 51.1548 37.796 51.2009 37.593C51.2471 37.3901 51.2932 37.2378 51.3855 37.0856C51.4778 36.9334 51.6163 36.8319 51.8009 36.7812C51.9855 36.7304 52.2162 36.6797 52.5393 36.6797C52.8162 36.6797 53.0469 36.7304 53.2315 36.7812C53.4161 36.8319 53.5084 36.9334 53.6007 37.0349C53.693 37.1364 53.7391 37.2886 53.7853 37.4408C53.8314 37.593 53.8314 37.7453 53.8314 37.8975V37.999C53.8314 38.1512 53.8314 38.3034 53.7853 38.4049C53.7853 38.5064 53.7391 38.5571 53.7391 38.6079C53.693 38.6586 53.693 38.6586 53.6468 38.6586C53.6007 38.6586 53.5545 38.6586 53.4622 38.6586H51.5701V38.7601C51.5701 38.9631 51.5701 39.1153 51.6163 39.2675C51.6163 39.4198 51.7086 39.5212 51.7547 39.6227C51.847 39.7242 51.9393 39.775 52.0316 39.8257C52.1239 39.8764 52.3085 39.8764 52.447 39.8764H52.9085C53.0931 39.8764 53.2777 39.8764 53.5084 39.8764L53.4161 40.2824H53.1392H52.8623H52.4931V40.2316ZM52.4931 37.0349C52.3085 37.0349 52.1701 37.0349 52.0316 37.0856C51.8932 37.1364 51.8009 37.1871 51.7547 37.2886C51.7086 37.3901 51.6163 37.4916 51.6163 37.6438C51.6163 37.796 51.5701 37.9482 51.5701 38.202V38.3034H53.3699V37.9482C53.3699 37.796 53.3699 37.6438 53.3238 37.5423C53.2777 37.3901 53.2315 37.2886 53.1854 37.2379C53.0931 37.1871 53.0008 37.0856 52.9085 37.0856C52.8162 37.0349 52.6777 37.0349 52.4931 37.0349Z" fill="#070707"/>
</svg>
