<svg width="204" height="42" viewBox="0 0 204 42" fill="none" xmlns="http://www.w3.org/2000/svg">
<path d="M126.246 35.1596C125.403 35.4095 124.514 35.6085 123.578 35.7567C122.643 35.9049 121.702 35.9789 120.757 35.9789C118.941 35.9789 117.283 35.697 115.782 35.132C114.281 34.5669 112.993 33.7531 111.918 32.6872C110.843 31.6224 110.004 30.3309 109.403 28.8127C108.8 27.2946 108.499 25.5818 108.499 23.6744L108.666 22.3309L115.608 19.8353C117.034 19.3355 118.716 18.5128 119.763 18.013C120.81 17.5132 121.679 16.7569 122.428 16.2936C123.179 15.8314 123.79 15.3914 124.263 14.9745C124.735 14.5576 125.111 14.164 125.388 13.7936C126.036 12.9422 126.262 11.9703 126.151 11.2294C125.929 10.5262 125.498 10.0352 124.859 9.7577C124.219 9.48016 123.437 9.34082 122.51 9.34082C121.12 9.34082 119.684 9.51662 118.201 9.86824C116.718 10.2199 115.259 10.7197 113.823 11.3676C112.387 12.0167 111.002 12.7984 109.668 13.7151C108.333 14.6317 107.125 15.6556 106.04 16.7846C104.957 17.9146 104.029 19.1365 103.26 20.4512C102.491 21.7659 101.949 23.1459 101.634 24.5899L101.495 25.2567C101.383 25.8494 101.323 26.4464 101.314 27.048C101.304 27.6495 101.346 28.2753 101.439 28.9233C101.661 30.7566 102.144 32.3632 102.884 33.7431C103.625 35.1231 104.534 36.2753 105.609 37.2019C106.683 38.1285 107.875 38.8173 109.18 39.2707C110.486 39.724 111.817 39.933 113.169 39.8954C114.503 39.8766 115.897 39.7473 117.352 39.5062C118.806 39.2652 120.28 38.8815 121.771 38.354C123.263 37.8266 124.755 37.1366 126.247 36.2841C127.739 35.4327 129.19 34.3767 130.597 33.1173C130.022 33.5253 129.364 33.9046 128.624 34.2562C127.882 34.6089 127.089 34.9097 126.246 35.1596ZM109.457 18.2707C109.818 17.354 110.203 16.5491 110.61 15.8547C111.018 15.1603 111.416 14.5953 111.805 14.1607C112.195 13.7261 112.5 13.4431 112.723 13.3137C113.057 13.1467 113.446 13.0129 113.891 12.9112C114.335 12.8095 114.799 12.7586 115.281 12.7586C115.799 12.7586 116.305 12.8371 116.796 12.9952C117.287 13.1523 117.671 13.4353 117.949 13.8423C118.357 14.3796 118.552 14.8883 118.533 15.3704C118.514 15.8514 118.324 16.3147 117.963 16.7592C117.602 17.2037 117.102 17.6294 116.463 18.0374C115.824 18.4443 115.105 18.8246 114.309 19.1763C113.604 19.4914 112.78 19.8154 111.835 20.1482C110.89 20.4822 109.834 20.8614 108.666 21.2871C108.831 20.1925 109.095 19.1873 109.457 18.2707Z" fill="black"/>
<path d="M168.645 34.8404C167.496 34.8404 166.527 34.5905 165.74 34.0907C164.953 33.5909 164.54 32.8125 164.503 31.7577C164.503 31.2015 164.503 30.3688 164.503 29.2576C164.503 28.1463 164.512 26.9101 164.53 25.549C164.548 24.1878 164.568 22.767 164.586 21.2853C164.604 19.8036 164.628 18.406 164.655 17.0913C164.683 15.7766 164.702 14.6244 164.711 13.6326C164.719 12.6418 164.725 11.9518 164.725 11.5637C164.725 10.8594 164.503 10.3231 164.057 9.95269C163.613 9.58227 163.075 9.39648 162.445 9.39648C161.852 9.39648 161.218 9.54466 160.541 9.841C159.864 10.1373 159.179 10.5078 158.484 10.9523C157.79 11.3968 157.109 11.8689 156.441 12.3687C155.774 12.8685 155.172 13.3229 154.634 13.7298C155.32 13.5452 155.853 13.5264 156.232 13.6735C156.612 13.8216 156.885 14.0262 157.052 14.2849C157.256 14.6001 157.367 14.9793 157.386 15.4238C157.386 17.6275 157.34 19.8401 157.247 22.0626C157.154 24.2851 157.08 26.6282 157.025 29.0906C156.71 30.2019 156.325 31.1141 155.871 31.8273C155.417 32.5405 154.861 33.11 154.204 33.5357C153.546 33.9614 152.776 34.2577 151.897 34.4247C151.017 34.5905 149.993 34.6834 148.826 34.7022C147.269 34.7398 145.949 34.5629 144.865 34.1748C143.781 33.7856 142.9 33.2028 142.225 32.4244C141.548 31.6471 141.052 30.6972 140.737 29.5771C140.422 28.457 140.255 27.1744 140.238 25.7303C140.238 24.064 140.255 22.3976 140.293 20.7302C140.329 19.0639 140.348 17.3135 140.348 15.4802C140.348 14.7958 140.31 14.0958 140.238 13.3826C140.163 12.6706 140.005 12.0215 139.765 11.4388C139.524 10.855 139.177 10.3784 138.723 10.008C138.268 9.63754 137.652 9.45179 136.874 9.45179C136.021 9.45179 135.183 9.59554 134.358 9.88193C133.533 10.1694 132.727 10.5343 131.94 10.9799C131.152 11.4244 130.383 11.9242 129.632 12.4793C128.882 13.0355 128.163 13.5817 127.479 14.118C128.386 13.7851 129.165 13.6182 129.814 13.6182C130.592 13.6182 131.218 13.836 131.69 14.2706C132.162 14.7062 132.524 15.2989 132.774 16.0486C133.024 16.7983 133.191 17.6828 133.275 18.7012C133.358 19.7196 133.4 20.8121 133.4 21.9786C133.4 22.9782 133.381 24.0065 133.344 25.0624C133.307 26.1184 133.289 27.1921 133.289 28.2845C133.289 29.9509 133.423 31.479 133.692 32.8678C133.96 34.2566 134.442 35.4508 135.137 36.4515C135.831 37.451 136.772 38.2295 137.959 38.7845C139.144 39.3396 140.664 39.6183 142.518 39.6183C143.87 39.6183 145.19 39.4602 146.478 39.1461C147.766 38.831 149.017 38.392 150.231 37.827C151.444 37.2631 152.617 36.5908 153.747 35.8135C154.877 35.035 155.971 34.1936 157.027 33.2858C157.082 34.3229 157.198 35.2164 157.374 35.9661C157.55 36.7157 157.805 37.346 158.138 37.8546C158.472 38.3644 158.893 38.7536 159.403 39.0212C159.913 39.2899 160.529 39.4424 161.252 39.48C162.197 39.5353 163.077 39.4657 163.892 39.2711C164.707 39.0765 165.561 38.7436 166.45 38.2715C167.339 37.7993 168.303 37.1923 169.34 36.4515C170.377 35.7117 171.592 34.8316 172.981 33.8132C172.277 34.146 171.55 34.4014 170.8 34.5773C170.048 34.7531 169.33 34.8404 168.645 34.8404Z" fill="black"/>
<path d="M201.655 10.6747C201.247 10.73 200.858 10.7577 200.488 10.7577C199.876 10.7577 199.273 10.688 198.681 10.5487C198.087 10.4094 197.49 10.2523 196.888 10.0765C196.286 9.90072 195.674 9.7426 195.054 9.60438C194.433 9.46506 193.798 9.39648 193.15 9.39648C192.205 9.39648 191.195 9.60989 190.12 10.0356C189.045 10.4624 187.975 11.0131 186.909 11.6887C185.843 12.3643 184.797 13.1195 183.768 13.9521C182.74 14.7847 181.79 15.6184 180.918 16.4522C180.918 15.7489 180.895 15.0081 180.849 14.2296C180.802 13.4523 180.654 12.7391 180.404 12.0912C180.154 11.4432 179.755 10.9058 179.209 10.4801C178.662 10.0544 177.898 9.841 176.916 9.841C176.1 9.841 175.299 9.97591 174.512 10.2435C173.723 10.5122 172.936 10.8638 172.149 11.2983C171.362 11.734 170.579 12.2194 169.8 12.7568C169.022 13.2942 168.243 13.8216 167.465 14.3402C167.872 14.1368 168.285 13.993 168.702 13.9101C169.119 13.8271 169.523 13.7851 169.911 13.7851C170.911 13.7851 171.686 14.0173 172.232 14.4795C172.778 14.9428 173.182 15.5443 173.441 16.2852C173.701 17.026 173.854 17.8454 173.9 18.7432C173.947 19.6411 173.97 20.5257 173.97 21.3959C173.97 22.767 173.96 24.3083 173.942 26.0211C173.923 27.7339 173.9 29.461 173.873 31.2015C173.845 32.943 173.812 34.6038 173.775 36.1872C173.738 37.7706 173.71 39.1174 173.692 40.2286C174.026 39.8582 174.507 39.4237 175.138 38.9228C175.675 38.4971 176.397 37.9597 177.306 37.3117C178.214 36.6638 179.363 35.8953 180.752 35.0063C180.678 34.062 180.642 32.9463 180.642 31.6592C180.642 30.3722 180.693 29.0165 180.795 27.5902C180.896 26.1638 181.053 24.7385 181.267 23.3121C181.479 21.8868 181.758 20.5621 182.1 19.3403C182.443 18.1185 182.864 17.0625 183.365 16.1735C183.866 15.2845 184.449 14.673 185.117 14.3402C185.394 14.192 185.779 14.16 186.27 14.2429C186.761 14.3259 187.336 14.4563 187.993 14.6321C188.651 14.8079 189.383 14.9793 190.189 15.1463C190.995 15.3133 191.852 15.4061 192.76 15.4238C193.686 15.4614 194.524 15.3818 195.275 15.1872C196.026 14.9926 196.78 14.6874 197.541 14.2706C198.3 13.8537 199.115 13.3218 199.987 12.6739C200.858 12.0259 201.877 11.2575 203.044 10.3685C202.527 10.5177 202.062 10.6194 201.655 10.6747Z" fill="black"/>
<path d="M103.8 14.7987C104.19 13.7715 104.384 12.7852 104.384 11.8409C104.384 11.3787 104.315 10.9342 104.176 10.5074C104.037 10.0817 103.802 9.69244 103.468 9.34082L96.852 13.7295C97.2036 14.0623 97.4535 14.4515 97.6028 14.896C97.751 15.3405 97.825 15.8226 97.825 16.3401C97.825 17.3773 97.5608 18.5438 97.0333 19.8397C96.5048 21.1367 95.7684 22.572 94.823 24.1454C94.4515 24.7569 94.0258 25.4049 93.5448 26.0904C93.1368 26.6831 92.6591 27.3542 92.1128 28.1039C91.5655 28.8536 90.9685 29.6365 90.3194 30.4514C90.0595 29.2484 89.7123 27.9933 89.2766 26.6875C88.841 25.3816 88.3589 24.0857 87.8315 22.7986C87.303 21.5116 86.7478 20.2621 86.164 19.0491C85.5802 17.8372 85.0108 16.7116 84.4546 15.6744C83.8984 14.6384 83.3754 13.7162 82.8833 12.9112C82.3924 12.1063 81.9799 11.4804 81.646 11.0359C81.2015 10.4797 80.7294 10.0772 80.2285 9.82734C79.7287 9.57745 79.2178 9.45251 78.6993 9.45251C78.6993 9.45251 75.6043 9.13406 72.2838 12.5076C76.3319 13.0539 74.7894 19.1431 74.3681 19.6982C73.9336 20.2721 73.4968 20.9034 73.4968 21.6465C73.4968 22.3939 74.4787 23.0828 76.2733 23.2542C78.069 23.4256 78.8308 25.8339 78.7744 26.8666C78.7225 27.8983 79.429 30.5376 80.192 31.514C80.9516 32.4848 85.9407 34.3469 85.9407 34.3469C85.9407 33.6558 87.2996 33.4302 87.7905 33.4302C88.2793 33.4302 89.4281 33.3462 89.4281 33.3462C90.0816 33.4037 90.3127 34.4398 90.3127 34.4398C90.3127 34.4398 90.933 33.9422 91.1586 34.1976C91.2028 33.7642 91.3455 33.2854 91.5954 32.7579C91.947 32.0171 92.4291 31.2066 93.0406 30.3276C93.6521 29.4485 94.3563 28.5075 95.1536 27.5079C95.9497 26.5072 96.7702 25.48 97.6139 24.4241C98.4575 23.3692 99.2813 22.2944 100.087 21.202C100.893 20.1095 101.617 19.0259 102.256 17.9522C102.897 16.8775 103.411 15.827 103.8 14.7987Z" fill="black"/>
<path d="M82.0727 35.0538C80.2925 34.7917 78.6958 34.2665 78.3972 33.8817C77.8897 33.2327 76.4367 29.4113 76.4367 28.3387C76.4367 28.3387 75.9658 31.1285 75.7468 31.9312C75.529 32.734 75.6395 33.6893 76.2554 34.8758C76.4456 35.2418 76.5739 35.5226 76.6657 35.7571C71.1271 31.4547 70.3354 23.5078 70.2281 21.7829C70.2347 21.7375 70.2392 21.6922 70.2392 21.6457C70.2392 20.9027 69.8046 20.2713 69.369 19.6974C69.0959 19.3381 68.3539 16.66 68.9621 14.6675C69.003 13.4722 69.0483 12.1752 69.0981 10.7576C67.3002 10.4425 65.6969 10.2346 64.2893 10.1329C62.8806 10.0312 61.6576 9.98031 60.6205 9.98031C59.6198 9.98031 58.5262 10.092 57.3397 10.3142C56.1544 10.5365 54.9359 10.8516 53.6842 11.2585C52.4336 11.6665 51.1775 12.1475 49.9181 12.7026C48.6576 13.2588 47.4667 13.8791 46.3466 14.5635C45.2254 15.2491 44.1926 15.98 43.2472 16.7584C42.3018 17.5358 41.5234 18.3418 40.9119 19.1744C40.578 19.6189 40.2584 20.184 39.9532 20.8684C39.647 21.5539 39.3783 22.3225 39.1472 23.1739C38.915 24.0253 38.7248 24.9287 38.5766 25.8818C38.4285 26.836 38.3544 27.8036 38.3544 28.7843C38.3544 30.0991 38.549 31.4226 38.9382 32.7561C39.2235 33.7325 39.6149 34.6381 40.1081 35.4751C38.549 35.4463 36.9921 35.4043 35.4385 35.3335C32.8213 35.2152 30.1853 35.0848 27.5293 34.941C24.8734 34.7984 22.1975 34.6668 19.5028 34.5485C16.807 34.4302 14.0792 34.3716 11.3171 34.3716H10.9223C12.6318 33.2581 14.4663 31.9246 16.4256 30.3721C18.3839 28.8197 20.3697 27.17 22.3821 25.424C24.3934 23.6781 26.3727 21.8978 28.3188 20.0833C30.2649 18.2699 32.0727 16.5572 33.7424 14.945C35.412 13.334 36.8915 11.8822 38.1797 10.5918C39.4678 9.3014 40.4542 8.29296 41.1386 7.5676C42.0851 6.63989 43.0969 5.73651 44.1761 4.85966C45.096 4.10003 46.1686 3.32824 47.3904 2.54428C48.6133 1.75921 49.9214 1.11456 51.3157 0.608137C50.0795 0.844763 48.7847 1.00953 47.4302 1.10131C46.0757 1.19419 44.7012 1.24064 43.308 1.24064C41.5986 1.24064 39.9157 1.17761 38.2593 1.05046C36.6029 0.923297 34.9267 0.780649 33.2305 0.620319C31.5343 0.459988 29.8248 0.316235 28.1032 0.190182C26.3805 0.0630233 24.6124 0 22.7979 0C20.2205 0 17.9714 0.143753 16.0529 0.430137C14.1334 0.717626 12.3643 1.16877 10.7477 1.78466C9.13111 2.40055 7.57201 3.18562 6.07374 4.13875C4.57548 5.09189 2.9578 6.2352 1.22181 7.56871C2.72118 6.72504 4.39746 6.16002 6.25067 5.87253C8.10497 5.58615 10.0964 5.44239 12.2272 5.44239C14.7515 5.44239 17.3942 5.56071 20.1552 5.79623C22.9173 6.03286 25.7303 6.20976 28.5975 6.32808C29.5959 6.36235 30.6353 6.35353 31.7134 6.30267C32.6334 6.26949 33.6594 6.20537 34.7906 6.11248C35.9206 6.0196 37.0386 5.86368 38.1432 5.64364C36.5653 6.75711 34.7641 8.16139 32.7395 9.85758C30.7138 11.5538 28.4261 13.5905 25.8763 15.97C24.535 17.2018 23.0887 18.5685 21.5374 20.0701C19.9849 21.5717 18.3871 23.1164 16.744 24.702C15.0998 26.2887 13.4633 27.8655 11.8335 29.4345C10.2026 31.0035 8.65119 32.4675 7.17836 33.8265C5.70553 35.1854 4.35103 36.3917 3.11594 37.4455C1.87973 38.5004 0.841459 39.3064 0 39.8626C0.526327 39.7786 1.18976 39.7233 1.99141 39.6979C2.79417 39.6724 3.69423 39.6603 4.69381 39.6603C6.53374 39.6603 8.6512 39.7023 11.0451 39.7874C13.4368 39.8715 15.9612 39.9732 18.6182 40.0915C21.2742 40.2098 23.9755 40.3237 26.7243 40.4332C29.4721 40.5426 32.1214 40.6234 34.6723 40.6731C37.9065 40.7406 46.257 40.6786 49.9922 39.7233C50.0331 39.7133 50.0662 39.7034 50.1038 39.6935C50.4676 39.6061 50.8325 39.5066 51.1996 39.3816C52.4226 38.9648 53.6322 38.3998 54.8275 37.6877C55.3317 37.3869 55.8293 37.0629 56.3235 36.7257C55.9089 36.5797 54.487 35.7814 53.9629 35.1942C53.6887 35.2164 53.4078 35.2296 53.1181 35.2296C51.8387 35.2296 50.7043 34.9289 49.7135 34.3262C48.7217 33.7247 47.888 32.9419 47.2113 31.9799C46.5346 31.0168 46.0204 29.9288 45.6688 28.7158C45.3171 27.5028 45.1403 26.2942 45.1403 25.0901C45.1403 23.8318 45.284 22.6088 45.5714 21.4235C45.8589 20.2381 46.2062 19.1733 46.6142 18.229C47.0211 17.2847 47.4479 16.4931 47.8924 15.8539C48.3369 15.2148 48.7261 14.8123 49.0601 14.6454C49.2447 14.5348 49.5134 14.4375 49.8661 14.3534C50.2178 14.2705 50.6258 14.2009 51.0891 14.1456C51.5524 14.0903 52.0654 14.0438 52.6315 14.0063C53.1966 13.9698 53.7948 13.951 54.425 13.951C55.5739 13.951 56.778 14.0118 58.0386 14.1312C59.298 14.2517 60.4844 14.4607 61.5968 14.7559C61.578 16.2553 61.5636 17.6309 61.5548 18.8803C61.5448 20.1298 61.5404 21.2831 61.5404 22.339C61.5404 23.3939 61.5404 24.3625 61.5404 25.2416C61.5404 26.1217 61.5404 26.9499 61.5404 27.7283C61.2629 28.7843 60.8969 29.7662 60.4424 30.6729C59.988 31.5807 59.4185 32.3724 58.7329 33.048C58.4543 33.3222 58.1503 33.5677 57.8329 33.7944C58.2885 33.9326 58.7064 34.1692 58.7064 34.5507C58.7064 34.5507 62.7888 32.4841 63.5506 31.5121C63.733 31.2788 63.9111 30.9449 64.0769 30.5657C64.6077 30.5435 65.636 30.392 66.9806 29.6999C66.5825 31.2081 65.7322 33.3886 65.3474 33.8806C64.8399 34.5319 59.7237 35.6398 59.7237 35.6398C61.5249 35.6398 63.774 36.1275 65.2468 36.5056C67.654 37.189 74.7815 39.3573 78.3287 42L78.8207 41.9967C73.9566 36.7854 68.7066 35.1467 67.5114 34.8271C68.104 33.6628 68.2101 32.7218 67.9967 31.9301C67.7789 31.1263 67.3068 28.3376 67.3068 28.3376C67.3068 28.3376 66.2895 29.168 64.5148 29.3737C64.8089 28.4106 64.9958 27.4121 64.967 26.8659C64.9118 25.8331 65.6725 23.4249 67.4705 23.2535C67.7635 23.2258 68.0255 23.1794 68.2743 23.1252C68.4402 24.6865 69.4961 31.2523 75.6805 35.5768C76.2134 35.9649 76.6425 36.3619 76.8581 36.4813L76.9244 36.5178C76.9897 36.5521 77.0261 36.5709 77.0261 36.5709L77.5525 36.3928C79.1856 36.0921 80.7127 35.9362 82.2164 35.8577C83.2171 35.8643 85.1433 35.8953 85.7669 36.1938C86.3242 36.4603 86.6338 37.8447 86.6537 38.6518C86.6504 38.6927 86.6383 38.7303 86.6338 38.7713L88.9956 36.6461C88.6385 36.6427 87.012 36.6051 86.6747 36.144C85.7791 35.0317 84.9929 35.4906 82.0727 35.0538Z" fill="black"/>
</svg>
