<svg width="160" height="42" viewBox="0 0 160 42" fill="none" xmlns="http://www.w3.org/2000/svg">
<g clip-path="url(#clip0_2011_12085)">
<path d="M21.2634 42H20.9375C10.8253 41.8236 0 33.3457 0 20.9988C0.00583758 15.4313 2.22008 10.0936 6.15685 6.15685C10.0936 2.22008 15.4313 0.00583758 20.9988 0C27.3131 0 33.5686 3.05303 37.5038 8.02217C37.5746 8.11156 37.6265 8.21438 37.6564 8.32442C37.6863 8.43445 37.6936 8.54942 37.6778 8.66235C37.662 8.77528 37.6234 8.88382 37.5644 8.98142C37.5055 9.07902 37.4273 9.16363 37.3347 9.23015L32.9463 12.4155C32.7715 12.5427 32.5544 12.5979 32.3401 12.5696C32.1258 12.5413 31.9305 12.4318 31.7946 12.2636C30.4783 10.6707 28.8305 9.38399 26.966 8.49319C25.1014 7.60239 23.065 7.12892 20.9988 7.10577C17.3155 7.11031 13.7844 8.57549 11.1799 11.1799C8.57549 13.7844 7.11031 17.3155 7.10577 20.9988C7.10577 29.1655 14.3218 34.7766 21.0723 34.8918C26.4874 34.9873 30.398 31.2605 31.7236 29.7952C31.8639 29.6397 32.0573 29.5421 32.2658 29.5217C32.4743 29.5014 32.6829 29.5596 32.8507 29.685L37.2146 32.9242C37.3076 32.993 37.3855 33.0802 37.4433 33.1803C37.5012 33.2805 37.5378 33.3915 37.5509 33.5064C37.564 33.6213 37.5533 33.7377 37.5195 33.8483C37.4856 33.9589 37.4294 34.0614 37.3543 34.1493C35.5754 36.2051 29.8369 42 21.2634 42Z" fill="#070707"/>
<path d="M31.7948 12.2511C31.7948 12.2511 30.1311 14.4882 28.1194 14.2775H18.262C18.262 14.2775 13.8098 14.4563 12.7905 19.0677H28.3938C28.3938 19.0677 33.5026 19.619 35.1615 14.3436C35.1615 14.3436 36.7149 10.0557 38.1802 9.48965L37.597 8.1665L31.7948 12.2511Z" fill="#070707"/>
<path d="M33.0224 22.7358C32.9571 23.9816 32.4161 25.1547 31.5111 26.0132C30.6061 26.8718 29.406 27.3501 28.1586 27.3497C27.7979 27.3289 27.4363 27.3289 27.0756 27.3497H19.5778C19.2163 27.3289 18.8538 27.3289 18.4923 27.3497C17.2451 27.3501 16.0454 26.8716 15.1407 26.0131C14.2361 25.1545 13.6957 23.9814 13.631 22.7358H33.0224Z" fill="#070707"/>
</g>
<path d="M41.6054 25.6484C41.7315 26.8468 42.7407 27.4144 45.0743 27.446C47.4079 27.446 48.7955 27.0675 48.7955 25.8692C48.7955 25.0493 48.4801 24.3555 45.8627 24.0086L44.0336 23.7563C39.6817 23.1887 37.695 22.2426 37.695 19.1521C37.695 16.2193 40.407 14.2326 44.8851 14.2326C49.3947 14.2326 51.9175 16.1878 52.2644 19.2467H48.4486C48.3225 18.143 47.1241 17.7645 44.8851 17.733C42.8668 17.7645 41.4477 18.206 41.4477 19.1836C41.4477 20.0351 41.9207 20.5081 44.2544 20.8235L46.3357 21.0758C50.7507 21.6119 52.6744 22.7156 52.6744 25.8692C52.6744 29.0543 49.9939 30.978 45.0743 31.0095C40.1863 30.978 37.9157 28.9597 37.7265 25.6484H41.6054ZM71.5479 23.914C70.7911 28.7705 67.3222 31.0095 62.8126 31.0095C57.42 31.0095 54.1088 27.8244 54.1088 22.6526C54.1088 17.3861 57.6092 14.2326 62.9072 14.2326C67.7321 14.2326 70.9803 16.8185 71.4849 21.2965H67.606C67.2276 18.9944 65.3985 17.7961 62.8126 17.7961C59.5329 17.7961 58.0192 19.5936 58.0192 22.621C58.0192 25.6169 59.5329 27.4144 62.8126 27.4144C65.6508 27.4144 67.2591 26.0269 67.606 23.914H71.5479ZM80.2488 31.0095C76.1492 31.0095 74.0678 28.8966 73.9417 24.8916V14.8948H77.7259V24.1663C77.7259 26.3738 78.3566 27.3514 80.6587 27.3514C82.4563 27.3514 85.2314 26.5314 85.2314 24.0401V14.8948H89.0472V30.6626H85.2629V29.0227C83.8438 30.4103 82.204 31.0095 80.2488 31.0095ZM91.4033 30.6626V8.58769H95.2191V30.6626H91.4033ZM98.197 19.972C98.3546 15.9355 100.846 14.2956 105.576 14.2326C110.685 14.201 112.829 16.4401 112.829 20.4451V30.6626H109.014V29.0858C108.099 30.0634 106.775 30.9464 104.094 30.9149C100.184 30.8518 97.4086 29.1489 97.4086 25.6169C97.4086 21.2019 101.855 20.5397 106.648 20.5081L108.982 20.4766V20.2559C108.982 18.4583 108.414 17.733 105.576 17.733C102.927 17.733 102.234 18.3953 102.139 19.972H98.197ZM101.256 25.7115C101.256 26.7837 101.918 27.446 104.346 27.446C107.311 27.446 108.982 26.5945 108.982 24.5762V23.441L106.869 23.504C102.265 23.6617 101.256 24.2293 101.256 25.7115ZM115.394 35.7398V14.8948H119.21V16.4716C120.156 14.9579 122.111 14.2326 124.192 14.2326C129.269 14.2326 132.234 17.5753 132.234 22.558C132.234 27.7298 129.017 31.0095 123.877 31.0095C122.111 31.0095 120.408 30.5365 119.21 29.275V35.7398H115.394ZM119.178 23.1571C119.178 25.8377 120.597 27.4144 123.688 27.4144C126.557 27.4144 128.26 25.9007 128.26 22.558C128.26 19.2152 126.431 17.7961 123.877 17.7961C120.849 17.7961 119.178 19.499 119.178 21.9272V23.1571ZM134.642 30.6626V14.8002H138.458V30.6626H134.642ZM134.611 12.6873V8.58769H138.458V12.6873H134.611ZM149.566 31.0095C144.174 31.0095 140.862 27.8244 140.862 22.6526C140.862 17.3861 144.363 14.2326 149.661 14.2326C154.959 14.2326 158.365 17.3861 158.365 22.5895C158.365 27.7929 154.927 31.0095 149.566 31.0095ZM144.773 22.621C144.773 25.6169 146.286 27.4144 149.566 27.4144C152.909 27.4144 154.454 25.5854 154.454 22.5895C154.454 19.6251 152.909 17.7961 149.566 17.7961C146.286 17.7961 144.773 19.5936 144.773 22.621Z" fill="#070707"/>
<defs>
<clipPath id="clip0_2011_12085">
<rect width="38.18" height="42" fill="white"/>
</clipPath>
</defs>
</svg>
