<svg width="146" height="42" viewBox="0 0 146 42" fill="none" xmlns="http://www.w3.org/2000/svg">
<mask id="mask0_2011_12053" style="mask-type:luminance" maskUnits="userSpaceOnUse" x="3" y="0" width="140" height="42">
<path d="M142.985 0H3.01538V42H142.985V0Z" fill="white"/>
</mask>
<g mask="url(#mask0_2011_12053)">
<path d="M33.7237 22.2802V0H3.01538V32.3483H39.8661L33.7237 22.2767V22.2802ZM27.5254 25.8224H9.2137V6.52932H27.5254V25.819V25.8224Z" fill="#070707"/>
<path d="M44.6219 16.958L50.0002 26.3045L55.4641 16.958H62.0576L52.7404 32.3481V41.4587H47.1052V32.3481L37.7189 16.958H44.6219Z" fill="#070707"/>
<path d="M61.7844 35.5781V24.1396H67.1792V33.9544C67.1792 35.8834 68.6348 36.8062 69.9358 36.8062C71.2368 36.8062 72.676 35.8868 72.676 33.9544V24.1396H78.0707V41.4586H73.1206L72.9493 39.8176C71.7835 41.3684 69.7974 41.9999 67.8643 41.9999C64.765 41.9999 61.7844 39.7101 61.7844 35.5781Z" fill="#070707"/>
<path d="M82.3523 41.4587V24.1397H87.3024L87.4737 25.961C88.6396 24.4103 90.6256 23.7788 92.5588 23.7788C95.658 23.7788 98.6386 26.0686 98.6386 30.2006V41.4587H93.2438V31.8242C93.2438 29.8953 91.7882 28.9724 90.4872 28.9724C89.1862 28.9724 87.747 29.8919 87.747 31.8242V41.4587H82.3523Z" fill="#070707"/>
<path d="M105.32 15.6987C107.066 15.6987 108.301 16.9616 108.301 18.8211C108.301 20.6807 107.069 21.9228 105.32 21.9228C103.571 21.9228 102.376 20.66 102.376 18.8211C102.376 16.9825 103.575 15.6987 105.32 15.6987ZM108.113 24.1432V41.4622H102.718V24.1432H108.113Z" fill="#070707"/>
<path d="M112.856 41.4587V24.1397H117.941L118.112 26.5022C118.883 24.7884 120.51 23.7788 122.41 23.7788C123.063 23.7788 123.728 23.9037 124.413 24.1397L124.087 29.1008C123.402 28.8475 122.7 28.7227 122.015 28.7227C119.977 28.7227 118.248 29.8953 118.248 33.1253V41.4621H112.852L112.856 41.4587Z" fill="#070707"/>
<path d="M134.148 23.7788C139.234 23.7788 142.985 27.6402 142.985 32.7992C142.985 37.958 139.234 41.8194 134.148 41.8194C129.063 41.8194 125.312 37.958 125.312 32.7992C125.312 27.6402 129.063 23.7788 134.148 23.7788ZM134.148 36.6432C136.204 36.6432 137.642 35.0021 137.642 32.7992C137.642 30.5961 136.204 29.0106 134.148 29.0106C132.093 29.0106 130.653 30.6516 130.653 32.7992C130.653 34.9466 132.093 36.6432 134.148 36.6432Z" fill="#070707"/>
</g>
</svg>
