<svg width="62" height="62" viewBox="0 0 62 62" fill="none" xmlns="http://www.w3.org/2000/svg">
<rect width="62" height="62" rx="31" fill="white"/>
<g clip-path="url(#clip0_5268_25934)">
<path d="M25.2365 13.2495C21.4397 14.5666 18.1654 17.0666 15.8944 20.3822C13.6235 23.6978 12.4756 27.6543 12.6195 31.6705C12.7633 35.6867 14.1913 39.5509 16.6936 42.6955C19.1959 45.8402 22.6407 48.0995 26.522 49.1417C29.6686 49.9536 32.9654 49.9893 36.1289 49.2456C38.9947 48.6019 41.6442 47.2249 43.8179 45.2496C46.0804 43.131 47.7225 40.4358 48.5679 37.4537C49.4868 34.2108 49.6503 30.8005 49.0459 27.4846H31.3759V34.8145H41.6092C41.4047 35.9835 40.9664 37.0993 40.3206 38.0951C39.6748 39.0908 38.8348 39.946 37.8507 40.6095C36.6011 41.4361 35.1925 41.9922 33.7153 42.2423C32.2337 42.5178 30.714 42.5178 29.2325 42.2423C27.7308 41.9318 26.3103 41.3121 25.0614 40.4225C23.0549 39.0022 21.5484 36.9844 20.7567 34.6571C19.9516 32.2863 19.9516 29.716 20.7567 27.3451C21.3202 25.6833 22.2518 24.1701 23.482 22.9187C24.8898 21.4603 26.672 20.4178 28.6332 19.9057C30.5945 19.3935 32.6589 19.4314 34.6 20.0153C36.1163 20.4807 37.5029 21.294 38.6493 22.3903C39.8032 21.2424 40.9551 20.0915 42.105 18.9376C42.6987 18.3171 43.3459 17.7264 43.9307 17.091C42.1809 15.4626 40.1268 14.1955 37.8864 13.3623C33.8064 11.8809 29.3422 11.8411 25.2365 13.2495Z" fill="white"/>
<path d="M25.2366 13.2497C29.342 11.8403 33.8062 11.8791 37.8865 13.3596C40.1273 14.1984 42.1804 15.4716 43.9279 17.1061C43.3341 17.7414 42.7077 18.3352 42.1021 18.9527C40.9502 20.1026 39.7993 21.2485 38.6495 22.3905C37.5031 21.2942 36.1164 20.481 34.6001 20.0155C32.6596 19.4296 30.5953 19.3895 28.6335 19.8995C26.6718 20.4096 24.8884 21.4502 23.4791 22.9071C22.249 24.1585 21.3174 25.6716 20.7538 27.3335L14.5996 22.5686C16.8024 18.2003 20.6165 14.8588 25.2366 13.2497Z" fill="#E33629"/>
<path d="M12.9687 27.2896C13.2995 25.6503 13.8487 24.0627 14.6015 22.5693L20.7557 27.3461C19.9507 29.7169 19.9507 32.2872 20.7557 34.6581C18.7053 36.2414 16.6539 37.8327 14.6015 39.4318C12.7168 35.6803 12.142 31.4058 12.9687 27.2896Z" fill="#F8BD00"/>
<path d="M31.3773 27.4814H49.0473C49.6517 30.7973 49.4882 34.2076 48.5693 37.4505C47.7239 40.4326 46.0818 43.1278 43.8193 45.2464C41.8332 43.6968 39.8382 42.1589 37.8521 40.6093C38.8368 39.9451 39.6772 39.0889 40.3231 38.0922C40.9689 37.0954 41.4068 35.9784 41.6106 34.8083H31.3773C31.3743 32.368 31.3773 29.9247 31.3773 27.4814Z" fill="#587DBD"/>
<path d="M14.5977 39.4315C16.6501 37.8481 18.7015 36.2569 20.7519 34.6577C21.5451 36.9858 23.0539 39.0037 25.0625 40.423C26.3153 41.3085 27.7389 41.9232 29.2425 42.228C30.7241 42.5035 32.2437 42.5035 33.7253 42.228C35.2025 41.978 36.6112 41.4218 37.8608 40.5952C39.8469 42.1449 41.8419 43.6827 43.828 45.2324C41.6545 47.2088 39.005 48.5867 36.1389 49.2313C32.9754 49.975 29.6787 49.9393 26.532 49.1274C24.0433 48.4629 21.7187 47.2915 19.7039 45.6866C17.5713 43.9935 15.8296 41.8598 14.5977 39.4315Z" fill="#319F43"/>
</g>
<defs>
<clipPath id="clip0_5268_25934">
<rect width="38" height="38" fill="white" transform="translate(12 12)"/>
</clipPath>
</defs>
</svg>
