<svg width="149" height="87" viewBox="0 0 149 87" fill="none" xmlns="http://www.w3.org/2000/svg">
<path d="M78.5195 65.5107C79.3481 65.3237 80.171 65.8434 80.3584 66.6719C80.5454 67.5005 80.0258 68.3245 79.1973 68.5117C69.1893 70.772 63.2069 72.7371 51.0469 78.7549V78.7559C47.6396 80.5073 45.7054 81.7153 44.5166 82.7451C43.4035 83.7095 42.9405 84.5195 42.5479 85.5947C42.2563 86.3925 41.3731 86.803 40.5752 86.5117C39.7776 86.2203 39.3664 85.3378 39.6572 84.54C40.2032 83.0446 40.9394 81.7719 42.501 80.4189C43.9869 79.1317 46.2041 77.786 49.6406 76.0195L49.6621 76.0088C62.044 69.8801 68.2569 67.8285 78.5195 65.5107ZM77.3369 54.3916C78.149 54.1422 79.0101 54.5983 79.2598 55.4102C79.5092 56.2222 79.0531 57.0833 78.2412 57.333C51.1832 65.644 39.1463 70.5568 24.333 79.9854C23.6165 80.4408 22.6661 80.2298 22.21 79.5137C21.7537 78.7969 21.9649 77.8449 22.6816 77.3887C37.8379 67.7418 50.1791 62.7332 77.3369 54.3916ZM120.082 0.262695C120.936 -0.324674 122.05 0.11713 122.76 1.14844L126.055 5.9375C126.18 6.11931 126.282 6.2657 126.352 6.36719C126.386 6.41777 126.413 6.45768 126.432 6.48438C126.436 6.49115 126.441 6.49781 126.444 6.50293C126.66 6.77104 126.818 6.97258 126.976 7.13281C127.131 7.29062 127.241 7.36269 127.332 7.39453C127.477 7.4451 127.802 7.4699 128.641 6.91895L128.674 6.89844C131.148 5.49024 132.254 4.69692 133.96 3.2627L133.978 3.24902C134.36 2.95003 134.73 2.75981 135.095 2.71777C135.495 2.6719 135.822 2.81198 136.051 3.03418C136.256 3.23364 136.358 3.47352 136.408 3.62793C136.435 3.71038 136.452 3.78437 136.463 3.83789L136.479 3.92871C136.479 3.93159 136.479 3.93424 136.479 3.93652C136.48 3.93759 136.48 3.93852 136.48 3.93945L136.479 3.94238L136.483 4.01172C136.484 4.1712 136.422 4.32571 136.31 4.44141L132.497 8.36621C131.747 9.62362 131.76 10.2603 132.005 10.71C132.149 10.9741 132.409 11.2498 132.834 11.5596C133.152 11.7914 133.54 12.0266 133.999 12.2832L134.482 12.5479L134.521 12.5693L141.525 16.9922L141.624 17.0693C141.654 17.0979 141.68 17.13 141.703 17.1641L141.197 17.5127C141.685 17.1773 141.703 17.1644 141.704 17.1641V17.165L141.723 17.1924C141.733 17.2085 141.749 17.2319 141.767 17.2598C141.802 17.3155 141.85 17.3945 141.902 17.4873C142.003 17.6664 142.137 17.9297 142.216 18.2031C142.255 18.3404 142.289 18.5075 142.286 18.6816C142.283 18.8569 142.24 19.0788 142.09 19.2783C141.766 19.7068 141.227 19.7087 140.806 19.6309C140.352 19.5469 139.746 19.3219 139.083 19.0264C138.408 18.7253 137.632 18.3324 136.823 17.8857C135.207 16.9932 133.43 15.8712 132.029 14.8145C131.36 14.3093 130.909 14.0785 130.614 14.0068C130.477 13.9735 130.398 13.9817 130.356 13.9922C130.32 14.0016 130.28 14.0215 130.229 14.0742C130.102 14.2042 129.961 14.4805 129.817 15.001C129.678 15.5044 129.561 16.1365 129.42 16.9014L128.864 19.9072C128.83 20.3215 128.77 20.6824 128.663 20.9775C128.55 21.2883 128.364 21.5828 128.048 21.7598C127.736 21.9342 127.4 21.9357 127.116 21.8896C126.835 21.8439 126.535 21.7386 126.236 21.6201C125.963 21.5117 125.804 21.2255 125.857 20.9365L126.137 19.4248C126.164 19.2775 126.173 19.1598 126.175 19.0693C126.057 19.1728 125.911 19.3347 125.757 19.5723L123.601 23.4795L124.618 24.959C124.755 25.1583 124.763 25.42 124.638 25.627C124.512 25.8337 124.276 25.9484 124.036 25.9189C123.373 25.8376 122.817 25.7439 122.365 25.624C121.92 25.5059 121.528 25.3498 121.228 25.1182C120.905 24.8694 120.702 24.5424 120.643 24.1445C120.588 23.7776 120.664 23.4011 120.78 23.0449C120.782 23.0389 120.784 23.0324 120.786 23.0264L123.902 14.4307C123.882 14.3763 123.863 14.3319 123.846 14.2949C123.751 14.3589 123.624 14.4592 123.46 14.6113C123.346 14.7162 123.197 14.7733 123.043 14.7734C122.968 15.5694 122.754 16.4558 122.424 17.4092C121.858 19.0428 120.651 20.9026 119.272 22.6973C117.87 24.5225 116.195 26.4016 114.583 28.0918C112.969 29.7843 111.4 31.3056 110.197 32.417C109.597 32.9721 109.081 33.4321 108.691 33.7627C108.499 33.9266 108.325 34.0686 108.183 34.1777C108.113 34.2311 108.035 34.2884 107.958 34.3398C107.946 34.348 107.877 34.394 107.773 34.4482C106.71 35.0793 105.695 35.6752 104.728 36.2373C104.76 36.5646 104.836 36.8957 104.956 37.2422C105.453 38.6721 106.723 40.4811 109.229 43.2119C113.019 47.343 115.212 51.1685 115.903 54.6992C116.095 55.6789 116.167 56.6265 116.131 57.54L123.588 50.5C121.613 47.9576 120.495 45.3578 121.21 42.1836C121.976 38.7815 124.804 35.0549 129.755 30.1514L129.868 30.0498C131.556 28.681 133.205 27.8577 134.75 27.708C136.388 27.5495 137.801 28.1678 138.731 29.4072C139.549 30.4963 139.903 31.9355 139.924 33.459V33.7646L140.044 33.6416C140.636 33.0324 141.61 33.0178 142.22 33.6094C142.829 34.2011 142.843 35.1755 142.252 35.7852L138.473 39.6768C137.173 41.5545 136.023 43.0906 134.933 44.4043C135.528 45.5828 136.07 46.5009 136.615 47.1758C137.276 47.9934 137.835 48.3249 138.364 48.4209C138.916 48.5207 139.74 48.4209 141.034 47.7402C142.329 47.0593 143.948 45.874 146.013 44.0391C146.648 43.4748 147.62 43.5314 148.185 44.166C148.749 44.801 148.691 45.7735 148.057 46.3379C145.918 48.2385 144.084 49.6125 142.467 50.4629C140.85 51.313 139.303 51.7182 137.814 51.4482C136.304 51.1741 135.151 50.26 134.222 49.1094C133.695 48.4573 133.208 47.6873 132.738 46.8379C130.848 48.7513 128.993 50.1695 126.673 51.8203L113.551 64.207C112.072 66.0394 110.044 67.5793 107.654 68.8604C103.006 71.3519 98.7649 71.4978 95.5195 69.0762C92.4095 66.7553 90.6888 62.3992 90.1533 57.0176C90.0695 56.1723 90.6869 55.4181 91.5322 55.334C92.3775 55.2501 93.1306 55.8677 93.2148 56.7129C93.7176 61.7665 95.278 65.0571 97.3594 66.6104C99.3056 68.0626 102.168 68.3103 106.201 66.1484C108.382 64.9797 110.068 63.6548 111.219 62.2012C112.772 60.2392 113.409 57.9773 112.883 55.29C112.343 52.53 110.549 49.2038 106.961 45.293C104.443 42.5488 102.772 40.3349 102.049 38.252C102.001 38.115 101.958 37.9786 101.919 37.8438C99.1002 39.4174 96.7607 40.594 94.8545 41.29C93.3097 41.8541 91.8557 42.1792 90.5684 42.0205C89.7361 41.9178 89.0151 41.6157 88.4209 41.1328C84.5992 43.6369 81.6465 45.459 79.3262 46.5137C77.3246 47.4233 75.455 47.9231 73.79 47.4785C72.7561 48.5216 71.8707 49.3598 71.1123 49.9902C70.2353 50.7193 69.3453 51.3355 68.4834 51.5449C68.0055 51.661 67.4188 51.6814 66.8428 51.4062C66.4451 51.2162 66.1582 50.9343 65.9512 50.6396C65.0164 51.5546 64.1613 52.3307 63.3721 52.96C62.0844 53.9866 60.8407 54.74 59.6221 55.0049C58.2744 55.2976 57.052 54.9692 56.0508 54.0762C55.639 53.7087 55.2808 53.2573 54.959 52.749C53.678 54.0056 52.5419 55.0485 51.5469 55.8438C50.8609 56.3919 50.2072 56.851 49.5928 57.1855C48.9947 57.5112 48.3273 57.7768 47.6357 57.8184C46.8752 57.8638 46.1266 57.6297 45.54 57.0459C45.0106 56.5189 44.7357 55.8285 44.5811 55.1748C44.5566 55.0712 44.5351 54.9636 44.5146 54.8535C42.7799 57.1195 41.1169 58.6418 38.7715 59.4131C38.7494 59.4203 38.7265 59.4264 38.7041 59.4326C36.1089 60.1569 33.9191 60.472 32.1113 60.376C30.295 60.2794 28.7591 59.76 27.6357 58.7139C26.7424 57.8818 26.2274 56.8409 25.9854 55.6865C24.6894 56.6707 23.4041 57.5571 22.1504 58.3145C18.907 60.2736 15.5504 61.5718 12.6875 61.043C11.0759 60.7452 9.90698 59.8235 9.3584 58.3848C9.28621 58.1954 9.22642 58.0004 9.17773 57.8018C6.85051 59.8009 4.58902 61.672 2.48828 63.3223C1.93931 63.7533 1.16854 63.7611 0.611328 63.3408C0.054167 62.9202 -0.149752 62.1765 0.114258 61.5303L14.3877 26.6191C14.7093 25.833 15.6073 25.4561 16.3936 25.7773C17.1797 26.0991 17.5568 26.9979 17.2354 27.7842L5.24707 57.1035C6.59573 55.9698 7.979 54.7801 9.375 53.5537C10.0975 50.592 11.8241 46.9722 13.8926 43.3457C18.2864 35.6422 24.5647 27.3183 27.5986 23.8809C29.1728 22.0973 30.7146 20.9018 32.166 20.2881C33.6229 19.6721 35.1433 19.5936 36.4004 20.3496C37.649 21.1006 38.251 22.4435 38.376 23.8369C38.5012 25.2345 38.175 26.827 37.4365 28.4473C36.6737 30.1207 34.846 32.5107 32.502 35.1973C30.114 37.9341 27.0591 41.1256 23.6973 44.4385C20.085 47.9981 16.0991 51.7147 12.1807 55.1826C12.0186 56.1907 12.0749 56.8732 12.2334 57.2891C12.3641 57.6316 12.5898 57.8961 13.2471 58.0176C14.9226 58.3268 17.4198 57.5782 20.5596 55.6816C22.3026 54.6288 24.1446 53.2819 26.0146 51.7354C26.1174 51.1363 26.2546 50.5338 26.417 49.9385C28.2439 43.2424 33.9965 34.3135 39.3809 27.6787C42.0717 24.3629 44.1621 22.0804 45.7148 20.6992C46.4793 20.0193 47.194 19.4845 47.8438 19.1738C48.3803 18.9175 49.521 18.5176 50.4766 19.3252C50.912 19.6933 51.1054 20.1681 51.1914 20.541C51.2773 20.9139 51.2828 21.2938 51.2588 21.6348C51.2108 22.3172 51.0225 23.1159 50.7568 23.9648C50.2196 25.6815 49.2659 27.9123 48.0049 30.4512C45.4052 35.6847 39.1248 43.6857 32.3984 50.1484C31.2513 51.2506 30.0828 52.3135 28.9111 53.3174C28.7942 54.9047 29.1392 55.9092 29.7324 56.4619C30.1708 56.8702 30.9323 57.2324 32.2754 57.3037C33.6203 57.3751 35.4412 57.1451 37.8398 56.4785C40.1575 55.7049 41.5974 53.8932 44.7354 49.1445L44.8125 49.0381C45.216 48.5277 45.9032 48.3224 46.5264 48.54C47.1913 48.7725 47.6141 49.4272 47.5518 50.1289C47.3576 52.3132 47.3924 53.6924 47.5752 54.4658C47.5982 54.5631 47.621 54.641 47.6416 54.7002C47.7515 54.663 47.9102 54.5978 48.1221 54.4824C48.5191 54.2661 49.0157 53.9264 49.625 53.4395C50.8456 52.4639 52.3803 51.0087 54.2783 49.0781L54.4219 48.9492C54.772 48.6727 55.2289 48.5601 55.6729 48.6475C56.1804 48.7475 56.6041 49.0963 56.7998 49.5752C57.297 50.7922 57.7353 51.4563 58.0996 51.7812C58.3628 52.0158 58.5798 52.0825 58.9688 51.998C59.4872 51.8853 60.2811 51.489 61.4541 50.5537C62.6018 49.6386 63.9876 48.3115 65.6875 46.5176L65.7715 46.4355C66.201 46.046 66.8169 45.9285 67.3633 46.1416C67.9461 46.3691 68.3337 46.9271 68.3428 47.5527C68.3464 47.8069 68.3569 48.027 68.3721 48.2158C68.5751 48.077 68.8307 47.8857 69.1455 47.624C69.9483 46.9567 70.9829 45.9666 72.3096 44.5967L72.4062 44.5059C72.9029 44.0741 73.6259 44.0037 74.2002 44.3447C74.7298 44.6594 75.7021 44.7807 78.0518 43.7129C80.3386 42.6736 83.4459 40.737 87.8604 37.8223L87.9971 37.7412C88.3263 37.5698 88.7092 37.5224 89.0732 37.6113C89.4889 37.713 89.8435 37.9836 90.0518 38.3574C90.2726 38.7539 90.5153 38.9138 90.9443 38.9668C91.5022 39.0356 92.4015 38.9096 93.7988 38.3994C95.791 37.672 98.4034 36.3148 101.809 34.3682C101.989 33.5846 102.303 32.8136 102.726 32.0352C103.744 30.1586 105.484 28.0789 107.548 25.5205C109.65 22.915 112.228 19.6539 115.125 15.2549C115.257 15.0432 115.391 14.839 115.525 14.6416L113.675 14.6094C113.641 14.6088 113.607 14.6057 113.574 14.5996L110.548 14.041C110.263 13.9882 110.053 13.743 110.045 13.4531C110.037 13.1631 110.233 12.9066 110.515 12.8379C116.29 11.4338 119.68 10.6238 123.062 9.28613C123.03 9.21183 122.995 9.13074 122.957 9.04492C122.734 8.54163 122.424 7.85176 122.076 7.10742C121.371 5.60083 120.536 3.92602 119.953 3.0791C119.244 2.04818 119.229 0.85018 120.082 0.262695ZM34.8145 22.9854C34.6632 22.8946 34.2398 22.7519 33.3643 23.1221C32.4823 23.495 31.2999 24.338 29.9062 25.917C27.004 29.2053 20.8497 37.3588 16.5654 44.8701C15.731 46.3331 14.9808 47.7505 14.3428 49.0859C16.8133 46.8138 19.2505 44.4993 21.5371 42.2461C24.8655 38.9662 27.8632 35.8342 30.1836 33.1748C32.5479 30.4651 34.085 28.3843 34.6377 27.1719C35.2145 25.9064 35.3779 24.8513 35.3115 24.1113C35.2448 23.3672 34.9738 23.0812 34.8145 22.9854ZM135.046 30.7695C134.349 30.8372 133.279 31.2555 131.86 32.3955C126.932 37.2851 124.758 40.4355 124.212 42.8594C123.788 44.7399 124.314 46.4001 125.962 48.54C128.263 46.8585 130.008 45.3946 131.947 43.1689C133.131 41.8106 134.399 40.1521 135.912 37.9688C136.542 36.3474 136.829 34.8957 136.847 33.7188C136.865 32.4811 136.592 31.6805 136.272 31.2549C136.011 30.9073 135.659 30.7102 135.046 30.7695ZM47.7598 22.998C46.396 24.2111 44.43 26.3399 41.7695 29.6182C37.2675 35.1658 32.6977 42.1228 30.3984 47.8018C36.9352 41.4953 42.882 33.8473 45.249 29.082C46.479 26.6057 47.3527 24.539 47.8203 23.0449C47.8342 23.0004 47.8463 22.956 47.8594 22.9131C47.8273 22.9412 47.7929 22.9686 47.7598 22.998ZM119.458 14.7109C118.949 15.1786 118.353 15.8912 117.738 16.8799C117.731 16.8909 117.725 16.9023 117.718 16.9131C114.732 21.4515 112.073 24.8117 109.942 27.4521C108.761 28.9167 107.782 30.1162 106.997 31.1562C107.303 30.8884 107.681 30.5539 108.109 30.1582C109.269 29.0865 110.792 27.6096 112.357 25.9678C113.926 24.3233 115.52 22.5303 116.832 20.8223C118.167 19.0836 119.12 17.5479 119.517 16.4023C119.76 15.6988 119.89 15.1426 119.95 14.7197L119.458 14.7109Z" fill="#7EFD94" fill-opacity="0.937255"/>
</svg>
