<svg width="14" height="14" viewBox="0 0 14 14" fill="none" xmlns="http://www.w3.org/2000/svg">
<path d="M2.24316 10.0824V5.44329C2.24316 3.40596 2.24316 2.38729 2.9001 1.75438C3.55704 1.12146 4.61435 1.12146 6.72899 1.12146C8.84361 1.12146 9.90098 1.12146 10.5579 1.75438C11.2148 2.38729 11.2148 3.40596 11.2148 5.44329V10.0824C11.2148 11.3753 11.2148 12.0218 10.7815 12.2532C9.94225 12.7013 8.36811 11.2063 7.62055 10.7561C7.187 10.495 6.97022 10.3645 6.72899 10.3645C6.48777 10.3645 6.27099 10.495 5.83743 10.7561C5.08987 11.2063 3.51572 12.7013 2.67652 12.2532C2.24316 12.0218 2.24316 11.3753 2.24316 10.0824Z" stroke="#141B34" stroke-width="0.841093" stroke-linecap="round" stroke-linejoin="round"/>
</svg>
