<svg width="63" height="47" viewBox="0 0 63 47" fill="none" xmlns="http://www.w3.org/2000/svg">
<path d="M1.14529 26.8233C0.260785 25.9303 -0.589202 26.3443 0.546495 28.979C1.23918 30.3966 1.51308 30.7052 2.46263 32.0927C4.0459 34.5915 5.0667 35.9128 7.01344 38.2004C10.1648 41.1279 12.1222 42.268 15.8756 43.1105C18.685 43.6005 20.2595 43.7417 23.0611 43.829C25.3865 43.6728 26.3441 44.4162 27.8514 46.2242H30.7256C30.1547 38.9333 28.7322 35.7891 23.0611 32.8113C20.2953 31.6504 18.7823 31.0229 16.2348 29.9371C13.9472 29.1331 12.6421 27.6617 10.9655 26.3443C9.28885 25.027 8.7118 25.402 9.16909 27.5419C9.62639 29.6817 12.2862 31.4397 12.6421 31.6137C12.998 31.7876 14.8657 32.8601 16.2348 33.8891C17.5713 35.3112 16.5604 35.8551 14.4385 34.9669C12.3166 34.0788 9.45352 30.7483 9.52837 30.6556C7.16882 25.8916 5.92392 23.2077 4.97755 18.2007C4.58157 16.8882 3.54045 16.6622 3.54045 18.2007V19.9971L3.18118 18.6798C2.20378 16.0482 0.847985 16.5425 1.3848 19.9971L2.46263 24.3084L1.74408 23.1108C0.885012 21.171 0.010612 21.5744 0.546495 24.3084L1.74408 27.5419L1.14529 26.8233Z" fill="#F3BDA5"/>
<path d="M61.0246 26.8234C61.9091 25.9303 62.7591 26.3443 61.6234 28.979C60.9308 30.3966 60.6569 30.7052 59.7073 32.0927C58.1241 34.5916 57.1033 35.9128 55.1566 38.2004C52.0052 41.1279 50.0479 42.2681 46.2946 43.1105C43.4852 43.6005 41.9107 43.7418 39.1092 43.8291C36.7838 43.6728 35.8262 44.4163 34.3189 46.2243H31.4447C32.0156 38.9334 33.4381 35.7892 39.1092 32.8113C41.8749 31.6504 43.3879 31.0229 45.9353 29.9371C48.2229 29.1331 49.528 27.6617 51.2046 26.3443C52.8812 25.027 53.4582 25.4021 53.0009 27.5419C52.5437 29.6818 49.8839 31.4398 49.528 31.6137C49.1721 31.7876 47.3044 32.8601 45.9353 33.8891C44.5989 35.3112 45.6098 35.8551 47.7317 34.967C49.8535 34.0788 52.7165 30.7484 52.6417 30.6556C55.0012 25.8916 56.2461 23.2077 57.1924 18.2007C57.5884 16.8882 58.6295 16.6622 58.6295 18.2007V19.9971L58.9888 18.6798C59.9662 16.0482 61.3219 16.5425 60.7851 19.9971L59.7073 24.3084L60.4259 23.1108C61.2849 21.171 62.1593 21.5744 61.6234 24.3084L60.4259 27.5419L61.0246 26.8234Z" fill="#F3BDA5"/>
<path d="M28.5824 0.440914L15.165 12.3536C14.6422 12.9155 14.8058 12.9944 15.4158 12.9806L19.0523 12.8552V25.3949C19.0523 26.6485 19.5539 27.5267 21.4348 27.5267H34.2253C31.7998 23.5659 33.2343 21.305 40.1189 17.2441V12.8552H43.6301C44.0814 12.8418 44.0225 12.7047 43.6301 12.3536L30.2126 0.440914C29.6199 -0.170533 29.2589 -0.122543 28.5824 0.440914Z" fill="#E36B35"/>
<path d="M35.292 27.8382L30.6523 28.716C35.2822 29.307 37.8128 29.1141 41.6873 23.5747C42.2734 23.274 42.36 23.4593 42.3143 24.0763C40.8799 26.4535 39.8469 27.6337 37.8 29.5938C42.3818 30.2573 46.5778 26.4589 47.0793 23.5747C47.5809 20.6906 47.5021 18.0723 47.0793 14.5461C45.4317 16.1577 44.4551 16.7527 42.6905 17.6811C35.0428 20.6603 32.9469 22.7448 35.292 27.8382Z" fill="#0D9A48"/>
<path d="M23.599 19.816V25.4589L25.1038 24.2049V19.816C26.1029 18.9445 26.5332 18.3719 27.2355 17.3081C27.6179 15.9844 27.5636 15.2238 27.1101 13.797C25.5018 9.37889 23.6346 8.85114 21.4673 13.797C21.0136 15.1782 20.9979 15.9228 21.4673 17.3081C22.2424 18.4627 22.7201 18.9845 23.599 19.816Z" fill="#222222"/>
<path d="M30.275 20.6223L22.375 27.3937H25.6353L30.7766 21.1239L34.4131 20.7477L38.802 16.2334C38.7504 15.7615 38.6046 15.6707 38.175 15.7318L34.9147 18.9921C34.3944 19.0806 34.3052 18.9489 34.4131 18.4906L37.6734 15.2302C37.8301 14.6782 37.774 14.5208 37.1718 14.7286L33.9115 17.989C33.4739 18.0271 33.332 17.9225 33.4099 17.362L36.6703 14.1017C36.8972 13.5159 36.822 13.3926 36.1687 13.6001L32.9083 16.8604C32.458 16.8856 32.3644 16.8071 32.4068 16.2334L35.6671 12.9731C35.7765 12.4099 35.756 12.1694 35.0401 12.3461L30.5258 17.2366L30.275 20.6223Z" fill="#222222"/>
</svg>
