<svg width="220" height="48" viewBox="0 0 220 48" fill="none" xmlns="http://www.w3.org/2000/svg">
<path d="M56.5237 23.8144H46.3175C38.6215 34.1845 33.8433 36.8557 28.1732 36.8557C22.5031 36.8557 17.1999 33.0814 9.46185 23.2474C14.609 15.1825 20.235 8.50515 27.0392 8.50515C33.8433 8.50515 38.7801 11.4665 46.3175 21.5464H56.5237C56.1251 9.76368 54.2557 5.6702 44.0495 2.26803C33.8433 -1.13414 24.2041 0.000128089 16.833 1.13401C9.46185 2.26789 4.35874 5.10321 2.09072 11.3402C-0.177312 17.5772 -0.34536 21.9098 0.389685 28.9175C1.44028 36.6477 4.35876 40.2577 11.1629 43.0928C17.967 45.9278 29.1802 46.1557 41.2144 44.2268C52.4276 42.3968 55.8953 38.0521 56.5237 23.8144Z" fill="#D4C1B9"/>
<path d="M28.1729 14.7422C32.557 14.7422 36.1113 18.2965 36.1113 22.6807C36.1112 24.4019 35.5608 25.9935 34.6299 27.2939C34.0092 25.9117 32.6222 24.9483 31.0088 24.9482C28.8169 24.9482 27.0403 26.7251 27.04 28.917C27.04 29.5108 27.1706 30.0743 27.4043 30.5801C23.3811 30.1934 20.2356 26.8052 20.2354 22.6807C20.2354 18.2966 23.7888 14.7423 28.1729 14.7422Z" fill="#D4C1B9"/>
<rect x="80.3379" y="1.13391" width="4.53608" height="11.3402" fill="#D4C1B9"/>
<path d="M58.792 2.26793C58.792 1.64163 59.2997 1.13391 59.926 1.13391H81.4724V14.7422C81.4724 18.5 78.4261 21.5463 74.6683 21.5463H59.926C59.2997 21.5463 58.792 21.0386 58.792 20.4123V2.26793Z" fill="#D4C1B9"/>
<path d="M83.7411 1.13389V14.7421C83.7411 18.5 86.7874 21.5463 90.5452 21.5463L95.6483 21.5463H101.602H103.802C104.031 21.5463 104.256 21.477 104.443 21.3447C106.464 19.9148 107.141 18.925 107.556 17.0102C108.036 14.2538 108.09 12.6536 107.556 9.63905C106.754 5.55365 104.405 3.16719 98.8069 1.19734C98.6879 1.15545 98.5607 1.13389 98.4345 1.13389H95.6483L83.7411 1.13389Z" fill="#D4C1B9"/>
<rect width="4.5365" height="11.3402" transform="matrix(1 0 0 -1 80.3408 44.2266)" fill="#D4C1B9"/>
<path d="M58.792 43.0925C58.792 43.7188 59.2997 44.2266 59.926 44.2266H81.4745V30.6183C81.4745 26.8605 78.4282 23.8142 74.6704 23.8142L59.926 23.8142C59.2997 23.8142 58.792 24.3219 58.792 24.9482V43.0925Z" fill="#D4C1B9"/>
<path d="M83.7427 44.2266V30.6183C83.7427 26.8605 86.7891 23.8142 90.5469 23.8142H95.6511H101.605H103.805C104.034 23.8142 104.259 23.8835 104.446 24.0157C106.467 25.4456 107.145 26.4355 107.559 28.3503C108.04 31.1067 108.094 32.7069 107.559 35.7214C106.758 39.8068 104.408 42.1933 98.81 44.1631C98.6909 44.205 98.5637 44.2266 98.4375 44.2266H95.6511H83.7427Z" fill="#D4C1B9"/>
<path d="M115.67 32.8866C114.925 32.8866 114.188 33.0333 113.5 33.3182C112.812 33.6032 112.187 34.0208 111.661 34.5473C110.597 35.6107 110 37.0529 110 38.5567C110 40.0605 110.597 41.5027 111.661 42.5661C112.187 43.0926 112.812 43.5102 113.5 43.7952C114.188 44.0801 114.925 44.2268 115.67 44.2268C117.174 44.2268 118.616 43.6294 119.679 42.5661C120.743 41.5027 121.34 40.0605 121.34 38.5567C121.34 37.8121 121.194 37.0748 120.909 36.3868C120.624 35.6989 120.206 35.0738 119.679 34.5473C119.153 34.0208 118.528 33.6032 117.84 33.3182C117.152 33.0333 116.415 32.8866 115.67 32.8866ZM115.67 43.0928C113.17 43.0928 111.134 41.0572 111.134 38.5567C111.134 36.0562 113.17 34.0206 115.67 34.0206C118.171 34.0206 120.206 36.0562 120.206 38.5567C120.206 41.0572 118.171 43.0928 115.67 43.0928ZM115.812 39.2768H114.995V41.1082H113.969V36.1242H115.818C116.402 36.1242 116.855 36.2546 117.178 36.5155C117.496 36.782 117.655 37.1392 117.655 37.6268C117.655 37.967 117.581 38.2505 117.434 38.4773C117.286 38.7041 117.065 38.8856 116.764 39.016L117.842 41.0515V41.1082H116.742L115.812 39.2768ZM114.995 38.449H115.823C116.078 38.449 116.277 38.3809 116.419 38.2505C116.56 38.1201 116.628 37.9387 116.628 37.7062C116.628 37.4737 116.566 37.2923 116.43 37.1562C116.299 37.0201 116.095 36.9577 115.818 36.9577H114.995V38.449Z" fill="black"/>
<path d="M130.888 10.0309V25H127.123V10.0309H130.888ZM133.392 13.433L136.227 13.1608L136.386 15.2021C136.96 13.7203 138.147 12.9794 139.947 12.9794C141.262 12.9794 142.192 13.3347 142.736 14.0454C143.296 14.756 143.576 15.822 143.576 17.2433V22.732C143.576 23.1553 143.628 23.5258 143.734 23.8433C143.84 24.1608 144.022 24.4405 144.279 24.6825C144.112 24.8942 143.855 25.0529 143.508 25.1588C143.175 25.2797 142.842 25.3402 142.51 25.3402C141.723 25.3402 141.126 25.1436 140.718 24.7505C140.31 24.3423 140.105 23.745 140.105 22.9588V17.4247C140.105 16.5326 140.022 15.8598 139.856 15.4062C139.69 14.9375 139.297 14.7031 138.677 14.7031C137.936 14.7031 137.444 15.0433 137.202 15.7237C136.976 16.4041 136.862 17.3038 136.862 18.4227V25H133.392V13.433ZM144.949 14.4536V13.7505C145.675 13.4783 146.408 13.1003 147.149 12.6165C147.89 12.1326 148.502 11.6186 148.986 11.0742H149.961V13.433H152.048V14.4536H149.938V22.5278C149.938 22.9966 150.022 23.3594 150.188 23.6165C150.369 23.8584 150.657 24.0172 151.05 24.0928C150.899 24.4859 150.619 24.7883 150.211 25C149.802 25.2268 149.349 25.3402 148.85 25.3402C148.064 25.3402 147.466 25.1285 147.058 24.7052C146.665 24.2818 146.468 23.6694 146.468 22.868V14.4536H144.949ZM159.386 12.9794C161.699 12.9794 162.856 13.8715 162.856 15.6557C162.856 16.9107 162.297 17.8859 161.178 18.5814C160.074 19.277 158.569 19.6247 156.664 19.6247H155.87C155.825 20.033 155.802 20.4186 155.802 20.7814C155.802 21.5375 155.954 22.112 156.256 22.5052C156.558 22.8832 157.073 23.0722 157.798 23.0722C158.433 23.0722 159.023 22.9361 159.567 22.6639C160.112 22.3766 160.528 21.9759 160.815 21.4619C161.178 21.6282 161.359 21.9608 161.359 22.4598C161.359 23.0041 161.147 23.5107 160.724 23.9794C160.316 24.433 159.756 24.7883 159.046 25.0454C158.335 25.3175 157.556 25.4536 156.71 25.4536C155.303 25.4536 154.23 25.068 153.489 24.2969C152.748 23.5107 152.378 22.3162 152.378 20.7134C152.378 19.3677 152.635 18.1052 153.149 16.9258C153.678 15.7464 154.464 14.7938 155.508 14.068C156.566 13.3423 157.859 12.9794 159.386 12.9794ZM158.887 14.2041C158.222 14.2041 157.64 14.6048 157.141 15.4062C156.642 16.2076 156.271 17.266 156.029 18.5814C157.118 18.5814 158.033 18.3017 158.774 17.7423C159.514 17.1828 159.885 16.4268 159.885 15.4742C159.885 14.6275 159.552 14.2041 158.887 14.2041ZM167.703 15.2021C168.02 14.5065 168.466 13.9622 169.041 13.5691C169.631 13.1759 170.304 12.9794 171.06 12.9794C171.861 12.9794 172.473 13.1986 172.897 13.6371C173.32 14.0756 173.532 14.6729 173.532 15.4289C173.532 16.2907 173.282 17.0089 172.783 17.5835C172.284 18.1581 171.649 18.4454 170.878 18.4454C170.636 18.4454 170.402 18.4151 170.175 18.3546C169.963 18.279 169.805 18.1656 169.699 18.0144C169.926 17.712 170.115 17.334 170.266 16.8804C170.417 16.4268 170.493 16.0186 170.493 15.6557C170.493 15.0357 170.236 14.7258 169.721 14.7258C169.177 14.7258 168.724 15.0811 168.361 15.7918C168.013 16.5024 167.741 17.4096 167.544 18.5134L166.455 25L162.804 25.3629L165.095 13.433L168.02 13.0701L167.703 15.2021ZM175.291 25.3629C175.186 20.9629 174.989 17.8179 174.702 15.9278C174.596 15.2323 174.475 14.7333 174.339 14.4309C174.218 14.1134 174.029 13.8715 173.772 13.7052C174.271 13.2213 174.944 12.9794 175.79 12.9794C176.652 12.9794 177.257 13.2137 177.605 13.6825C177.953 14.1361 178.172 14.8845 178.263 15.9278C178.323 16.8351 178.353 18.1883 178.353 19.9876C178.353 21.2729 178.346 22.3766 178.331 23.299C179.208 22.2859 179.956 20.978 180.576 19.3753C181.196 17.7725 181.506 16.3134 181.506 14.9979C181.506 14.5594 181.453 14.1285 181.347 13.7052C181.559 13.4783 181.823 13.3045 182.141 13.1835C182.474 13.0474 182.836 12.9794 183.23 12.9794C184.318 12.9794 184.863 13.5388 184.863 14.6577C184.863 15.5347 184.59 16.5931 184.046 17.833C183.517 19.0577 182.882 20.1842 182.141 21.2124C181.672 21.8474 181.12 22.5127 180.485 23.2082C179.85 23.9038 179.2 24.501 178.535 25L175.291 25.3629ZM189.672 8.28453C190.277 8.28453 190.761 8.42818 191.124 8.71546C191.502 8.98763 191.691 9.38075 191.691 9.89484C191.691 10.4241 191.494 10.8323 191.101 11.1196C190.723 11.3918 190.224 11.5278 189.604 11.5278C189 11.5278 188.508 11.3918 188.13 11.1196C187.752 10.8474 187.563 10.4543 187.563 9.9402C187.563 9.41099 187.76 9.00275 188.153 8.71546C188.546 8.42818 189.053 8.28453 189.672 8.28453ZM188.992 22.1196C188.916 22.5278 188.879 22.8454 188.879 23.0722C188.879 23.3595 188.947 23.5938 189.083 23.7753C189.234 23.9567 189.453 24.055 189.74 24.0701C189.604 24.5237 189.325 24.8639 188.901 25.0907C188.478 25.3326 187.994 25.4536 187.45 25.4536C186.815 25.4536 186.308 25.2873 185.93 24.9546C185.567 24.622 185.386 24.1457 185.386 23.5258C185.386 23.1326 185.461 22.5052 185.613 21.6433C185.764 20.7814 185.9 20.0557 186.021 19.466L187.223 13.433L190.784 13.0701L188.992 22.1196ZM198.656 12.9794C200.969 12.9794 202.126 13.8715 202.126 15.6557C202.126 16.9107 201.566 17.8859 200.448 18.5814C199.344 19.277 197.839 19.6247 195.934 19.6247H195.14C195.095 20.033 195.072 20.4186 195.072 20.7814C195.072 21.5375 195.224 22.112 195.526 22.5052C195.828 22.8832 196.342 23.0722 197.068 23.0722C197.703 23.0722 198.293 22.9361 198.837 22.6639C199.382 22.3766 199.797 21.9759 200.085 21.4619C200.448 21.6282 200.629 21.9608 200.629 22.4598C200.629 23.0041 200.417 23.5107 199.994 23.9794C199.586 24.433 199.026 24.7883 198.316 25.0454C197.605 25.3175 196.826 25.4536 195.98 25.4536C194.573 25.4536 193.5 25.068 192.759 24.2969C192.018 23.5107 191.648 22.3162 191.648 20.7134C191.648 19.3677 191.905 18.1052 192.419 16.9258C192.948 15.7464 193.734 14.7938 194.777 14.068C195.836 13.3423 197.129 12.9794 198.656 12.9794ZM198.157 14.2041C197.492 14.2041 196.909 14.6048 196.41 15.4062C195.912 16.2076 195.541 17.266 195.299 18.5814C196.388 18.5814 197.303 18.3017 198.043 17.7423C198.784 17.1828 199.155 16.4268 199.155 15.4742C199.155 14.6275 198.822 14.2041 198.157 14.2041ZM203.775 25.3629C203.669 20.9629 203.472 17.8179 203.185 15.9278C203.079 15.2323 202.958 14.7333 202.822 14.4309C202.701 14.1134 202.512 13.8715 202.255 13.7052C202.754 13.2213 203.435 12.9794 204.297 12.9794C205.173 12.9794 205.778 13.2137 206.111 13.6825C206.459 14.1512 206.67 14.8997 206.746 15.9278C206.806 16.8955 206.837 18.143 206.837 19.6701L206.814 23.299C207.661 22.3464 208.356 21.0687 208.901 19.466C209.445 17.8481 209.717 16.3663 209.717 15.0206C209.717 14.567 209.664 14.1285 209.558 13.7052C210.012 13.2213 210.617 12.9794 211.373 12.9794C212.038 12.9794 212.477 13.1911 212.688 13.6144C212.915 14.0227 213.059 14.6577 213.119 15.5196C213.195 16.6536 213.233 18.1203 213.233 19.9196L213.21 22.5278C213.195 22.6942 213.187 22.9512 213.187 23.299C214.049 22.3464 214.745 21.0687 215.274 19.466C215.818 17.8632 216.09 16.3814 216.09 15.0206C216.09 14.567 216.037 14.1285 215.932 13.7052C216.143 13.4783 216.408 13.3045 216.725 13.1835C217.058 13.0474 217.421 12.9794 217.814 12.9794C218.903 12.9794 219.447 13.5388 219.447 14.6577C219.447 15.5347 219.182 16.5856 218.653 17.8103C218.124 19.0351 217.481 20.1691 216.725 21.2124C215.501 22.8454 214.336 24.1079 213.233 25L210.466 25.3402C210.435 23.3897 210.398 21.8928 210.352 20.8495C209.944 21.666 209.422 22.4371 208.787 23.1629C208.167 23.8735 207.494 24.4859 206.769 25L203.775 25.3629Z" fill="black"/>
<path d="M137.466 31.6226C137.466 32.303 137.254 32.923 136.831 33.4824C136.407 34.0419 135.863 34.4577 135.198 34.7299C136.286 34.9415 137.125 35.3951 137.715 36.0907C138.32 36.7862 138.622 37.6783 138.622 38.767C138.622 39.8103 138.312 40.6797 137.692 41.3752C137.088 42.0556 136.286 42.5622 135.288 42.8948C134.306 43.2123 133.232 43.3711 132.068 43.3711C130.51 43.3711 128.862 43.2652 127.123 43.0536V28.3113C129.059 28.145 130.737 28.0618 132.158 28.0618C133.807 28.0618 135.099 28.3189 136.037 28.8329C136.989 29.347 137.466 30.2769 137.466 31.6226ZM130.888 34.3443C131.145 34.3896 131.44 34.4123 131.773 34.4123C133.345 34.4123 134.132 33.558 134.132 31.8494C134.132 30.4281 133.444 29.7175 132.068 29.7175C131.69 29.7175 131.297 29.7553 130.888 29.8309V34.3443ZM130.888 41.602C131.297 41.6927 131.705 41.7381 132.113 41.7381C133.005 41.7381 133.678 41.4886 134.132 40.9896C134.6 40.4907 134.835 39.7725 134.835 38.835C134.835 37.8068 134.578 37.0659 134.064 36.6123C133.565 36.1587 132.778 35.9319 131.705 35.9319C131.463 35.9319 131.191 35.947 130.888 35.9773V41.602ZM150.576 40.8762C150.576 41.2996 150.629 41.6701 150.734 41.9876C150.84 42.3051 151.022 42.5848 151.279 42.8268C151.097 43.0384 150.84 43.1972 150.508 43.3031C150.19 43.424 149.865 43.4845 149.532 43.4845C148.988 43.4845 148.527 43.3711 148.149 43.1443C147.771 42.9024 147.514 42.5622 147.378 42.1237C147.075 42.6378 146.652 43.0158 146.108 43.2577C145.578 43.5147 144.981 43.6433 144.316 43.6433C143.212 43.6433 142.365 43.4089 141.776 42.9402C141.201 42.4714 140.816 41.8213 140.619 40.9896C140.422 40.158 140.324 39.0921 140.324 37.7917V31.5773H143.84V37.6783C143.84 38.6309 143.862 39.402 143.908 39.9917C143.968 40.5663 144.112 41.0501 144.339 41.4433C144.58 41.8213 144.951 42.0103 145.45 42.0103C146.024 42.0103 146.44 41.7683 146.697 41.2845C146.969 40.8006 147.106 40.1958 147.106 39.4701V31.5773H150.576V40.8762ZM163.308 40.8762C163.308 41.2996 163.36 41.6701 163.466 41.9876C163.572 42.3051 163.754 42.5848 164.011 42.8268C163.844 43.0384 163.595 43.1972 163.262 43.3031C162.945 43.424 162.62 43.4845 162.287 43.4845C161.727 43.4845 161.259 43.3711 160.881 43.1443C160.503 42.9024 160.246 42.5622 160.11 42.1237C159.822 42.6378 159.406 43.0158 158.862 43.2577C158.333 43.5147 157.736 43.6433 157.07 43.6433C155.513 43.6433 154.387 43.0611 153.691 41.8969C152.995 40.7175 152.648 39.1903 152.648 37.3154C152.648 35.3649 153.116 33.8453 154.054 32.7567C154.991 31.668 156.398 31.1237 158.272 31.1237C158.892 31.1237 159.414 31.1841 159.837 31.3051V27.268L163.308 26.9051V40.8762ZM159.837 33.0288C159.323 32.6659 158.779 32.4845 158.204 32.4845C157.403 32.4845 156.881 32.923 156.639 33.8C156.398 34.6618 156.277 35.7958 156.277 37.202C156.277 38.578 156.398 39.7271 156.639 40.6494C156.897 41.5567 157.411 42.0103 158.182 42.0103C158.741 42.0103 159.157 41.7683 159.429 41.2845C159.701 40.8006 159.837 40.211 159.837 39.5154V33.0288ZM176.11 40.8762C176.11 41.2996 176.162 41.6701 176.268 41.9876C176.374 42.3051 176.556 42.5848 176.813 42.8268C176.646 43.0384 176.397 43.1972 176.064 43.3031C175.747 43.424 175.422 43.4845 175.089 43.4845C174.529 43.4845 174.061 43.3711 173.683 43.1443C173.305 42.9024 173.048 42.5622 172.912 42.1237C172.624 42.6378 172.209 43.0158 171.664 43.2577C171.135 43.5147 170.538 43.6433 169.872 43.6433C168.315 43.6433 167.189 43.0611 166.493 41.8969C165.798 40.7175 165.45 39.1903 165.45 37.3154C165.45 35.3649 165.918 33.8453 166.856 32.7567C167.793 31.668 169.2 31.1237 171.075 31.1237C171.694 31.1237 172.216 31.1841 172.639 31.3051V27.268L176.11 26.9051V40.8762ZM172.639 33.0288C172.125 32.6659 171.581 32.4845 171.006 32.4845C170.205 32.4845 169.683 32.923 169.442 33.8C169.2 34.6618 169.079 35.7958 169.079 37.202C169.079 38.578 169.2 39.7271 169.442 40.6494C169.699 41.5567 170.213 42.0103 170.984 42.0103C171.543 42.0103 171.959 41.7683 172.231 41.2845C172.503 40.8006 172.639 40.211 172.639 39.5154V33.0288ZM188.458 31.5773L183.083 47.5216L179.613 47.2268L182.062 41.9195H180.656L177.775 31.5773H181.404L183.355 40.2866L185.464 31.5773H188.458Z" fill="black"/>
</svg>
