<svg width="162" height="56" viewBox="0 0 162 56" fill="none" xmlns="http://www.w3.org/2000/svg">
<rect x="0.5" y="0.5" width="55" height="55" rx="27.5" stroke="#CAE28D"/>
<path d="M28 16C28.5523 16 29 16.4477 29 17V27H40C40.5523 27 41 27.4477 41 28V38C41 38.5523 40.5523 39 40 39H28C27.4477 39 27 38.5523 27 38V28H16C15.4477 28 15 27.5523 15 27V17C15 16.4477 15.4477 16 16 16H28Z" fill="#CAE28D"/>
<path d="M72.7765 37H69.8725V19.144H72.7765V37ZM79.3759 37.312C76.8559 37.312 75.3199 35.848 75.3199 33.616C75.3199 31.432 76.9039 30.064 79.7119 29.848L83.2639 29.584V29.32C83.2639 27.712 82.3039 27.064 80.8159 27.064C79.0879 27.064 78.1279 27.784 78.1279 29.032H75.6319C75.6319 26.464 77.7439 24.784 80.9599 24.784C84.1519 24.784 86.1199 26.512 86.1199 29.8V37H83.5519L83.3359 35.248C82.8319 36.472 81.2239 37.312 79.3759 37.312ZM80.3359 35.104C82.1359 35.104 83.2879 34.024 83.2879 32.2V31.576L80.8159 31.768C78.9919 31.936 78.2959 32.536 78.2959 33.496C78.2959 34.576 79.0159 35.104 80.3359 35.104ZM88.9964 42.496V25.144H91.7084L91.9004 26.944C92.6204 25.576 94.1804 24.784 95.9804 24.784C99.3164 24.784 101.524 27.208 101.524 30.928C101.524 34.624 99.5084 37.312 95.9804 37.312C94.2044 37.312 92.6684 36.616 91.9244 35.416V42.496H88.9964ZM91.9484 31.072C91.9484 33.208 93.2684 34.672 95.2844 34.672C97.3484 34.672 98.5724 33.184 98.5724 31.072C98.5724 28.96 97.3484 27.448 95.2844 27.448C93.2684 27.448 91.9484 28.936 91.9484 31.072ZM107.36 19.456V34.168H114.704V37H104.288V19.456H107.36ZM115.839 31.048C115.839 27.352 118.503 24.808 122.175 24.808C125.847 24.808 128.511 27.352 128.511 31.048C128.511 34.744 125.847 37.288 122.175 37.288C118.503 37.288 115.839 34.744 115.839 31.048ZM118.767 31.048C118.767 33.208 120.159 34.672 122.175 34.672C124.191 34.672 125.583 33.208 125.583 31.048C125.583 28.888 124.191 27.424 122.175 27.424C120.159 27.424 118.767 28.888 118.767 31.048ZM130.136 31.048C130.136 27.376 132.56 24.784 136.064 24.784C139.304 24.784 141.512 26.584 141.824 29.44H138.896C138.56 28.096 137.576 27.4 136.184 27.4C134.312 27.4 133.064 28.816 133.064 31.048C133.064 33.28 134.216 34.672 136.088 34.672C137.552 34.672 138.584 33.952 138.896 32.656H141.848C141.488 35.416 139.184 37.312 136.088 37.312C132.488 37.312 130.136 34.816 130.136 31.048ZM147.556 37.312C145.036 37.312 143.5 35.848 143.5 33.616C143.5 31.432 145.084 30.064 147.892 29.848L151.444 29.584V29.32C151.444 27.712 150.484 27.064 148.996 27.064C147.268 27.064 146.308 27.784 146.308 29.032H143.812C143.812 26.464 145.924 24.784 149.14 24.784C152.332 24.784 154.3 26.512 154.3 29.8V37H151.732L151.516 35.248C151.012 36.472 149.404 37.312 147.556 37.312ZM148.516 35.104C150.316 35.104 151.468 34.024 151.468 32.2V31.576L148.996 31.768C147.172 31.936 146.476 32.536 146.476 33.496C146.476 34.576 147.196 35.104 148.516 35.104ZM160.128 37H157.224V19.144H160.128V37Z" fill="#4A6013"/>
</svg>
