<svg width="19" height="19" viewBox="0 0 19 19" fill="none" xmlns="http://www.w3.org/2000/svg">
<path d="M6.12283 2.37024C6.12283 2.37024 3.08788 2.09795 2.59364 2.59219C2.09939 3.08643 2.37173 6.12137 2.37173 6.12137" stroke="#EA852F" stroke-width="1.14779" stroke-linecap="round" stroke-linejoin="round"/>
<path d="M6.12283 15.9938C6.12283 15.9938 3.08788 16.2661 2.59364 15.7719C2.09939 15.2776 2.37173 12.2427 2.37173 12.2427" stroke="#EA852F" stroke-width="1.14779" stroke-linecap="round" stroke-linejoin="round"/>
<path d="M12.2441 2.37024C12.2441 2.37024 15.2791 2.09795 15.7734 2.59219C16.2676 3.08643 15.9953 6.12137 15.9953 6.12137" stroke="#EA852F" stroke-width="1.14779" stroke-linecap="round" stroke-linejoin="round"/>
<path d="M12.2441 15.9938C12.2441 15.9938 15.2791 16.2661 15.7734 15.7719C16.2676 15.2776 15.9953 12.2427 15.9953 12.2427" stroke="#EA852F" stroke-width="1.14779" stroke-linecap="round" stroke-linejoin="round"/>
<path d="M10.7227 7.65072L15.3534 3.02002" stroke="#EA852F" stroke-width="1.14779" stroke-linecap="round" stroke-linejoin="round"/>
<path d="M7.65166 10.7144L2.78711 15.595" stroke="#EA852F" stroke-width="1.14779" stroke-linecap="round" stroke-linejoin="round"/>
<path d="M7.65248 7.6536L2.94531 2.95264" stroke="#EA852F" stroke-width="1.14779" stroke-linecap="round" stroke-linejoin="round"/>
<path d="M10.6992 10.7144L15.71 15.685" stroke="#EA852F" stroke-width="1.14779" stroke-linecap="round" stroke-linejoin="round"/>
</svg>
