<svg width="193" height="194" viewBox="0 0 193 194" fill="none" xmlns="http://www.w3.org/2000/svg">
<path fill-rule="evenodd" clip-rule="evenodd" d="M47.5095 168.429C47.8383 168.155 48.3066 168.099 48.6863 168.296C49.2648 168.597 49.4363 169.346 49.0515 169.872C37.5513 185.585 30.0265 196.917 26.1863 192.102C26.1218 192.021 26.0642 191.926 26.0261 191.83C24.6749 188.409 30.668 182.466 47.5095 168.429ZM35.6375 145.805C35.9517 145.644 36.3334 145.655 36.6345 145.839C37.1899 146.179 37.2857 146.947 36.8328 147.415C28.1084 156.426 22.4535 162.973 18.8113 158.84C18.7563 158.778 18.7037 158.706 18.6648 158.632C17.2417 155.934 22.0174 152.773 35.6375 145.805ZM35.5379 121.796C35.9609 121.789 36.3518 122.05 36.4978 122.447C36.7049 123.011 36.3645 123.629 35.7791 123.763C14.2089 128.688 -0.775223 132.745 0.0310302 126.775C0.0458619 126.665 0.0780231 126.551 0.126733 126.452C1.79947 123.048 11.2128 122.192 35.5379 121.796ZM9.15798 96.2843C9.43423 93.2591 15.0813 93.2924 30.0867 95.0851C30.4344 95.1267 30.7429 95.3461 30.8914 95.6632C31.1679 96.2545 30.8222 96.9496 30.1844 97.088C18.1362 99.7031 9.94748 101.979 9.1658 96.5363C9.15409 96.4548 9.15051 96.3664 9.15798 96.2843ZM156.58 92.3273C176.367 78.7659 189.762 68.6838 191.992 75.6984C192.024 75.7987 192.045 75.9096 192.047 76.0148C192.135 80.4423 182.831 84.9296 157.738 94.5275C157.261 94.7098 156.711 94.5882 156.364 94.214C155.845 93.6536 155.95 92.7593 156.58 92.3273ZM4.73806 64.5373C7.68338 61.2305 17.5575 64.2649 42.4842 74.2863C42.9575 74.4766 43.278 74.9402 43.2781 75.4503C43.2781 76.2144 42.5935 76.7991 41.8377 76.6877C18.1068 73.1799 1.42924 71.4667 4.56326 64.8068C4.60811 64.7116 4.66809 64.6158 4.73806 64.5373ZM158.555 55.0861C161.146 52.7281 166.306 56.9706 163.148 60.0597C159.99 63.1489 154.681 66.3318 154.347 66.5646C151.944 68.3965 150.299 68.9729 148.692 69.2931C147.697 69.4913 146.779 68.6147 147.022 67.6291C147.594 65.3117 149.135 62.8307 154.73 58.5294C154.756 58.5064 155.993 57.4188 158.555 55.0861ZM39.2371 51.7863C36.5287 49.5645 39.9779 43.8446 43.492 46.5216C47.006 49.1988 50.9242 53.9905 51.2029 54.2873C53.3638 56.4002 54.1719 57.9444 54.7215 59.4875C55.0621 60.444 54.3278 61.4789 53.3172 61.381C50.9415 61.1508 48.2642 59.985 43.198 55.0724C43.1844 55.0609 41.9305 53.9957 39.2371 51.7863ZM59.0808 10.3224C55.6366 -0.00734056 63.2861 -1.8123 64.8201 1.52262C66.354 4.85753 75.2014 31.9651 75.533 33.2785C78.3478 43.4244 79.328 49.042 79.7937 55.1203C79.9149 56.7069 77.866 57.3086 77.0974 55.9152C72.6791 47.9035 69.1436 39.8849 63.6726 23.713C63.6705 23.7075 62.5219 20.6428 59.0808 10.3224ZM137.689 16.9005C141.72 10.8027 148.748 16.2297 143.917 24.1564C139.085 32.0831 132.114 42.4586 131.567 43.0812C127.394 48.294 124.909 50.3198 122.007 51.6671C120.861 52.199 119.706 51.068 120.11 49.8712C122.878 41.6764 125.648 35.5276 132.506 24.9865C132.518 24.966 133.68 22.9667 137.689 16.9005ZM96.9529 22.4953C97.1408 17.3408 103.353 17.5923 103.354 24.1261C103.355 30.6603 102.967 39.4782 102.867 40.0597C102.349 44.138 101.715 46.3196 100.741 48.1056C100.128 49.2291 98.5172 48.8872 98.2439 47.6369C97.0651 42.2432 96.557 37.616 96.8006 29.2658C96.8006 29.2658 96.7653 27.6501 96.9529 22.4953Z" fill="#CAE28D" fill-opacity="0.51"/>
</svg>
