<svg width="19" height="19" viewBox="0 0 19 19" fill="none" xmlns="http://www.w3.org/2000/svg">
<path d="M2.90002 6.91522C2.35873 7.20823 0.939513 7.80653 1.80391 8.55519C2.22616 8.92088 2.69645 9.18242 3.28769 9.18242H6.66153C7.25278 9.18242 7.72303 8.92088 8.14534 8.55519C9.0097 7.80653 7.5905 7.20823 7.04921 6.91522C5.77991 6.22813 4.16932 6.22813 2.90002 6.91522Z" stroke="#EA852F" stroke-width="1.14779"/>
<path d="M6.69531 3.26935C6.69531 4.22981 5.92449 5.00841 4.97363 5.00841C4.02278 5.00841 3.25195 4.22981 3.25195 3.26935C3.25195 2.30888 4.02278 1.53027 4.97363 1.53027C5.92449 1.53027 6.69531 2.30888 6.69531 3.26935Z" stroke="#EA852F" stroke-width="1.14779"/>
<path d="M3.06055 11.4775C3.06055 14.0158 5.11345 16.0687 7.6517 16.0687L6.99582 14.7569" stroke="#EA852F" stroke-width="1.14779" stroke-linecap="round" stroke-linejoin="round"/>
<path d="M15.304 6.88656C15.304 4.34831 13.2511 2.29541 10.7129 2.29541L11.3687 3.60717" stroke="#EA852F" stroke-width="1.14779" stroke-linecap="round" stroke-linejoin="round"/>
<path d="M11.316 14.5671C10.7747 14.86 9.35555 15.4584 10.2199 16.207C10.6422 16.5727 11.1124 16.8342 11.7037 16.8342H15.0776C15.6688 16.8342 16.139 16.5727 16.5614 16.207C17.4257 15.4584 16.0065 14.86 15.4652 14.5671C14.1959 13.88 12.5853 13.88 11.316 14.5671Z" stroke="#EA852F" stroke-width="1.14779"/>
<path d="M15.1133 10.9212C15.1133 11.8816 14.3424 12.6603 13.3916 12.6603C12.4408 12.6603 11.6699 11.8816 11.6699 10.9212C11.6699 9.96071 12.4408 9.18213 13.3916 9.18213C14.3424 9.18213 15.1133 9.96071 15.1133 10.9212Z" stroke="#EA852F" stroke-width="1.14779"/>
</svg>
