<svg width="19" height="18" viewBox="0 0 19 18" fill="none" xmlns="http://www.w3.org/2000/svg">
<path d="M14.6196 10.3392C12.4786 14.9064 11.4082 17.19 9.59269 17.2236C7.77726 17.2572 6.62306 15.0147 4.31461 10.5299L2.74267 7.47572C0.969812 4.03143 0.0834153 2.30924 0.689118 1.4621C0.851883 1.2344 1.06847 1.04496 1.32203 0.908656C2.26487 0.401815 4.03063 1.35517 7.56207 3.26182C8.34537 3.68475 8.73706 3.89625 9.16176 3.92751C9.28499 3.93654 9.40885 3.93425 9.53165 3.92066C9.95491 3.87373 10.3385 3.64788 11.1056 3.19631C14.5641 1.16035 16.2934 0.142372 17.2544 0.613992C17.5128 0.740793 17.7363 0.922066 17.9074 1.14364C18.5439 1.96777 17.7218 3.72155 16.0776 7.22909L14.6196 10.3392Z" fill="#FFCB6B" stroke="white"/>
</svg>
