<svg width="19" height="19" viewBox="0 0 19 19" fill="none" xmlns="http://www.w3.org/2000/svg">
<path d="M7.41542 2.76975C8.274 1.93797 8.70327 1.52208 9.22842 1.5304C9.75349 1.53871 10.1694 1.96799 11.0012 2.82655C11.833 3.68511 12.2489 4.11439 12.2405 4.63952C12.2323 5.16464 11.803 5.58053 10.9444 6.41232C10.0858 7.2441 9.65654 7.65998 9.13139 7.65168C8.60632 7.64336 8.19044 7.21408 7.35862 6.35552C6.52683 5.49696 6.11095 5.06768 6.11926 4.54256C6.12758 4.01743 6.55686 3.60154 7.41542 2.76975Z" stroke="#EA852F" stroke-width="1.14779"/>
<path d="M5.35525 10.33C5.35525 11.3865 4.49878 12.2429 3.44228 12.2429C2.38577 12.2429 1.5293 11.3865 1.5293 10.33C1.5293 9.27347 2.38577 8.41699 3.44228 8.41699C4.49878 8.41699 5.35525 9.27347 5.35525 10.33Z" stroke="#EA852F" stroke-width="1.14779"/>
<path d="M16.8318 10.33C16.8318 9.27347 15.9753 8.41699 14.9188 8.41699C13.8623 8.41699 13.0059 9.27347 13.0059 10.33C13.0059 11.3865 13.8623 12.2429 14.9188 12.2429C15.9753 12.2429 16.8318 11.3865 16.8318 10.33Z" stroke="#EA852F" stroke-width="1.14779"/>
<path d="M9.17969 7.65186V13.0082" stroke="#EA852F" stroke-width="1.14779" stroke-linecap="round" stroke-linejoin="round"/>
<path d="M7.26823 6.50391L4.97266 8.79947" stroke="#EA852F" stroke-width="1.14779" stroke-linecap="round" stroke-linejoin="round"/>
<path d="M11.0938 6.50391L13.3893 8.79947" stroke="#EA852F" stroke-width="1.14779" stroke-linecap="round" stroke-linejoin="round"/>
<path d="M7.26758 14.8448C7.26758 13.979 7.26758 13.5462 7.53652 13.2773C7.80543 13.0083 8.2383 13.0083 9.10404 13.0083H9.25708C10.1228 13.0083 10.5557 13.0083 10.8246 13.2773C11.0935 13.5462 11.0935 13.979 11.0935 14.8448V14.9978C11.0935 15.8635 11.0935 16.2964 10.8246 16.5653C10.5557 16.8343 10.1228 16.8343 9.25708 16.8343H9.10404C8.2383 16.8343 7.80543 16.8343 7.53652 16.5653C7.26758 16.2964 7.26758 15.8635 7.26758 14.9978V14.8448Z" stroke="#EA852F" stroke-width="1.14779"/>
</svg>
